<?xml version="1.0" encoding="utf-8" standalone="no"?>
<!DOCTYPE svg PUBLIC "-//W3C//DTD SVG 1.1//EN"
  "http://www.w3.org/Graphics/SVG/1.1/DTD/svg11.dtd">
<!-- Created with matplotlib (https://matplotlib.org/) -->
<svg height="258.158317pt" version="1.1" viewBox="0 0 378.285756 258.158317" width="378.285756pt" xmlns="http://www.w3.org/2000/svg" xmlns:xlink="http://www.w3.org/1999/xlink">
 <defs>
  <style type="text/css">
*{stroke-linecap:butt;stroke-linejoin:round;}
  </style>
 </defs>
 <g id="figure_1">
  <g id="patch_1">
   <path d="M 0 258.158317 
L 378.285756 258.158317 
L 378.285756 0 
L 0 0 
z
" style="fill:#ffffff;"/>
  </g>
  <g id="axes_1">
   <g id="patch_2">
    <path d="M 36.285756 224.64 
L 371.085756 224.64 
L 371.085756 7.2 
L 36.285756 7.2 
z
" style="fill:#ffffff;"/>
   </g>
   <g id="PathCollection_1">
    <defs>
     <path d="M 0 3 
C 0.795609 3 1.55874 2.683901 2.12132 2.12132 
C 2.683901 1.55874 3 0.795609 3 0 
C 3 -0.795609 2.683901 -1.55874 2.12132 -2.12132 
C 1.55874 -2.683901 0.795609 -3 0 -3 
C -0.795609 -3 -1.55874 -2.683901 -2.12132 -2.12132 
C -2.683901 -1.55874 -3 -0.795609 -3 0 
C -3 0.795609 -2.683901 1.55874 -2.12132 2.12132 
C -1.55874 2.683901 -0.795609 3 0 3 
z
" id="m536b05d861" style="stroke:#7fc97f;"/>
    </defs>
    <g clip-path="url(#p8682b7ab61)">
     <use style="fill:#7fc97f;stroke:#7fc97f;" x="52.223938" xlink:href="#m536b05d861" y="212.719534"/>
     <use style="fill:#7fc97f;stroke:#7fc97f;" x="85.882119" xlink:href="#m536b05d861" y="202.300864"/>
     <use style="fill:#7fc97f;stroke:#7fc97f;" x="119.540301" xlink:href="#m536b05d861" y="202.70979"/>
     <use style="fill:#7fc97f;stroke:#7fc97f;" x="153.198483" xlink:href="#m536b05d861" y="181.599993"/>
     <use style="fill:#7fc97f;stroke:#7fc97f;" x="186.856665" xlink:href="#m536b05d861" y="138.125122"/>
     <use style="fill:#7fc97f;stroke:#7fc97f;" x="220.514847" xlink:href="#m536b05d861" y="90.414486"/>
     <use style="fill:#7fc97f;stroke:#7fc97f;" x="254.173028" xlink:href="#m536b05d861" y="75.753272"/>
     <use style="fill:#7fc97f;stroke:#7fc97f;" x="287.83121" xlink:href="#m536b05d861" y="75.025672"/>
     <use style="fill:#7fc97f;stroke:#7fc97f;" x="321.489392" xlink:href="#m536b05d861" y="82.580454"/>
     <use style="fill:#7fc97f;stroke:#7fc97f;" x="355.147574" xlink:href="#m536b05d861" y="102.775754"/>
    </g>
   </g>
   <g id="PathCollection_2">
    <g clip-path="url(#p8682b7ab61)">
     <use style="fill:#7fc97f;stroke:#7fc97f;" x="52.223938" xlink:href="#m536b05d861" y="209.055754"/>
     <use style="fill:#7fc97f;stroke:#7fc97f;" x="85.882119" xlink:href="#m536b05d861" y="197.694338"/>
     <use style="fill:#7fc97f;stroke:#7fc97f;" x="119.540301" xlink:href="#m536b05d861" y="214.246459"/>
     <use style="fill:#7fc97f;stroke:#7fc97f;" x="153.198483" xlink:href="#m536b05d861" y="201.152987"/>
     <use style="fill:#7fc97f;stroke:#7fc97f;" x="186.856665" xlink:href="#m536b05d861" y="194.302688"/>
     <use style="fill:#7fc97f;stroke:#7fc97f;" x="220.514847" xlink:href="#m536b05d861" y="177.120689"/>
     <use style="fill:#7fc97f;stroke:#7fc97f;" x="254.173028" xlink:href="#m536b05d861" y="169.153064"/>
     <use style="fill:#7fc97f;stroke:#7fc97f;" x="287.83121" xlink:href="#m536b05d861" y="169.22401"/>
     <use style="fill:#7fc97f;stroke:#7fc97f;" x="321.489392" xlink:href="#m536b05d861" y="187.685726"/>
     <use style="fill:#7fc97f;stroke:#7fc97f;" x="355.147574" xlink:href="#m536b05d861" y="191.657757"/>
    </g>
   </g>
   <g id="PathCollection_3">
    <defs>
     <path d="M 0 3 
C 0.795609 3 1.55874 2.683901 2.12132 2.12132 
C 2.683901 1.55874 3 0.795609 3 0 
C 3 -0.795609 2.683901 -1.55874 2.12132 -2.12132 
C 1.55874 -2.683901 0.795609 -3 0 -3 
C -0.795609 -3 -1.55874 -2.683901 -2.12132 -2.12132 
C -2.683901 -1.55874 -3 -0.795609 -3 0 
C -3 0.795609 -2.683901 1.55874 -2.12132 2.12132 
C -1.55874 2.683901 -0.795609 3 0 3 
z
" id="m14d2de804b" style="stroke:#beaed4;"/>
    </defs>
    <g clip-path="url(#p8682b7ab61)">
     <use style="fill:#beaed4;stroke:#beaed4;" x="52.223938" xlink:href="#m14d2de804b" y="208.356107"/>
     <use style="fill:#beaed4;stroke:#beaed4;" x="85.882119" xlink:href="#m14d2de804b" y="200.881699"/>
     <use style="fill:#beaed4;stroke:#beaed4;" x="119.540301" xlink:href="#m14d2de804b" y="188.09778"/>
     <use style="fill:#beaed4;stroke:#beaed4;" x="153.198483" xlink:href="#m14d2de804b" y="175.873922"/>
     <use style="fill:#beaed4;stroke:#beaed4;" x="186.856665" xlink:href="#m14d2de804b" y="172.414796"/>
     <use style="fill:#beaed4;stroke:#beaed4;" x="220.514847" xlink:href="#m14d2de804b" y="158.251131"/>
     <use style="fill:#beaed4;stroke:#beaed4;" x="254.173028" xlink:href="#m14d2de804b" y="150.569753"/>
     <use style="fill:#beaed4;stroke:#beaed4;" x="287.83121" xlink:href="#m14d2de804b" y="141.602691"/>
     <use style="fill:#beaed4;stroke:#beaed4;" x="321.489392" xlink:href="#m14d2de804b" y="177.197928"/>
     <use style="fill:#beaed4;stroke:#beaed4;" x="355.147574" xlink:href="#m14d2de804b" y="180.393599"/>
    </g>
   </g>
   <g id="PathCollection_4">
    <g clip-path="url(#p8682b7ab61)">
     <use style="fill:#beaed4;stroke:#beaed4;" x="52.223938" xlink:href="#m14d2de804b" y="209.929131"/>
     <use style="fill:#beaed4;stroke:#beaed4;" x="85.882119" xlink:href="#m14d2de804b" y="198.989996"/>
     <use style="fill:#beaed4;stroke:#beaed4;" x="119.540301" xlink:href="#m14d2de804b" y="205.109133"/>
     <use style="fill:#beaed4;stroke:#beaed4;" x="153.198483" xlink:href="#m14d2de804b" y="206.853141"/>
     <use style="fill:#beaed4;stroke:#beaed4;" x="186.856665" xlink:href="#m14d2de804b" y="196.877455"/>
     <use style="fill:#beaed4;stroke:#beaed4;" x="220.514847" xlink:href="#m14d2de804b" y="180.376183"/>
     <use style="fill:#beaed4;stroke:#beaed4;" x="254.173028" xlink:href="#m14d2de804b" y="182.62573"/>
     <use style="fill:#beaed4;stroke:#beaed4;" x="287.83121" xlink:href="#m14d2de804b" y="174.597759"/>
     <use style="fill:#beaed4;stroke:#beaed4;" x="321.489392" xlink:href="#m14d2de804b" y="184.418677"/>
     <use style="fill:#beaed4;stroke:#beaed4;" x="355.147574" xlink:href="#m14d2de804b" y="196.888132"/>
    </g>
   </g>
   <g id="PathCollection_5">
    <defs>
     <path d="M 0 3 
C 0.795609 3 1.55874 2.683901 2.12132 2.12132 
C 2.683901 1.55874 3 0.795609 3 0 
C 3 -0.795609 2.683901 -1.55874 2.12132 -2.12132 
C 1.55874 -2.683901 0.795609 -3 0 -3 
C -0.795609 -3 -1.55874 -2.683901 -2.12132 -2.12132 
C -2.683901 -1.55874 -3 -0.795609 -3 0 
C -3 0.795609 -2.683901 1.55874 -2.12132 2.12132 
C -1.55874 2.683901 -0.795609 3 0 3 
z
" id="me5f4e7c929" style="stroke:#fdc086;"/>
    </defs>
    <g clip-path="url(#p8682b7ab61)">
     <use style="fill:#fdc086;stroke:#fdc086;" x="52.223938" xlink:href="#me5f4e7c929" y="202.807026"/>
     <use style="fill:#fdc086;stroke:#fdc086;" x="85.882119" xlink:href="#me5f4e7c929" y="207.574071"/>
     <use style="fill:#fdc086;stroke:#fdc086;" x="119.540301" xlink:href="#me5f4e7c929" y="190.752697"/>
     <use style="fill:#fdc086;stroke:#fdc086;" x="153.198483" xlink:href="#me5f4e7c929" y="167.207401"/>
     <use style="fill:#fdc086;stroke:#fdc086;" x="186.856665" xlink:href="#me5f4e7c929" y="131.022802"/>
     <use style="fill:#fdc086;stroke:#fdc086;" x="220.514847" xlink:href="#me5f4e7c929" y="123.605632"/>
     <use style="fill:#fdc086;stroke:#fdc086;" x="254.173028" xlink:href="#me5f4e7c929" y="139.095976"/>
     <use style="fill:#fdc086;stroke:#fdc086;" x="287.83121" xlink:href="#me5f4e7c929" y="147.499273"/>
     <use style="fill:#fdc086;stroke:#fdc086;" x="321.489392" xlink:href="#me5f4e7c929" y="162.682806"/>
     <use style="fill:#fdc086;stroke:#fdc086;" x="355.147574" xlink:href="#me5f4e7c929" y="184.879477"/>
    </g>
   </g>
   <g id="PathCollection_6">
    <defs>
     <path d="M 0 3 
C 0.795609 3 1.55874 2.683901 2.12132 2.12132 
C 2.683901 1.55874 3 0.795609 3 0 
C 3 -0.795609 2.683901 -1.55874 2.12132 -2.12132 
C 1.55874 -2.683901 0.795609 -3 0 -3 
C -0.795609 -3 -1.55874 -2.683901 -2.12132 -2.12132 
C -2.683901 -1.55874 -3 -0.795609 -3 0 
C -3 0.795609 -2.683901 1.55874 -2.12132 2.12132 
C -1.55874 2.683901 -0.795609 3 0 3 
z
" id="mee6a5b759c" style="stroke:#ffff99;"/>
    </defs>
    <g clip-path="url(#p8682b7ab61)">
     <use style="fill:#ffff99;stroke:#ffff99;" x="52.223938" xlink:href="#mee6a5b759c" y="203.697548"/>
     <use style="fill:#ffff99;stroke:#ffff99;" x="85.882119" xlink:href="#mee6a5b759c" y="206.498649"/>
     <use style="fill:#ffff99;stroke:#ffff99;" x="119.540301" xlink:href="#mee6a5b759c" y="200.722737"/>
     <use style="fill:#ffff99;stroke:#ffff99;" x="153.198483" xlink:href="#mee6a5b759c" y="197.872421"/>
     <use style="fill:#ffff99;stroke:#ffff99;" x="186.856665" xlink:href="#mee6a5b759c" y="189.693515"/>
     <use style="fill:#ffff99;stroke:#ffff99;" x="220.514847" xlink:href="#mee6a5b759c" y="182.253235"/>
     <use style="fill:#ffff99;stroke:#ffff99;" x="254.173028" xlink:href="#mee6a5b759c" y="172.563193"/>
     <use style="fill:#ffff99;stroke:#ffff99;" x="287.83121" xlink:href="#mee6a5b759c" y="169.012113"/>
     <use style="fill:#ffff99;stroke:#ffff99;" x="321.489392" xlink:href="#mee6a5b759c" y="171.594825"/>
     <use style="fill:#ffff99;stroke:#ffff99;" x="355.147574" xlink:href="#mee6a5b759c" y="177.781359"/>
    </g>
   </g>
   <g id="PathCollection_7">
    <g clip-path="url(#p8682b7ab61)">
     <use style="fill:#ffff99;stroke:#ffff99;" x="52.223938" xlink:href="#mee6a5b759c" y="183.438119"/>
     <use style="fill:#ffff99;stroke:#ffff99;" x="85.882119" xlink:href="#mee6a5b759c" y="213.466317"/>
     <use style="fill:#ffff99;stroke:#ffff99;" x="119.540301" xlink:href="#mee6a5b759c" y="178.375087"/>
     <use style="fill:#ffff99;stroke:#ffff99;" x="153.198483" xlink:href="#mee6a5b759c" y="161.848413"/>
     <use style="fill:#ffff99;stroke:#ffff99;" x="186.856665" xlink:href="#mee6a5b759c" y="186.084417"/>
     <use style="fill:#ffff99;stroke:#ffff99;" x="220.514847" xlink:href="#mee6a5b759c" y="181.119362"/>
     <use style="fill:#ffff99;stroke:#ffff99;" x="254.173028" xlink:href="#mee6a5b759c" y="163.567193"/>
     <use style="fill:#ffff99;stroke:#ffff99;" x="287.83121" xlink:href="#mee6a5b759c" y="144.25328"/>
     <use style="fill:#ffff99;stroke:#ffff99;" x="321.489392" xlink:href="#mee6a5b759c" y="160.245147"/>
     <use style="fill:#ffff99;stroke:#ffff99;" x="355.147574" xlink:href="#mee6a5b759c" y="166.312113"/>
    </g>
   </g>
   <g id="PathCollection_8">
    <defs>
     <path d="M 0 3 
C 0.795609 3 1.55874 2.683901 2.12132 2.12132 
C 2.683901 1.55874 3 0.795609 3 0 
C 3 -0.795609 2.683901 -1.55874 2.12132 -2.12132 
C 1.55874 -2.683901 0.795609 -3 0 -3 
C -0.795609 -3 -1.55874 -2.683901 -2.12132 -2.12132 
C -2.683901 -1.55874 -3 -0.795609 -3 0 
C -3 0.795609 -2.683901 1.55874 -2.12132 2.12132 
C -1.55874 2.683901 -0.795609 3 0 3 
z
" id="m0473dd93d9" style="stroke:#386cb0;"/>
    </defs>
    <g clip-path="url(#p8682b7ab61)">
     <use style="fill:#386cb0;stroke:#386cb0;" x="52.223938" xlink:href="#m0473dd93d9" y="205.167757"/>
     <use style="fill:#386cb0;stroke:#386cb0;" x="85.882119" xlink:href="#m0473dd93d9" y="202.229915"/>
     <use style="fill:#386cb0;stroke:#386cb0;" x="119.540301" xlink:href="#m0473dd93d9" y="194.055074"/>
     <use style="fill:#386cb0;stroke:#386cb0;" x="153.198483" xlink:href="#m0473dd93d9" y="151.747938"/>
     <use style="fill:#386cb0;stroke:#386cb0;" x="186.856665" xlink:href="#m0473dd93d9" y="60.494886"/>
     <use style="fill:#386cb0;stroke:#386cb0;" x="220.514847" xlink:href="#m0473dd93d9" y="24.34735"/>
     <use style="fill:#386cb0;stroke:#386cb0;" x="254.173028" xlink:href="#m0473dd93d9" y="17.596775"/>
     <use style="fill:#386cb0;stroke:#386cb0;" x="287.83121" xlink:href="#m0473dd93d9" y="19.368864"/>
     <use style="fill:#386cb0;stroke:#386cb0;" x="321.489392" xlink:href="#m0473dd93d9" y="32.462475"/>
     <use style="fill:#386cb0;stroke:#386cb0;" x="355.147574" xlink:href="#m0473dd93d9" y="73.421228"/>
    </g>
   </g>
   <g id="PathCollection_9">
    <g clip-path="url(#p8682b7ab61)">
     <use style="fill:#386cb0;stroke:#386cb0;" x="52.223938" xlink:href="#m0473dd93d9" y="200.999897"/>
     <use style="fill:#386cb0;stroke:#386cb0;" x="85.882119" xlink:href="#m0473dd93d9" y="205.910901"/>
     <use style="fill:#386cb0;stroke:#386cb0;" x="119.540301" xlink:href="#m0473dd93d9" y="202.73837"/>
     <use style="fill:#386cb0;stroke:#386cb0;" x="153.198483" xlink:href="#m0473dd93d9" y="196.446464"/>
     <use style="fill:#386cb0;stroke:#386cb0;" x="186.856665" xlink:href="#m0473dd93d9" y="196.661938"/>
     <use style="fill:#386cb0;stroke:#386cb0;" x="220.514847" xlink:href="#m0473dd93d9" y="181.940579"/>
     <use style="fill:#386cb0;stroke:#386cb0;" x="254.173028" xlink:href="#m0473dd93d9" y="170.914061"/>
     <use style="fill:#386cb0;stroke:#386cb0;" x="287.83121" xlink:href="#m0473dd93d9" y="176.108895"/>
     <use style="fill:#386cb0;stroke:#386cb0;" x="321.489392" xlink:href="#m0473dd93d9" y="176.354701"/>
     <use style="fill:#386cb0;stroke:#386cb0;" x="355.147574" xlink:href="#m0473dd93d9" y="183.195181"/>
    </g>
   </g>
   <g id="PathCollection_10">
    <defs>
     <path d="M 0 3 
C 0.795609 3 1.55874 2.683901 2.12132 2.12132 
C 2.683901 1.55874 3 0.795609 3 0 
C 3 -0.795609 2.683901 -1.55874 2.12132 -2.12132 
C 1.55874 -2.683901 0.795609 -3 0 -3 
C -0.795609 -3 -1.55874 -2.683901 -2.12132 -2.12132 
C -2.683901 -1.55874 -3 -0.795609 -3 0 
C -3 0.795609 -2.683901 1.55874 -2.12132 2.12132 
C -1.55874 2.683901 -0.795609 3 0 3 
z
" id="me49ded7912" style="stroke:#f0027f;"/>
    </defs>
    <g clip-path="url(#p8682b7ab61)">
     <use style="fill:#f0027f;stroke:#f0027f;" x="52.223938" xlink:href="#me49ded7912" y="200.58275"/>
     <use style="fill:#f0027f;stroke:#f0027f;" x="85.882119" xlink:href="#me49ded7912" y="204.013719"/>
     <use style="fill:#f0027f;stroke:#f0027f;" x="119.540301" xlink:href="#me49ded7912" y="204.662782"/>
     <use style="fill:#f0027f;stroke:#f0027f;" x="153.198483" xlink:href="#me49ded7912" y="178.576421"/>
     <use style="fill:#f0027f;stroke:#f0027f;" x="186.856665" xlink:href="#me49ded7912" y="129.648596"/>
     <use style="fill:#f0027f;stroke:#f0027f;" x="220.514847" xlink:href="#me49ded7912" y="96.631983"/>
     <use style="fill:#f0027f;stroke:#f0027f;" x="254.173028" xlink:href="#me49ded7912" y="93.389685"/>
     <use style="fill:#f0027f;stroke:#f0027f;" x="287.83121" xlink:href="#me49ded7912" y="107.732104"/>
     <use style="fill:#f0027f;stroke:#f0027f;" x="321.489392" xlink:href="#me49ded7912" y="108.509444"/>
     <use style="fill:#f0027f;stroke:#f0027f;" x="355.147574" xlink:href="#me49ded7912" y="126.403929"/>
    </g>
   </g>
   <g id="PathCollection_11">
    <defs>
     <path d="M 0 3 
C 0.795609 3 1.55874 2.683901 2.12132 2.12132 
C 2.683901 1.55874 3 0.795609 3 0 
C 3 -0.795609 2.683901 -1.55874 2.12132 -2.12132 
C 1.55874 -2.683901 0.795609 -3 0 -3 
C -0.795609 -3 -1.55874 -2.683901 -2.12132 -2.12132 
C -2.683901 -1.55874 -3 -0.795609 -3 0 
C -3 0.795609 -2.683901 1.55874 -2.12132 2.12132 
C -1.55874 2.683901 -0.795609 3 0 3 
z
" id="m079f141b2e" style="stroke:#bf5b17;"/>
    </defs>
    <g clip-path="url(#p8682b7ab61)">
     <use style="fill:#bf5b17;stroke:#bf5b17;" x="52.223938" xlink:href="#m079f141b2e" y="210.476363"/>
     <use style="fill:#bf5b17;stroke:#bf5b17;" x="85.882119" xlink:href="#m079f141b2e" y="213.353255"/>
     <use style="fill:#bf5b17;stroke:#bf5b17;" x="119.540301" xlink:href="#m079f141b2e" y="210.498175"/>
     <use style="fill:#bf5b17;stroke:#bf5b17;" x="153.198483" xlink:href="#m079f141b2e" y="205.161464"/>
     <use style="fill:#bf5b17;stroke:#bf5b17;" x="186.856665" xlink:href="#m079f141b2e" y="194.859371"/>
     <use style="fill:#bf5b17;stroke:#bf5b17;" x="220.514847" xlink:href="#m079f141b2e" y="189.368989"/>
     <use style="fill:#bf5b17;stroke:#bf5b17;" x="254.173028" xlink:href="#m079f141b2e" y="176.46089"/>
     <use style="fill:#bf5b17;stroke:#bf5b17;" x="287.83121" xlink:href="#m079f141b2e" y="185.243744"/>
     <use style="fill:#bf5b17;stroke:#bf5b17;" x="321.489392" xlink:href="#m079f141b2e" y="180.675706"/>
     <use style="fill:#bf5b17;stroke:#bf5b17;" x="355.147574" xlink:href="#m079f141b2e" y="189.786766"/>
    </g>
   </g>
   <g id="PathCollection_12">
    <g clip-path="url(#p8682b7ab61)">
     <use style="fill:#bf5b17;stroke:#bf5b17;" x="52.223938" xlink:href="#m079f141b2e" y="211.127385"/>
     <use style="fill:#bf5b17;stroke:#bf5b17;" x="85.882119" xlink:href="#m079f141b2e" y="203.537854"/>
     <use style="fill:#bf5b17;stroke:#bf5b17;" x="119.540301" xlink:href="#m079f141b2e" y="206.650888"/>
     <use style="fill:#bf5b17;stroke:#bf5b17;" x="153.198483" xlink:href="#m079f141b2e" y="205.287243"/>
     <use style="fill:#bf5b17;stroke:#bf5b17;" x="186.856665" xlink:href="#m079f141b2e" y="180.835358"/>
     <use style="fill:#bf5b17;stroke:#bf5b17;" x="220.514847" xlink:href="#m079f141b2e" y="156.861644"/>
     <use style="fill:#bf5b17;stroke:#bf5b17;" x="254.173028" xlink:href="#m079f141b2e" y="145.21473"/>
     <use style="fill:#bf5b17;stroke:#bf5b17;" x="287.83121" xlink:href="#m079f141b2e" y="138.325287"/>
     <use style="fill:#bf5b17;stroke:#bf5b17;" x="321.489392" xlink:href="#m079f141b2e" y="139.906933"/>
     <use style="fill:#bf5b17;stroke:#bf5b17;" x="355.147574" xlink:href="#m079f141b2e" y="159.484177"/>
    </g>
   </g>
   <g id="PathCollection_13">
    <defs>
     <path d="M 0 3 
C 0.795609 3 1.55874 2.683901 2.12132 2.12132 
C 2.683901 1.55874 3 0.795609 3 0 
C 3 -0.795609 2.683901 -1.55874 2.12132 -2.12132 
C 1.55874 -2.683901 0.795609 -3 0 -3 
C -0.795609 -3 -1.55874 -2.683901 -2.12132 -2.12132 
C -2.683901 -1.55874 -3 -0.795609 -3 0 
C -3 0.795609 -2.683901 1.55874 -2.12132 2.12132 
C -1.55874 2.683901 -0.795609 3 0 3 
z
" id="m2e82816ae8" style="stroke:#666666;"/>
    </defs>
    <g clip-path="url(#p8682b7ab61)">
     <use style="fill:#666666;stroke:#666666;" x="52.223938" xlink:href="#m2e82816ae8" y="203.842618"/>
     <use style="fill:#666666;stroke:#666666;" x="85.882119" xlink:href="#m2e82816ae8" y="200.008432"/>
     <use style="fill:#666666;stroke:#666666;" x="119.540301" xlink:href="#m2e82816ae8" y="202.056032"/>
     <use style="fill:#666666;stroke:#666666;" x="153.198483" xlink:href="#m2e82816ae8" y="178.827468"/>
     <use style="fill:#666666;stroke:#666666;" x="186.856665" xlink:href="#m2e82816ae8" y="145.530301"/>
     <use style="fill:#666666;stroke:#666666;" x="220.514847" xlink:href="#m2e82816ae8" y="110.869615"/>
     <use style="fill:#666666;stroke:#666666;" x="254.173028" xlink:href="#m2e82816ae8" y="106.276283"/>
     <use style="fill:#666666;stroke:#666666;" x="287.83121" xlink:href="#m2e82816ae8" y="117.983665"/>
     <use style="fill:#666666;stroke:#666666;" x="321.489392" xlink:href="#m2e82816ae8" y="131.667287"/>
     <use style="fill:#666666;stroke:#666666;" x="355.147574" xlink:href="#m2e82816ae8" y="145.439509"/>
    </g>
   </g>
   <g id="PathCollection_14">
    <g clip-path="url(#p8682b7ab61)">
     <use style="fill:#666666;stroke:#666666;" x="52.223938" xlink:href="#m2e82816ae8" y="180.312163"/>
     <use style="fill:#666666;stroke:#666666;" x="85.882119" xlink:href="#m2e82816ae8" y="187.372025"/>
     <use style="fill:#666666;stroke:#666666;" x="119.540301" xlink:href="#m2e82816ae8" y="180.327475"/>
     <use style="fill:#666666;stroke:#666666;" x="153.198483" xlink:href="#m2e82816ae8" y="188.45327"/>
     <use style="fill:#666666;stroke:#666666;" x="186.856665" xlink:href="#m2e82816ae8" y="173.565504"/>
     <use style="fill:#666666;stroke:#666666;" x="220.514847" xlink:href="#m2e82816ae8" y="147.008026"/>
     <use style="fill:#666666;stroke:#666666;" x="254.173028" xlink:href="#m2e82816ae8" y="139.272454"/>
     <use style="fill:#666666;stroke:#666666;" x="287.83121" xlink:href="#m2e82816ae8" y="102.577721"/>
     <use style="fill:#666666;stroke:#666666;" x="321.489392" xlink:href="#m2e82816ae8" y="147.293977"/>
     <use style="fill:#666666;stroke:#666666;" x="355.147574" xlink:href="#m2e82816ae8" y="168.341369"/>
    </g>
   </g>
   <g id="matplotlib.axis_1">
    <g id="xtick_1">
     <g id="line2d_1"/>
     <g id="text_1">
      <!-- $-0.6$ -->
      <defs>
       <path d="M 65.90625 23 
C 67.59375 23 69.40625 23 69.40625 25 
C 69.40625 27 67.59375 27 65.90625 27 
L 11.796875 27 
C 10.09375 27 8.296875 27 8.296875 25 
C 8.296875 23 10.09375 23 11.796875 23 
z
" id="CMSY10-0"/>
       <path d="M 43.09375 32.390625 
C 43.09375 38.109375 43 48.75 38.90625 56.984375 
C 34.796875 64.890625 28.203125 67 23.5 67 
C 16.703125 67 10.90625 62.984375 7.90625 56.578125 
C 4.703125 49.859375 3.796875 42.9375 3.796875 32.390625 
C 3.796875 25.171875 4.09375 16.34375 7.703125 8.609375 
C 11.796875 0.09375 18.703125 -2 23.40625 -2 
C 29.59375 -2 35.59375 1.296875 39 8.203125 
C 42.5 15.4375 43.09375 23.359375 43.09375 32.390625 
z
M 23.40625 4.09375 
C 15.796875 4.09375 13.5 12.828125 12.796875 15.734375 
C 11.59375 20.75 11.40625 25.5625 11.40625 33.5 
C 11.40625 39.71875 11.40625 46.75 13.296875 52.265625 
C 15.59375 58.6875 19.59375 60.890625 23.40625 60.890625 
C 30.796875 60.890625 33.203125 53.46875 34 50.859375 
C 35.5 45.546875 35.5 39.3125 35.5 33.5 
C 35.5 24.15625 35.5 4.09375 23.40625 4.09375 
z
" id="CMSS17-48"/>
       <path d="M 17 8 
L 9 8 
L 9 0 
L 17 0 
z
" id="CMSS17-46"/>
       <path d="M 39 64.984375 
C 34.796875 66.6875 31.796875 67 29 67 
C 16 67 3.90625 53.25 3.90625 31.609375 
C 3.90625 4.1875 15.40625 -2 23.59375 -2 
C 28.09375 -2 32.59375 -0.609375 36.90625 4.390625 
C 41.296875 9.671875 43 14.0625 43 21.75 
C 43 34.109375 36.90625 45.09375 27.796875 45.09375 
C 21.203125 45.09375 15.5 41.59375 12 37.203125 
C 13 51.40625 19.59375 60.890625 29.09375 60.890625 
C 31.703125 60.890625 35.09375 60.484375 39 58.75 
z
M 12.09375 21.4375 
C 12.09375 22.234375 12.09375 22.734375 12.203125 24.234375 
C 12.203125 32.015625 16.703125 39 24 39 
C 28.703125 39 31.09375 36.5 32.90625 33.40625 
C 35 29.515625 35.09375 25.828125 35.09375 21.75 
C 35.09375 17.859375 35.09375 13.96875 32.796875 9.96875 
C 30.90625 6.890625 28.40625 4.1875 23.59375 4.1875 
C 14.09375 4.1875 12.5 17.453125 12.09375 21.4375 
z
" id="CMSS17-54"/>
      </defs>
      <g transform="translate(52.081981 235.058498)scale(0.1 -0.1)">
       <use transform="scale(0.996264)" xlink:href="#CMSY10-0"/>
       <use transform="translate(77.487468 0)scale(0.996264)" xlink:href="#CMSS17-48"/>
       <use transform="translate(124.331091 0)scale(0.996264)" xlink:href="#CMSS17-46"/>
       <use transform="translate(150.355296 0)scale(0.996264)" xlink:href="#CMSS17-54"/>
      </g>
     </g>
    </g>
    <g id="xtick_2">
     <g id="line2d_2"/>
     <g id="text_2">
      <!-- $-0.4$ -->
      <defs>
       <path d="M 35.203125 17 
L 44.296875 17 
L 44.296875 23.09375 
L 35.203125 23.09375 
L 35.203125 66 
L 26.40625 66 
L 2.59375 23.09375 
L 2.59375 17 
L 27.296875 17 
L 27.296875 0 
L 35.203125 0 
z
M 10.296875 23.09375 
C 16.09375 33.421875 27.59375 54.28125 27.59375 61.359375 
L 27.59375 23.09375 
z
" id="CMSS17-52"/>
      </defs>
      <g transform="translate(99.203435 235.058498)scale(0.1 -0.1)">
       <use transform="scale(0.996264)" xlink:href="#CMSY10-0"/>
       <use transform="translate(77.487468 0)scale(0.996264)" xlink:href="#CMSS17-48"/>
       <use transform="translate(124.331091 0)scale(0.996264)" xlink:href="#CMSS17-46"/>
       <use transform="translate(150.355296 0)scale(0.996264)" xlink:href="#CMSS17-52"/>
      </g>
     </g>
    </g>
    <g id="xtick_3">
     <g id="line2d_3"/>
     <g id="text_3">
      <!-- $-0.2$ -->
      <defs>
       <path d="M 25.796875 21.140625 
C 28.59375 24.03125 32.796875 27.515625 35.703125 31 
C 38.5 34.390625 42.203125 39.171875 42.203125 46.140625 
C 42.203125 57.109375 34.796875 67 22.203125 67 
C 12.296875 67 6.59375 60.796875 3.90625 51.125 
L 7.796875 45.75 
C 10 54.8125 13.09375 60.59375 20.90625 60.59375 
C 29.5 60.59375 34.296875 53.609375 34.296875 45.9375 
C 34.296875 36.78125 27.296875 29.703125 22 24.421875 
C 16.09375 18.546875 10.296875 12.578125 4.703125 6.390625 
L 4.703125 0 
L 42.203125 0 
L 42.203125 6.796875 
L 25.203125 6.796875 
C 24 6.796875 22.796875 6.6875 21.59375 6.6875 
L 11.59375 6.6875 
L 11.59375 6.796875 
z
" id="CMSS17-50"/>
      </defs>
      <g transform="translate(146.32489 235.058498)scale(0.1 -0.1)">
       <use transform="scale(0.996264)" xlink:href="#CMSY10-0"/>
       <use transform="translate(77.487468 0)scale(0.996264)" xlink:href="#CMSS17-48"/>
       <use transform="translate(124.331091 0)scale(0.996264)" xlink:href="#CMSS17-46"/>
       <use transform="translate(150.355296 0)scale(0.996264)" xlink:href="#CMSS17-50"/>
      </g>
     </g>
    </g>
    <g id="xtick_4">
     <g id="line2d_4"/>
     <g id="text_4">
      <!-- $0.0$ -->
      <g transform="translate(197.320716 235.058498)scale(0.1 -0.1)">
       <use transform="scale(0.996264)" xlink:href="#CMSS17-48"/>
       <use transform="translate(46.843624 0)scale(0.996264)" xlink:href="#CMSS17-46"/>
       <use transform="translate(72.867828 0)scale(0.996264)" xlink:href="#CMSS17-48"/>
      </g>
     </g>
    </g>
    <g id="xtick_5">
     <g id="line2d_5"/>
     <g id="text_5">
      <!-- $0.2$ -->
      <g transform="translate(244.442171 235.058498)scale(0.1 -0.1)">
       <use transform="scale(0.996264)" xlink:href="#CMSS17-48"/>
       <use transform="translate(46.843624 0)scale(0.996264)" xlink:href="#CMSS17-46"/>
       <use transform="translate(72.867828 0)scale(0.996264)" xlink:href="#CMSS17-50"/>
      </g>
     </g>
    </g>
    <g id="xtick_6">
     <g id="line2d_6"/>
     <g id="text_6">
      <!-- $0.4$ -->
      <g transform="translate(291.563625 235.058498)scale(0.1 -0.1)">
       <use transform="scale(0.996264)" xlink:href="#CMSS17-48"/>
       <use transform="translate(46.843624 0)scale(0.996264)" xlink:href="#CMSS17-46"/>
       <use transform="translate(72.867828 0)scale(0.996264)" xlink:href="#CMSS17-52"/>
      </g>
     </g>
    </g>
    <g id="xtick_7">
     <g id="line2d_7"/>
     <g id="text_7">
      <!-- $0.6$ -->
      <g transform="translate(338.68508 235.058498)scale(0.1 -0.1)">
       <use transform="scale(0.996264)" xlink:href="#CMSS17-48"/>
       <use transform="translate(46.843624 0)scale(0.996264)" xlink:href="#CMSS17-46"/>
       <use transform="translate(72.867828 0)scale(0.996264)" xlink:href="#CMSS17-54"/>
      </g>
     </g>
    </g>
    <g id="text_8">
     <!-- Peri-movement time (seconds) -->
     <defs>
      <path d="M 32.90625 29 
C 44.90625 29 54.703125 38.234375 54.703125 49.046875 
C 54.703125 59.65625 45.296875 69 32.296875 69 
L 8.90625 69 
L 8.90625 0 
L 17.296875 0 
L 17.296875 29 
z
M 30.09375 63.390625 
C 41.703125 63.390625 46.796875 56.21875 46.796875 49.046875 
C 46.796875 42.359375 42.09375 34.796875 30.09375 34.796875 
L 17.09375 34.796875 
L 17.09375 63.390625 
z
" id="CMSS17-80"/>
      <path d="M 39.09375 21.484375 
C 39.09375 24.796875 38.90625 31.265625 35.703125 36.671875 
C 32.203125 42.390625 26.5 44 22.203125 44 
C 11.796875 44 3 34.125 3 21.296875 
C 3 9.046875 12.09375 -1 23.59375 -1 
C 28.09375 -1 33.59375 0.296875 38.59375 3.890625 
C 38.59375 4.296875 38.40625 6.46875 38.296875 6.578125 
C 38.296875 6.765625 38 9.828125 38 10.234375 
C 33.203125 6.375 27.703125 5.09375 23.703125 5.09375 
C 17.296875 5.09375 10.40625 10.421875 10.09375 21.484375 
z
M 10.90625 27 
C 12.203125 32.59375 16.59375 37.890625 22.203125 37.890625 
C 23.703125 37.890625 30.703125 37.6875 32.5 27 
z
" id="CMSS17-101"/>
      <path d="M 14.90625 21.390625 
C 14.90625 30.84375 21.796875 37.171875 30.59375 37.375 
L 30.59375 44 
C 24.203125 43.890625 18.203125 40.6875 14.59375 35.46875 
L 14.59375 43.484375 
L 7.5 43.484375 
L 7.5 0 
L 14.90625 0 
z
" id="CMSS17-114"/>
      <path d="M 15.296875 66 
L 6.90625 66 
L 6.90625 57.59375 
L 15.296875 57.59375 
z
M 14.796875 43 
L 7.40625 43 
L 7.40625 0 
L 14.796875 0 
z
" id="CMSS17-105"/>
      <path d="M 26 19 
L 26 24.796875 
L 1 24.796875 
L 1 19 
z
" id="CMSS17-45"/>
      <path d="M 67 29.34375 
C 67 36.078125 65.296875 44 54.09375 44 
C 46.59375 44 42.09375 39.296875 40.09375 36.375 
C 38.296875 41.6875 34.09375 44 28.09375 44 
C 21.296875 44 17 40.09375 14.703125 37.28125 
L 14.703125 43.484375 
L 7.40625 43.484375 
L 7.40625 0 
L 15 0 
L 15 24.3125 
C 15 30.25 17.203125 37.890625 24.296875 37.890625 
C 33.40625 37.890625 33.40625 31.453125 33.40625 28.53125 
L 33.40625 0 
L 41 0 
L 41 24.3125 
C 41 30.25 43.203125 37.890625 50.296875 37.890625 
C 59.40625 37.890625 59.40625 31.453125 59.40625 28.53125 
L 59.40625 0 
L 67 0 
z
" id="CMSS17-109"/>
      <path d="M 44.203125 21.1875 
C 44.203125 33.984375 34.703125 44 23.5 44 
C 12 44 2.703125 33.6875 2.703125 21.1875 
C 2.703125 8.5 12.296875 -1 23.40625 -1 
C 34.796875 -1 44.203125 8.796875 44.203125 21.1875 
z
M 23.5 5.296875 
C 16.40625 5.296875 10.296875 11.09375 10.296875 21.984375 
C 10.296875 33.59375 17.40625 37.890625 23.40625 37.890625 
C 29.90625 37.890625 36.59375 33.1875 36.59375 21.984375 
C 36.59375 10.6875 30.09375 5.296875 23.5 5.296875 
z
" id="CMSS17-111"/>
      <path d="M 41.796875 43 
L 34 43 
L 27.296875 24.296875 
C 25.203125 18.1875 22.203125 9.796875 21.703125 5.5 
L 21.59375 5.5 
C 21.40625 7.296875 20.59375 9.890625 20.09375 11.6875 
C 19.5 13.890625 18.703125 16.5 18.09375 18.296875 
L 9.296875 43 
L 1.296875 43 
L 17.09375 0 
L 26 0 
z
" id="CMSS17-118"/>
      <path d="M 40.90625 29.34375 
C 40.90625 35.671875 39.40625 44 28.09375 44 
C 21.703125 44 17.5 40.6875 14.703125 37.28125 
L 14.703125 43.484375 
L 7.40625 43.484375 
L 7.40625 0 
L 15 0 
L 15 24.3125 
C 15 30.65625 17.40625 37.890625 24.203125 37.890625 
C 33 37.890625 33.296875 31.953125 33.296875 28.53125 
L 33.296875 0 
L 40.90625 0 
z
" id="CMSS17-110"/>
      <path d="M 16.703125 37.1875 
L 29.703125 37.1875 
L 29.703125 43 
L 16.703125 43 
L 16.703125 55 
L 9.59375 55 
L 9.59375 43 
L 1.703125 43 
L 1.703125 37.1875 
L 9.40625 37.1875 
L 9.40625 11.734375 
C 9.40625 6 10.703125 -1 17.296875 -1 
C 22.296875 -1 26.90625 0.390625 31.296875 2.6875 
L 29.703125 8.609375 
C 27.296875 6.5 24.40625 5.296875 21.296875 5.296875 
C 16.90625 5.296875 16.703125 10.921875 16.703125 13.4375 
z
" id="CMSS17-116"/>
      <path d="M 25.203125 75 
C 19.796875 69.484375 7.40625 56.671875 7.40625 25.046875 
C 7.40625 -6.6875 19.796875 -19.40625 25.203125 -25 
L 31.296875 -25 
C 19 -12.203125 15 5.71875 15 24.9375 
C 15 44.0625 18.796875 62.078125 31.296875 75 
z
" id="CMSS17-40"/>
      <path d="M 32.203125 40.984375 
C 26.296875 43.796875 21.703125 44 18.703125 44 
C 11.59375 44 3.09375 41.484375 3.09375 31.390625 
C 3.09375 21.296875 14.09375 19.09375 17.09375 18.484375 
C 21.703125 17.59375 26.796875 16.59375 26.796875 11.59375 
C 26.796875 5.296875 19.59375 5.296875 18.296875 5.296875 
C 14.296875 5.296875 8.796875 6.390625 3.796875 9.984375 
L 2.59375 3.296875 
C 8.296875 0 13.796875 -1 18.40625 -1 
C 30.703125 -1 33.796875 6.5 33.796875 12.1875 
C 33.796875 17.09375 31 20.390625 29.09375 21.890625 
C 25.796875 24.484375 24.59375 24.796875 16.40625 26.484375 
C 15 26.6875 10.09375 27.796875 10.09375 32.296875 
C 10.09375 37.984375 16.40625 37.984375 17.796875 37.984375 
C 24.296875 37.984375 28.296875 35.984375 31 34.484375 
z
" id="CMSS17-115"/>
      <path d="M 38.5 39.6875 
C 38.5 40.390625 33.90625 42.390625 32.703125 42.796875 
C 29.40625 44 25.203125 44 24.09375 44 
C 11.09375 44 3.296875 32.6875 3.296875 21.296875 
C 3.296875 9.296875 12 -1 23.703125 -1 
C 30.40625 -1 35.203125 1.1875 39.09375 3.796875 
L 38.5 10.390625 
C 34.203125 7.09375 29.203125 5.296875 23.796875 5.296875 
C 16 5.296875 10.90625 12.09375 10.90625 21.390625 
C 10.90625 28.59375 14.203125 37.6875 24.203125 37.6875 
C 29.703125 37.6875 32.796875 36.59375 37.40625 33.484375 
z
" id="CMSS17-99"/>
      <path d="M 40.796875 69 
L 33.40625 69 
L 33.40625 38.984375 
C 30.296875 41.59375 25.203125 44 19.59375 44 
C 10.5 44 3.296875 34.046875 3.296875 21.484375 
C 3.296875 8.9375 10.40625 -1 19.296875 -1 
C 26.203125 -1 30.796875 2.6875 33.203125 4.796875 
L 33.203125 -0.203125 
L 40.796875 -0.203125 
z
M 33.203125 13.296875 
C 33.203125 11.875 33.203125 10.359375 30.09375 7.625 
C 28.09375 5.90625 25.703125 5.09375 23.40625 5.09375 
C 18 5.09375 10.90625 9.140625 10.90625 21.390625 
C 10.90625 34.140625 18.90625 37.890625 24.40625 37.890625 
C 28.09375 37.890625 31.09375 36.0625 33.203125 33.03125 
z
" id="CMSS17-100"/>
      <path d="M 11.296875 -25 
C 16.703125 -19.5 29.09375 -6.6875 29.09375 24.9375 
C 29.09375 56.671875 16.703125 69.375 11.296875 75 
L 5.203125 75 
C 17.5 62.171875 21.5 44.265625 21.5 25.046875 
C 21.5 5.921875 17.703125 -12.09375 5.203125 -25 
z
" id="CMSS17-41"/>
     </defs>
     <g transform="translate(140.132356 248.467657)scale(0.1 -0.1)">
      <use transform="scale(0.996264)" xlink:href="#CMSS17-80"/>
      <use transform="translate(57.133132 0)scale(0.996264)" xlink:href="#CMSS17-101"/>
      <use transform="translate(98.771954 0)scale(0.996264)" xlink:href="#CMSS17-114"/>
      <use transform="translate(130.681727 0)scale(0.996264)" xlink:href="#CMSS17-105"/>
      <use transform="translate(152.86245 0)scale(0.996264)" xlink:href="#CMSS17-45"/>
      <use transform="translate(184.091563 0)scale(0.996264)" xlink:href="#CMSS17-109"/>
      <use transform="translate(258.320817 0)scale(0.996264)" xlink:href="#CMSS17-111"/>
      <use transform="translate(305.164441 0)scale(0.996264)" xlink:href="#CMSS17-118"/>
      <use transform="translate(348.164582 0)scale(0.996264)" xlink:href="#CMSS17-101"/>
      <use transform="translate(389.803404 0)scale(0.996264)" xlink:href="#CMSS17-109"/>
      <use transform="translate(464.032659 0)scale(0.996264)" xlink:href="#CMSS17-101"/>
      <use transform="translate(505.671481 0)scale(0.996264)" xlink:href="#CMSS17-110"/>
      <use transform="translate(553.876424 0)scale(0.996264)" xlink:href="#CMSS17-116"/>
      <use transform="translate(618.937104 0)scale(0.996264)" xlink:href="#CMSS17-116"/>
      <use transform="translate(652.76867 0)scale(0.996264)" xlink:href="#CMSS17-105"/>
      <use transform="translate(674.949393 0)scale(0.996264)" xlink:href="#CMSS17-109"/>
      <use transform="translate(749.178648 0)scale(0.996264)" xlink:href="#CMSS17-101"/>
      <use transform="translate(822.046583 0)scale(0.996264)" xlink:href="#CMSS17-40"/>
      <use transform="translate(858.480497 0)scale(0.996264)" xlink:href="#CMSS17-115"/>
      <use transform="translate(894.394039 0)scale(0.996264)" xlink:href="#CMSS17-101"/>
      <use transform="translate(936.032861 0)scale(0.996264)" xlink:href="#CMSS17-99"/>
      <use transform="translate(977.671683 0)scale(0.996264)" xlink:href="#CMSS17-111"/>
      <use transform="translate(1024.515306 0)scale(0.996264)" xlink:href="#CMSS17-110"/>
      <use transform="translate(1072.72025 0)scale(0.996264)" xlink:href="#CMSS17-100"/>
      <use transform="translate(1120.925193 0)scale(0.996264)" xlink:href="#CMSS17-115"/>
      <use transform="translate(1156.838735 0)scale(0.996264)" xlink:href="#CMSS17-41"/>
     </g>
    </g>
   </g>
   <g id="matplotlib.axis_2">
    <g id="ytick_1">
     <g id="line2d_8"/>
     <g id="text_9">
      <!-- $0.0$ -->
      <g transform="translate(20.055677 195.222318)scale(0.1 -0.1)">
       <use transform="scale(0.996264)" xlink:href="#CMSS17-48"/>
       <use transform="translate(46.843624 0)scale(0.996264)" xlink:href="#CMSS17-46"/>
       <use transform="translate(72.867828 0)scale(0.996264)" xlink:href="#CMSS17-48"/>
      </g>
     </g>
    </g>
    <g id="ytick_2">
     <g id="line2d_9"/>
     <g id="text_10">
      <!-- $0.1$ -->
      <defs>
       <path d="M 28.40625 67 
L 26.5 67 
C 21.09375 61.703125 14.796875 60.96875 8.40625 60.796875 
L 8.40625 55 
C 11.296875 55.09375 16 55.296875 20.703125 57.390625 
L 20.703125 5.796875 
L 8.90625 5.796875 
L 8.90625 0 
L 40.203125 0 
L 40.203125 5.796875 
L 28.40625 5.796875 
z
" id="CMSS17-49"/>
      </defs>
      <g transform="translate(20.055677 160.520654)scale(0.1 -0.1)">
       <use transform="scale(0.996264)" xlink:href="#CMSS17-48"/>
       <use transform="translate(46.843624 0)scale(0.996264)" xlink:href="#CMSS17-46"/>
       <use transform="translate(72.867828 0)scale(0.996264)" xlink:href="#CMSS17-49"/>
      </g>
     </g>
    </g>
    <g id="ytick_3">
     <g id="line2d_10"/>
     <g id="text_11">
      <!-- $0.2$ -->
      <g transform="translate(20.055677 125.81899)scale(0.1 -0.1)">
       <use transform="scale(0.996264)" xlink:href="#CMSS17-48"/>
       <use transform="translate(46.843624 0)scale(0.996264)" xlink:href="#CMSS17-46"/>
       <use transform="translate(72.867828 0)scale(0.996264)" xlink:href="#CMSS17-50"/>
      </g>
     </g>
    </g>
    <g id="ytick_4">
     <g id="line2d_11"/>
     <g id="text_12">
      <!-- $0.3$ -->
      <defs>
       <path d="M 15.703125 32.1875 
L 22.5 32.1875 
C 31.90625 32.1875 34.59375 23.9375 34.59375 18.1875 
C 34.59375 10.34375 30.203125 4.1875 23 4.1875 
C 17.40625 4.1875 9.5 7.015625 5 14.46875 
C 4.296875 10.9375 4.296875 10.734375 3.90625 8.328125 
C 8.59375 1.390625 16.203125 -2 23.203125 -2 
C 34.59375 -2 43 7.515625 43 18.09375 
C 43 26.046875 37.5 32.6875 30 35.1875 
C 36 38.484375 40.40625 44.6875 40.40625 51.890625 
C 40.40625 60.296875 32.703125 67 23.296875 67 
C 14.703125 67 8 61.6875 5.203125 55.984375 
C 5.90625 54.984375 7.703125 52.09375 8.59375 50.59375 
C 10.796875 56.484375 16.5 60.890625 23.203125 60.890625 
C 28.796875 60.890625 32.5 57.1875 32.5 51.890625 
C 32.5 46.390625 29 40.390625 23.09375 39 
C 22.703125 39 16.5 38.390625 15.703125 38.296875 
z
" id="CMSS17-51"/>
      </defs>
      <g transform="translate(20.055677 91.117326)scale(0.1 -0.1)">
       <use transform="scale(0.996264)" xlink:href="#CMSS17-48"/>
       <use transform="translate(46.843624 0)scale(0.996264)" xlink:href="#CMSS17-46"/>
       <use transform="translate(72.867828 0)scale(0.996264)" xlink:href="#CMSS17-51"/>
      </g>
     </g>
    </g>
    <g id="ytick_5">
     <g id="line2d_12"/>
     <g id="text_13">
      <!-- $0.4$ -->
      <g transform="translate(20.055677 56.415662)scale(0.1 -0.1)">
       <use transform="scale(0.996264)" xlink:href="#CMSS17-48"/>
       <use transform="translate(46.843624 0)scale(0.996264)" xlink:href="#CMSS17-46"/>
       <use transform="translate(72.867828 0)scale(0.996264)" xlink:href="#CMSS17-52"/>
      </g>
     </g>
    </g>
    <g id="ytick_6">
     <g id="line2d_13"/>
     <g id="text_14">
      <!-- $0.5$ -->
      <defs>
       <path d="M 14.59375 59.59375 
L 39.09375 59.59375 
L 39.09375 66 
L 7.296875 66 
L 7.296875 28.59375 
L 14 28.59375 
C 15.796875 32.859375 19.5 36 24.296875 36 
C 28.796875 36 33.796875 31.9375 33.796875 20.296875 
C 33.796875 7.84375 26.703125 4.1875 21.5 4.1875 
C 15.09375 4.1875 9.203125 8.140625 6.59375 13.609375 
L 3.40625 7.9375 
C 8 0.796875 15.5 -2 21.5 -2 
C 33.09375 -2 42.203125 7.9375 42.203125 20.09375 
C 42.203125 32.546875 34.09375 42.09375 24.40625 42.09375 
C 20.90625 42.09375 17.5 40.890625 14.59375 38.5 
z
" id="CMSS17-53"/>
      </defs>
      <g transform="translate(20.055677 21.713997)scale(0.1 -0.1)">
       <use transform="scale(0.996264)" xlink:href="#CMSS17-48"/>
       <use transform="translate(46.843624 0)scale(0.996264)" xlink:href="#CMSS17-46"/>
       <use transform="translate(72.867828 0)scale(0.996264)" xlink:href="#CMSS17-53"/>
      </g>
     </g>
    </g>
    <g id="text_15">
     <!-- Accuracy relative to baseline -->
     <defs>
      <path d="M 35.5 69 
L 26.90625 69 
L 2.59375 0 
L 10.203125 0 
L 17.203125 20 
L 44 20 
L 51.09375 0 
L 59.796875 0 
z
M 42.09375 25.59375 
L 19.09375 25.59375 
C 23.90625 39.53125 29.90625 56.84375 30.59375 61.3125 
L 30.703125 61.3125 
C 31.40625 57.234375 33.40625 51.265625 35.09375 46.1875 
z
" id="CMSS17-65"/>
      <path d="M 40.90625 43 
L 33.296875 43 
L 33.296875 15.25 
C 33.296875 7.8125 27.90625 4.796875 22.203125 4.796875 
C 15.59375 4.796875 15 7 15 11.125 
L 15 43 
L 7.40625 43 
L 7.40625 10.625 
C 7.40625 2.796875 10.09375 -1 17 -1 
C 20.40625 -1 28.09375 -0.203125 33.5 4.796875 
L 33.5 -0.203125 
L 40.90625 -0.203125 
z
" id="CMSS17-117"/>
      <path d="M 37.59375 27.953125 
C 37.59375 37.484375 30.90625 44 21.90625 44 
C 17.5 44 12.703125 43.1875 7.203125 39.984375 
L 7.796875 33.328125 
C 10.296875 35.15625 14.59375 38.09375 21.796875 38.09375 
C 26.90625 38.09375 30 34.140625 30 27.84375 
L 30 24 
C 14 23.5 4 18.890625 4 11.109375 
C 4 7.0625 6.5 -1 14.796875 -1 
C 16.296875 -1 24.40625 -0.8125 30.203125 3.5 
L 30.203125 -0.203125 
L 37.59375 -0.203125 
z
M 30 12.875 
C 30 11.109375 30 8.734375 27 6.96875 
C 24.40625 5.296875 21.09375 5.09375 19.703125 5.09375 
C 14.703125 5.09375 11.296875 7.859375 11.296875 11.296875 
C 11.296875 18.203125 26.90625 18.890625 30 19 
z
" id="CMSS17-97"/>
      <path d="M 41.796875 43 
L 34 43 
C 25.5 20.203125 22.59375 10.953125 22.40625 5.984375 
L 22.296875 5.984375 
C 22 10.859375 17.59375 22.796875 14.09375 31.34375 
L 9.40625 43 
L 1.296875 43 
L 19 0.21875 
C 17.90625 -2.765625 16.296875 -7.25 15.796875 -8.234375 
C 13.59375 -13.8125 12.09375 -13.8125 10.5 -13.8125 
C 10.09375 -13.8125 6.90625 -13.703125 3.296875 -12.609375 
L 3.90625 -19.203125 
C 6.40625 -19.703125 8.90625 -20 10.703125 -20 
C 13.203125 -20 18.203125 -20 22.796875 -7.734375 
z
" id="CMSS17-121"/>
      <path d="M 14.796875 69 
L 7.40625 69 
L 7.40625 0 
L 14.796875 0 
z
" id="CMSS17-108"/>
      <path d="M 14.90625 69 
L 7.5 69 
L 7.5 -0.203125 
L 15.09375 -0.203125 
L 15.09375 4.296875 
C 18.90625 0.59375 23.5 -1 27.59375 -1 
C 37.203125 -1 45 8.734375 45 21.59375 
C 45 33.328125 39 44 30.09375 44 
C 23.796875 44 18.203125 41.390625 14.90625 38.6875 
z
M 15.09375 32.734375 
C 17.296875 35.5625 20.40625 37.890625 24.796875 37.890625 
C 30.703125 37.890625 37.40625 33.53125 37.40625 21.59375 
C 37.40625 8.84375 29.40625 5.09375 23.90625 5.09375 
C 21.90625 5.09375 19.796875 5.59375 17.796875 7.3125 
C 15.09375 9.75 15.09375 11.265625 15.09375 12.6875 
z
" id="CMSS17-98"/>
     </defs>
     <g transform="translate(14.118498 175.37766)rotate(-90)scale(0.1 -0.1)">
      <use transform="scale(0.996264)" xlink:href="#CMSS17-65"/>
      <use transform="translate(62.217855 0)scale(0.996264)" xlink:href="#CMSS17-99"/>
      <use transform="translate(103.856677 0)scale(0.996264)" xlink:href="#CMSS17-99"/>
      <use transform="translate(145.495499 0)scale(0.996264)" xlink:href="#CMSS17-117"/>
      <use transform="translate(193.700442 0)scale(0.996264)" xlink:href="#CMSS17-114"/>
      <use transform="translate(225.610215 0)scale(0.996264)" xlink:href="#CMSS17-97"/>
      <use transform="translate(270.532135 0)scale(0.996264)" xlink:href="#CMSS17-99"/>
      <use transform="translate(312.170957 0)scale(0.996264)" xlink:href="#CMSS17-121"/>
      <use transform="translate(386.400212 0)scale(0.996264)" xlink:href="#CMSS17-114"/>
      <use transform="translate(418.309984 0)scale(0.996264)" xlink:href="#CMSS17-101"/>
      <use transform="translate(459.948806 0)scale(0.996264)" xlink:href="#CMSS17-108"/>
      <use transform="translate(482.12953 0)scale(0.996264)" xlink:href="#CMSS17-97"/>
      <use transform="translate(527.05145 0)scale(0.996264)" xlink:href="#CMSS17-116"/>
      <use transform="translate(560.883017 0)scale(0.996264)" xlink:href="#CMSS17-105"/>
      <use transform="translate(583.06374 0)scale(0.996264)" xlink:href="#CMSS17-118"/>
      <use transform="translate(626.063882 0)scale(0.996264)" xlink:href="#CMSS17-101"/>
      <use transform="translate(698.931816 0)scale(0.996264)" xlink:href="#CMSS17-116"/>
      <use transform="translate(732.763383 0)scale(0.996264)" xlink:href="#CMSS17-111"/>
      <use transform="translate(810.836119 0)scale(0.996264)" xlink:href="#CMSS17-98"/>
      <use transform="translate(859.041062 0)scale(0.996264)" xlink:href="#CMSS17-97"/>
      <use transform="translate(903.962983 0)scale(0.996264)" xlink:href="#CMSS17-115"/>
      <use transform="translate(939.876525 0)scale(0.996264)" xlink:href="#CMSS17-101"/>
      <use transform="translate(981.515347 0)scale(0.996264)" xlink:href="#CMSS17-108"/>
      <use transform="translate(1003.69607 0)scale(0.996264)" xlink:href="#CMSS17-105"/>
      <use transform="translate(1025.876793 0)scale(0.996264)" xlink:href="#CMSS17-110"/>
      <use transform="translate(1074.081736 0)scale(0.996264)" xlink:href="#CMSS17-101"/>
     </g>
    </g>
   </g>
   <g id="line2d_14">
    <path clip-path="url(#p8682b7ab61)" d="M 52.223938 212.719534 
L 85.882119 202.300864 
L 119.540301 202.70979 
L 153.198483 181.599993 
L 186.856665 138.125122 
L 220.514847 90.414486 
L 254.173028 75.753272 
L 287.83121 75.025672 
L 321.489392 82.580454 
L 355.147574 102.775754 
" style="fill:none;stroke:#7fc97f;stroke-linecap:square;stroke-width:1.5;"/>
   </g>
   <g id="line2d_15">
    <path clip-path="url(#p8682b7ab61)" d="M 203.685756 224.64 
L 203.685756 7.2 
" style="fill:none;stroke:#808080;stroke-dasharray:5.55,2.4;stroke-dashoffset:0;stroke-width:1.5;"/>
   </g>
   <g id="line2d_16">
    <path clip-path="url(#p8682b7ab61)" d="M 52.223938 209.055754 
L 85.882119 197.694338 
L 119.540301 214.246459 
L 153.198483 201.152987 
L 186.856665 194.302688 
L 220.514847 177.120689 
L 254.173028 169.153064 
L 287.83121 169.22401 
L 321.489392 187.685726 
L 355.147574 191.657757 
" style="fill:none;stroke:#7fc97f;stroke-linecap:square;stroke-width:1.5;"/>
   </g>
   <g id="line2d_17">
    <path clip-path="url(#p8682b7ab61)" d="M 203.685756 224.64 
L 203.685756 7.2 
" style="fill:none;stroke:#808080;stroke-dasharray:5.55,2.4;stroke-dashoffset:0;stroke-width:1.5;"/>
   </g>
   <g id="line2d_18">
    <path clip-path="url(#p8682b7ab61)" d="M 52.223938 208.356107 
L 85.882119 200.881699 
L 119.540301 188.09778 
L 153.198483 175.873922 
L 186.856665 172.414796 
L 220.514847 158.251131 
L 254.173028 150.569753 
L 287.83121 141.602691 
L 321.489392 177.197928 
L 355.147574 180.393599 
" style="fill:none;stroke:#beaed4;stroke-linecap:square;stroke-width:1.5;"/>
   </g>
   <g id="line2d_19">
    <path clip-path="url(#p8682b7ab61)" d="M 203.685756 224.64 
L 203.685756 7.2 
" style="fill:none;stroke:#808080;stroke-dasharray:5.55,2.4;stroke-dashoffset:0;stroke-width:1.5;"/>
   </g>
   <g id="line2d_20">
    <path clip-path="url(#p8682b7ab61)" d="M 52.223938 209.929131 
L 85.882119 198.989996 
L 119.540301 205.109133 
L 153.198483 206.853141 
L 186.856665 196.877455 
L 220.514847 180.376183 
L 254.173028 182.62573 
L 287.83121 174.597759 
L 321.489392 184.418677 
L 355.147574 196.888132 
" style="fill:none;stroke:#beaed4;stroke-linecap:square;stroke-width:1.5;"/>
   </g>
   <g id="line2d_21">
    <path clip-path="url(#p8682b7ab61)" d="M 203.685756 224.64 
L 203.685756 7.2 
" style="fill:none;stroke:#808080;stroke-dasharray:5.55,2.4;stroke-dashoffset:0;stroke-width:1.5;"/>
   </g>
   <g id="line2d_22">
    <path clip-path="url(#p8682b7ab61)" d="M 52.223938 202.807026 
L 85.882119 207.574071 
L 119.540301 190.752697 
L 153.198483 167.207401 
L 186.856665 131.022802 
L 220.514847 123.605632 
L 254.173028 139.095976 
L 287.83121 147.499273 
L 321.489392 162.682806 
L 355.147574 184.879477 
" style="fill:none;stroke:#fdc086;stroke-linecap:square;stroke-width:1.5;"/>
   </g>
   <g id="line2d_23">
    <path clip-path="url(#p8682b7ab61)" d="M 203.685756 224.64 
L 203.685756 7.2 
" style="fill:none;stroke:#808080;stroke-dasharray:5.55,2.4;stroke-dashoffset:0;stroke-width:1.5;"/>
   </g>
   <g id="line2d_24">
    <path clip-path="url(#p8682b7ab61)" d="M 52.223938 203.697548 
L 85.882119 206.498649 
L 119.540301 200.722737 
L 153.198483 197.872421 
L 186.856665 189.693515 
L 220.514847 182.253235 
L 254.173028 172.563193 
L 287.83121 169.012113 
L 321.489392 171.594825 
L 355.147574 177.781359 
" style="fill:none;stroke:#ffff99;stroke-linecap:square;stroke-width:1.5;"/>
   </g>
   <g id="line2d_25">
    <path clip-path="url(#p8682b7ab61)" d="M 203.685756 224.64 
L 203.685756 7.2 
" style="fill:none;stroke:#808080;stroke-dasharray:5.55,2.4;stroke-dashoffset:0;stroke-width:1.5;"/>
   </g>
   <g id="line2d_26">
    <path clip-path="url(#p8682b7ab61)" d="M 52.223938 183.438119 
L 85.882119 213.466317 
L 119.540301 178.375087 
L 153.198483 161.848413 
L 186.856665 186.084417 
L 220.514847 181.119362 
L 254.173028 163.567193 
L 287.83121 144.25328 
L 321.489392 160.245147 
L 355.147574 166.312113 
" style="fill:none;stroke:#ffff99;stroke-linecap:square;stroke-width:1.5;"/>
   </g>
   <g id="line2d_27">
    <path clip-path="url(#p8682b7ab61)" d="M 203.685756 224.64 
L 203.685756 7.2 
" style="fill:none;stroke:#808080;stroke-dasharray:5.55,2.4;stroke-dashoffset:0;stroke-width:1.5;"/>
   </g>
   <g id="line2d_28">
    <path clip-path="url(#p8682b7ab61)" d="M 52.223938 205.167757 
L 85.882119 202.229915 
L 119.540301 194.055074 
L 153.198483 151.747938 
L 186.856665 60.494886 
L 220.514847 24.34735 
L 254.173028 17.596775 
L 287.83121 19.368864 
L 321.489392 32.462475 
L 355.147574 73.421228 
" style="fill:none;stroke:#386cb0;stroke-linecap:square;stroke-width:1.5;"/>
   </g>
   <g id="line2d_29">
    <path clip-path="url(#p8682b7ab61)" d="M 203.685756 224.64 
L 203.685756 7.2 
" style="fill:none;stroke:#808080;stroke-dasharray:5.55,2.4;stroke-dashoffset:0;stroke-width:1.5;"/>
   </g>
   <g id="line2d_30">
    <path clip-path="url(#p8682b7ab61)" d="M 52.223938 200.999897 
L 85.882119 205.910901 
L 119.540301 202.73837 
L 153.198483 196.446464 
L 186.856665 196.661938 
L 220.514847 181.940579 
L 254.173028 170.914061 
L 287.83121 176.108895 
L 321.489392 176.354701 
L 355.147574 183.195181 
" style="fill:none;stroke:#386cb0;stroke-linecap:square;stroke-width:1.5;"/>
   </g>
   <g id="line2d_31">
    <path clip-path="url(#p8682b7ab61)" d="M 203.685756 224.64 
L 203.685756 7.2 
" style="fill:none;stroke:#808080;stroke-dasharray:5.55,2.4;stroke-dashoffset:0;stroke-width:1.5;"/>
   </g>
   <g id="line2d_32">
    <path clip-path="url(#p8682b7ab61)" d="M 52.223938 200.58275 
L 85.882119 204.013719 
L 119.540301 204.662782 
L 153.198483 178.576421 
L 186.856665 129.648596 
L 220.514847 96.631983 
L 254.173028 93.389685 
L 287.83121 107.732104 
L 321.489392 108.509444 
L 355.147574 126.403929 
" style="fill:none;stroke:#f0027f;stroke-linecap:square;stroke-width:1.5;"/>
   </g>
   <g id="line2d_33">
    <path clip-path="url(#p8682b7ab61)" d="M 203.685756 224.64 
L 203.685756 7.2 
" style="fill:none;stroke:#808080;stroke-dasharray:5.55,2.4;stroke-dashoffset:0;stroke-width:1.5;"/>
   </g>
   <g id="line2d_34">
    <path clip-path="url(#p8682b7ab61)" d="M 52.223938 210.476363 
L 85.882119 213.353255 
L 119.540301 210.498175 
L 153.198483 205.161464 
L 186.856665 194.859371 
L 220.514847 189.368989 
L 254.173028 176.46089 
L 287.83121 185.243744 
L 321.489392 180.675706 
L 355.147574 189.786766 
" style="fill:none;stroke:#bf5b17;stroke-linecap:square;stroke-width:1.5;"/>
   </g>
   <g id="line2d_35">
    <path clip-path="url(#p8682b7ab61)" d="M 203.685756 224.64 
L 203.685756 7.2 
" style="fill:none;stroke:#808080;stroke-dasharray:5.55,2.4;stroke-dashoffset:0;stroke-width:1.5;"/>
   </g>
   <g id="line2d_36">
    <path clip-path="url(#p8682b7ab61)" d="M 52.223938 211.127385 
L 85.882119 203.537854 
L 119.540301 206.650888 
L 153.198483 205.287243 
L 186.856665 180.835358 
L 220.514847 156.861644 
L 254.173028 145.21473 
L 287.83121 138.325287 
L 321.489392 139.906933 
L 355.147574 159.484177 
" style="fill:none;stroke:#bf5b17;stroke-linecap:square;stroke-width:1.5;"/>
   </g>
   <g id="line2d_37">
    <path clip-path="url(#p8682b7ab61)" d="M 203.685756 224.64 
L 203.685756 7.2 
" style="fill:none;stroke:#808080;stroke-dasharray:5.55,2.4;stroke-dashoffset:0;stroke-width:1.5;"/>
   </g>
   <g id="line2d_38">
    <path clip-path="url(#p8682b7ab61)" d="M 52.223938 203.842618 
L 85.882119 200.008432 
L 119.540301 202.056032 
L 153.198483 178.827468 
L 186.856665 145.530301 
L 220.514847 110.869615 
L 254.173028 106.276283 
L 287.83121 117.983665 
L 321.489392 131.667287 
L 355.147574 145.439509 
" style="fill:none;stroke:#666666;stroke-linecap:square;stroke-width:1.5;"/>
   </g>
   <g id="line2d_39">
    <path clip-path="url(#p8682b7ab61)" d="M 203.685756 224.64 
L 203.685756 7.2 
" style="fill:none;stroke:#808080;stroke-dasharray:5.55,2.4;stroke-dashoffset:0;stroke-width:1.5;"/>
   </g>
   <g id="line2d_40">
    <path clip-path="url(#p8682b7ab61)" d="M 52.223938 180.312163 
L 85.882119 187.372025 
L 119.540301 180.327475 
L 153.198483 188.45327 
L 186.856665 173.565504 
L 220.514847 147.008026 
L 254.173028 139.272454 
L 287.83121 102.577721 
L 321.489392 147.293977 
L 355.147574 168.341369 
" style="fill:none;stroke:#666666;stroke-linecap:square;stroke-width:1.5;"/>
   </g>
   <g id="line2d_41">
    <path clip-path="url(#p8682b7ab61)" d="M 203.685756 224.64 
L 203.685756 7.2 
" style="fill:none;stroke:#808080;stroke-dasharray:5.55,2.4;stroke-dashoffset:0;stroke-width:1.5;"/>
   </g>
   <g id="line2d_42">
    <path clip-path="url(#p8682b7ab61)" d="M 36.285756 191.763069 
L 371.085756 191.763069 
" style="fill:none;stroke:#000000;stroke-dasharray:5.55,2.4;stroke-dashoffset:0;stroke-width:1.5;"/>
   </g>
   <g id="legend_1">
    <g id="line2d_43">
     <path d="M 45.285756 19.7 
L 65.285756 19.7 
" style="fill:none;stroke:#7fc97f;stroke-linecap:square;stroke-width:1.5;"/>
    </g>
    <g id="line2d_44"/>
    <g id="text_16">
     <!-- ACAd -->
     <defs>
      <path d="M 54.703125 11.015625 
C 48 6.5 44.90625 5.1875 36.796875 5.1875 
C 22.796875 5.1875 14.59375 20.375 14.59375 34.234375 
C 14.59375 49.015625 23 63.59375 37.203125 63.59375 
C 43.59375 63.59375 47.796875 61.78125 52.90625 58.5625 
L 54.296875 66.484375 
C 49.5 68.890625 43.40625 70 37.296875 70 
C 18.09375 70 6.203125 52.234375 6.203125 34.234375 
C 6.203125 14.4375 20.296875 -1.203125 36.296875 -1.203125 
C 44.90625 -1.203125 47.90625 -0.5 55.296875 4.1875 
z
" id="CMSS17-67"/>
     </defs>
     <g transform="translate(73.285756 23.2)scale(0.1 -0.1)">
      <use transform="scale(0.996264)" xlink:href="#CMSS17-65"/>
      <use transform="translate(59.615401 0)scale(0.996264)" xlink:href="#CMSS17-67"/>
      <use transform="translate(119.471173 0)scale(0.996264)" xlink:href="#CMSS17-65"/>
      <use transform="translate(181.689027 0)scale(0.996264)" xlink:href="#CMSS17-100"/>
     </g>
    </g>
    <g id="line2d_45">
     <path d="M 45.285756 33.637178 
L 65.285756 33.637178 
" style="fill:none;stroke:#7fc97f;stroke-linecap:square;stroke-width:1.5;"/>
    </g>
    <g id="line2d_46"/>
    <g id="text_17">
     <!-- ACAv -->
     <g transform="translate(73.285756 37.137178)scale(0.1 -0.1)">
      <use transform="scale(0.996264)" xlink:href="#CMSS17-65"/>
      <use transform="translate(59.615401 0)scale(0.996264)" xlink:href="#CMSS17-67"/>
      <use transform="translate(119.471173 0)scale(0.996264)" xlink:href="#CMSS17-65"/>
      <use transform="translate(181.689027 0)scale(0.996264)" xlink:href="#CMSS17-118"/>
     </g>
    </g>
    <g id="line2d_47">
     <path d="M 45.285756 47.574357 
L 65.285756 47.574357 
" style="fill:none;stroke:#beaed4;stroke-linecap:square;stroke-width:1.5;"/>
    </g>
    <g id="line2d_48"/>
    <g id="text_18">
     <!-- CNU -->
     <defs>
      <path d="M 22.90625 65.296875 
L 21.09375 69 
L 8.796875 69 
L 8.796875 0 
L 16.59375 0 
L 16.59375 61.328125 
L 16.703125 61.421875 
C 17.40625 59.640625 17.796875 58.734375 21.90625 49.890625 
L 43.296875 3.6875 
L 45.09375 0 
L 57.40625 0 
L 57.40625 69 
L 49.59375 69 
L 49.59375 7.65625 
L 49.5 7.5625 
C 48.796875 9.34375 48.40625 10.234375 44.296875 19.09375 
z
" id="CMSS17-78"/>
      <path d="M 55.5 69 
L 47.90625 69 
L 47.90625 22.796875 
C 47.90625 9.5 39.796875 3.59375 32.40625 3.59375 
C 24.796875 3.59375 17.203125 9.796875 17.203125 22.6875 
L 17.203125 69 
L 8.796875 69 
L 8.796875 22.890625 
C 8.796875 8.5 19.90625 -2 32.296875 -2 
C 44.703125 -2 55.5 8.5 55.5 22.890625 
z
" id="CMSS17-85"/>
     </defs>
     <g transform="translate(73.285756 51.074357)scale(0.1 -0.1)">
      <use transform="scale(0.996264)" xlink:href="#CMSS17-67"/>
      <use transform="translate(59.855772 0)scale(0.996264)" xlink:href="#CMSS17-78"/>
      <use transform="translate(125.917291 0)scale(0.996264)" xlink:href="#CMSS17-85"/>
     </g>
    </g>
    <g id="line2d_49">
     <path d="M 45.285756 61.511535 
L 65.285756 61.511535 
" style="fill:none;stroke:#beaed4;stroke-linecap:square;stroke-width:1.5;"/>
    </g>
    <g id="line2d_50"/>
    <g id="text_19">
     <!-- CTXpl -->
     <defs>
      <path d="M 36.203125 62.296875 
L 44.5 62.296875 
C 45.703125 62.296875 46.90625 62.1875 48.09375 62.1875 
L 60.59375 62.1875 
L 60.59375 68.6875 
L 3.40625 68.6875 
L 3.40625 62.1875 
L 15.90625 62.1875 
C 17.09375 62.1875 18.296875 62.296875 19.5 62.296875 
L 27.796875 62.296875 
L 27.796875 0 
L 36.203125 0 
z
" id="CMSS17-84"/>
      <path d="M 34.59375 36.375 
L 57.203125 69 
L 48 69 
L 30.5 43.140625 
L 12.5 69 
L 2.59375 69 
L 26.40625 36.375 
L 1.296875 0 
L 10.5 0 
L 30.5 30.3125 
L 51.203125 0 
L 61.09375 0 
z
" id="CMSS17-88"/>
      <path d="M 15.09375 4.296875 
C 18.40625 1.09375 22.90625 -1 27.703125 -1 
C 37 -1 45 8.640625 45 21.59375 
C 45 33.546875 39 44 30.40625 44 
C 25.40625 44 19.40625 42.1875 14.90625 38.59375 
L 14.90625 43.1875 
L 7.5 43.1875 
L 7.5 -20 
L 15.09375 -20 
z
M 15.09375 32.625 
C 15.90625 33.84375 19.296875 37.6875 24.796875 37.6875 
C 31.796875 37.6875 37.40625 30.40625 37.40625 21.59375 
C 37.40625 11.578125 30.59375 5.09375 23.90625 5.09375 
C 21.90625 5.09375 19.796875 5.59375 17.796875 7.3125 
C 15.09375 9.75 15.09375 11.265625 15.09375 12.6875 
z
" id="CMSS17-112"/>
     </defs>
     <g transform="translate(73.285756 65.011535)scale(0.1 -0.1)">
      <use transform="scale(0.996264)" xlink:href="#CMSS17-67"/>
      <use transform="translate(59.855772 0)scale(0.996264)" xlink:href="#CMSS17-84"/>
      <use transform="translate(123.675225 0)scale(0.996264)" xlink:href="#CMSS17-88"/>
      <use transform="translate(185.89308 0)scale(0.996264)" xlink:href="#CMSS17-112"/>
      <use transform="translate(234.098024 0)scale(0.996264)" xlink:href="#CMSS17-108"/>
     </g>
    </g>
    <g id="line2d_51">
     <path d="M 45.285756 75.448713 
L 65.285756 75.448713 
" style="fill:none;stroke:#fdc086;stroke-linecap:square;stroke-width:1.5;"/>
    </g>
    <g id="line2d_52"/>
    <g id="text_20">
     <!-- FRP -->
     <defs>
      <path d="M 45.59375 31 
L 45.59375 37.09375 
L 17.203125 37.09375 
L 17.203125 62.390625 
L 29.40625 62.390625 
C 30.59375 62.390625 31.796875 62.296875 33 62.296875 
L 49.5 62.296875 
L 49.5 68.796875 
L 8.796875 68.796875 
L 8.796875 0 
L 17.203125 0 
L 17.203125 31 
z
" id="CMSS17-70"/>
      <path d="M 39.40625 32.796875 
L 39.59375 32.890625 
C 55.203125 38.28125 55.296875 48.828125 55.296875 50.6875 
C 55.296875 59.96875 45.703125 69 31.296875 69 
L 8.90625 69 
L 8.90625 0 
L 17.09375 0 
L 17.09375 31.890625 
L 31.796875 31.890625 
L 49.5 0 
L 57.90625 0 
z
M 17.09375 38 
L 17.09375 63.390625 
L 30.203125 63.390625 
C 42.90625 63.390625 47.40625 56.359375 47.40625 50.6875 
C 47.40625 45.421875 43.40625 38 30.203125 38 
z
" id="CMSS17-82"/>
     </defs>
     <g transform="translate(73.285756 78.948713)scale(0.1 -0.1)">
      <use transform="scale(0.996264)" xlink:href="#CMSS17-70"/>
      <use transform="translate(53.289559 0)scale(0.996264)" xlink:href="#CMSS17-82"/>
      <use transform="translate(113.705714 0)scale(0.996264)" xlink:href="#CMSS17-80"/>
     </g>
    </g>
    <g id="line2d_53">
     <path d="M 45.285756 89.385892 
L 65.285756 89.385892 
" style="fill:none;stroke:#ffff99;stroke-linecap:square;stroke-width:1.5;"/>
    </g>
    <g id="line2d_54"/>
    <g id="text_21">
     <!-- ILA -->
     <defs>
      <path d="M 17.09375 69 
L 8.703125 69 
L 8.703125 0 
L 17.09375 0 
z
" id="CMSS17-73"/>
      <path d="M 26.09375 6.5 
C 24.90625 6.5 23.703125 6.390625 22.5 6.390625 
L 17.203125 6.390625 
L 17.203125 69 
L 8.796875 69 
L 8.796875 0 
L 46.90625 0 
L 46.90625 6.5 
z
" id="CMSS17-76"/>
     </defs>
     <g transform="translate(73.285756 92.885892)scale(0.1 -0.1)">
      <use transform="scale(0.996264)" xlink:href="#CMSS17-73"/>
      <use transform="translate(25.783926 0)scale(0.996264)" xlink:href="#CMSS17-76"/>
      <use transform="translate(76.471031 0)scale(0.996264)" xlink:href="#CMSS17-65"/>
     </g>
    </g>
    <g id="line2d_55">
     <path d="M 45.285756 103.32307 
L 65.285756 103.32307 
" style="fill:none;stroke:#ffff99;stroke-linecap:square;stroke-width:1.5;"/>
    </g>
    <g id="line2d_56"/>
    <g id="text_22">
     <!-- LS -->
     <defs>
      <path d="M 43.703125 66.09375 
C 39.296875 68.6875 34.5 71 26.40625 71 
C 13.5 71 5.203125 61.46875 5.203125 51.703125 
C 5.203125 47.875 6.296875 43.546875 10.203125 39.125 
C 14.09375 34.6875 18.5 33.484375 24.09375 32.078125 
C 26.40625 31.46875 30.296875 30.359375 31 30.0625 
C 36.59375 27.84375 39.296875 22.71875 39.296875 17.875 
C 39.296875 11.53125 34.40625 4.796875 25.703125 4.796875 
C 22.703125 4.796875 13.90625 5.296875 5.59375 12.953125 
L 4.203125 5 
C 12.40625 -1 21.296875 -2 25.796875 -2 
C 38.09375 -2 46.90625 7.71875 46.90625 18.78125 
C 46.90625 22.8125 45.703125 27.953125 41.5 32.6875 
C 37.40625 37.203125 33.796875 38.21875 25.59375 40.4375 
C 20.90625 41.640625 17.90625 42.453125 15.40625 45.5625 
C 13.703125 47.78125 12.796875 49.890625 12.796875 52.609375 
C 12.796875 58.25 17.59375 64.390625 26.40625 64.390625 
C 30.796875 64.390625 36.5 63.484375 42.296875 58.046875 
z
" id="CMSS17-83"/>
     </defs>
     <g transform="translate(73.285756 106.82307)scale(0.1 -0.1)">
      <use transform="scale(0.996264)" xlink:href="#CMSS17-76"/>
      <use transform="translate(50.687105 0)scale(0.996264)" xlink:href="#CMSS17-83"/>
     </g>
    </g>
    <g id="line2d_57">
     <path d="M 120.600045 19.7 
L 140.600045 19.7 
" style="fill:none;stroke:#386cb0;stroke-linecap:square;stroke-width:1.5;"/>
    </g>
    <g id="line2d_58"/>
    <g id="text_23">
     <!-- MOs -->
     <defs>
      <path d="M 49.90625 37.078125 
L 45.09375 23.0625 
C 44.296875 20.484375 41.59375 12.421875 41 9.25 
L 40.90625 9.25 
C 40.59375 11.234375 40 13.328125 38.40625 18.390625 
C 37.5 21.375 36.5 24.453125 35.5 27.234375 
L 20.703125 69 
L 9 69 
L 9 0 
L 16.796875 0 
L 16.796875 60.921875 
L 16.90625 60.921875 
C 16.90625 60.828125 17.796875 56.453125 23.90625 39.0625 
L 37.09375 1.59375 
L 44.5 1.59375 
L 56.40625 34.890625 
C 57.203125 37.171875 59.703125 44.421875 60.796875 47.90625 
C 61.796875 50.890625 64.296875 58.25 64.90625 61.125 
L 65 61.125 
L 65 0 
L 72.90625 0 
L 72.90625 69 
L 61.296875 69 
z
" id="CMSS17-77"/>
      <path d="M 64 34.390625 
C 64 55.328125 50.296875 71 34.59375 71 
C 18.90625 71 5.203125 55.234375 5.203125 34.390625 
C 5.203125 13.359375 19.09375 -2 34.59375 -2 
C 50.09375 -2 64 13.359375 64 34.390625 
z
M 34.59375 4.296875 
C 23.59375 4.296875 13.59375 16.671875 13.59375 35.703125 
C 13.59375 54.21875 24.203125 64.6875 34.59375 64.6875 
C 45 64.6875 55.59375 54.21875 55.59375 35.703125 
C 55.59375 16.578125 45.5 4.296875 34.59375 4.296875 
z
" id="CMSS17-79"/>
     </defs>
     <g transform="translate(148.600045 23.2)scale(0.1 -0.1)">
      <use transform="scale(0.996264)" xlink:href="#CMSS17-77"/>
      <use transform="translate(81.67603 0)scale(0.996264)" xlink:href="#CMSS17-79"/>
      <use transform="translate(150.700285 0)scale(0.996264)" xlink:href="#CMSS17-115"/>
     </g>
    </g>
    <g id="line2d_59">
     <path d="M 120.600045 33.637178 
L 140.600045 33.637178 
" style="fill:none;stroke:#386cb0;stroke-linecap:square;stroke-width:1.5;"/>
    </g>
    <g id="line2d_60"/>
    <g id="text_24">
     <!-- OLF -->
     <g transform="translate(148.600045 37.137178)scale(0.1 -0.1)">
      <use transform="scale(0.996264)" xlink:href="#CMSS17-79"/>
      <use transform="translate(69.024255 0)scale(0.996264)" xlink:href="#CMSS17-76"/>
      <use transform="translate(119.711361 0)scale(0.996264)" xlink:href="#CMSS17-70"/>
     </g>
    </g>
    <g id="line2d_61">
     <path d="M 120.600045 47.574357 
L 140.600045 47.574357 
" style="fill:none;stroke:#f0027f;stroke-linecap:square;stroke-width:1.5;"/>
    </g>
    <g id="line2d_62"/>
    <g id="text_25">
     <!-- ORBl -->
     <defs>
      <path d="M 8.90625 69 
L 8.90625 0 
L 33.796875 0 
C 47.40625 0 57.296875 8.984375 57.296875 18.75 
C 57.296875 26.3125 50.796875 33.984375 39.09375 36.1875 
C 52.09375 39.984375 54.703125 47.484375 54.703125 51.734375 
C 54.703125 60.625 44.90625 69 31.203125 69 
z
M 17 39 
L 17 63.390625 
L 28.5 63.390625 
C 38.796875 63.390625 46.90625 58.15625 46.90625 51.640625 
C 46.90625 45.703125 40.5 39 27.59375 39 
z
M 17 5.59375 
L 17 32.890625 
L 30.296875 32.890625 
C 41.09375 32.890625 49.40625 26.21875 49.40625 18.84375 
C 49.40625 12.0625 42.09375 5.59375 31 5.59375 
z
" id="CMSS17-66"/>
     </defs>
     <g transform="translate(148.600045 51.074357)scale(0.1 -0.1)">
      <use transform="scale(0.996264)" xlink:href="#CMSS17-79"/>
      <use transform="translate(69.024255 0)scale(0.996264)" xlink:href="#CMSS17-82"/>
      <use transform="translate(129.44041 0)scale(0.996264)" xlink:href="#CMSS17-66"/>
      <use transform="translate(191.77845 0)scale(0.996264)" xlink:href="#CMSS17-108"/>
     </g>
    </g>
    <g id="line2d_63">
     <path d="M 120.600045 61.511535 
L 140.600045 61.511535 
" style="fill:none;stroke:#bf5b17;stroke-linecap:square;stroke-width:1.5;"/>
    </g>
    <g id="line2d_64"/>
    <g id="text_26">
     <!-- ORBm -->
     <g transform="translate(148.600045 65.011535)scale(0.1 -0.1)">
      <use transform="scale(0.996264)" xlink:href="#CMSS17-79"/>
      <use transform="translate(69.024255 0)scale(0.996264)" xlink:href="#CMSS17-82"/>
      <use transform="translate(129.44041 0)scale(0.996264)" xlink:href="#CMSS17-66"/>
      <use transform="translate(191.77845 0)scale(0.996264)" xlink:href="#CMSS17-109"/>
     </g>
    </g>
    <g id="line2d_65">
     <path d="M 120.600045 75.448713 
L 140.600045 75.448713 
" style="fill:none;stroke:#bf5b17;stroke-linecap:square;stroke-width:1.5;"/>
    </g>
    <g id="line2d_66"/>
    <g id="text_27">
     <!-- ORBvl -->
     <g transform="translate(148.600045 78.948713)scale(0.1 -0.1)">
      <use transform="scale(0.996264)" xlink:href="#CMSS17-79"/>
      <use transform="translate(69.024255 0)scale(0.996264)" xlink:href="#CMSS17-82"/>
      <use transform="translate(129.44041 0)scale(0.996264)" xlink:href="#CMSS17-66"/>
      <use transform="translate(191.77845 0)scale(0.996264)" xlink:href="#CMSS17-118"/>
      <use transform="translate(234.778592 0)scale(0.996264)" xlink:href="#CMSS17-108"/>
     </g>
    </g>
    <g id="line2d_67">
     <path d="M 120.600045 89.385892 
L 140.600045 89.385892 
" style="fill:none;stroke:#666666;stroke-linecap:square;stroke-width:1.5;"/>
    </g>
    <g id="line2d_68"/>
    <g id="text_28">
     <!-- PL -->
     <g transform="translate(148.600045 92.885892)scale(0.1 -0.1)">
      <use transform="scale(0.996264)" xlink:href="#CMSS17-80"/>
      <use transform="translate(59.735586 0)scale(0.996264)" xlink:href="#CMSS17-76"/>
     </g>
    </g>
    <g id="line2d_69">
     <path d="M 120.600045 103.32307 
L 140.600045 103.32307 
" style="fill:none;stroke:#666666;stroke-linecap:square;stroke-width:1.5;"/>
    </g>
    <g id="line2d_70"/>
    <g id="text_29">
     <!-- TT -->
     <g transform="translate(148.600045 106.82307)scale(0.1 -0.1)">
      <use transform="scale(0.996264)" xlink:href="#CMSS17-84"/>
      <use transform="translate(63.819454 0)scale(0.996264)" xlink:href="#CMSS17-84"/>
     </g>
    </g>
   </g>
  </g>
 </g>
 <defs>
  <clipPath id="p8682b7ab61">
   <rect height="217.44" width="334.8" x="36.285756" y="7.2"/>
  </clipPath>
 </defs>
</svg>
