<?xml version="1.0" encoding="utf-8" standalone="no"?>
<!DOCTYPE svg PUBLIC "-//W3C//DTD SVG 1.1//EN"
  "http://www.w3.org/Graphics/SVG/1.1/DTD/svg11.dtd">
<!-- Created with matplotlib (https://matplotlib.org/) -->
<svg height="272.01773pt" version="1.1" viewBox="0 0 507.59717 272.01773" width="507.59717pt" xmlns="http://www.w3.org/2000/svg" xmlns:xlink="http://www.w3.org/1999/xlink">
 <defs>
  <style type="text/css">
*{stroke-linecap:butt;stroke-linejoin:round;}
  </style>
 </defs>
 <g id="figure_1">
  <g id="patch_1">
   <path d="M 0 272.01773 
L 507.59717 272.01773 
L 507.59717 0 
L 0 0 
z
" style="fill:#ffffff;"/>
  </g>
  <g id="axes_1">
   <g id="patch_2">
    <path d="M 53.99717 239.606376 
L 500.39717 239.606376 
L 500.39717 22.166376 
L 53.99717 22.166376 
z
" style="fill:#ffffff;"/>
   </g>
   <g id="patch_3">
    <path clip-path="url(#p28f2f7d7b2)" d="M 74.288079 170.968674 
L 97.813771 170.968674 
L 97.813771 32.050012 
L 74.288079 32.050012 
z
"/>
   </g>
   <g id="patch_4">
    <path clip-path="url(#p28f2f7d7b2)" d="M 103.695194 170.968674 
L 127.220885 170.968674 
L 127.220885 100.181297 
L 103.695194 100.181297 
z
"/>
   </g>
   <g id="patch_5">
    <path clip-path="url(#p28f2f7d7b2)" d="M 133.102308 170.968674 
L 156.628 170.968674 
L 156.628 125.503112 
L 133.102308 125.503112 
z
"/>
   </g>
   <g id="patch_6">
    <path clip-path="url(#p28f2f7d7b2)" d="M 162.509423 170.968674 
L 186.035115 170.968674 
L 186.035115 143.924372 
L 162.509423 143.924372 
z
"/>
   </g>
   <g id="patch_7">
    <path clip-path="url(#p28f2f7d7b2)" d="M 191.916538 170.968674 
L 215.442229 170.968674 
L 215.442229 153.65615 
L 191.916538 153.65615 
z
"/>
   </g>
   <g id="patch_8">
    <path clip-path="url(#p28f2f7d7b2)" d="M 221.323652 170.968674 
L 244.849344 170.968674 
L 244.849344 157.181331 
L 221.323652 157.181331 
z
"/>
   </g>
   <g id="patch_9">
    <path clip-path="url(#p28f2f7d7b2)" d="M 250.730767 170.968674 
L 274.256458 170.968674 
L 274.256458 173.783531 
L 250.730767 173.783531 
z
"/>
   </g>
   <g id="patch_10">
    <path clip-path="url(#p28f2f7d7b2)" d="M 280.137881 170.968674 
L 303.663573 170.968674 
L 303.663573 177.882109 
L 280.137881 177.882109 
z
"/>
   </g>
   <g id="patch_11">
    <path clip-path="url(#p28f2f7d7b2)" d="M 309.544996 170.968674 
L 333.070688 170.968674 
L 333.070688 199.631888 
L 309.544996 199.631888 
z
"/>
   </g>
   <g id="patch_12">
    <path clip-path="url(#p28f2f7d7b2)" d="M 338.952111 170.968674 
L 362.477802 170.968674 
L 362.477802 201.910308 
L 338.952111 201.910308 
z
"/>
   </g>
   <g id="patch_13">
    <path clip-path="url(#p28f2f7d7b2)" d="M 368.359225 170.968674 
L 391.884917 170.968674 
L 391.884917 202.501372 
L 368.359225 202.501372 
z
"/>
   </g>
   <g id="patch_14">
    <path clip-path="url(#p28f2f7d7b2)" d="M 397.76634 170.968674 
L 421.292032 170.968674 
L 421.292032 205.913389 
L 397.76634 205.913389 
z
"/>
   </g>
   <g id="patch_15">
    <path clip-path="url(#p28f2f7d7b2)" d="M 427.173454 170.968674 
L 450.699146 170.968674 
L 450.699146 217.08849 
L 427.173454 217.08849 
z
"/>
   </g>
   <g id="patch_16">
    <path clip-path="url(#p28f2f7d7b2)" d="M 456.580569 170.968674 
L 480.106261 170.968674 
L 480.106261 229.72274 
L 456.580569 229.72274 
z
"/>
   </g>
   <g id="matplotlib.axis_1">
    <g id="xtick_1">
     <g id="line2d_1"/>
     <g id="text_1">
      <!-- MOs -->
      <defs>
       <path d="M 49.90625 37.078125 
L 45.09375 23.0625 
C 44.296875 20.484375 41.59375 12.421875 41 9.25 
L 40.90625 9.25 
C 40.59375 11.234375 40 13.328125 38.40625 18.390625 
C 37.5 21.375 36.5 24.453125 35.5 27.234375 
L 20.703125 69 
L 9 69 
L 9 0 
L 16.796875 0 
L 16.796875 60.921875 
L 16.90625 60.921875 
C 16.90625 60.828125 17.796875 56.453125 23.90625 39.0625 
L 37.09375 1.59375 
L 44.5 1.59375 
L 56.40625 34.890625 
C 57.203125 37.171875 59.703125 44.421875 60.796875 47.90625 
C 61.796875 50.890625 64.296875 58.25 64.90625 61.125 
L 65 61.125 
L 65 0 
L 72.90625 0 
L 72.90625 69 
L 61.296875 69 
z
" id="CMSS17-77"/>
       <path d="M 64 34.390625 
C 64 55.328125 50.296875 71 34.59375 71 
C 18.90625 71 5.203125 55.234375 5.203125 34.390625 
C 5.203125 13.359375 19.09375 -2 34.59375 -2 
C 50.09375 -2 64 13.359375 64 34.390625 
z
M 34.59375 4.296875 
C 23.59375 4.296875 13.59375 16.671875 13.59375 35.703125 
C 13.59375 54.21875 24.203125 64.6875 34.59375 64.6875 
C 45 64.6875 55.59375 54.21875 55.59375 35.703125 
C 55.59375 16.578125 45.5 4.296875 34.59375 4.296875 
z
" id="CMSS17-79"/>
       <path d="M 32.203125 40.984375 
C 26.296875 43.796875 21.703125 44 18.703125 44 
C 11.59375 44 3.09375 41.484375 3.09375 31.390625 
C 3.09375 21.296875 14.09375 19.09375 17.09375 18.484375 
C 21.703125 17.59375 26.796875 16.59375 26.796875 11.59375 
C 26.796875 5.296875 19.59375 5.296875 18.296875 5.296875 
C 14.296875 5.296875 8.796875 6.390625 3.796875 9.984375 
L 2.59375 3.296875 
C 8.296875 0 13.796875 -1 18.40625 -1 
C 30.703125 -1 33.796875 6.5 33.796875 12.1875 
C 33.796875 17.09375 31 20.390625 29.09375 21.890625 
C 25.796875 24.484375 24.59375 24.796875 16.40625 26.484375 
C 15 26.6875 10.09375 27.796875 10.09375 32.296875 
C 10.09375 37.984375 16.40625 37.984375 17.796875 37.984375 
C 24.296875 37.984375 28.296875 35.984375 31 34.484375 
z
" id="CMSS17-115"/>
      </defs>
      <g transform="translate(76.115937 250.024874)scale(0.1 -0.1)">
       <use transform="scale(0.996264)" xlink:href="#CMSS17-77"/>
       <use transform="translate(81.67603 0)scale(0.996264)" xlink:href="#CMSS17-79"/>
       <use transform="translate(150.700285 0)scale(0.996264)" xlink:href="#CMSS17-115"/>
      </g>
     </g>
    </g>
    <g id="xtick_2">
     <g id="line2d_2"/>
     <g id="text_2">
      <!-- FRP -->
      <defs>
       <path d="M 45.59375 31 
L 45.59375 37.09375 
L 17.203125 37.09375 
L 17.203125 62.390625 
L 29.40625 62.390625 
C 30.59375 62.390625 31.796875 62.296875 33 62.296875 
L 49.5 62.296875 
L 49.5 68.796875 
L 8.796875 68.796875 
L 8.796875 0 
L 17.203125 0 
L 17.203125 31 
z
" id="CMSS17-70"/>
       <path d="M 39.40625 32.796875 
L 39.59375 32.890625 
C 55.203125 38.28125 55.296875 48.828125 55.296875 50.6875 
C 55.296875 59.96875 45.703125 69 31.296875 69 
L 8.90625 69 
L 8.90625 0 
L 17.09375 0 
L 17.09375 31.890625 
L 31.796875 31.890625 
L 49.5 0 
L 57.90625 0 
z
M 17.09375 38 
L 17.09375 63.390625 
L 30.203125 63.390625 
C 42.90625 63.390625 47.40625 56.359375 47.40625 50.6875 
C 47.40625 45.421875 43.40625 38 30.203125 38 
z
" id="CMSS17-82"/>
       <path d="M 32.90625 29 
C 44.90625 29 54.703125 38.234375 54.703125 49.046875 
C 54.703125 59.65625 45.296875 69 32.296875 69 
L 8.90625 69 
L 8.90625 0 
L 17.296875 0 
L 17.296875 29 
z
M 30.09375 63.390625 
C 41.703125 63.390625 46.796875 56.21875 46.796875 49.046875 
C 46.796875 42.359375 42.09375 34.796875 30.09375 34.796875 
L 17.09375 34.796875 
L 17.09375 63.390625 
z
" id="CMSS17-80"/>
      </defs>
      <g transform="translate(106.221809 250.024874)scale(0.1 -0.1)">
       <use transform="scale(0.996264)" xlink:href="#CMSS17-70"/>
       <use transform="translate(53.289559 0)scale(0.996264)" xlink:href="#CMSS17-82"/>
       <use transform="translate(113.705714 0)scale(0.996264)" xlink:href="#CMSS17-80"/>
      </g>
     </g>
    </g>
    <g id="xtick_3">
     <g id="line2d_3"/>
     <g id="text_3">
      <!-- ACAd -->
      <defs>
       <path d="M 35.5 69 
L 26.90625 69 
L 2.59375 0 
L 10.203125 0 
L 17.203125 20 
L 44 20 
L 51.09375 0 
L 59.796875 0 
z
M 42.09375 25.59375 
L 19.09375 25.59375 
C 23.90625 39.53125 29.90625 56.84375 30.59375 61.3125 
L 30.703125 61.3125 
C 31.40625 57.234375 33.40625 51.265625 35.09375 46.1875 
z
" id="CMSS17-65"/>
       <path d="M 54.703125 11.015625 
C 48 6.5 44.90625 5.1875 36.796875 5.1875 
C 22.796875 5.1875 14.59375 20.375 14.59375 34.234375 
C 14.59375 49.015625 23 63.59375 37.203125 63.59375 
C 43.59375 63.59375 47.796875 61.78125 52.90625 58.5625 
L 54.296875 66.484375 
C 49.5 68.890625 43.40625 70 37.296875 70 
C 18.09375 70 6.203125 52.234375 6.203125 34.234375 
C 6.203125 14.4375 20.296875 -1.203125 36.296875 -1.203125 
C 44.90625 -1.203125 47.90625 -0.5 55.296875 4.1875 
z
" id="CMSS17-67"/>
       <path d="M 40.796875 69 
L 33.40625 69 
L 33.40625 38.984375 
C 30.296875 41.59375 25.203125 44 19.59375 44 
C 10.5 44 3.296875 34.046875 3.296875 21.484375 
C 3.296875 8.9375 10.40625 -1 19.296875 -1 
C 26.203125 -1 30.796875 2.6875 33.203125 4.796875 
L 33.203125 -0.203125 
L 40.796875 -0.203125 
z
M 33.203125 13.296875 
C 33.203125 11.875 33.203125 10.359375 30.09375 7.625 
C 28.09375 5.90625 25.703125 5.09375 23.40625 5.09375 
C 18 5.09375 10.90625 9.140625 10.90625 21.390625 
C 10.90625 34.140625 18.90625 37.890625 24.40625 37.890625 
C 28.09375 37.890625 31.09375 36.0625 33.203125 33.03125 
z
" id="CMSS17-100"/>
      </defs>
      <g transform="translate(132.605547 250.024874)scale(0.1 -0.1)">
       <use transform="scale(0.996264)" xlink:href="#CMSS17-65"/>
       <use transform="translate(59.615401 0)scale(0.996264)" xlink:href="#CMSS17-67"/>
       <use transform="translate(119.471173 0)scale(0.996264)" xlink:href="#CMSS17-65"/>
       <use transform="translate(181.689027 0)scale(0.996264)" xlink:href="#CMSS17-100"/>
      </g>
     </g>
    </g>
    <g id="xtick_4">
     <g id="line2d_4"/>
     <g id="text_4">
      <!-- TT -->
      <defs>
       <path d="M 36.203125 62.296875 
L 44.5 62.296875 
C 45.703125 62.296875 46.90625 62.1875 48.09375 62.1875 
L 60.59375 62.1875 
L 60.59375 68.6875 
L 3.40625 68.6875 
L 3.40625 62.1875 
L 15.90625 62.1875 
C 17.09375 62.1875 18.296875 62.296875 19.5 62.296875 
L 27.796875 62.296875 
L 27.796875 0 
L 36.203125 0 
z
" id="CMSS17-84"/>
      </defs>
      <g transform="translate(167.492122 250.024874)scale(0.1 -0.1)">
       <use transform="scale(0.996264)" xlink:href="#CMSS17-84"/>
       <use transform="translate(63.819454 0)scale(0.996264)" xlink:href="#CMSS17-84"/>
      </g>
     </g>
    </g>
    <g id="xtick_5">
     <g id="line2d_5"/>
     <g id="text_5">
      <!-- PL -->
      <defs>
       <path d="M 26.09375 6.5 
C 24.90625 6.5 23.703125 6.390625 22.5 6.390625 
L 17.203125 6.390625 
L 17.203125 69 
L 8.796875 69 
L 8.796875 0 
L 46.90625 0 
L 46.90625 6.5 
z
" id="CMSS17-76"/>
      </defs>
      <g transform="translate(197.798642 250.024874)scale(0.1 -0.1)">
       <use transform="scale(0.996264)" xlink:href="#CMSS17-80"/>
       <use transform="translate(59.735586 0)scale(0.996264)" xlink:href="#CMSS17-76"/>
      </g>
     </g>
    </g>
    <g id="xtick_6">
     <g id="line2d_6"/>
     <g id="text_6">
      <!-- LS -->
      <defs>
       <path d="M 43.703125 66.09375 
C 39.296875 68.6875 34.5 71 26.40625 71 
C 13.5 71 5.203125 61.46875 5.203125 51.703125 
C 5.203125 47.875 6.296875 43.546875 10.203125 39.125 
C 14.09375 34.6875 18.5 33.484375 24.09375 32.078125 
C 26.40625 31.46875 30.296875 30.359375 31 30.0625 
C 36.59375 27.84375 39.296875 22.71875 39.296875 17.875 
C 39.296875 11.53125 34.40625 4.796875 25.703125 4.796875 
C 22.703125 4.796875 13.90625 5.296875 5.59375 12.953125 
L 4.203125 5 
C 12.40625 -1 21.296875 -2 25.796875 -2 
C 38.09375 -2 46.90625 7.71875 46.90625 18.78125 
C 46.90625 22.8125 45.703125 27.953125 41.5 32.6875 
C 37.40625 37.203125 33.796875 38.21875 25.59375 40.4375 
C 20.90625 41.640625 17.90625 42.453125 15.40625 45.5625 
C 13.703125 47.78125 12.796875 49.890625 12.796875 52.609375 
C 12.796875 58.25 17.59375 64.390625 26.40625 64.390625 
C 30.796875 64.390625 36.5 63.484375 42.296875 58.046875 
z
" id="CMSS17-83"/>
      </defs>
      <g transform="translate(227.620864 250.024874)scale(0.1 -0.1)">
       <use transform="scale(0.996264)" xlink:href="#CMSS17-76"/>
       <use transform="translate(50.687105 0)scale(0.996264)" xlink:href="#CMSS17-83"/>
      </g>
     </g>
    </g>
    <g id="xtick_7">
     <g id="line2d_7"/>
     <g id="text_7">
      <!-- ORBl -->
      <defs>
       <path d="M 8.90625 69 
L 8.90625 0 
L 33.796875 0 
C 47.40625 0 57.296875 8.984375 57.296875 18.75 
C 57.296875 26.3125 50.796875 33.984375 39.09375 36.1875 
C 52.09375 39.984375 54.703125 47.484375 54.703125 51.734375 
C 54.703125 60.625 44.90625 69 31.203125 69 
z
M 17 39 
L 17 63.390625 
L 28.5 63.390625 
C 38.796875 63.390625 46.90625 58.15625 46.90625 51.640625 
C 46.90625 45.703125 40.5 39 27.59375 39 
z
M 17 5.59375 
L 17 32.890625 
L 30.296875 32.890625 
C 41.09375 32.890625 49.40625 26.21875 49.40625 18.84375 
C 49.40625 12.0625 42.09375 5.59375 31 5.59375 
z
" id="CMSS17-66"/>
       <path d="M 14.796875 69 
L 7.40625 69 
L 7.40625 0 
L 14.796875 0 
z
" id="CMSS17-108"/>
      </defs>
      <g transform="translate(251.09882 250.024874)scale(0.1 -0.1)">
       <use transform="scale(0.996264)" xlink:href="#CMSS17-79"/>
       <use transform="translate(69.024255 0)scale(0.996264)" xlink:href="#CMSS17-82"/>
       <use transform="translate(129.44041 0)scale(0.996264)" xlink:href="#CMSS17-66"/>
       <use transform="translate(191.77845 0)scale(0.996264)" xlink:href="#CMSS17-108"/>
      </g>
     </g>
    </g>
    <g id="xtick_8">
     <g id="line2d_8"/>
     <g id="text_8">
      <!-- ILA -->
      <defs>
       <path d="M 17.09375 69 
L 8.703125 69 
L 8.703125 0 
L 17.09375 0 
z
" id="CMSS17-73"/>
      </defs>
      <g transform="translate(284.4979 250.024874)scale(0.1 -0.1)">
       <use transform="scale(0.996264)" xlink:href="#CMSS17-73"/>
       <use transform="translate(25.783926 0)scale(0.996264)" xlink:href="#CMSS17-76"/>
       <use transform="translate(76.471031 0)scale(0.996264)" xlink:href="#CMSS17-65"/>
      </g>
     </g>
    </g>
    <g id="xtick_9">
     <g id="line2d_9"/>
     <g id="text_9">
      <!-- OLF -->
      <g transform="translate(312.106211 250.024874)scale(0.1 -0.1)">
       <use transform="scale(0.996264)" xlink:href="#CMSS17-79"/>
       <use transform="translate(69.024255 0)scale(0.996264)" xlink:href="#CMSS17-76"/>
       <use transform="translate(119.711361 0)scale(0.996264)" xlink:href="#CMSS17-70"/>
      </g>
     </g>
    </g>
    <g id="xtick_10">
     <g id="line2d_10"/>
     <g id="text_10">
      <!-- ORBvl -->
      <defs>
       <path d="M 41.796875 43 
L 34 43 
L 27.296875 24.296875 
C 25.203125 18.1875 22.203125 9.796875 21.703125 5.5 
L 21.59375 5.5 
C 21.40625 7.296875 20.59375 9.890625 20.09375 11.6875 
C 19.5 13.890625 18.703125 16.5 18.09375 18.296875 
L 9.296875 43 
L 1.296875 43 
L 17.09375 0 
L 26 0 
z
" id="CMSS17-118"/>
      </defs>
      <g transform="translate(337.023213 250.024874)scale(0.1 -0.1)">
       <use transform="scale(0.996264)" xlink:href="#CMSS17-79"/>
       <use transform="translate(69.024255 0)scale(0.996264)" xlink:href="#CMSS17-82"/>
       <use transform="translate(129.44041 0)scale(0.996264)" xlink:href="#CMSS17-66"/>
       <use transform="translate(191.77845 0)scale(0.996264)" xlink:href="#CMSS17-118"/>
       <use transform="translate(234.778592 0)scale(0.996264)" xlink:href="#CMSS17-108"/>
      </g>
     </g>
    </g>
    <g id="xtick_11">
     <g id="line2d_11"/>
     <g id="text_11">
      <!-- CTXpl -->
      <defs>
       <path d="M 34.59375 36.375 
L 57.203125 69 
L 48 69 
L 30.5 43.140625 
L 12.5 69 
L 2.59375 69 
L 26.40625 36.375 
L 1.296875 0 
L 10.5 0 
L 30.5 30.3125 
L 51.203125 0 
L 61.09375 0 
z
" id="CMSS17-88"/>
       <path d="M 15.09375 4.296875 
C 18.40625 1.09375 22.90625 -1 27.703125 -1 
C 37 -1 45 8.640625 45 21.59375 
C 45 33.546875 39 44 30.40625 44 
C 25.40625 44 19.40625 42.1875 14.90625 38.59375 
L 14.90625 43.1875 
L 7.5 43.1875 
L 7.5 -20 
L 15.09375 -20 
z
M 15.09375 32.625 
C 15.90625 33.84375 19.296875 37.6875 24.796875 37.6875 
C 31.796875 37.6875 37.40625 30.40625 37.40625 21.59375 
C 37.40625 11.578125 30.59375 5.09375 23.90625 5.09375 
C 21.90625 5.09375 19.796875 5.59375 17.796875 7.3125 
C 15.09375 9.75 15.09375 11.265625 15.09375 12.6875 
z
" id="CMSS17-112"/>
      </defs>
      <g transform="translate(366.464927 250.024874)scale(0.1 -0.1)">
       <use transform="scale(0.996264)" xlink:href="#CMSS17-67"/>
       <use transform="translate(59.855772 0)scale(0.996264)" xlink:href="#CMSS17-84"/>
       <use transform="translate(123.675225 0)scale(0.996264)" xlink:href="#CMSS17-88"/>
       <use transform="translate(185.89308 0)scale(0.996264)" xlink:href="#CMSS17-112"/>
       <use transform="translate(234.098024 0)scale(0.996264)" xlink:href="#CMSS17-108"/>
      </g>
     </g>
    </g>
    <g id="xtick_12">
     <g id="line2d_12"/>
     <g id="text_12">
      <!-- CNU -->
      <defs>
       <path d="M 22.90625 65.296875 
L 21.09375 69 
L 8.796875 69 
L 8.796875 0 
L 16.59375 0 
L 16.59375 61.328125 
L 16.703125 61.421875 
C 17.40625 59.640625 17.796875 58.734375 21.90625 49.890625 
L 43.296875 3.6875 
L 45.09375 0 
L 57.40625 0 
L 57.40625 69 
L 49.59375 69 
L 49.59375 7.65625 
L 49.5 7.5625 
C 48.796875 9.34375 48.40625 10.234375 44.296875 19.09375 
z
" id="CMSS17-78"/>
       <path d="M 55.5 69 
L 47.90625 69 
L 47.90625 22.796875 
C 47.90625 9.5 39.796875 3.59375 32.40625 3.59375 
C 24.796875 3.59375 17.203125 9.796875 17.203125 22.6875 
L 17.203125 69 
L 8.796875 69 
L 8.796875 22.890625 
C 8.796875 8.5 19.90625 -2 32.296875 -2 
C 44.703125 -2 55.5 8.5 55.5 22.890625 
z
" id="CMSS17-85"/>
      </defs>
      <g transform="translate(399.393534 250.024874)scale(0.1 -0.1)">
       <use transform="scale(0.996264)" xlink:href="#CMSS17-67"/>
       <use transform="translate(59.855772 0)scale(0.996264)" xlink:href="#CMSS17-78"/>
       <use transform="translate(125.917291 0)scale(0.996264)" xlink:href="#CMSS17-85"/>
      </g>
     </g>
    </g>
    <g id="xtick_13">
     <g id="line2d_13"/>
     <g id="text_13">
      <!-- ORBm -->
      <defs>
       <path d="M 67 29.34375 
C 67 36.078125 65.296875 44 54.09375 44 
C 46.59375 44 42.09375 39.296875 40.09375 36.375 
C 38.296875 41.6875 34.09375 44 28.09375 44 
C 21.296875 44 17 40.09375 14.703125 37.28125 
L 14.703125 43.484375 
L 7.40625 43.484375 
L 7.40625 0 
L 15 0 
L 15 24.3125 
C 15 30.25 17.203125 37.890625 24.296875 37.890625 
C 33.40625 37.890625 33.40625 31.453125 33.40625 28.53125 
L 33.40625 0 
L 41 0 
L 41 24.3125 
C 41 30.25 43.203125 37.890625 50.296875 37.890625 
C 59.40625 37.890625 59.40625 31.453125 59.40625 28.53125 
L 59.40625 0 
L 67 0 
z
" id="CMSS17-109"/>
      </defs>
      <g transform="translate(424.774099 250.024874)scale(0.1 -0.1)">
       <use transform="scale(0.996264)" xlink:href="#CMSS17-79"/>
       <use transform="translate(69.024255 0)scale(0.996264)" xlink:href="#CMSS17-82"/>
       <use transform="translate(129.44041 0)scale(0.996264)" xlink:href="#CMSS17-66"/>
       <use transform="translate(191.77845 0)scale(0.996264)" xlink:href="#CMSS17-109"/>
      </g>
     </g>
    </g>
    <g id="xtick_14">
     <g id="line2d_14"/>
     <g id="text_14">
      <!-- ACAv -->
      <g transform="translate(456.360542 250.024874)scale(0.1 -0.1)">
       <use transform="scale(0.996264)" xlink:href="#CMSS17-65"/>
       <use transform="translate(59.615401 0)scale(0.996264)" xlink:href="#CMSS17-67"/>
       <use transform="translate(119.471173 0)scale(0.996264)" xlink:href="#CMSS17-65"/>
       <use transform="translate(181.689027 0)scale(0.996264)" xlink:href="#CMSS17-118"/>
      </g>
     </g>
    </g>
    <g id="text_15">
     <!-- Brain region -->
     <defs>
      <path d="M 14.90625 21.390625 
C 14.90625 30.84375 21.796875 37.171875 30.59375 37.375 
L 30.59375 44 
C 24.203125 43.890625 18.203125 40.6875 14.59375 35.46875 
L 14.59375 43.484375 
L 7.5 43.484375 
L 7.5 0 
L 14.90625 0 
z
" id="CMSS17-114"/>
      <path d="M 37.59375 27.953125 
C 37.59375 37.484375 30.90625 44 21.90625 44 
C 17.5 44 12.703125 43.1875 7.203125 39.984375 
L 7.796875 33.328125 
C 10.296875 35.15625 14.59375 38.09375 21.796875 38.09375 
C 26.90625 38.09375 30 34.140625 30 27.84375 
L 30 24 
C 14 23.5 4 18.890625 4 11.109375 
C 4 7.0625 6.5 -1 14.796875 -1 
C 16.296875 -1 24.40625 -0.8125 30.203125 3.5 
L 30.203125 -0.203125 
L 37.59375 -0.203125 
z
M 30 12.875 
C 30 11.109375 30 8.734375 27 6.96875 
C 24.40625 5.296875 21.09375 5.09375 19.703125 5.09375 
C 14.703125 5.09375 11.296875 7.859375 11.296875 11.296875 
C 11.296875 18.203125 26.90625 18.890625 30 19 
z
" id="CMSS17-97"/>
      <path d="M 15.296875 66 
L 6.90625 66 
L 6.90625 57.59375 
L 15.296875 57.59375 
z
M 14.796875 43 
L 7.40625 43 
L 7.40625 0 
L 14.796875 0 
z
" id="CMSS17-105"/>
      <path d="M 40.90625 29.34375 
C 40.90625 35.671875 39.40625 44 28.09375 44 
C 21.703125 44 17.5 40.6875 14.703125 37.28125 
L 14.703125 43.484375 
L 7.40625 43.484375 
L 7.40625 0 
L 15 0 
L 15 24.3125 
C 15 30.65625 17.40625 37.890625 24.203125 37.890625 
C 33 37.890625 33.296875 31.953125 33.296875 28.53125 
L 33.296875 0 
L 40.90625 0 
z
" id="CMSS17-110"/>
      <path d="M 39.09375 21.484375 
C 39.09375 24.796875 38.90625 31.265625 35.703125 36.671875 
C 32.203125 42.390625 26.5 44 22.203125 44 
C 11.796875 44 3 34.125 3 21.296875 
C 3 9.046875 12.09375 -1 23.59375 -1 
C 28.09375 -1 33.59375 0.296875 38.59375 3.890625 
C 38.59375 4.296875 38.40625 6.46875 38.296875 6.578125 
C 38.296875 6.765625 38 9.828125 38 10.234375 
C 33.203125 6.375 27.703125 5.09375 23.703125 5.09375 
C 17.296875 5.09375 10.40625 10.421875 10.09375 21.484375 
z
M 10.90625 27 
C 12.203125 32.59375 16.59375 37.890625 22.203125 37.890625 
C 23.703125 37.890625 30.703125 37.6875 32.5 27 
z
" id="CMSS17-101"/>
      <path d="M 44.5 44 
C 38.796875 43.890625 33.90625 42.796875 29.90625 40.890625 
C 26.59375 43.484375 23.203125 44 20.90625 44 
C 12.203125 44 5.59375 36.8125 5.59375 28.5 
C 5.59375 23.140625 8.59375 19.09375 8.796875 18.890625 
C 7 16.390625 6 13.6875 6 10.6875 
C 6 7.1875 7.40625 4.6875 8.5 3.296875 
C 3.296875 0.09375 2.59375 -4.8125 2.59375 -6.703125 
C 2.59375 -14 11.703125 -20 23.40625 -20 
C 35.203125 -20 44.296875 -14 44.296875 -6.609375 
C 44.296875 7.1875 29 7.296875 24.796875 7.296875 
L 16.703125 7.296875 
C 15.203125 7.296875 11.203125 7.296875 11.203125 12.390625 
C 11.203125 14.390625 12.09375 15.6875 12.203125 15.796875 
C 13.703125 14.6875 16.796875 13 20.90625 13 
C 29.203125 13 36.09375 19.984375 36.09375 28.5 
C 36.09375 33.25 33.90625 36.703125 33 37.890625 
L 33.296875 37.890625 
C 33.59375 37.890625 37.796875 38.1875 39.296875 38.1875 
C 42.5 38.1875 42.796875 38.09375 45.59375 37.796875 
z
M 20.90625 18.5 
C 17.5 18.5 12.703125 20.578125 12.703125 28.5 
C 12.703125 37.109375 18.203125 38.484375 20.796875 38.484375 
C 24.203125 38.484375 29 36.40625 29 28.5 
C 29 19.875 23.5 18.5 20.90625 18.5 
z
M 24.703125 0 
C 27.09375 0 37.203125 0 37.203125 -6.8125 
C 37.203125 -11.109375 31 -14.5 23.5 -14.5 
C 15.90625 -14.5 9.703125 -11.203125 9.703125 -6.703125 
C 9.703125 -6.203125 9.703125 0 16.59375 0 
z
" id="CMSS17-103"/>
      <path d="M 44.203125 21.1875 
C 44.203125 33.984375 34.703125 44 23.5 44 
C 12 44 2.703125 33.6875 2.703125 21.1875 
C 2.703125 8.5 12.296875 -1 23.40625 -1 
C 34.796875 -1 44.203125 8.796875 44.203125 21.1875 
z
M 23.5 5.296875 
C 16.40625 5.296875 10.296875 11.09375 10.296875 21.984375 
C 10.296875 33.59375 17.40625 37.890625 23.40625 37.890625 
C 29.90625 37.890625 36.59375 33.1875 36.59375 21.984375 
C 36.59375 10.6875 30.09375 5.296875 23.5 5.296875 
z
" id="CMSS17-111"/>
     </defs>
     <g transform="translate(251.695526 262.880551)scale(0.1 -0.1)">
      <use transform="scale(0.996264)" xlink:href="#CMSS17-66"/>
      <use transform="translate(62.33804 0)scale(0.996264)" xlink:href="#CMSS17-114"/>
      <use transform="translate(94.247813 0)scale(0.996264)" xlink:href="#CMSS17-97"/>
      <use transform="translate(139.169733 0)scale(0.996264)" xlink:href="#CMSS17-105"/>
      <use transform="translate(161.350456 0)scale(0.996264)" xlink:href="#CMSS17-110"/>
      <use transform="translate(240.784512 0)scale(0.996264)" xlink:href="#CMSS17-114"/>
      <use transform="translate(272.694285 0)scale(0.996264)" xlink:href="#CMSS17-101"/>
      <use transform="translate(314.333107 0)scale(0.996264)" xlink:href="#CMSS17-103"/>
      <use transform="translate(361.17673 0)scale(0.996264)" xlink:href="#CMSS17-105"/>
      <use transform="translate(383.357453 0)scale(0.996264)" xlink:href="#CMSS17-111"/>
      <use transform="translate(430.201077 0)scale(0.996264)" xlink:href="#CMSS17-110"/>
     </g>
    </g>
   </g>
   <g id="matplotlib.axis_2">
    <g id="ytick_1">
     <g id="line2d_15"/>
     <g id="text_16">
      <!-- $-0.050$ -->
      <defs>
       <path d="M 65.90625 23 
C 67.59375 23 69.40625 23 69.40625 25 
C 69.40625 27 67.59375 27 65.90625 27 
L 11.796875 27 
C 10.09375 27 8.296875 27 8.296875 25 
C 8.296875 23 10.09375 23 11.796875 23 
z
" id="CMSY10-0"/>
       <path d="M 43.09375 32.390625 
C 43.09375 38.109375 43 48.75 38.90625 56.984375 
C 34.796875 64.890625 28.203125 67 23.5 67 
C 16.703125 67 10.90625 62.984375 7.90625 56.578125 
C 4.703125 49.859375 3.796875 42.9375 3.796875 32.390625 
C 3.796875 25.171875 4.09375 16.34375 7.703125 8.609375 
C 11.796875 0.09375 18.703125 -2 23.40625 -2 
C 29.59375 -2 35.59375 1.296875 39 8.203125 
C 42.5 15.4375 43.09375 23.359375 43.09375 32.390625 
z
M 23.40625 4.09375 
C 15.796875 4.09375 13.5 12.828125 12.796875 15.734375 
C 11.59375 20.75 11.40625 25.5625 11.40625 33.5 
C 11.40625 39.71875 11.40625 46.75 13.296875 52.265625 
C 15.59375 58.6875 19.59375 60.890625 23.40625 60.890625 
C 30.796875 60.890625 33.203125 53.46875 34 50.859375 
C 35.5 45.546875 35.5 39.3125 35.5 33.5 
C 35.5 24.15625 35.5 4.09375 23.40625 4.09375 
z
" id="CMSS17-48"/>
       <path d="M 17 8 
L 9 8 
L 9 0 
L 17 0 
z
" id="CMSS17-46"/>
       <path d="M 14.59375 59.59375 
L 39.09375 59.59375 
L 39.09375 66 
L 7.296875 66 
L 7.296875 28.59375 
L 14 28.59375 
C 15.796875 32.859375 19.5 36 24.296875 36 
C 28.796875 36 33.796875 31.9375 33.796875 20.296875 
C 33.796875 7.84375 26.703125 4.1875 21.5 4.1875 
C 15.09375 4.1875 9.203125 8.140625 6.59375 13.609375 
L 3.40625 7.9375 
C 8 0.796875 15.5 -2 21.5 -2 
C 33.09375 -2 42.203125 7.9375 42.203125 20.09375 
C 42.203125 32.546875 34.09375 42.09375 24.40625 42.09375 
C 20.90625 42.09375 17.5 40.890625 14.59375 38.5 
z
" id="CMSS17-53"/>
      </defs>
      <g transform="translate(20.055677 226.45266)scale(0.1 -0.1)">
       <use transform="scale(0.996264)" xlink:href="#CMSY10-0"/>
       <use transform="translate(77.487468 0)scale(0.996264)" xlink:href="#CMSS17-48"/>
       <use transform="translate(124.331091 0)scale(0.996264)" xlink:href="#CMSS17-46"/>
       <use transform="translate(150.355296 0)scale(0.996264)" xlink:href="#CMSS17-48"/>
       <use transform="translate(197.19892 0)scale(0.996264)" xlink:href="#CMSS17-53"/>
       <use transform="translate(244.042543 0)scale(0.996264)" xlink:href="#CMSS17-48"/>
      </g>
     </g>
    </g>
    <g id="ytick_2">
     <g id="line2d_16"/>
     <g id="text_17">
      <!-- $-0.025$ -->
      <defs>
       <path d="M 25.796875 21.140625 
C 28.59375 24.03125 32.796875 27.515625 35.703125 31 
C 38.5 34.390625 42.203125 39.171875 42.203125 46.140625 
C 42.203125 57.109375 34.796875 67 22.203125 67 
C 12.296875 67 6.59375 60.796875 3.90625 51.125 
L 7.796875 45.75 
C 10 54.8125 13.09375 60.59375 20.90625 60.59375 
C 29.5 60.59375 34.296875 53.609375 34.296875 45.9375 
C 34.296875 36.78125 27.296875 29.703125 22 24.421875 
C 16.09375 18.546875 10.296875 12.578125 4.703125 6.390625 
L 4.703125 0 
L 42.203125 0 
L 42.203125 6.796875 
L 25.203125 6.796875 
C 24 6.796875 22.796875 6.6875 21.59375 6.6875 
L 11.59375 6.6875 
L 11.59375 6.796875 
z
" id="CMSS17-50"/>
      </defs>
      <g transform="translate(20.055677 200.440292)scale(0.1 -0.1)">
       <use transform="scale(0.996264)" xlink:href="#CMSY10-0"/>
       <use transform="translate(77.487468 0)scale(0.996264)" xlink:href="#CMSS17-48"/>
       <use transform="translate(124.331091 0)scale(0.996264)" xlink:href="#CMSS17-46"/>
       <use transform="translate(150.355296 0)scale(0.996264)" xlink:href="#CMSS17-48"/>
       <use transform="translate(197.19892 0)scale(0.996264)" xlink:href="#CMSS17-50"/>
       <use transform="translate(244.042543 0)scale(0.996264)" xlink:href="#CMSS17-53"/>
      </g>
     </g>
    </g>
    <g id="ytick_3">
     <g id="line2d_17"/>
     <g id="text_18">
      <!-- $0.000$ -->
      <g transform="translate(27.80442 174.427924)scale(0.1 -0.1)">
       <use transform="scale(0.996264)" xlink:href="#CMSS17-48"/>
       <use transform="translate(46.843624 0)scale(0.996264)" xlink:href="#CMSS17-46"/>
       <use transform="translate(72.867828 0)scale(0.996264)" xlink:href="#CMSS17-48"/>
       <use transform="translate(119.711452 0)scale(0.996264)" xlink:href="#CMSS17-48"/>
       <use transform="translate(166.555075 0)scale(0.996264)" xlink:href="#CMSS17-48"/>
      </g>
     </g>
    </g>
    <g id="ytick_4">
     <g id="line2d_18"/>
     <g id="text_19">
      <!-- $0.025$ -->
      <g transform="translate(27.80442 148.415555)scale(0.1 -0.1)">
       <use transform="scale(0.996264)" xlink:href="#CMSS17-48"/>
       <use transform="translate(46.843624 0)scale(0.996264)" xlink:href="#CMSS17-46"/>
       <use transform="translate(72.867828 0)scale(0.996264)" xlink:href="#CMSS17-48"/>
       <use transform="translate(119.711452 0)scale(0.996264)" xlink:href="#CMSS17-50"/>
       <use transform="translate(166.555075 0)scale(0.996264)" xlink:href="#CMSS17-53"/>
      </g>
     </g>
    </g>
    <g id="ytick_5">
     <g id="line2d_19"/>
     <g id="text_20">
      <!-- $0.050$ -->
      <g transform="translate(27.80442 122.403187)scale(0.1 -0.1)">
       <use transform="scale(0.996264)" xlink:href="#CMSS17-48"/>
       <use transform="translate(46.843624 0)scale(0.996264)" xlink:href="#CMSS17-46"/>
       <use transform="translate(72.867828 0)scale(0.996264)" xlink:href="#CMSS17-48"/>
       <use transform="translate(119.711452 0)scale(0.996264)" xlink:href="#CMSS17-53"/>
       <use transform="translate(166.555075 0)scale(0.996264)" xlink:href="#CMSS17-48"/>
      </g>
     </g>
    </g>
    <g id="ytick_6">
     <g id="line2d_20"/>
     <g id="text_21">
      <!-- $0.075$ -->
      <defs>
       <path d="M 21.703125 59.1875 
C 22.90625 59.1875 24.09375 59.296875 25.296875 59.296875 
L 36.796875 59.296875 
C 22.5 42.421875 14.296875 21.09375 14.296875 -1 
L 22.296875 -1 
C 22.296875 20.390625 29.296875 42.109375 43 59.484375 
L 43 66 
L 3.90625 66 
L 3.90625 59.1875 
z
" id="CMSS17-55"/>
      </defs>
      <g transform="translate(27.80442 96.390818)scale(0.1 -0.1)">
       <use transform="scale(0.996264)" xlink:href="#CMSS17-48"/>
       <use transform="translate(46.843624 0)scale(0.996264)" xlink:href="#CMSS17-46"/>
       <use transform="translate(72.867828 0)scale(0.996264)" xlink:href="#CMSS17-48"/>
       <use transform="translate(119.711452 0)scale(0.996264)" xlink:href="#CMSS17-55"/>
       <use transform="translate(166.555075 0)scale(0.996264)" xlink:href="#CMSS17-53"/>
      </g>
     </g>
    </g>
    <g id="ytick_7">
     <g id="line2d_21"/>
     <g id="text_22">
      <!-- $0.100$ -->
      <defs>
       <path d="M 28.40625 67 
L 26.5 67 
C 21.09375 61.703125 14.796875 60.96875 8.40625 60.796875 
L 8.40625 55 
C 11.296875 55.09375 16 55.296875 20.703125 57.390625 
L 20.703125 5.796875 
L 8.90625 5.796875 
L 8.90625 0 
L 40.203125 0 
L 40.203125 5.796875 
L 28.40625 5.796875 
z
" id="CMSS17-49"/>
      </defs>
      <g transform="translate(27.80442 70.37845)scale(0.1 -0.1)">
       <use transform="scale(0.996264)" xlink:href="#CMSS17-48"/>
       <use transform="translate(46.843624 0)scale(0.996264)" xlink:href="#CMSS17-46"/>
       <use transform="translate(72.867828 0)scale(0.996264)" xlink:href="#CMSS17-49"/>
       <use transform="translate(119.711452 0)scale(0.996264)" xlink:href="#CMSS17-48"/>
       <use transform="translate(166.555075 0)scale(0.996264)" xlink:href="#CMSS17-48"/>
      </g>
     </g>
    </g>
    <g id="ytick_8">
     <g id="line2d_22"/>
     <g id="text_23">
      <!-- $0.125$ -->
      <g transform="translate(27.80442 44.366081)scale(0.1 -0.1)">
       <use transform="scale(0.996264)" xlink:href="#CMSS17-48"/>
       <use transform="translate(46.843624 0)scale(0.996264)" xlink:href="#CMSS17-46"/>
       <use transform="translate(72.867828 0)scale(0.996264)" xlink:href="#CMSS17-49"/>
       <use transform="translate(119.711452 0)scale(0.996264)" xlink:href="#CMSS17-50"/>
       <use transform="translate(166.555075 0)scale(0.996264)" xlink:href="#CMSS17-53"/>
      </g>
     </g>
    </g>
    <g id="text_24">
     <!-- Accuracy relative to baseline -->
     <defs>
      <path d="M 38.5 39.6875 
C 38.5 40.390625 33.90625 42.390625 32.703125 42.796875 
C 29.40625 44 25.203125 44 24.09375 44 
C 11.09375 44 3.296875 32.6875 3.296875 21.296875 
C 3.296875 9.296875 12 -1 23.703125 -1 
C 30.40625 -1 35.203125 1.1875 39.09375 3.796875 
L 38.5 10.390625 
C 34.203125 7.09375 29.203125 5.296875 23.796875 5.296875 
C 16 5.296875 10.90625 12.09375 10.90625 21.390625 
C 10.90625 28.59375 14.203125 37.6875 24.203125 37.6875 
C 29.703125 37.6875 32.796875 36.59375 37.40625 33.484375 
z
" id="CMSS17-99"/>
      <path d="M 40.90625 43 
L 33.296875 43 
L 33.296875 15.25 
C 33.296875 7.8125 27.90625 4.796875 22.203125 4.796875 
C 15.59375 4.796875 15 7 15 11.125 
L 15 43 
L 7.40625 43 
L 7.40625 10.625 
C 7.40625 2.796875 10.09375 -1 17 -1 
C 20.40625 -1 28.09375 -0.203125 33.5 4.796875 
L 33.5 -0.203125 
L 40.90625 -0.203125 
z
" id="CMSS17-117"/>
      <path d="M 41.796875 43 
L 34 43 
C 25.5 20.203125 22.59375 10.953125 22.40625 5.984375 
L 22.296875 5.984375 
C 22 10.859375 17.59375 22.796875 14.09375 31.34375 
L 9.40625 43 
L 1.296875 43 
L 19 0.21875 
C 17.90625 -2.765625 16.296875 -7.25 15.796875 -8.234375 
C 13.59375 -13.8125 12.09375 -13.8125 10.5 -13.8125 
C 10.09375 -13.8125 6.90625 -13.703125 3.296875 -12.609375 
L 3.90625 -19.203125 
C 6.40625 -19.703125 8.90625 -20 10.703125 -20 
C 13.203125 -20 18.203125 -20 22.796875 -7.734375 
z
" id="CMSS17-121"/>
      <path d="M 16.703125 37.1875 
L 29.703125 37.1875 
L 29.703125 43 
L 16.703125 43 
L 16.703125 55 
L 9.59375 55 
L 9.59375 43 
L 1.703125 43 
L 1.703125 37.1875 
L 9.40625 37.1875 
L 9.40625 11.734375 
C 9.40625 6 10.703125 -1 17.296875 -1 
C 22.296875 -1 26.90625 0.390625 31.296875 2.6875 
L 29.703125 8.609375 
C 27.296875 6.5 24.40625 5.296875 21.296875 5.296875 
C 16.90625 5.296875 16.703125 10.921875 16.703125 13.4375 
z
" id="CMSS17-116"/>
      <path d="M 14.90625 69 
L 7.5 69 
L 7.5 -0.203125 
L 15.09375 -0.203125 
L 15.09375 4.296875 
C 18.90625 0.59375 23.5 -1 27.59375 -1 
C 37.203125 -1 45 8.734375 45 21.59375 
C 45 33.328125 39 44 30.09375 44 
C 23.796875 44 18.203125 41.390625 14.90625 38.6875 
z
M 15.09375 32.734375 
C 17.296875 35.5625 20.40625 37.890625 24.796875 37.890625 
C 30.703125 37.890625 37.40625 33.53125 37.40625 21.59375 
C 37.40625 8.84375 29.40625 5.09375 23.90625 5.09375 
C 21.90625 5.09375 19.796875 5.59375 17.796875 7.3125 
C 15.09375 9.75 15.09375 11.265625 15.09375 12.6875 
z
" id="CMSS17-98"/>
     </defs>
     <g transform="translate(14.118498 190.344036)rotate(-90)scale(0.1 -0.1)">
      <use transform="scale(0.996264)" xlink:href="#CMSS17-65"/>
      <use transform="translate(62.217855 0)scale(0.996264)" xlink:href="#CMSS17-99"/>
      <use transform="translate(103.856677 0)scale(0.996264)" xlink:href="#CMSS17-99"/>
      <use transform="translate(145.495499 0)scale(0.996264)" xlink:href="#CMSS17-117"/>
      <use transform="translate(193.700442 0)scale(0.996264)" xlink:href="#CMSS17-114"/>
      <use transform="translate(225.610215 0)scale(0.996264)" xlink:href="#CMSS17-97"/>
      <use transform="translate(270.532135 0)scale(0.996264)" xlink:href="#CMSS17-99"/>
      <use transform="translate(312.170957 0)scale(0.996264)" xlink:href="#CMSS17-121"/>
      <use transform="translate(386.400212 0)scale(0.996264)" xlink:href="#CMSS17-114"/>
      <use transform="translate(418.309984 0)scale(0.996264)" xlink:href="#CMSS17-101"/>
      <use transform="translate(459.948806 0)scale(0.996264)" xlink:href="#CMSS17-108"/>
      <use transform="translate(482.12953 0)scale(0.996264)" xlink:href="#CMSS17-97"/>
      <use transform="translate(527.05145 0)scale(0.996264)" xlink:href="#CMSS17-116"/>
      <use transform="translate(560.883017 0)scale(0.996264)" xlink:href="#CMSS17-105"/>
      <use transform="translate(583.06374 0)scale(0.996264)" xlink:href="#CMSS17-118"/>
      <use transform="translate(626.063882 0)scale(0.996264)" xlink:href="#CMSS17-101"/>
      <use transform="translate(698.931816 0)scale(0.996264)" xlink:href="#CMSS17-116"/>
      <use transform="translate(732.763383 0)scale(0.996264)" xlink:href="#CMSS17-111"/>
      <use transform="translate(810.836119 0)scale(0.996264)" xlink:href="#CMSS17-98"/>
      <use transform="translate(859.041062 0)scale(0.996264)" xlink:href="#CMSS17-97"/>
      <use transform="translate(903.962983 0)scale(0.996264)" xlink:href="#CMSS17-115"/>
      <use transform="translate(939.876525 0)scale(0.996264)" xlink:href="#CMSS17-101"/>
      <use transform="translate(981.515347 0)scale(0.996264)" xlink:href="#CMSS17-108"/>
      <use transform="translate(1003.69607 0)scale(0.996264)" xlink:href="#CMSS17-105"/>
      <use transform="translate(1025.876793 0)scale(0.996264)" xlink:href="#CMSS17-110"/>
      <use transform="translate(1074.081736 0)scale(0.996264)" xlink:href="#CMSS17-101"/>
     </g>
    </g>
   </g>
   <g id="text_25">
    <!-- Decoding left/right using about 100 ms after stimulus -->
    <defs>
     <path d="M 8.90625 69 
L 8.90625 0 
L 33.5 0 
C 49.90625 0 62.5 15.328125 62.5 33.890625 
C 62.5 53.0625 49.90625 69 33.5 69 
z
M 17.09375 5.59375 
L 17.09375 63.390625 
L 31.296875 63.390625 
C 44.703125 63.390625 54.296875 51.171875 54.296875 33.890625 
C 54.296875 17.3125 44.796875 5.59375 31.296875 5.59375 
z
" id="CMSS17-68"/>
     <path d="M 16.796875 37.1875 
L 26.90625 37.1875 
L 26.90625 43 
L 16.59375 43 
L 16.59375 55.671875 
C 16.59375 62.703125 22 63.890625 25.09375 63.890625 
C 26.09375 63.890625 28.90625 63.890625 32.5 62.609375 
L 32.5 69.1875 
C 30.203125 69.6875 27.40625 70 25.203125 70 
C 15.90625 70 9.40625 62.40625 9.40625 52.59375 
L 9.40625 43 
L 2.5 43 
L 2.5 37.1875 
L 9.40625 37.1875 
L 9.40625 0 
L 16.796875 0 
z
" id="CMSS17-102"/>
     <path d="M 41.203125 71.484375 
C 41.703125 72.78125 41.703125 72.984375 41.703125 73.1875 
C 41.703125 74.390625 40.796875 75 40 75 
C 38.796875 75 38.40625 74.1875 38 72.984375 
L 5.703125 -21.5 
C 5.203125 -22.8125 5.203125 -23 5.203125 -23.203125 
C 5.203125 -24.40625 6.09375 -25 6.90625 -25 
C 8.09375 -25 8.5 -24.203125 8.90625 -23 
z
" id="CMSS17-47"/>
     <path d="M 40.90625 29.34375 
C 40.90625 35.671875 39.40625 44 28.09375 44 
C 21.796875 44 17.703125 40.890625 14.796875 37.484375 
L 14.796875 69 
L 7.40625 69 
L 7.40625 0 
L 15 0 
L 15 24.3125 
C 15 30.65625 17.40625 37.890625 24.203125 37.890625 
C 33 37.890625 33.296875 31.953125 33.296875 28.53125 
L 33.296875 0 
L 40.90625 0 
z
" id="CMSS17-104"/>
    </defs>
    <g transform="translate(145.019405 16.166376)scale(0.12 -0.12)">
     <use transform="scale(0.996264)" xlink:href="#CMSS17-68"/>
     <use transform="translate(67.542842 0)scale(0.996264)" xlink:href="#CMSS17-101"/>
     <use transform="translate(109.181664 0)scale(0.996264)" xlink:href="#CMSS17-99"/>
     <use transform="translate(150.820486 0)scale(0.996264)" xlink:href="#CMSS17-111"/>
     <use transform="translate(200.266548 0)scale(0.996264)" xlink:href="#CMSS17-100"/>
     <use transform="translate(248.471491 0)scale(0.996264)" xlink:href="#CMSS17-105"/>
     <use transform="translate(270.652214 0)scale(0.996264)" xlink:href="#CMSS17-110"/>
     <use transform="translate(318.857157 0)scale(0.996264)" xlink:href="#CMSS17-103"/>
     <use transform="translate(396.929894 0)scale(0.996264)" xlink:href="#CMSS17-108"/>
     <use transform="translate(419.110617 0)scale(0.996264)" xlink:href="#CMSS17-101"/>
     <use transform="translate(460.749439 0)scale(0.996264)" xlink:href="#CMSS17-102"/>
     <use transform="translate(489.376098 0)scale(0.996264)" xlink:href="#CMSS17-116"/>
     <use transform="translate(523.207664 0)scale(0.996264)" xlink:href="#CMSS17-47"/>
     <use transform="translate(570.051288 0)scale(0.996264)" xlink:href="#CMSS17-114"/>
     <use transform="translate(601.96106 0)scale(0.996264)" xlink:href="#CMSS17-105"/>
     <use transform="translate(624.141783 0)scale(0.996264)" xlink:href="#CMSS17-103"/>
     <use transform="translate(670.985407 0)scale(0.996264)" xlink:href="#CMSS17-104"/>
     <use transform="translate(719.19035 0)scale(0.996264)" xlink:href="#CMSS17-116"/>
     <use transform="translate(784.251029 0)scale(0.996264)" xlink:href="#CMSS17-117"/>
     <use transform="translate(832.455973 0)scale(0.996264)" xlink:href="#CMSS17-115"/>
     <use transform="translate(868.369515 0)scale(0.996264)" xlink:href="#CMSS17-105"/>
     <use transform="translate(890.550238 0)scale(0.996264)" xlink:href="#CMSS17-110"/>
     <use transform="translate(938.755181 0)scale(0.996264)" xlink:href="#CMSS17-103"/>
     <use transform="translate(1016.827917 0)scale(0.996264)" xlink:href="#CMSS17-97"/>
     <use transform="translate(1061.749838 0)scale(0.996264)" xlink:href="#CMSS17-98"/>
     <use transform="translate(1112.55722 0)scale(0.996264)" xlink:href="#CMSS17-111"/>
     <use transform="translate(1159.400843 0)scale(0.996264)" xlink:href="#CMSS17-117"/>
     <use transform="translate(1207.605786 0)scale(0.996264)" xlink:href="#CMSS17-116"/>
     <use transform="translate(1272.666466 0)scale(0.996264)" xlink:href="#CMSS17-49"/>
     <use transform="translate(1319.510089 0)scale(0.996264)" xlink:href="#CMSS17-48"/>
     <use transform="translate(1366.353713 0)scale(0.996264)" xlink:href="#CMSS17-48"/>
     <use transform="translate(1444.426449 0)scale(0.996264)" xlink:href="#CMSS17-109"/>
     <use transform="translate(1518.655703 0)scale(0.996264)" xlink:href="#CMSS17-115"/>
     <use transform="translate(1585.798358 0)scale(0.996264)" xlink:href="#CMSS17-97"/>
     <use transform="translate(1630.720279 0)scale(0.996264)" xlink:href="#CMSS17-102"/>
     <use transform="translate(1659.346938 0)scale(0.996264)" xlink:href="#CMSS17-116"/>
     <use transform="translate(1693.178504 0)scale(0.996264)" xlink:href="#CMSS17-101"/>
     <use transform="translate(1734.817326 0)scale(0.996264)" xlink:href="#CMSS17-114"/>
     <use transform="translate(1797.956212 0)scale(0.996264)" xlink:href="#CMSS17-115"/>
     <use transform="translate(1833.869754 0)scale(0.996264)" xlink:href="#CMSS17-116"/>
     <use transform="translate(1867.70132 0)scale(0.996264)" xlink:href="#CMSS17-105"/>
     <use transform="translate(1889.882043 0)scale(0.996264)" xlink:href="#CMSS17-109"/>
     <use transform="translate(1964.111298 0)scale(0.996264)" xlink:href="#CMSS17-117"/>
     <use transform="translate(2012.316241 0)scale(0.996264)" xlink:href="#CMSS17-108"/>
     <use transform="translate(2034.496964 0)scale(0.996264)" xlink:href="#CMSS17-117"/>
     <use transform="translate(2082.701907 0)scale(0.996264)" xlink:href="#CMSS17-115"/>
    </g>
   </g>
  </g>
 </g>
 <defs>
  <clipPath id="p28f2f7d7b2">
   <rect height="217.44" width="446.4" x="53.99717" y="22.166376"/>
  </clipPath>
 </defs>
</svg>
