<?xml version="1.0" encoding="utf-8" standalone="no"?>
<!DOCTYPE svg PUBLIC "-//W3C//DTD SVG 1.1//EN"
  "http://www.w3.org/Graphics/SVG/1.1/DTD/svg11.dtd">
<!-- Created with matplotlib (https://matplotlib.org/) -->
<svg height="260.068535pt" version="1.1" viewBox="0 0 376.625311 260.068535" width="376.625311pt" xmlns="http://www.w3.org/2000/svg" xmlns:xlink="http://www.w3.org/1999/xlink">
 <defs>
  <style type="text/css">
*{stroke-linecap:butt;stroke-linejoin:round;}
  </style>
 </defs>
 <g id="figure_1">
  <g id="patch_1">
   <path d="M 0 260.068535 
L 376.625311 260.068535 
L 376.625311 0 
L 0 0 
z
" style="fill:#ffffff;"/>
  </g>
  <g id="axes_1">
   <g id="patch_2">
    <path d="M 34.625311 227.657182 
L 369.425311 227.657182 
L 369.425311 10.217182 
L 34.625311 10.217182 
z
" style="fill:#ffffff;"/>
   </g>
   <g id="PolyCollection_1">
    <defs>
     <path d="M 49.843492 -55.739201 
L 49.843492 -80.788834 
L 56.054995 -79.749307 
L 62.266498 -84.16432 
L 68.478001 -77.937473 
L 74.689504 -79.964603 
L 80.901006 -81.766253 
L 87.112509 -86.317227 
L 93.324012 -79.077729 
L 99.535515 -71.096334 
L 105.747017 -77.605091 
L 111.95852 -65.808345 
L 118.170023 -88.920523 
L 124.381526 -72.411243 
L 130.593029 -81.555035 
L 136.804531 -67.185804 
L 143.016034 -98.198207 
L 149.227537 -77.403809 
L 155.43904 -84.16432 
L 161.650543 -74.2939 
L 167.862045 -77.605091 
L 174.073548 -65.795798 
L 180.285051 -90.306019 
L 186.496554 -95.436814 
L 192.708056 -85.751113 
L 198.919559 -84.550279 
L 205.131062 -124.396134 
L 211.342565 -218.571233 
L 217.554068 -152.69507 
L 223.76557 -94.238073 
L 229.977073 -69.820033 
L 236.188576 -80.788834 
L 242.400079 -72.202239 
L 248.611581 -101.144616 
L 254.823084 -103.308691 
L 261.034587 -120.250672 
L 267.24609 -77.605091 
L 273.457593 -109.386177 
L 279.669095 -102.715855 
L 285.880598 -111.715579 
L 292.092101 -117.775526 
L 298.303604 -88.319422 
L 304.515107 -125.165096 
L 310.726609 -91.887275 
L 316.938112 -83.143948 
L 323.149615 -78.157123 
L 329.361118 -83.355006 
L 335.57262 -93.266875 
L 341.784123 -94.641722 
L 347.995626 -74.2939 
L 354.207129 -81.766253 
L 354.207129 -57.921476 
L 354.207129 -57.921476 
L 347.995626 -52.755053 
L 341.784123 -70.323561 
L 335.57262 -68.538714 
L 329.361118 -59.492418 
L 323.149615 -55.211218 
L 316.938112 -59.703476 
L 310.726609 -66.75862 
L 304.515107 -99.834377 
L 298.303604 -64.007085 
L 292.092101 -91.425476 
L 285.880598 -84.846647 
L 279.669095 -78.047899 
L 273.457593 -84.016354 
L 267.24609 -52.603557 
L 261.034587 -92.110025 
L 254.823084 -77.455063 
L 248.611581 -76.459444 
L 242.400079 -48.527326 
L 236.188576 -55.739201 
L 229.977073 -44.590144 
L 223.76557 -67.567516 
L 217.554068 -126.019204 
L 211.342565 -189.690504 
L 205.131062 -94.283951 
L 198.919559 -58.297145 
L 192.708056 -60.256006 
L 186.496554 -69.528469 
L 180.285051 -65.180182 
L 174.073548 -42.29499 
L 167.862045 -52.603557 
L 161.650543 -52.755053 
L 155.43904 -58.683104 
L 149.227537 -52.804838 
L 143.016034 -73.086465 
L 136.804531 -44.064678 
L 130.593029 -58.132694 
L 124.381526 -48.318322 
L 118.170023 -63.405983 
L 111.95852 -45.442137 
L 105.747017 -52.603557 
L 99.535515 -49.63323 
L 93.324012 -57.450306 
L 87.112509 -62.849585 
L 80.901006 -57.921476 
L 74.689504 -56.563433 
L 68.478001 -55.430869 
L 62.266498 -58.683104 
L 56.054995 -56.778729 
L 49.843492 -55.739201 
z
" id="m9fd09e8361"/>
    </defs>
    <g clip-path="url(#p1bfb2bd8dd)">
     <use style="fill:#0000ff;fill-opacity:0.3;" x="0" xlink:href="#m9fd09e8361" y="260.068535"/>
    </g>
   </g>
   <g id="PolyCollection_2">
    <defs>
     <path d="M 49.843492 -56.374846 
L 49.843492 -80.033956 
L 56.054995 -98.6006 
L 62.266498 -108.670214 
L 68.478001 -96.123577 
L 74.689504 -81.106907 
L 80.901006 -90.772409 
L 87.112509 -88.638625 
L 93.324012 -117.90832 
L 99.535515 -80.033956 
L 105.747017 -93.573316 
L 111.95852 -94.972138 
L 118.170023 -92.844693 
L 124.381526 -104.015671 
L 130.593029 -90.772409 
L 136.804531 -84.258839 
L 143.016034 -86.619858 
L 149.227537 -96.541457 
L 155.43904 -90.521565 
L 161.650543 -74.755211 
L 167.862045 -102.020215 
L 174.073548 -87.792991 
L 180.285051 -79.350523 
L 186.496554 -89.877399 
L 192.708056 -97.521613 
L 198.919559 -86.562898 
L 205.131062 -107.512419 
L 211.342565 -239.967717 
L 217.554068 -162.480133 
L 223.76557 -106.960897 
L 229.977073 -102.622905 
L 236.188576 -116.072542 
L 242.400079 -115.918795 
L 248.611581 -122.515432 
L 254.823084 -125.431484 
L 261.034587 -125.588836 
L 267.24609 -126.648867 
L 273.457593 -143.704937 
L 279.669095 -140.520568 
L 285.880598 -110.460015 
L 292.092101 -142.475706 
L 298.303604 -128.184581 
L 304.515107 -126.966208 
L 310.726609 -109.134666 
L 316.938112 -117.303242 
L 323.149615 -99.996529 
L 329.361118 -112.513923 
L 335.57262 -120.223522 
L 341.784123 -117.457188 
L 347.995626 -109.900431 
L 354.207129 -106.503653 
L 354.207129 -80.341022 
L 354.207129 -80.341022 
L 347.995626 -85.350223 
L 341.784123 -91.803431 
L 335.57262 -94.641083 
L 329.361118 -88.340717 
L 323.149615 -75.640174 
L 316.938112 -91.957377 
L 310.726609 -83.313995 
L 304.515107 -101.908362 
L 298.303604 -103.491982 
L 292.092101 -114.418793 
L 285.880598 -87.592632 
L 279.669095 -116.373931 
L 273.457593 -115.991555 
L 267.24609 -102.225702 
L 261.034587 -100.483741 
L 254.823084 -100.641093 
L 248.611581 -97.953159 
L 242.400079 -90.539831 
L 236.188576 -90.386084 
L 229.977073 -78.617784 
L 223.76557 -82.685771 
L 217.554068 -136.444261 
L 211.342565 -210.264297 
L 205.131062 -84.936242 
L 198.919559 -63.855869 
L 192.708056 -72.511105 
L 186.496554 -66.145354 
L 180.285051 -57.058279 
L 174.073548 -65.427769 
L 167.862045 -76.418481 
L 161.650543 -53.247612 
L 155.43904 -65.501188 
L 149.227537 -73.491261 
L 143.016034 -60.996916 
L 136.804531 -60.555941 
L 130.593029 -68.052336 
L 124.381526 -80.027011 
L 118.170023 -68.782045 
L 111.95852 -72.258586 
L 105.747017 -70.855416 
L 99.535515 -56.374846 
L 93.324012 -91.352299 
L 87.112509 -64.582134 
L 80.901006 -68.052336 
L 74.689504 -58.103888 
L 68.478001 -71.107147 
L 62.266498 -83.778447 
L 56.054995 -74.234111 
L 49.843492 -56.374846 
z
" id="m5019c2d2b2"/>
    </defs>
    <g clip-path="url(#p1bfb2bd8dd)">
     <use style="fill:#ff0000;fill-opacity:0.3;" x="0" xlink:href="#m5019c2d2b2" y="260.068535"/>
    </g>
   </g>
   <g id="matplotlib.axis_1">
    <g id="xtick_1">
     <g id="line2d_1">
      <path clip-path="url(#p1bfb2bd8dd)" d="M 71.583752 227.657182 
L 71.583752 10.217182 
" style="fill:none;stroke:#93939c;stroke-dasharray:2.96,1.28;stroke-dashoffset:0;stroke-opacity:0.2;stroke-width:0.8;"/>
     </g>
     <g id="line2d_2"/>
     <g id="text_1">
      <!-- $-0.6$ -->
      <defs>
       <path d="M 65.90625 23 
C 67.59375 23 69.40625 23 69.40625 25 
C 69.40625 27 67.59375 27 65.90625 27 
L 11.796875 27 
C 10.09375 27 8.296875 27 8.296875 25 
C 8.296875 23 10.09375 23 11.796875 23 
z
" id="CMSY10-0"/>
       <path d="M 43.09375 32.390625 
C 43.09375 38.109375 43 48.75 38.90625 56.984375 
C 34.796875 64.890625 28.203125 67 23.5 67 
C 16.703125 67 10.90625 62.984375 7.90625 56.578125 
C 4.703125 49.859375 3.796875 42.9375 3.796875 32.390625 
C 3.796875 25.171875 4.09375 16.34375 7.703125 8.609375 
C 11.796875 0.09375 18.703125 -2 23.40625 -2 
C 29.59375 -2 35.59375 1.296875 39 8.203125 
C 42.5 15.4375 43.09375 23.359375 43.09375 32.390625 
z
M 23.40625 4.09375 
C 15.796875 4.09375 13.5 12.828125 12.796875 15.734375 
C 11.59375 20.75 11.40625 25.5625 11.40625 33.5 
C 11.40625 39.71875 11.40625 46.75 13.296875 52.265625 
C 15.59375 58.6875 19.59375 60.890625 23.40625 60.890625 
C 30.796875 60.890625 33.203125 53.46875 34 50.859375 
C 35.5 45.546875 35.5 39.3125 35.5 33.5 
C 35.5 24.15625 35.5 4.09375 23.40625 4.09375 
z
" id="CMSS17-48"/>
       <path d="M 17 8 
L 9 8 
L 9 0 
L 17 0 
z
" id="CMSS17-46"/>
       <path d="M 39 64.984375 
C 34.796875 66.6875 31.796875 67 29 67 
C 16 67 3.90625 53.25 3.90625 31.609375 
C 3.90625 4.1875 15.40625 -2 23.59375 -2 
C 28.09375 -2 32.59375 -0.609375 36.90625 4.390625 
C 41.296875 9.671875 43 14.0625 43 21.75 
C 43 34.109375 36.90625 45.09375 27.796875 45.09375 
C 21.203125 45.09375 15.5 41.59375 12 37.203125 
C 13 51.40625 19.59375 60.890625 29.09375 60.890625 
C 31.703125 60.890625 35.09375 60.484375 39 58.75 
z
M 12.09375 21.4375 
C 12.09375 22.234375 12.09375 22.734375 12.203125 24.234375 
C 12.203125 32.015625 16.703125 39 24 39 
C 28.703125 39 31.09375 36.5 32.90625 33.40625 
C 35 29.515625 35.09375 25.828125 35.09375 21.75 
C 35.09375 17.859375 35.09375 13.96875 32.796875 9.96875 
C 30.90625 6.890625 28.40625 4.1875 23.59375 4.1875 
C 14.09375 4.1875 12.5 17.453125 12.09375 21.4375 
z
" id="CMSS17-54"/>
      </defs>
      <g transform="translate(61.344341 238.07568)scale(0.1 -0.1)">
       <use transform="scale(0.996264)" xlink:href="#CMSY10-0"/>
       <use transform="translate(77.487468 0)scale(0.996264)" xlink:href="#CMSS17-48"/>
       <use transform="translate(124.331091 0)scale(0.996264)" xlink:href="#CMSS17-46"/>
       <use transform="translate(150.355296 0)scale(0.996264)" xlink:href="#CMSS17-54"/>
      </g>
     </g>
    </g>
    <g id="xtick_2">
     <g id="line2d_3">
      <path clip-path="url(#p1bfb2bd8dd)" d="M 115.064272 227.657182 
L 115.064272 10.217182 
" style="fill:none;stroke:#93939c;stroke-dasharray:2.96,1.28;stroke-dashoffset:0;stroke-opacity:0.2;stroke-width:0.8;"/>
     </g>
     <g id="line2d_4"/>
     <g id="text_2">
      <!-- $-0.4$ -->
      <defs>
       <path d="M 35.203125 17 
L 44.296875 17 
L 44.296875 23.09375 
L 35.203125 23.09375 
L 35.203125 66 
L 26.40625 66 
L 2.59375 23.09375 
L 2.59375 17 
L 27.296875 17 
L 27.296875 0 
L 35.203125 0 
z
M 10.296875 23.09375 
C 16.09375 33.421875 27.59375 54.28125 27.59375 61.359375 
L 27.59375 23.09375 
z
" id="CMSS17-52"/>
      </defs>
      <g transform="translate(104.82486 238.07568)scale(0.1 -0.1)">
       <use transform="scale(0.996264)" xlink:href="#CMSY10-0"/>
       <use transform="translate(77.487468 0)scale(0.996264)" xlink:href="#CMSS17-48"/>
       <use transform="translate(124.331091 0)scale(0.996264)" xlink:href="#CMSS17-46"/>
       <use transform="translate(150.355296 0)scale(0.996264)" xlink:href="#CMSS17-52"/>
      </g>
     </g>
    </g>
    <g id="xtick_3">
     <g id="line2d_5">
      <path clip-path="url(#p1bfb2bd8dd)" d="M 158.544791 227.657182 
L 158.544791 10.217182 
" style="fill:none;stroke:#93939c;stroke-dasharray:2.96,1.28;stroke-dashoffset:0;stroke-opacity:0.2;stroke-width:0.8;"/>
     </g>
     <g id="line2d_6"/>
     <g id="text_3">
      <!-- $-0.2$ -->
      <defs>
       <path d="M 25.796875 21.140625 
C 28.59375 24.03125 32.796875 27.515625 35.703125 31 
C 38.5 34.390625 42.203125 39.171875 42.203125 46.140625 
C 42.203125 57.109375 34.796875 67 22.203125 67 
C 12.296875 67 6.59375 60.796875 3.90625 51.125 
L 7.796875 45.75 
C 10 54.8125 13.09375 60.59375 20.90625 60.59375 
C 29.5 60.59375 34.296875 53.609375 34.296875 45.9375 
C 34.296875 36.78125 27.296875 29.703125 22 24.421875 
C 16.09375 18.546875 10.296875 12.578125 4.703125 6.390625 
L 4.703125 0 
L 42.203125 0 
L 42.203125 6.796875 
L 25.203125 6.796875 
C 24 6.796875 22.796875 6.6875 21.59375 6.6875 
L 11.59375 6.6875 
L 11.59375 6.796875 
z
" id="CMSS17-50"/>
      </defs>
      <g transform="translate(148.30538 238.07568)scale(0.1 -0.1)">
       <use transform="scale(0.996264)" xlink:href="#CMSY10-0"/>
       <use transform="translate(77.487468 0)scale(0.996264)" xlink:href="#CMSS17-48"/>
       <use transform="translate(124.331091 0)scale(0.996264)" xlink:href="#CMSS17-46"/>
       <use transform="translate(150.355296 0)scale(0.996264)" xlink:href="#CMSS17-50"/>
      </g>
     </g>
    </g>
    <g id="xtick_4">
     <g id="line2d_7">
      <path clip-path="url(#p1bfb2bd8dd)" d="M 202.025311 227.657182 
L 202.025311 10.217182 
" style="fill:none;stroke:#93939c;stroke-dasharray:2.96,1.28;stroke-dashoffset:0;stroke-opacity:0.2;stroke-width:0.8;"/>
     </g>
     <g id="line2d_8"/>
     <g id="text_4">
      <!-- $0.0$ -->
      <g transform="translate(195.660271 238.07568)scale(0.1 -0.1)">
       <use transform="scale(0.996264)" xlink:href="#CMSS17-48"/>
       <use transform="translate(46.843624 0)scale(0.996264)" xlink:href="#CMSS17-46"/>
       <use transform="translate(72.867828 0)scale(0.996264)" xlink:href="#CMSS17-48"/>
      </g>
     </g>
    </g>
    <g id="xtick_5">
     <g id="line2d_9">
      <path clip-path="url(#p1bfb2bd8dd)" d="M 245.50583 227.657182 
L 245.50583 10.217182 
" style="fill:none;stroke:#93939c;stroke-dasharray:2.96,1.28;stroke-dashoffset:0;stroke-opacity:0.2;stroke-width:0.8;"/>
     </g>
     <g id="line2d_10"/>
     <g id="text_5">
      <!-- $0.2$ -->
      <g transform="translate(239.140791 238.07568)scale(0.1 -0.1)">
       <use transform="scale(0.996264)" xlink:href="#CMSS17-48"/>
       <use transform="translate(46.843624 0)scale(0.996264)" xlink:href="#CMSS17-46"/>
       <use transform="translate(72.867828 0)scale(0.996264)" xlink:href="#CMSS17-50"/>
      </g>
     </g>
    </g>
    <g id="xtick_6">
     <g id="line2d_11">
      <path clip-path="url(#p1bfb2bd8dd)" d="M 288.98635 227.657182 
L 288.98635 10.217182 
" style="fill:none;stroke:#93939c;stroke-dasharray:2.96,1.28;stroke-dashoffset:0;stroke-opacity:0.2;stroke-width:0.8;"/>
     </g>
     <g id="line2d_12"/>
     <g id="text_6">
      <!-- $0.4$ -->
      <g transform="translate(282.62131 238.07568)scale(0.1 -0.1)">
       <use transform="scale(0.996264)" xlink:href="#CMSS17-48"/>
       <use transform="translate(46.843624 0)scale(0.996264)" xlink:href="#CMSS17-46"/>
       <use transform="translate(72.867828 0)scale(0.996264)" xlink:href="#CMSS17-52"/>
      </g>
     </g>
    </g>
    <g id="xtick_7">
     <g id="line2d_13">
      <path clip-path="url(#p1bfb2bd8dd)" d="M 332.466869 227.657182 
L 332.466869 10.217182 
" style="fill:none;stroke:#93939c;stroke-dasharray:2.96,1.28;stroke-dashoffset:0;stroke-opacity:0.2;stroke-width:0.8;"/>
     </g>
     <g id="line2d_14"/>
     <g id="text_7">
      <!-- $0.6$ -->
      <g transform="translate(326.10183 238.07568)scale(0.1 -0.1)">
       <use transform="scale(0.996264)" xlink:href="#CMSS17-48"/>
       <use transform="translate(46.843624 0)scale(0.996264)" xlink:href="#CMSS17-46"/>
       <use transform="translate(72.867828 0)scale(0.996264)" xlink:href="#CMSS17-54"/>
      </g>
     </g>
    </g>
    <g id="text_8">
     <!-- Peri-stimulus time -->
     <defs>
      <path d="M 32.90625 29 
C 44.90625 29 54.703125 38.234375 54.703125 49.046875 
C 54.703125 59.65625 45.296875 69 32.296875 69 
L 8.90625 69 
L 8.90625 0 
L 17.296875 0 
L 17.296875 29 
z
M 30.09375 63.390625 
C 41.703125 63.390625 46.796875 56.21875 46.796875 49.046875 
C 46.796875 42.359375 42.09375 34.796875 30.09375 34.796875 
L 17.09375 34.796875 
L 17.09375 63.390625 
z
" id="CMSS17-80"/>
      <path d="M 39.09375 21.484375 
C 39.09375 24.796875 38.90625 31.265625 35.703125 36.671875 
C 32.203125 42.390625 26.5 44 22.203125 44 
C 11.796875 44 3 34.125 3 21.296875 
C 3 9.046875 12.09375 -1 23.59375 -1 
C 28.09375 -1 33.59375 0.296875 38.59375 3.890625 
C 38.59375 4.296875 38.40625 6.46875 38.296875 6.578125 
C 38.296875 6.765625 38 9.828125 38 10.234375 
C 33.203125 6.375 27.703125 5.09375 23.703125 5.09375 
C 17.296875 5.09375 10.40625 10.421875 10.09375 21.484375 
z
M 10.90625 27 
C 12.203125 32.59375 16.59375 37.890625 22.203125 37.890625 
C 23.703125 37.890625 30.703125 37.6875 32.5 27 
z
" id="CMSS17-101"/>
      <path d="M 14.90625 21.390625 
C 14.90625 30.84375 21.796875 37.171875 30.59375 37.375 
L 30.59375 44 
C 24.203125 43.890625 18.203125 40.6875 14.59375 35.46875 
L 14.59375 43.484375 
L 7.5 43.484375 
L 7.5 0 
L 14.90625 0 
z
" id="CMSS17-114"/>
      <path d="M 15.296875 66 
L 6.90625 66 
L 6.90625 57.59375 
L 15.296875 57.59375 
z
M 14.796875 43 
L 7.40625 43 
L 7.40625 0 
L 14.796875 0 
z
" id="CMSS17-105"/>
      <path d="M 26 19 
L 26 24.796875 
L 1 24.796875 
L 1 19 
z
" id="CMSS17-45"/>
      <path d="M 32.203125 40.984375 
C 26.296875 43.796875 21.703125 44 18.703125 44 
C 11.59375 44 3.09375 41.484375 3.09375 31.390625 
C 3.09375 21.296875 14.09375 19.09375 17.09375 18.484375 
C 21.703125 17.59375 26.796875 16.59375 26.796875 11.59375 
C 26.796875 5.296875 19.59375 5.296875 18.296875 5.296875 
C 14.296875 5.296875 8.796875 6.390625 3.796875 9.984375 
L 2.59375 3.296875 
C 8.296875 0 13.796875 -1 18.40625 -1 
C 30.703125 -1 33.796875 6.5 33.796875 12.1875 
C 33.796875 17.09375 31 20.390625 29.09375 21.890625 
C 25.796875 24.484375 24.59375 24.796875 16.40625 26.484375 
C 15 26.6875 10.09375 27.796875 10.09375 32.296875 
C 10.09375 37.984375 16.40625 37.984375 17.796875 37.984375 
C 24.296875 37.984375 28.296875 35.984375 31 34.484375 
z
" id="CMSS17-115"/>
      <path d="M 16.703125 37.1875 
L 29.703125 37.1875 
L 29.703125 43 
L 16.703125 43 
L 16.703125 55 
L 9.59375 55 
L 9.59375 43 
L 1.703125 43 
L 1.703125 37.1875 
L 9.40625 37.1875 
L 9.40625 11.734375 
C 9.40625 6 10.703125 -1 17.296875 -1 
C 22.296875 -1 26.90625 0.390625 31.296875 2.6875 
L 29.703125 8.609375 
C 27.296875 6.5 24.40625 5.296875 21.296875 5.296875 
C 16.90625 5.296875 16.703125 10.921875 16.703125 13.4375 
z
" id="CMSS17-116"/>
      <path d="M 67 29.34375 
C 67 36.078125 65.296875 44 54.09375 44 
C 46.59375 44 42.09375 39.296875 40.09375 36.375 
C 38.296875 41.6875 34.09375 44 28.09375 44 
C 21.296875 44 17 40.09375 14.703125 37.28125 
L 14.703125 43.484375 
L 7.40625 43.484375 
L 7.40625 0 
L 15 0 
L 15 24.3125 
C 15 30.25 17.203125 37.890625 24.296875 37.890625 
C 33.40625 37.890625 33.40625 31.453125 33.40625 28.53125 
L 33.40625 0 
L 41 0 
L 41 24.3125 
C 41 30.25 43.203125 37.890625 50.296875 37.890625 
C 59.40625 37.890625 59.40625 31.453125 59.40625 28.53125 
L 59.40625 0 
L 67 0 
z
" id="CMSS17-109"/>
      <path d="M 40.90625 43 
L 33.296875 43 
L 33.296875 15.25 
C 33.296875 7.8125 27.90625 4.796875 22.203125 4.796875 
C 15.59375 4.796875 15 7 15 11.125 
L 15 43 
L 7.40625 43 
L 7.40625 10.625 
C 7.40625 2.796875 10.09375 -1 17 -1 
C 20.40625 -1 28.09375 -0.203125 33.5 4.796875 
L 33.5 -0.203125 
L 40.90625 -0.203125 
z
" id="CMSS17-117"/>
      <path d="M 14.796875 69 
L 7.40625 69 
L 7.40625 0 
L 14.796875 0 
z
" id="CMSS17-108"/>
     </defs>
     <g transform="translate(164.291796 250.931357)scale(0.1 -0.1)">
      <use transform="scale(0.996264)" xlink:href="#CMSS17-80"/>
      <use transform="translate(57.133132 0)scale(0.996264)" xlink:href="#CMSS17-101"/>
      <use transform="translate(98.771954 0)scale(0.996264)" xlink:href="#CMSS17-114"/>
      <use transform="translate(130.681727 0)scale(0.996264)" xlink:href="#CMSS17-105"/>
      <use transform="translate(152.86245 0)scale(0.996264)" xlink:href="#CMSS17-45"/>
      <use transform="translate(184.091563 0)scale(0.996264)" xlink:href="#CMSS17-115"/>
      <use transform="translate(220.005105 0)scale(0.996264)" xlink:href="#CMSS17-116"/>
      <use transform="translate(253.836671 0)scale(0.996264)" xlink:href="#CMSS17-105"/>
      <use transform="translate(276.017394 0)scale(0.996264)" xlink:href="#CMSS17-109"/>
      <use transform="translate(350.246649 0)scale(0.996264)" xlink:href="#CMSS17-117"/>
      <use transform="translate(398.451592 0)scale(0.996264)" xlink:href="#CMSS17-108"/>
      <use transform="translate(420.632315 0)scale(0.996264)" xlink:href="#CMSS17-117"/>
      <use transform="translate(468.837258 0)scale(0.996264)" xlink:href="#CMSS17-115"/>
      <use transform="translate(535.979913 0)scale(0.996264)" xlink:href="#CMSS17-116"/>
      <use transform="translate(569.81148 0)scale(0.996264)" xlink:href="#CMSS17-105"/>
      <use transform="translate(591.992203 0)scale(0.996264)" xlink:href="#CMSS17-109"/>
      <use transform="translate(666.221457 0)scale(0.996264)" xlink:href="#CMSS17-101"/>
     </g>
    </g>
   </g>
   <g id="matplotlib.axis_2">
    <g id="ytick_1">
     <g id="line2d_15">
      <path clip-path="url(#p1bfb2bd8dd)" d="M 34.625311 197.77634 
L 369.425311 197.77634 
" style="fill:none;stroke:#93939c;stroke-dasharray:2.96,1.28;stroke-dashoffset:0;stroke-opacity:0.2;stroke-width:0.8;"/>
     </g>
     <g id="line2d_16"/>
     <g id="text_9">
      <!-- $15$ -->
      <defs>
       <path d="M 28.40625 67 
L 26.5 67 
C 21.09375 61.703125 14.796875 60.96875 8.40625 60.796875 
L 8.40625 55 
C 11.296875 55.09375 16 55.296875 20.703125 57.390625 
L 20.703125 5.796875 
L 8.90625 5.796875 
L 8.90625 0 
L 40.203125 0 
L 40.203125 5.796875 
L 28.40625 5.796875 
z
" id="CMSS17-49"/>
       <path d="M 14.59375 59.59375 
L 39.09375 59.59375 
L 39.09375 66 
L 7.296875 66 
L 7.296875 28.59375 
L 14 28.59375 
C 15.796875 32.859375 19.5 36 24.296875 36 
C 28.796875 36 33.796875 31.9375 33.796875 20.296875 
C 33.796875 7.84375 26.703125 4.1875 21.5 4.1875 
C 15.09375 4.1875 9.203125 8.140625 6.59375 13.609375 
L 3.40625 7.9375 
C 8 0.796875 15.5 -2 21.5 -2 
C 33.09375 -2 42.203125 7.9375 42.203125 20.09375 
C 42.203125 32.546875 34.09375 42.09375 24.40625 42.09375 
C 20.90625 42.09375 17.5 40.890625 14.59375 38.5 
z
" id="CMSS17-53"/>
      </defs>
      <g transform="translate(21.16264 201.235589)scale(0.1 -0.1)">
       <use transform="scale(0.996264)" xlink:href="#CMSS17-49"/>
       <use transform="translate(46.843624 0)scale(0.996264)" xlink:href="#CMSS17-53"/>
      </g>
     </g>
    </g>
    <g id="ytick_2">
     <g id="line2d_17">
      <path clip-path="url(#p1bfb2bd8dd)" d="M 34.625311 166.590158 
L 369.425311 166.590158 
" style="fill:none;stroke:#93939c;stroke-dasharray:2.96,1.28;stroke-dashoffset:0;stroke-opacity:0.2;stroke-width:0.8;"/>
     </g>
     <g id="line2d_18"/>
     <g id="text_10">
      <!-- $20$ -->
      <g transform="translate(21.16264 170.049407)scale(0.1 -0.1)">
       <use transform="scale(0.996264)" xlink:href="#CMSS17-50"/>
       <use transform="translate(46.843624 0)scale(0.996264)" xlink:href="#CMSS17-48"/>
      </g>
     </g>
    </g>
    <g id="ytick_3">
     <g id="line2d_19">
      <path clip-path="url(#p1bfb2bd8dd)" d="M 34.625311 135.403976 
L 369.425311 135.403976 
" style="fill:none;stroke:#93939c;stroke-dasharray:2.96,1.28;stroke-dashoffset:0;stroke-opacity:0.2;stroke-width:0.8;"/>
     </g>
     <g id="line2d_20"/>
     <g id="text_11">
      <!-- $25$ -->
      <g transform="translate(21.16264 138.863225)scale(0.1 -0.1)">
       <use transform="scale(0.996264)" xlink:href="#CMSS17-50"/>
       <use transform="translate(46.843624 0)scale(0.996264)" xlink:href="#CMSS17-53"/>
      </g>
     </g>
    </g>
    <g id="ytick_4">
     <g id="line2d_21">
      <path clip-path="url(#p1bfb2bd8dd)" d="M 34.625311 104.217794 
L 369.425311 104.217794 
" style="fill:none;stroke:#93939c;stroke-dasharray:2.96,1.28;stroke-dashoffset:0;stroke-opacity:0.2;stroke-width:0.8;"/>
     </g>
     <g id="line2d_22"/>
     <g id="text_12">
      <!-- $30$ -->
      <defs>
       <path d="M 15.703125 32.1875 
L 22.5 32.1875 
C 31.90625 32.1875 34.59375 23.9375 34.59375 18.1875 
C 34.59375 10.34375 30.203125 4.1875 23 4.1875 
C 17.40625 4.1875 9.5 7.015625 5 14.46875 
C 4.296875 10.9375 4.296875 10.734375 3.90625 8.328125 
C 8.59375 1.390625 16.203125 -2 23.203125 -2 
C 34.59375 -2 43 7.515625 43 18.09375 
C 43 26.046875 37.5 32.6875 30 35.1875 
C 36 38.484375 40.40625 44.6875 40.40625 51.890625 
C 40.40625 60.296875 32.703125 67 23.296875 67 
C 14.703125 67 8 61.6875 5.203125 55.984375 
C 5.90625 54.984375 7.703125 52.09375 8.59375 50.59375 
C 10.796875 56.484375 16.5 60.890625 23.203125 60.890625 
C 28.796875 60.890625 32.5 57.1875 32.5 51.890625 
C 32.5 46.390625 29 40.390625 23.09375 39 
C 22.703125 39 16.5 38.390625 15.703125 38.296875 
z
" id="CMSS17-51"/>
      </defs>
      <g transform="translate(21.16264 107.677044)scale(0.1 -0.1)">
       <use transform="scale(0.996264)" xlink:href="#CMSS17-51"/>
       <use transform="translate(46.843624 0)scale(0.996264)" xlink:href="#CMSS17-48"/>
      </g>
     </g>
    </g>
    <g id="ytick_5">
     <g id="line2d_23">
      <path clip-path="url(#p1bfb2bd8dd)" d="M 34.625311 73.031613 
L 369.425311 73.031613 
" style="fill:none;stroke:#93939c;stroke-dasharray:2.96,1.28;stroke-dashoffset:0;stroke-opacity:0.2;stroke-width:0.8;"/>
     </g>
     <g id="line2d_24"/>
     <g id="text_13">
      <!-- $35$ -->
      <g transform="translate(21.16264 76.490862)scale(0.1 -0.1)">
       <use transform="scale(0.996264)" xlink:href="#CMSS17-51"/>
       <use transform="translate(46.843624 0)scale(0.996264)" xlink:href="#CMSS17-53"/>
      </g>
     </g>
    </g>
    <g id="ytick_6">
     <g id="line2d_25">
      <path clip-path="url(#p1bfb2bd8dd)" d="M 34.625311 41.845431 
L 369.425311 41.845431 
" style="fill:none;stroke:#93939c;stroke-dasharray:2.96,1.28;stroke-dashoffset:0;stroke-opacity:0.2;stroke-width:0.8;"/>
     </g>
     <g id="line2d_26"/>
     <g id="text_14">
      <!-- $40$ -->
      <g transform="translate(21.16264 45.30468)scale(0.1 -0.1)">
       <use transform="scale(0.996264)" xlink:href="#CMSS17-52"/>
       <use transform="translate(46.843624 0)scale(0.996264)" xlink:href="#CMSS17-48"/>
      </g>
     </g>
    </g>
    <g id="ytick_7">
     <g id="line2d_27">
      <path clip-path="url(#p1bfb2bd8dd)" d="M 34.625311 10.659249 
L 369.425311 10.659249 
" style="fill:none;stroke:#93939c;stroke-dasharray:2.96,1.28;stroke-dashoffset:0;stroke-opacity:0.2;stroke-width:0.8;"/>
     </g>
     <g id="line2d_28"/>
     <g id="text_15">
      <!-- $45$ -->
      <g transform="translate(21.16264 14.118498)scale(0.1 -0.1)">
       <use transform="scale(0.996264)" xlink:href="#CMSS17-52"/>
       <use transform="translate(46.843624 0)scale(0.996264)" xlink:href="#CMSS17-53"/>
      </g>
     </g>
    </g>
    <g id="text_16">
     <!-- Firing rate (spikes / s) -->
     <defs>
      <path d="M 45.59375 31 
L 45.59375 37.09375 
L 17.203125 37.09375 
L 17.203125 62.390625 
L 29.40625 62.390625 
C 30.59375 62.390625 31.796875 62.296875 33 62.296875 
L 49.5 62.296875 
L 49.5 68.796875 
L 8.796875 68.796875 
L 8.796875 0 
L 17.203125 0 
L 17.203125 31 
z
" id="CMSS17-70"/>
      <path d="M 40.90625 29.34375 
C 40.90625 35.671875 39.40625 44 28.09375 44 
C 21.703125 44 17.5 40.6875 14.703125 37.28125 
L 14.703125 43.484375 
L 7.40625 43.484375 
L 7.40625 0 
L 15 0 
L 15 24.3125 
C 15 30.65625 17.40625 37.890625 24.203125 37.890625 
C 33 37.890625 33.296875 31.953125 33.296875 28.53125 
L 33.296875 0 
L 40.90625 0 
z
" id="CMSS17-110"/>
      <path d="M 44.5 44 
C 38.796875 43.890625 33.90625 42.796875 29.90625 40.890625 
C 26.59375 43.484375 23.203125 44 20.90625 44 
C 12.203125 44 5.59375 36.8125 5.59375 28.5 
C 5.59375 23.140625 8.59375 19.09375 8.796875 18.890625 
C 7 16.390625 6 13.6875 6 10.6875 
C 6 7.1875 7.40625 4.6875 8.5 3.296875 
C 3.296875 0.09375 2.59375 -4.8125 2.59375 -6.703125 
C 2.59375 -14 11.703125 -20 23.40625 -20 
C 35.203125 -20 44.296875 -14 44.296875 -6.609375 
C 44.296875 7.1875 29 7.296875 24.796875 7.296875 
L 16.703125 7.296875 
C 15.203125 7.296875 11.203125 7.296875 11.203125 12.390625 
C 11.203125 14.390625 12.09375 15.6875 12.203125 15.796875 
C 13.703125 14.6875 16.796875 13 20.90625 13 
C 29.203125 13 36.09375 19.984375 36.09375 28.5 
C 36.09375 33.25 33.90625 36.703125 33 37.890625 
L 33.296875 37.890625 
C 33.59375 37.890625 37.796875 38.1875 39.296875 38.1875 
C 42.5 38.1875 42.796875 38.09375 45.59375 37.796875 
z
M 20.90625 18.5 
C 17.5 18.5 12.703125 20.578125 12.703125 28.5 
C 12.703125 37.109375 18.203125 38.484375 20.796875 38.484375 
C 24.203125 38.484375 29 36.40625 29 28.5 
C 29 19.875 23.5 18.5 20.90625 18.5 
z
M 24.703125 0 
C 27.09375 0 37.203125 0 37.203125 -6.8125 
C 37.203125 -11.109375 31 -14.5 23.5 -14.5 
C 15.90625 -14.5 9.703125 -11.203125 9.703125 -6.703125 
C 9.703125 -6.203125 9.703125 0 16.59375 0 
z
" id="CMSS17-103"/>
      <path d="M 37.59375 27.953125 
C 37.59375 37.484375 30.90625 44 21.90625 44 
C 17.5 44 12.703125 43.1875 7.203125 39.984375 
L 7.796875 33.328125 
C 10.296875 35.15625 14.59375 38.09375 21.796875 38.09375 
C 26.90625 38.09375 30 34.140625 30 27.84375 
L 30 24 
C 14 23.5 4 18.890625 4 11.109375 
C 4 7.0625 6.5 -1 14.796875 -1 
C 16.296875 -1 24.40625 -0.8125 30.203125 3.5 
L 30.203125 -0.203125 
L 37.59375 -0.203125 
z
M 30 12.875 
C 30 11.109375 30 8.734375 27 6.96875 
C 24.40625 5.296875 21.09375 5.09375 19.703125 5.09375 
C 14.703125 5.09375 11.296875 7.859375 11.296875 11.296875 
C 11.296875 18.203125 26.90625 18.890625 30 19 
z
" id="CMSS17-97"/>
      <path d="M 25.203125 75 
C 19.796875 69.484375 7.40625 56.671875 7.40625 25.046875 
C 7.40625 -6.6875 19.796875 -19.40625 25.203125 -25 
L 31.296875 -25 
C 19 -12.203125 15 5.71875 15 24.9375 
C 15 44.0625 18.796875 62.078125 31.296875 75 
z
" id="CMSS17-40"/>
      <path d="M 15.09375 4.296875 
C 18.40625 1.09375 22.90625 -1 27.703125 -1 
C 37 -1 45 8.640625 45 21.59375 
C 45 33.546875 39 44 30.40625 44 
C 25.40625 44 19.40625 42.1875 14.90625 38.59375 
L 14.90625 43.1875 
L 7.5 43.1875 
L 7.5 -20 
L 15.09375 -20 
z
M 15.09375 32.625 
C 15.90625 33.84375 19.296875 37.6875 24.796875 37.6875 
C 31.796875 37.6875 37.40625 30.40625 37.40625 21.59375 
C 37.40625 11.578125 30.59375 5.09375 23.90625 5.09375 
C 21.90625 5.09375 19.796875 5.59375 17.796875 7.3125 
C 15.09375 9.75 15.09375 11.265625 15.09375 12.6875 
z
" id="CMSS17-112"/>
      <path d="M 26.5 26.34375 
L 42 42.734375 
L 32.40625 42.734375 
L 14.90625 24.25 
L 14.90625 69 
L 7.5 69 
L 7.5 0 
L 14.796875 0 
L 14.796875 13.921875 
L 21.5 20.96875 
L 35.59375 0 
L 44.09375 0 
z
" id="CMSS17-107"/>
      <path d="M 41.203125 71.484375 
C 41.703125 72.78125 41.703125 72.984375 41.703125 73.1875 
C 41.703125 74.390625 40.796875 75 40 75 
C 38.796875 75 38.40625 74.1875 38 72.984375 
L 5.703125 -21.5 
C 5.203125 -22.8125 5.203125 -23 5.203125 -23.203125 
C 5.203125 -24.40625 6.09375 -25 6.90625 -25 
C 8.09375 -25 8.5 -24.203125 8.90625 -23 
z
" id="CMSS17-47"/>
      <path d="M 11.296875 -25 
C 16.703125 -19.5 29.09375 -6.6875 29.09375 24.9375 
C 29.09375 56.671875 16.703125 69.375 11.296875 75 
L 5.203125 75 
C 17.5 62.171875 21.5 44.265625 21.5 25.046875 
C 21.5 5.921875 17.703125 -12.09375 5.203125 -25 
z
" id="CMSS17-41"/>
     </defs>
     <g transform="translate(14.67198 166.038392)rotate(-90)scale(0.1 -0.1)">
      <use transform="scale(0.996264)" xlink:href="#CMSS17-70"/>
      <use transform="translate(53.289559 0)scale(0.996264)" xlink:href="#CMSS17-105"/>
      <use transform="translate(75.470282 0)scale(0.996264)" xlink:href="#CMSS17-114"/>
      <use transform="translate(107.380055 0)scale(0.996264)" xlink:href="#CMSS17-105"/>
      <use transform="translate(129.560778 0)scale(0.996264)" xlink:href="#CMSS17-110"/>
      <use transform="translate(177.765721 0)scale(0.996264)" xlink:href="#CMSS17-103"/>
      <use transform="translate(255.838457 0)scale(0.996264)" xlink:href="#CMSS17-114"/>
      <use transform="translate(287.74823 0)scale(0.996264)" xlink:href="#CMSS17-97"/>
      <use transform="translate(332.670151 0)scale(0.996264)" xlink:href="#CMSS17-116"/>
      <use transform="translate(366.501717 0)scale(0.996264)" xlink:href="#CMSS17-101"/>
      <use transform="translate(439.369652 0)scale(0.996264)" xlink:href="#CMSS17-40"/>
      <use transform="translate(475.803566 0)scale(0.996264)" xlink:href="#CMSS17-115"/>
      <use transform="translate(511.717108 0)scale(0.996264)" xlink:href="#CMSS17-112"/>
      <use transform="translate(559.922051 0)scale(0.996264)" xlink:href="#CMSS17-105"/>
      <use transform="translate(582.102774 0)scale(0.996264)" xlink:href="#CMSS17-107"/>
      <use transform="translate(625.10281 0)scale(0.996264)" xlink:href="#CMSS17-101"/>
      <use transform="translate(666.741632 0)scale(0.996264)" xlink:href="#CMSS17-115"/>
      <use transform="translate(733.884286 0)scale(0.996264)" xlink:href="#CMSS17-47"/>
      <use transform="translate(811.957023 0)scale(0.996264)" xlink:href="#CMSS17-115"/>
      <use transform="translate(847.870565 0)scale(0.996264)" xlink:href="#CMSS17-41"/>
     </g>
    </g>
   </g>
   <g id="line2d_29">
    <path clip-path="url(#p1bfb2bd8dd)" d="M 49.843492 191.804518 
L 56.054995 191.804518 
L 62.266498 188.644823 
L 68.478001 193.384365 
L 74.689504 191.804518 
L 80.901006 190.224671 
L 87.112509 185.485129 
L 93.324012 191.804518 
L 99.535515 199.703753 
L 105.747017 194.964212 
L 111.95852 204.443294 
L 118.170023 183.905282 
L 124.381526 199.703753 
L 130.593029 190.224671 
L 136.804531 204.443294 
L 143.016034 174.4262 
L 149.227537 194.964212 
L 155.43904 188.644823 
L 161.650543 196.544059 
L 167.862045 194.964212 
L 174.073548 206.023142 
L 180.285051 182.325435 
L 186.496554 177.585894 
L 192.708056 187.064976 
L 198.919559 188.644823 
L 205.131062 150.728493 
L 211.342565 55.937667 
L 217.554068 120.711398 
L 223.76557 179.165741 
L 229.977073 202.863447 
L 236.188576 191.804518 
L 242.400079 199.703753 
L 248.611581 171.266505 
L 254.823084 169.686658 
L 261.034587 153.888187 
L 267.24609 194.964212 
L 273.457593 163.36727 
L 279.669095 169.686658 
L 285.880598 161.787423 
L 292.092101 155.468034 
L 298.303604 183.905282 
L 304.515107 147.568799 
L 310.726609 180.745588 
L 316.938112 188.644823 
L 323.149615 193.384365 
L 329.361118 188.644823 
L 335.57262 179.165741 
L 341.784123 177.585894 
L 347.995626 196.544059 
L 354.207129 190.224671 
" style="fill:none;stroke:#0000ff;stroke-linecap:square;stroke-width:1.5;"/>
   </g>
   <g id="line2d_30">
    <path clip-path="url(#p1bfb2bd8dd)" d="M 49.843492 191.864135 
L 56.054995 173.65118 
L 62.266498 163.844205 
L 68.478001 176.453173 
L 74.689504 190.463138 
L 80.901006 180.656163 
L 87.112509 183.458156 
L 93.324012 155.438226 
L 99.535515 191.864135 
L 105.747017 177.85417 
L 111.95852 176.453173 
L 118.170023 179.255166 
L 124.381526 168.047194 
L 130.593029 180.656163 
L 136.804531 187.661145 
L 143.016034 186.260149 
L 149.227537 175.052177 
L 155.43904 182.057159 
L 161.650543 196.067124 
L 167.862045 170.849187 
L 174.073548 183.458156 
L 180.285051 191.864135 
L 186.496554 182.057159 
L 192.708056 175.052177 
L 198.919559 184.859152 
L 205.131062 163.844205 
L 211.342565 34.952528 
L 217.554068 110.606338 
L 223.76557 165.245201 
L 229.977073 169.448191 
L 236.188576 156.839222 
L 242.400079 156.839222 
L 248.611581 149.83424 
L 254.823084 147.032247 
L 261.034587 147.032247 
L 267.24609 145.631251 
L 273.457593 130.220289 
L 279.669095 131.621286 
L 285.880598 161.042212 
L 292.092101 131.621286 
L 298.303604 144.230254 
L 304.515107 145.631251 
L 310.726609 163.844205 
L 316.938112 155.438226 
L 323.149615 172.250184 
L 329.361118 159.641215 
L 335.57262 152.636233 
L 341.784123 155.438226 
L 347.995626 162.443208 
L 354.207129 166.646198 
" style="fill:none;stroke:#ff0000;stroke-linecap:square;stroke-width:1.5;"/>
   </g>
   <g id="line2d_31">
    <path clip-path="url(#p1bfb2bd8dd)" d="M 202.025311 227.657182 
L 202.025311 10.217182 
" style="fill:none;stroke:#808080;stroke-dasharray:5.55,2.4;stroke-dashoffset:0;stroke-width:1.5;"/>
   </g>
   <g id="legend_1">
    <g id="line2d_32">
     <path d="M 285.29641 22.717182 
L 305.29641 22.717182 
" style="fill:none;stroke:#0000ff;stroke-linecap:square;stroke-width:1.5;"/>
    </g>
    <g id="line2d_33"/>
    <g id="text_17">
     <!-- Audio left -->
     <defs>
      <path d="M 35.5 69 
L 26.90625 69 
L 2.59375 0 
L 10.203125 0 
L 17.203125 20 
L 44 20 
L 51.09375 0 
L 59.796875 0 
z
M 42.09375 25.59375 
L 19.09375 25.59375 
C 23.90625 39.53125 29.90625 56.84375 30.59375 61.3125 
L 30.703125 61.3125 
C 31.40625 57.234375 33.40625 51.265625 35.09375 46.1875 
z
" id="CMSS17-65"/>
      <path d="M 40.796875 69 
L 33.40625 69 
L 33.40625 38.984375 
C 30.296875 41.59375 25.203125 44 19.59375 44 
C 10.5 44 3.296875 34.046875 3.296875 21.484375 
C 3.296875 8.9375 10.40625 -1 19.296875 -1 
C 26.203125 -1 30.796875 2.6875 33.203125 4.796875 
L 33.203125 -0.203125 
L 40.796875 -0.203125 
z
M 33.203125 13.296875 
C 33.203125 11.875 33.203125 10.359375 30.09375 7.625 
C 28.09375 5.90625 25.703125 5.09375 23.40625 5.09375 
C 18 5.09375 10.90625 9.140625 10.90625 21.390625 
C 10.90625 34.140625 18.90625 37.890625 24.40625 37.890625 
C 28.09375 37.890625 31.09375 36.0625 33.203125 33.03125 
z
" id="CMSS17-100"/>
      <path d="M 44.203125 21.1875 
C 44.203125 33.984375 34.703125 44 23.5 44 
C 12 44 2.703125 33.6875 2.703125 21.1875 
C 2.703125 8.5 12.296875 -1 23.40625 -1 
C 34.796875 -1 44.203125 8.796875 44.203125 21.1875 
z
M 23.5 5.296875 
C 16.40625 5.296875 10.296875 11.09375 10.296875 21.984375 
C 10.296875 33.59375 17.40625 37.890625 23.40625 37.890625 
C 29.90625 37.890625 36.59375 33.1875 36.59375 21.984375 
C 36.59375 10.6875 30.09375 5.296875 23.5 5.296875 
z
" id="CMSS17-111"/>
      <path d="M 16.796875 37.1875 
L 26.90625 37.1875 
L 26.90625 43 
L 16.59375 43 
L 16.59375 55.671875 
C 16.59375 62.703125 22 63.890625 25.09375 63.890625 
C 26.09375 63.890625 28.90625 63.890625 32.5 62.609375 
L 32.5 69.1875 
C 30.203125 69.6875 27.40625 70 25.203125 70 
C 15.90625 70 9.40625 62.40625 9.40625 52.59375 
L 9.40625 43 
L 2.5 43 
L 2.5 37.1875 
L 9.40625 37.1875 
L 9.40625 0 
L 16.796875 0 
z
" id="CMSS17-102"/>
     </defs>
     <g transform="translate(313.29641 26.217182)scale(0.1 -0.1)">
      <use transform="scale(0.996264)" xlink:href="#CMSS17-65"/>
      <use transform="translate(62.217855 0)scale(0.996264)" xlink:href="#CMSS17-117"/>
      <use transform="translate(110.422798 0)scale(0.996264)" xlink:href="#CMSS17-100"/>
      <use transform="translate(158.627741 0)scale(0.996264)" xlink:href="#CMSS17-105"/>
      <use transform="translate(180.808464 0)scale(0.996264)" xlink:href="#CMSS17-111"/>
      <use transform="translate(258.881201 0)scale(0.996264)" xlink:href="#CMSS17-108"/>
      <use transform="translate(281.061924 0)scale(0.996264)" xlink:href="#CMSS17-101"/>
      <use transform="translate(322.700746 0)scale(0.996264)" xlink:href="#CMSS17-102"/>
      <use transform="translate(351.327404 0)scale(0.996264)" xlink:href="#CMSS17-116"/>
     </g>
    </g>
    <g id="line2d_34">
     <path d="M 285.29641 36.65436 
L 305.29641 36.65436 
" style="fill:none;stroke:#ff0000;stroke-linecap:square;stroke-width:1.5;"/>
    </g>
    <g id="line2d_35"/>
    <g id="text_18">
     <!-- Audio right -->
     <defs>
      <path d="M 40.90625 29.34375 
C 40.90625 35.671875 39.40625 44 28.09375 44 
C 21.796875 44 17.703125 40.890625 14.796875 37.484375 
L 14.796875 69 
L 7.40625 69 
L 7.40625 0 
L 15 0 
L 15 24.3125 
C 15 30.65625 17.40625 37.890625 24.203125 37.890625 
C 33 37.890625 33.296875 31.953125 33.296875 28.53125 
L 33.296875 0 
L 40.90625 0 
z
" id="CMSS17-104"/>
     </defs>
     <g transform="translate(313.29641 40.15436)scale(0.1 -0.1)">
      <use transform="scale(0.996264)" xlink:href="#CMSS17-65"/>
      <use transform="translate(62.217855 0)scale(0.996264)" xlink:href="#CMSS17-117"/>
      <use transform="translate(110.422798 0)scale(0.996264)" xlink:href="#CMSS17-100"/>
      <use transform="translate(158.627741 0)scale(0.996264)" xlink:href="#CMSS17-105"/>
      <use transform="translate(180.808464 0)scale(0.996264)" xlink:href="#CMSS17-111"/>
      <use transform="translate(258.881201 0)scale(0.996264)" xlink:href="#CMSS17-114"/>
      <use transform="translate(290.790973 0)scale(0.996264)" xlink:href="#CMSS17-105"/>
      <use transform="translate(312.971696 0)scale(0.996264)" xlink:href="#CMSS17-103"/>
      <use transform="translate(359.81532 0)scale(0.996264)" xlink:href="#CMSS17-104"/>
      <use transform="translate(408.020263 0)scale(0.996264)" xlink:href="#CMSS17-116"/>
     </g>
    </g>
   </g>
  </g>
 </g>
 <defs>
  <clipPath id="p1bfb2bd8dd">
   <rect height="217.44" width="334.8" x="34.625311" y="10.217182"/>
  </clipPath>
 </defs>
</svg>
