<?xml version="1.0" encoding="utf-8" standalone="no"?>
<!DOCTYPE svg PUBLIC "-//W3C//DTD SVG 1.1//EN"
  "http://www.w3.org/Graphics/SVG/1.1/DTD/svg11.dtd">
<!-- Created with matplotlib (https://matplotlib.org/) -->
<svg height="258.158317pt" version="1.1" viewBox="0 0 376.625311 258.158317" width="376.625311pt" xmlns="http://www.w3.org/2000/svg" xmlns:xlink="http://www.w3.org/1999/xlink">
 <defs>
  <style type="text/css">
*{stroke-linecap:butt;stroke-linejoin:round;}
  </style>
 </defs>
 <g id="figure_1">
  <g id="patch_1">
   <path d="M 0 258.158317 
L 376.625311 258.158317 
L 376.625311 0 
L 0 0 
z
" style="fill:#ffffff;"/>
  </g>
  <g id="axes_1">
   <g id="patch_2">
    <path d="M 34.625311 224.64 
L 369.425311 224.64 
L 369.425311 7.2 
L 34.625311 7.2 
z
" style="fill:#ffffff;"/>
   </g>
   <g id="PolyCollection_1">
    <defs>
     <path d="M 49.843492 -60.682864 
L 49.843492 -80.432323 
L 56.054995 -71.275795 
L 62.266498 -76.193014 
L 68.478001 -68.271664 
L 74.689504 -80.382357 
L 80.901006 -70.309688 
L 87.112509 -77.12581 
L 93.324012 -88.569361 
L 99.535515 -69.909888 
L 105.747017 -73.305083 
L 111.95852 -69.010876 
L 118.170023 -73.231409 
L 124.381526 -68.339851 
L 130.593029 -91.273183 
L 136.804531 -83.951785 
L 143.016034 -72.403884 
L 149.227537 -77.10001 
L 155.43904 -84.409301 
L 161.650543 -84.356643 
L 167.862045 -84.629436 
L 174.073548 -66.85204 
L 180.285051 -79.260741 
L 186.496554 -68.649772 
L 192.708056 -66.733307 
L 198.919559 -81.338921 
L 205.131062 -114.095069 
L 211.342565 -134.640351 
L 217.554068 -151.375276 
L 223.76557 -236.999757 
L 229.977073 -241.07468 
L 236.188576 -225.270389 
L 242.400079 -181.674934 
L 248.611581 -187.871386 
L 254.823084 -162.944281 
L 261.034587 -166.946584 
L 267.24609 -131.182833 
L 273.457593 -120.808385 
L 279.669095 -129.745904 
L 285.880598 -137.660469 
L 292.092101 -121.663952 
L 298.303604 -105.670803 
L 304.515107 -104.900964 
L 310.726609 -117.701327 
L 316.938112 -114.041942 
L 323.149615 -97.367303 
L 329.361118 -84.404298 
L 335.57262 -106.23316 
L 341.784123 -103.585605 
L 347.995626 -98.363927 
L 354.207129 -93.45819 
L 354.207129 -69.539438 
L 354.207129 -69.539438 
L 347.995626 -74.580265 
L 341.784123 -79.305151 
L 335.57262 -82.625534 
L 329.361118 -62.678828 
L 323.149615 -73.587576 
L 316.938112 -86.752629 
L 310.726609 -91.050495 
L 304.515107 -81.968417 
L 298.303604 -79.209265 
L 292.092101 -93.055808 
L 285.880598 -108.888295 
L 279.669095 -100.888358 
L 273.457593 -93.911375 
L 267.24609 -99.451428 
L 261.034587 -135.302937 
L 254.823084 -131.34799 
L 248.611581 -158.143016 
L 242.400079 -150.414279 
L 236.188576 -192.359273 
L 229.977073 -210.373298 
L 223.76557 -210.469595 
L 217.554068 -127.002492 
L 211.342565 -113.897726 
L 205.131062 -94.656752 
L 198.919559 -61.765579 
L 192.708056 -50.510128 
L 186.496554 -52.572288 
L 180.285051 -61.854446 
L 174.073548 -52.380707 
L 167.862045 -66.432315 
L 161.650543 -64.715795 
L 155.43904 -66.65245 
L 149.227537 -58.04724 
L 143.016034 -54.786115 
L 136.804531 -67.109967 
L 130.593029 -71.724445 
L 124.381526 -50.892896 
L 118.170023 -57.937215 
L 111.95852 -52.211184 
L 105.747017 -55.874227 
L 99.535515 -53.301485 
L 93.324012 -68.460328 
L 87.112509 -60.010751 
L 80.901006 -54.890997 
L 74.689504 -62.722143 
L 68.478001 -52.950395 
L 62.266498 -56.964922 
L 56.054995 -53.92489 
L 49.843492 -60.682864 
z
" id="mbca3d68701"/>
    </defs>
    <g clip-path="url(#pb6f59339f3)">
     <use style="fill:#0000ff;fill-opacity:0.3;" x="0" xlink:href="#mbca3d68701" y="258.158317"/>
    </g>
   </g>
   <g id="PolyCollection_2">
    <defs>
     <path d="M 49.843492 -43.401953 
L 49.843492 -56.094717 
L 56.054995 -62.833605 
L 62.266498 -64.054164 
L 68.478001 -74.332018 
L 74.689504 -75.313918 
L 80.901006 -71.006586 
L 87.112509 -77.398258 
L 93.324012 -78.929285 
L 99.535515 -79.696955 
L 105.747017 -69.024611 
L 111.95852 -63.124386 
L 118.170023 -66.524802 
L 124.381526 -63.928493 
L 130.593029 -66.167786 
L 136.804531 -66.167786 
L 143.016034 -70.938034 
L 149.227537 -70.256605 
L 155.43904 -69.727553 
L 161.650543 -71.363781 
L 167.862045 -67.858245 
L 174.073548 -62.403363 
L 180.285051 -71.705762 
L 186.496554 -70.717051 
L 192.708056 -63.057343 
L 198.919559 -60.401173 
L 205.131062 -99.613582 
L 211.342565 -99.300476 
L 217.554068 -125.53867 
L 223.76557 -198.714755 
L 229.977073 -180.880815 
L 236.188576 -156.005162 
L 242.400079 -140.114862 
L 248.611581 -125.659945 
L 254.823084 -129.262928 
L 261.034587 -112.249119 
L 267.24609 -87.636889 
L 273.457593 -93.97498 
L 279.669095 -88.051841 
L 285.880598 -88.641509 
L 292.092101 -91.564811 
L 298.303604 -95.391055 
L 304.515107 -91.659516 
L 310.726609 -94.12272 
L 316.938112 -99.271848 
L 323.149615 -76.890944 
L 329.361118 -95.30367 
L 335.57262 -82.777796 
L 341.784123 -80.913709 
L 347.995626 -96.274749 
L 354.207129 -78.494309 
L 354.207129 -61.678572 
L 354.207129 -61.678572 
L 347.995626 -74.889531 
L 341.784123 -61.196135 
L 335.57262 -63.205973 
L 329.361118 -73.923647 
L 323.149615 -57.47105 
L 316.938112 -77.703319 
L 310.726609 -71.230673 
L 304.515107 -71.756914 
L 298.303604 -73.836263 
L 292.092101 -71.851619 
L 285.880598 -68.964035 
L 279.669095 -69.553703 
L 273.457593 -73.315375 
L 267.24609 -69.968654 
L 261.034587 -89.90656 
L 254.823084 -105.821112 
L 248.611581 -103.613208 
L 242.400079 -116.275765 
L 236.188576 -129.439902 
L 229.977073 -156.862234 
L 223.76557 -173.893617 
L 217.554068 -105.671445 
L 211.342565 -81.548617 
L 205.131062 -79.298548 
L 198.919559 -46.843347 
L 192.708056 -48.061102 
L 186.496554 -53.960131 
L 180.285051 -54.908383 
L 174.073548 -48.715082 
L 167.862045 -51.008049 
L 161.650543 -53.313401 
L 155.43904 -53.012667 
L 149.227537 -54.420577 
L 143.016034 -53.739148 
L 136.804531 -50.761547 
L 130.593029 -50.761547 
L 124.381526 -49.126914 
L 118.170023 -50.404531 
L 111.95852 -49.931022 
L 105.747017 -53.715609 
L 99.535515 -62.412889 
L 93.324012 -61.243596 
L 87.112509 -60.837661 
L 80.901006 -55.607558 
L 74.689504 -59.048076 
L 68.478001 -60.029976 
L 62.266498 -49.001244 
L 56.054995 -50.221802 
L 49.843492 -43.401953 
z
" id="m95d0f119b0"/>
    </defs>
    <g clip-path="url(#pb6f59339f3)">
     <use style="fill:#ff0000;fill-opacity:0.3;" x="0" xlink:href="#m95d0f119b0" y="258.158317"/>
    </g>
   </g>
   <g id="matplotlib.axis_1">
    <g id="xtick_1">
     <g id="line2d_1">
      <path clip-path="url(#pb6f59339f3)" d="M 71.583752 224.64 
L 71.583752 7.2 
" style="fill:none;stroke:#93939c;stroke-dasharray:2.96,1.28;stroke-dashoffset:0;stroke-opacity:0.2;stroke-width:0.8;"/>
     </g>
     <g id="line2d_2"/>
     <g id="text_1">
      <!-- $-0.6$ -->
      <defs>
       <path d="M 65.90625 23 
C 67.59375 23 69.40625 23 69.40625 25 
C 69.40625 27 67.59375 27 65.90625 27 
L 11.796875 27 
C 10.09375 27 8.296875 27 8.296875 25 
C 8.296875 23 10.09375 23 11.796875 23 
z
" id="CMSY10-0"/>
       <path d="M 43.09375 32.390625 
C 43.09375 38.109375 43 48.75 38.90625 56.984375 
C 34.796875 64.890625 28.203125 67 23.5 67 
C 16.703125 67 10.90625 62.984375 7.90625 56.578125 
C 4.703125 49.859375 3.796875 42.9375 3.796875 32.390625 
C 3.796875 25.171875 4.09375 16.34375 7.703125 8.609375 
C 11.796875 0.09375 18.703125 -2 23.40625 -2 
C 29.59375 -2 35.59375 1.296875 39 8.203125 
C 42.5 15.4375 43.09375 23.359375 43.09375 32.390625 
z
M 23.40625 4.09375 
C 15.796875 4.09375 13.5 12.828125 12.796875 15.734375 
C 11.59375 20.75 11.40625 25.5625 11.40625 33.5 
C 11.40625 39.71875 11.40625 46.75 13.296875 52.265625 
C 15.59375 58.6875 19.59375 60.890625 23.40625 60.890625 
C 30.796875 60.890625 33.203125 53.46875 34 50.859375 
C 35.5 45.546875 35.5 39.3125 35.5 33.5 
C 35.5 24.15625 35.5 4.09375 23.40625 4.09375 
z
" id="CMSS17-48"/>
       <path d="M 17 8 
L 9 8 
L 9 0 
L 17 0 
z
" id="CMSS17-46"/>
       <path d="M 39 64.984375 
C 34.796875 66.6875 31.796875 67 29 67 
C 16 67 3.90625 53.25 3.90625 31.609375 
C 3.90625 4.1875 15.40625 -2 23.59375 -2 
C 28.09375 -2 32.59375 -0.609375 36.90625 4.390625 
C 41.296875 9.671875 43 14.0625 43 21.75 
C 43 34.109375 36.90625 45.09375 27.796875 45.09375 
C 21.203125 45.09375 15.5 41.59375 12 37.203125 
C 13 51.40625 19.59375 60.890625 29.09375 60.890625 
C 31.703125 60.890625 35.09375 60.484375 39 58.75 
z
M 12.09375 21.4375 
C 12.09375 22.234375 12.09375 22.734375 12.203125 24.234375 
C 12.203125 32.015625 16.703125 39 24 39 
C 28.703125 39 31.09375 36.5 32.90625 33.40625 
C 35 29.515625 35.09375 25.828125 35.09375 21.75 
C 35.09375 17.859375 35.09375 13.96875 32.796875 9.96875 
C 30.90625 6.890625 28.40625 4.1875 23.59375 4.1875 
C 14.09375 4.1875 12.5 17.453125 12.09375 21.4375 
z
" id="CMSS17-54"/>
      </defs>
      <g transform="translate(61.344341 235.058498)scale(0.1 -0.1)">
       <use transform="scale(0.996264)" xlink:href="#CMSY10-0"/>
       <use transform="translate(77.487468 0)scale(0.996264)" xlink:href="#CMSS17-48"/>
       <use transform="translate(124.331091 0)scale(0.996264)" xlink:href="#CMSS17-46"/>
       <use transform="translate(150.355296 0)scale(0.996264)" xlink:href="#CMSS17-54"/>
      </g>
     </g>
    </g>
    <g id="xtick_2">
     <g id="line2d_3">
      <path clip-path="url(#pb6f59339f3)" d="M 115.064272 224.64 
L 115.064272 7.2 
" style="fill:none;stroke:#93939c;stroke-dasharray:2.96,1.28;stroke-dashoffset:0;stroke-opacity:0.2;stroke-width:0.8;"/>
     </g>
     <g id="line2d_4"/>
     <g id="text_2">
      <!-- $-0.4$ -->
      <defs>
       <path d="M 35.203125 17 
L 44.296875 17 
L 44.296875 23.09375 
L 35.203125 23.09375 
L 35.203125 66 
L 26.40625 66 
L 2.59375 23.09375 
L 2.59375 17 
L 27.296875 17 
L 27.296875 0 
L 35.203125 0 
z
M 10.296875 23.09375 
C 16.09375 33.421875 27.59375 54.28125 27.59375 61.359375 
L 27.59375 23.09375 
z
" id="CMSS17-52"/>
      </defs>
      <g transform="translate(104.82486 235.058498)scale(0.1 -0.1)">
       <use transform="scale(0.996264)" xlink:href="#CMSY10-0"/>
       <use transform="translate(77.487468 0)scale(0.996264)" xlink:href="#CMSS17-48"/>
       <use transform="translate(124.331091 0)scale(0.996264)" xlink:href="#CMSS17-46"/>
       <use transform="translate(150.355296 0)scale(0.996264)" xlink:href="#CMSS17-52"/>
      </g>
     </g>
    </g>
    <g id="xtick_3">
     <g id="line2d_5">
      <path clip-path="url(#pb6f59339f3)" d="M 158.544791 224.64 
L 158.544791 7.2 
" style="fill:none;stroke:#93939c;stroke-dasharray:2.96,1.28;stroke-dashoffset:0;stroke-opacity:0.2;stroke-width:0.8;"/>
     </g>
     <g id="line2d_6"/>
     <g id="text_3">
      <!-- $-0.2$ -->
      <defs>
       <path d="M 25.796875 21.140625 
C 28.59375 24.03125 32.796875 27.515625 35.703125 31 
C 38.5 34.390625 42.203125 39.171875 42.203125 46.140625 
C 42.203125 57.109375 34.796875 67 22.203125 67 
C 12.296875 67 6.59375 60.796875 3.90625 51.125 
L 7.796875 45.75 
C 10 54.8125 13.09375 60.59375 20.90625 60.59375 
C 29.5 60.59375 34.296875 53.609375 34.296875 45.9375 
C 34.296875 36.78125 27.296875 29.703125 22 24.421875 
C 16.09375 18.546875 10.296875 12.578125 4.703125 6.390625 
L 4.703125 0 
L 42.203125 0 
L 42.203125 6.796875 
L 25.203125 6.796875 
C 24 6.796875 22.796875 6.6875 21.59375 6.6875 
L 11.59375 6.6875 
L 11.59375 6.796875 
z
" id="CMSS17-50"/>
      </defs>
      <g transform="translate(148.30538 235.058498)scale(0.1 -0.1)">
       <use transform="scale(0.996264)" xlink:href="#CMSY10-0"/>
       <use transform="translate(77.487468 0)scale(0.996264)" xlink:href="#CMSS17-48"/>
       <use transform="translate(124.331091 0)scale(0.996264)" xlink:href="#CMSS17-46"/>
       <use transform="translate(150.355296 0)scale(0.996264)" xlink:href="#CMSS17-50"/>
      </g>
     </g>
    </g>
    <g id="xtick_4">
     <g id="line2d_7">
      <path clip-path="url(#pb6f59339f3)" d="M 202.025311 224.64 
L 202.025311 7.2 
" style="fill:none;stroke:#93939c;stroke-dasharray:2.96,1.28;stroke-dashoffset:0;stroke-opacity:0.2;stroke-width:0.8;"/>
     </g>
     <g id="line2d_8"/>
     <g id="text_4">
      <!-- $0.0$ -->
      <g transform="translate(195.660271 235.058498)scale(0.1 -0.1)">
       <use transform="scale(0.996264)" xlink:href="#CMSS17-48"/>
       <use transform="translate(46.843624 0)scale(0.996264)" xlink:href="#CMSS17-46"/>
       <use transform="translate(72.867828 0)scale(0.996264)" xlink:href="#CMSS17-48"/>
      </g>
     </g>
    </g>
    <g id="xtick_5">
     <g id="line2d_9">
      <path clip-path="url(#pb6f59339f3)" d="M 245.50583 224.64 
L 245.50583 7.2 
" style="fill:none;stroke:#93939c;stroke-dasharray:2.96,1.28;stroke-dashoffset:0;stroke-opacity:0.2;stroke-width:0.8;"/>
     </g>
     <g id="line2d_10"/>
     <g id="text_5">
      <!-- $0.2$ -->
      <g transform="translate(239.140791 235.058498)scale(0.1 -0.1)">
       <use transform="scale(0.996264)" xlink:href="#CMSS17-48"/>
       <use transform="translate(46.843624 0)scale(0.996264)" xlink:href="#CMSS17-46"/>
       <use transform="translate(72.867828 0)scale(0.996264)" xlink:href="#CMSS17-50"/>
      </g>
     </g>
    </g>
    <g id="xtick_6">
     <g id="line2d_11">
      <path clip-path="url(#pb6f59339f3)" d="M 288.98635 224.64 
L 288.98635 7.2 
" style="fill:none;stroke:#93939c;stroke-dasharray:2.96,1.28;stroke-dashoffset:0;stroke-opacity:0.2;stroke-width:0.8;"/>
     </g>
     <g id="line2d_12"/>
     <g id="text_6">
      <!-- $0.4$ -->
      <g transform="translate(282.62131 235.058498)scale(0.1 -0.1)">
       <use transform="scale(0.996264)" xlink:href="#CMSS17-48"/>
       <use transform="translate(46.843624 0)scale(0.996264)" xlink:href="#CMSS17-46"/>
       <use transform="translate(72.867828 0)scale(0.996264)" xlink:href="#CMSS17-52"/>
      </g>
     </g>
    </g>
    <g id="xtick_7">
     <g id="line2d_13">
      <path clip-path="url(#pb6f59339f3)" d="M 332.466869 224.64 
L 332.466869 7.2 
" style="fill:none;stroke:#93939c;stroke-dasharray:2.96,1.28;stroke-dashoffset:0;stroke-opacity:0.2;stroke-width:0.8;"/>
     </g>
     <g id="line2d_14"/>
     <g id="text_7">
      <!-- $0.6$ -->
      <g transform="translate(326.10183 235.058498)scale(0.1 -0.1)">
       <use transform="scale(0.996264)" xlink:href="#CMSS17-48"/>
       <use transform="translate(46.843624 0)scale(0.996264)" xlink:href="#CMSS17-46"/>
       <use transform="translate(72.867828 0)scale(0.996264)" xlink:href="#CMSS17-54"/>
      </g>
     </g>
    </g>
    <g id="text_8">
     <!-- Peri-stimulus time (s) -->
     <defs>
      <path d="M 32.90625 29 
C 44.90625 29 54.703125 38.234375 54.703125 49.046875 
C 54.703125 59.65625 45.296875 69 32.296875 69 
L 8.90625 69 
L 8.90625 0 
L 17.296875 0 
L 17.296875 29 
z
M 30.09375 63.390625 
C 41.703125 63.390625 46.796875 56.21875 46.796875 49.046875 
C 46.796875 42.359375 42.09375 34.796875 30.09375 34.796875 
L 17.09375 34.796875 
L 17.09375 63.390625 
z
" id="CMSS17-80"/>
      <path d="M 39.09375 21.484375 
C 39.09375 24.796875 38.90625 31.265625 35.703125 36.671875 
C 32.203125 42.390625 26.5 44 22.203125 44 
C 11.796875 44 3 34.125 3 21.296875 
C 3 9.046875 12.09375 -1 23.59375 -1 
C 28.09375 -1 33.59375 0.296875 38.59375 3.890625 
C 38.59375 4.296875 38.40625 6.46875 38.296875 6.578125 
C 38.296875 6.765625 38 9.828125 38 10.234375 
C 33.203125 6.375 27.703125 5.09375 23.703125 5.09375 
C 17.296875 5.09375 10.40625 10.421875 10.09375 21.484375 
z
M 10.90625 27 
C 12.203125 32.59375 16.59375 37.890625 22.203125 37.890625 
C 23.703125 37.890625 30.703125 37.6875 32.5 27 
z
" id="CMSS17-101"/>
      <path d="M 14.90625 21.390625 
C 14.90625 30.84375 21.796875 37.171875 30.59375 37.375 
L 30.59375 44 
C 24.203125 43.890625 18.203125 40.6875 14.59375 35.46875 
L 14.59375 43.484375 
L 7.5 43.484375 
L 7.5 0 
L 14.90625 0 
z
" id="CMSS17-114"/>
      <path d="M 15.296875 66 
L 6.90625 66 
L 6.90625 57.59375 
L 15.296875 57.59375 
z
M 14.796875 43 
L 7.40625 43 
L 7.40625 0 
L 14.796875 0 
z
" id="CMSS17-105"/>
      <path d="M 26 19 
L 26 24.796875 
L 1 24.796875 
L 1 19 
z
" id="CMSS17-45"/>
      <path d="M 32.203125 40.984375 
C 26.296875 43.796875 21.703125 44 18.703125 44 
C 11.59375 44 3.09375 41.484375 3.09375 31.390625 
C 3.09375 21.296875 14.09375 19.09375 17.09375 18.484375 
C 21.703125 17.59375 26.796875 16.59375 26.796875 11.59375 
C 26.796875 5.296875 19.59375 5.296875 18.296875 5.296875 
C 14.296875 5.296875 8.796875 6.390625 3.796875 9.984375 
L 2.59375 3.296875 
C 8.296875 0 13.796875 -1 18.40625 -1 
C 30.703125 -1 33.796875 6.5 33.796875 12.1875 
C 33.796875 17.09375 31 20.390625 29.09375 21.890625 
C 25.796875 24.484375 24.59375 24.796875 16.40625 26.484375 
C 15 26.6875 10.09375 27.796875 10.09375 32.296875 
C 10.09375 37.984375 16.40625 37.984375 17.796875 37.984375 
C 24.296875 37.984375 28.296875 35.984375 31 34.484375 
z
" id="CMSS17-115"/>
      <path d="M 16.703125 37.1875 
L 29.703125 37.1875 
L 29.703125 43 
L 16.703125 43 
L 16.703125 55 
L 9.59375 55 
L 9.59375 43 
L 1.703125 43 
L 1.703125 37.1875 
L 9.40625 37.1875 
L 9.40625 11.734375 
C 9.40625 6 10.703125 -1 17.296875 -1 
C 22.296875 -1 26.90625 0.390625 31.296875 2.6875 
L 29.703125 8.609375 
C 27.296875 6.5 24.40625 5.296875 21.296875 5.296875 
C 16.90625 5.296875 16.703125 10.921875 16.703125 13.4375 
z
" id="CMSS17-116"/>
      <path d="M 67 29.34375 
C 67 36.078125 65.296875 44 54.09375 44 
C 46.59375 44 42.09375 39.296875 40.09375 36.375 
C 38.296875 41.6875 34.09375 44 28.09375 44 
C 21.296875 44 17 40.09375 14.703125 37.28125 
L 14.703125 43.484375 
L 7.40625 43.484375 
L 7.40625 0 
L 15 0 
L 15 24.3125 
C 15 30.25 17.203125 37.890625 24.296875 37.890625 
C 33.40625 37.890625 33.40625 31.453125 33.40625 28.53125 
L 33.40625 0 
L 41 0 
L 41 24.3125 
C 41 30.25 43.203125 37.890625 50.296875 37.890625 
C 59.40625 37.890625 59.40625 31.453125 59.40625 28.53125 
L 59.40625 0 
L 67 0 
z
" id="CMSS17-109"/>
      <path d="M 40.90625 43 
L 33.296875 43 
L 33.296875 15.25 
C 33.296875 7.8125 27.90625 4.796875 22.203125 4.796875 
C 15.59375 4.796875 15 7 15 11.125 
L 15 43 
L 7.40625 43 
L 7.40625 10.625 
C 7.40625 2.796875 10.09375 -1 17 -1 
C 20.40625 -1 28.09375 -0.203125 33.5 4.796875 
L 33.5 -0.203125 
L 40.90625 -0.203125 
z
" id="CMSS17-117"/>
      <path d="M 14.796875 69 
L 7.40625 69 
L 7.40625 0 
L 14.796875 0 
z
" id="CMSS17-108"/>
      <path d="M 25.203125 75 
C 19.796875 69.484375 7.40625 56.671875 7.40625 25.046875 
C 7.40625 -6.6875 19.796875 -19.40625 25.203125 -25 
L 31.296875 -25 
C 19 -12.203125 15 5.71875 15 24.9375 
C 15 44.0625 18.796875 62.078125 31.296875 75 
z
" id="CMSS17-40"/>
      <path d="M 11.296875 -25 
C 16.703125 -19.5 29.09375 -6.6875 29.09375 24.9375 
C 29.09375 56.671875 16.703125 69.375 11.296875 75 
L 5.203125 75 
C 17.5 62.171875 21.5 44.265625 21.5 25.046875 
C 21.5 5.921875 17.703125 -12.09375 5.203125 -25 
z
" id="CMSS17-41"/>
     </defs>
     <g transform="translate(156.847483 248.467657)scale(0.1 -0.1)">
      <use transform="scale(0.996264)" xlink:href="#CMSS17-80"/>
      <use transform="translate(57.133132 0)scale(0.996264)" xlink:href="#CMSS17-101"/>
      <use transform="translate(98.771954 0)scale(0.996264)" xlink:href="#CMSS17-114"/>
      <use transform="translate(130.681727 0)scale(0.996264)" xlink:href="#CMSS17-105"/>
      <use transform="translate(152.86245 0)scale(0.996264)" xlink:href="#CMSS17-45"/>
      <use transform="translate(184.091563 0)scale(0.996264)" xlink:href="#CMSS17-115"/>
      <use transform="translate(220.005105 0)scale(0.996264)" xlink:href="#CMSS17-116"/>
      <use transform="translate(253.836671 0)scale(0.996264)" xlink:href="#CMSS17-105"/>
      <use transform="translate(276.017394 0)scale(0.996264)" xlink:href="#CMSS17-109"/>
      <use transform="translate(350.246649 0)scale(0.996264)" xlink:href="#CMSS17-117"/>
      <use transform="translate(398.451592 0)scale(0.996264)" xlink:href="#CMSS17-108"/>
      <use transform="translate(420.632315 0)scale(0.996264)" xlink:href="#CMSS17-117"/>
      <use transform="translate(468.837258 0)scale(0.996264)" xlink:href="#CMSS17-115"/>
      <use transform="translate(535.979913 0)scale(0.996264)" xlink:href="#CMSS17-116"/>
      <use transform="translate(569.81148 0)scale(0.996264)" xlink:href="#CMSS17-105"/>
      <use transform="translate(591.992203 0)scale(0.996264)" xlink:href="#CMSS17-109"/>
      <use transform="translate(666.221457 0)scale(0.996264)" xlink:href="#CMSS17-101"/>
      <use transform="translate(739.089392 0)scale(0.996264)" xlink:href="#CMSS17-40"/>
      <use transform="translate(775.523306 0)scale(0.996264)" xlink:href="#CMSS17-115"/>
      <use transform="translate(811.436848 0)scale(0.996264)" xlink:href="#CMSS17-41"/>
     </g>
    </g>
   </g>
   <g id="matplotlib.axis_2">
    <g id="ytick_1">
     <g id="line2d_15">
      <path clip-path="url(#pb6f59339f3)" d="M 34.625311 201.088264 
L 369.425311 201.088264 
" style="fill:none;stroke:#93939c;stroke-dasharray:2.96,1.28;stroke-dashoffset:0;stroke-opacity:0.2;stroke-width:0.8;"/>
     </g>
     <g id="line2d_16"/>
     <g id="text_9">
      <!-- $10$ -->
      <defs>
       <path d="M 28.40625 67 
L 26.5 67 
C 21.09375 61.703125 14.796875 60.96875 8.40625 60.796875 
L 8.40625 55 
C 11.296875 55.09375 16 55.296875 20.703125 57.390625 
L 20.703125 5.796875 
L 8.90625 5.796875 
L 8.90625 0 
L 40.203125 0 
L 40.203125 5.796875 
L 28.40625 5.796875 
z
" id="CMSS17-49"/>
      </defs>
      <g transform="translate(21.16264 204.547513)scale(0.1 -0.1)">
       <use transform="scale(0.996264)" xlink:href="#CMSS17-49"/>
       <use transform="translate(46.843624 0)scale(0.996264)" xlink:href="#CMSS17-48"/>
      </g>
     </g>
    </g>
    <g id="ytick_2">
     <g id="line2d_17">
      <path clip-path="url(#pb6f59339f3)" d="M 34.625311 159.869703 
L 369.425311 159.869703 
" style="fill:none;stroke:#93939c;stroke-dasharray:2.96,1.28;stroke-dashoffset:0;stroke-opacity:0.2;stroke-width:0.8;"/>
     </g>
     <g id="line2d_18"/>
     <g id="text_10">
      <!-- $20$ -->
      <g transform="translate(21.16264 163.328952)scale(0.1 -0.1)">
       <use transform="scale(0.996264)" xlink:href="#CMSS17-50"/>
       <use transform="translate(46.843624 0)scale(0.996264)" xlink:href="#CMSS17-48"/>
      </g>
     </g>
    </g>
    <g id="ytick_3">
     <g id="line2d_19">
      <path clip-path="url(#pb6f59339f3)" d="M 34.625311 118.651143 
L 369.425311 118.651143 
" style="fill:none;stroke:#93939c;stroke-dasharray:2.96,1.28;stroke-dashoffset:0;stroke-opacity:0.2;stroke-width:0.8;"/>
     </g>
     <g id="line2d_20"/>
     <g id="text_11">
      <!-- $30$ -->
      <defs>
       <path d="M 15.703125 32.1875 
L 22.5 32.1875 
C 31.90625 32.1875 34.59375 23.9375 34.59375 18.1875 
C 34.59375 10.34375 30.203125 4.1875 23 4.1875 
C 17.40625 4.1875 9.5 7.015625 5 14.46875 
C 4.296875 10.9375 4.296875 10.734375 3.90625 8.328125 
C 8.59375 1.390625 16.203125 -2 23.203125 -2 
C 34.59375 -2 43 7.515625 43 18.09375 
C 43 26.046875 37.5 32.6875 30 35.1875 
C 36 38.484375 40.40625 44.6875 40.40625 51.890625 
C 40.40625 60.296875 32.703125 67 23.296875 67 
C 14.703125 67 8 61.6875 5.203125 55.984375 
C 5.90625 54.984375 7.703125 52.09375 8.59375 50.59375 
C 10.796875 56.484375 16.5 60.890625 23.203125 60.890625 
C 28.796875 60.890625 32.5 57.1875 32.5 51.890625 
C 32.5 46.390625 29 40.390625 23.09375 39 
C 22.703125 39 16.5 38.390625 15.703125 38.296875 
z
" id="CMSS17-51"/>
      </defs>
      <g transform="translate(21.16264 122.110392)scale(0.1 -0.1)">
       <use transform="scale(0.996264)" xlink:href="#CMSS17-51"/>
       <use transform="translate(46.843624 0)scale(0.996264)" xlink:href="#CMSS17-48"/>
      </g>
     </g>
    </g>
    <g id="ytick_4">
     <g id="line2d_21">
      <path clip-path="url(#pb6f59339f3)" d="M 34.625311 77.432582 
L 369.425311 77.432582 
" style="fill:none;stroke:#93939c;stroke-dasharray:2.96,1.28;stroke-dashoffset:0;stroke-opacity:0.2;stroke-width:0.8;"/>
     </g>
     <g id="line2d_22"/>
     <g id="text_12">
      <!-- $40$ -->
      <g transform="translate(21.16264 80.891831)scale(0.1 -0.1)">
       <use transform="scale(0.996264)" xlink:href="#CMSS17-52"/>
       <use transform="translate(46.843624 0)scale(0.996264)" xlink:href="#CMSS17-48"/>
      </g>
     </g>
    </g>
    <g id="ytick_5">
     <g id="line2d_23">
      <path clip-path="url(#pb6f59339f3)" d="M 34.625311 36.214022 
L 369.425311 36.214022 
" style="fill:none;stroke:#93939c;stroke-dasharray:2.96,1.28;stroke-dashoffset:0;stroke-opacity:0.2;stroke-width:0.8;"/>
     </g>
     <g id="line2d_24"/>
     <g id="text_13">
      <!-- $50$ -->
      <defs>
       <path d="M 14.59375 59.59375 
L 39.09375 59.59375 
L 39.09375 66 
L 7.296875 66 
L 7.296875 28.59375 
L 14 28.59375 
C 15.796875 32.859375 19.5 36 24.296875 36 
C 28.796875 36 33.796875 31.9375 33.796875 20.296875 
C 33.796875 7.84375 26.703125 4.1875 21.5 4.1875 
C 15.09375 4.1875 9.203125 8.140625 6.59375 13.609375 
L 3.40625 7.9375 
C 8 0.796875 15.5 -2 21.5 -2 
C 33.09375 -2 42.203125 7.9375 42.203125 20.09375 
C 42.203125 32.546875 34.09375 42.09375 24.40625 42.09375 
C 20.90625 42.09375 17.5 40.890625 14.59375 38.5 
z
" id="CMSS17-53"/>
      </defs>
      <g transform="translate(21.16264 39.673271)scale(0.1 -0.1)">
       <use transform="scale(0.996264)" xlink:href="#CMSS17-53"/>
       <use transform="translate(46.843624 0)scale(0.996264)" xlink:href="#CMSS17-48"/>
      </g>
     </g>
    </g>
    <g id="text_14">
     <!-- Firing rate (spikes / s) -->
     <defs>
      <path d="M 45.59375 31 
L 45.59375 37.09375 
L 17.203125 37.09375 
L 17.203125 62.390625 
L 29.40625 62.390625 
C 30.59375 62.390625 31.796875 62.296875 33 62.296875 
L 49.5 62.296875 
L 49.5 68.796875 
L 8.796875 68.796875 
L 8.796875 0 
L 17.203125 0 
L 17.203125 31 
z
" id="CMSS17-70"/>
      <path d="M 40.90625 29.34375 
C 40.90625 35.671875 39.40625 44 28.09375 44 
C 21.703125 44 17.5 40.6875 14.703125 37.28125 
L 14.703125 43.484375 
L 7.40625 43.484375 
L 7.40625 0 
L 15 0 
L 15 24.3125 
C 15 30.65625 17.40625 37.890625 24.203125 37.890625 
C 33 37.890625 33.296875 31.953125 33.296875 28.53125 
L 33.296875 0 
L 40.90625 0 
z
" id="CMSS17-110"/>
      <path d="M 44.5 44 
C 38.796875 43.890625 33.90625 42.796875 29.90625 40.890625 
C 26.59375 43.484375 23.203125 44 20.90625 44 
C 12.203125 44 5.59375 36.8125 5.59375 28.5 
C 5.59375 23.140625 8.59375 19.09375 8.796875 18.890625 
C 7 16.390625 6 13.6875 6 10.6875 
C 6 7.1875 7.40625 4.6875 8.5 3.296875 
C 3.296875 0.09375 2.59375 -4.8125 2.59375 -6.703125 
C 2.59375 -14 11.703125 -20 23.40625 -20 
C 35.203125 -20 44.296875 -14 44.296875 -6.609375 
C 44.296875 7.1875 29 7.296875 24.796875 7.296875 
L 16.703125 7.296875 
C 15.203125 7.296875 11.203125 7.296875 11.203125 12.390625 
C 11.203125 14.390625 12.09375 15.6875 12.203125 15.796875 
C 13.703125 14.6875 16.796875 13 20.90625 13 
C 29.203125 13 36.09375 19.984375 36.09375 28.5 
C 36.09375 33.25 33.90625 36.703125 33 37.890625 
L 33.296875 37.890625 
C 33.59375 37.890625 37.796875 38.1875 39.296875 38.1875 
C 42.5 38.1875 42.796875 38.09375 45.59375 37.796875 
z
M 20.90625 18.5 
C 17.5 18.5 12.703125 20.578125 12.703125 28.5 
C 12.703125 37.109375 18.203125 38.484375 20.796875 38.484375 
C 24.203125 38.484375 29 36.40625 29 28.5 
C 29 19.875 23.5 18.5 20.90625 18.5 
z
M 24.703125 0 
C 27.09375 0 37.203125 0 37.203125 -6.8125 
C 37.203125 -11.109375 31 -14.5 23.5 -14.5 
C 15.90625 -14.5 9.703125 -11.203125 9.703125 -6.703125 
C 9.703125 -6.203125 9.703125 0 16.59375 0 
z
" id="CMSS17-103"/>
      <path d="M 37.59375 27.953125 
C 37.59375 37.484375 30.90625 44 21.90625 44 
C 17.5 44 12.703125 43.1875 7.203125 39.984375 
L 7.796875 33.328125 
C 10.296875 35.15625 14.59375 38.09375 21.796875 38.09375 
C 26.90625 38.09375 30 34.140625 30 27.84375 
L 30 24 
C 14 23.5 4 18.890625 4 11.109375 
C 4 7.0625 6.5 -1 14.796875 -1 
C 16.296875 -1 24.40625 -0.8125 30.203125 3.5 
L 30.203125 -0.203125 
L 37.59375 -0.203125 
z
M 30 12.875 
C 30 11.109375 30 8.734375 27 6.96875 
C 24.40625 5.296875 21.09375 5.09375 19.703125 5.09375 
C 14.703125 5.09375 11.296875 7.859375 11.296875 11.296875 
C 11.296875 18.203125 26.90625 18.890625 30 19 
z
" id="CMSS17-97"/>
      <path d="M 15.09375 4.296875 
C 18.40625 1.09375 22.90625 -1 27.703125 -1 
C 37 -1 45 8.640625 45 21.59375 
C 45 33.546875 39 44 30.40625 44 
C 25.40625 44 19.40625 42.1875 14.90625 38.59375 
L 14.90625 43.1875 
L 7.5 43.1875 
L 7.5 -20 
L 15.09375 -20 
z
M 15.09375 32.625 
C 15.90625 33.84375 19.296875 37.6875 24.796875 37.6875 
C 31.796875 37.6875 37.40625 30.40625 37.40625 21.59375 
C 37.40625 11.578125 30.59375 5.09375 23.90625 5.09375 
C 21.90625 5.09375 19.796875 5.59375 17.796875 7.3125 
C 15.09375 9.75 15.09375 11.265625 15.09375 12.6875 
z
" id="CMSS17-112"/>
      <path d="M 26.5 26.34375 
L 42 42.734375 
L 32.40625 42.734375 
L 14.90625 24.25 
L 14.90625 69 
L 7.5 69 
L 7.5 0 
L 14.796875 0 
L 14.796875 13.921875 
L 21.5 20.96875 
L 35.59375 0 
L 44.09375 0 
z
" id="CMSS17-107"/>
      <path d="M 41.203125 71.484375 
C 41.703125 72.78125 41.703125 72.984375 41.703125 73.1875 
C 41.703125 74.390625 40.796875 75 40 75 
C 38.796875 75 38.40625 74.1875 38 72.984375 
L 5.703125 -21.5 
C 5.203125 -22.8125 5.203125 -23 5.203125 -23.203125 
C 5.203125 -24.40625 6.09375 -25 6.90625 -25 
C 8.09375 -25 8.5 -24.203125 8.90625 -23 
z
" id="CMSS17-47"/>
     </defs>
     <g transform="translate(14.67198 163.02121)rotate(-90)scale(0.1 -0.1)">
      <use transform="scale(0.996264)" xlink:href="#CMSS17-70"/>
      <use transform="translate(53.289559 0)scale(0.996264)" xlink:href="#CMSS17-105"/>
      <use transform="translate(75.470282 0)scale(0.996264)" xlink:href="#CMSS17-114"/>
      <use transform="translate(107.380055 0)scale(0.996264)" xlink:href="#CMSS17-105"/>
      <use transform="translate(129.560778 0)scale(0.996264)" xlink:href="#CMSS17-110"/>
      <use transform="translate(177.765721 0)scale(0.996264)" xlink:href="#CMSS17-103"/>
      <use transform="translate(255.838457 0)scale(0.996264)" xlink:href="#CMSS17-114"/>
      <use transform="translate(287.74823 0)scale(0.996264)" xlink:href="#CMSS17-97"/>
      <use transform="translate(332.670151 0)scale(0.996264)" xlink:href="#CMSS17-116"/>
      <use transform="translate(366.501717 0)scale(0.996264)" xlink:href="#CMSS17-101"/>
      <use transform="translate(439.369652 0)scale(0.996264)" xlink:href="#CMSS17-40"/>
      <use transform="translate(475.803566 0)scale(0.996264)" xlink:href="#CMSS17-115"/>
      <use transform="translate(511.717108 0)scale(0.996264)" xlink:href="#CMSS17-112"/>
      <use transform="translate(559.922051 0)scale(0.996264)" xlink:href="#CMSS17-105"/>
      <use transform="translate(582.102774 0)scale(0.996264)" xlink:href="#CMSS17-107"/>
      <use transform="translate(625.10281 0)scale(0.996264)" xlink:href="#CMSS17-101"/>
      <use transform="translate(666.741632 0)scale(0.996264)" xlink:href="#CMSS17-115"/>
      <use transform="translate(733.884286 0)scale(0.996264)" xlink:href="#CMSS17-47"/>
      <use transform="translate(811.957023 0)scale(0.996264)" xlink:href="#CMSS17-115"/>
      <use transform="translate(847.870565 0)scale(0.996264)" xlink:href="#CMSS17-41"/>
     </g>
    </g>
   </g>
   <g id="line2d_25">
    <path clip-path="url(#pb6f59339f3)" d="M 49.843492 187.600723 
L 56.054995 195.557974 
L 62.266498 191.579349 
L 68.478001 197.547287 
L 74.689504 186.606067 
L 80.901006 195.557974 
L 87.112509 189.590036 
L 93.324012 179.643472 
L 99.535515 196.552631 
L 105.747017 193.568661 
L 111.95852 197.547287 
L 118.170023 192.574005 
L 124.381526 198.541943 
L 130.593029 176.659503 
L 136.804531 182.627441 
L 143.016034 194.563318 
L 149.227537 190.584692 
L 155.43904 182.627441 
L 161.650543 183.622098 
L 167.862045 182.627441 
L 174.073548 198.541943 
L 180.285051 187.600723 
L 186.496554 197.547287 
L 192.708056 199.5366 
L 198.919559 186.606067 
L 205.131062 153.782406 
L 211.342565 133.889278 
L 217.554068 118.969433 
L 223.76557 34.42364 
L 229.977073 32.434328 
L 236.188576 49.343486 
L 242.400079 92.11371 
L 248.611581 85.151116 
L 254.823084 111.012182 
L 261.034587 107.033556 
L 267.24609 142.841186 
L 273.457593 150.798437 
L 279.669095 142.841186 
L 285.880598 134.883935 
L 292.092101 150.798437 
L 298.303604 165.718283 
L 304.515107 164.723626 
L 310.726609 153.782406 
L 316.938112 157.761032 
L 323.149615 172.680877 
L 329.361118 184.616754 
L 335.57262 163.72897 
L 341.784123 166.712939 
L 347.995626 171.686221 
L 354.207129 176.659503 
" style="fill:none;stroke:#0000ff;stroke-linecap:square;stroke-width:1.5;"/>
   </g>
   <g id="line2d_26">
    <path clip-path="url(#pb6f59339f3)" d="M 49.843492 208.409982 
L 56.054995 201.630613 
L 62.266498 201.630613 
L 68.478001 190.97732 
L 74.689504 190.97732 
L 80.901006 194.851245 
L 87.112509 189.040357 
L 93.324012 188.071876 
L 99.535515 187.103395 
L 105.747017 196.788207 
L 111.95852 201.630613 
L 118.170023 199.693651 
L 124.381526 201.630613 
L 130.593029 199.693651 
L 136.804531 199.693651 
L 143.016034 195.819726 
L 149.227537 195.819726 
L 155.43904 196.788207 
L 161.650543 195.819726 
L 167.862045 198.725169 
L 174.073548 202.599094 
L 180.285051 194.851245 
L 186.496554 195.819726 
L 192.708056 202.599094 
L 198.919559 204.536057 
L 205.131062 168.702252 
L 211.342565 167.733771 
L 217.554068 142.553259 
L 223.76557 71.85413 
L 229.977073 89.286792 
L 236.188576 115.435785 
L 242.400079 129.963003 
L 248.611581 143.52174 
L 254.823084 140.616297 
L 261.034587 157.080477 
L 267.24609 179.355545 
L 273.457593 174.513139 
L 279.669095 179.355545 
L 285.880598 179.355545 
L 292.092101 176.450102 
L 298.303604 173.544658 
L 304.515107 176.450102 
L 310.726609 175.48162 
L 316.938112 169.670733 
L 323.149615 190.97732 
L 329.361118 173.544658 
L 335.57262 185.166432 
L 341.784123 187.103395 
L 347.995626 172.576177 
L 354.207129 188.071876 
" style="fill:none;stroke:#ff0000;stroke-linecap:square;stroke-width:1.5;"/>
   </g>
   <g id="line2d_27">
    <path clip-path="url(#pb6f59339f3)" d="M 202.025311 224.64 
L 202.025311 7.2 
" style="fill:none;stroke:#808080;stroke-dasharray:5.55,2.4;stroke-dashoffset:0;stroke-width:1.5;"/>
   </g>
   <g id="legend_1">
    <g id="line2d_28">
     <path d="M 294.013721 19.7 
L 314.013721 19.7 
" style="fill:none;stroke:#0000ff;stroke-linecap:square;stroke-width:1.5;"/>
    </g>
    <g id="line2d_29"/>
    <g id="text_15">
     <!-- Audio on -->
     <defs>
      <path d="M 35.5 69 
L 26.90625 69 
L 2.59375 0 
L 10.203125 0 
L 17.203125 20 
L 44 20 
L 51.09375 0 
L 59.796875 0 
z
M 42.09375 25.59375 
L 19.09375 25.59375 
C 23.90625 39.53125 29.90625 56.84375 30.59375 61.3125 
L 30.703125 61.3125 
C 31.40625 57.234375 33.40625 51.265625 35.09375 46.1875 
z
" id="CMSS17-65"/>
      <path d="M 40.796875 69 
L 33.40625 69 
L 33.40625 38.984375 
C 30.296875 41.59375 25.203125 44 19.59375 44 
C 10.5 44 3.296875 34.046875 3.296875 21.484375 
C 3.296875 8.9375 10.40625 -1 19.296875 -1 
C 26.203125 -1 30.796875 2.6875 33.203125 4.796875 
L 33.203125 -0.203125 
L 40.796875 -0.203125 
z
M 33.203125 13.296875 
C 33.203125 11.875 33.203125 10.359375 30.09375 7.625 
C 28.09375 5.90625 25.703125 5.09375 23.40625 5.09375 
C 18 5.09375 10.90625 9.140625 10.90625 21.390625 
C 10.90625 34.140625 18.90625 37.890625 24.40625 37.890625 
C 28.09375 37.890625 31.09375 36.0625 33.203125 33.03125 
z
" id="CMSS17-100"/>
      <path d="M 44.203125 21.1875 
C 44.203125 33.984375 34.703125 44 23.5 44 
C 12 44 2.703125 33.6875 2.703125 21.1875 
C 2.703125 8.5 12.296875 -1 23.40625 -1 
C 34.796875 -1 44.203125 8.796875 44.203125 21.1875 
z
M 23.5 5.296875 
C 16.40625 5.296875 10.296875 11.09375 10.296875 21.984375 
C 10.296875 33.59375 17.40625 37.890625 23.40625 37.890625 
C 29.90625 37.890625 36.59375 33.1875 36.59375 21.984375 
C 36.59375 10.6875 30.09375 5.296875 23.5 5.296875 
z
" id="CMSS17-111"/>
     </defs>
     <g transform="translate(322.013721 23.2)scale(0.1 -0.1)">
      <use transform="scale(0.996264)" xlink:href="#CMSS17-65"/>
      <use transform="translate(62.217855 0)scale(0.996264)" xlink:href="#CMSS17-117"/>
      <use transform="translate(110.422798 0)scale(0.996264)" xlink:href="#CMSS17-100"/>
      <use transform="translate(158.627741 0)scale(0.996264)" xlink:href="#CMSS17-105"/>
      <use transform="translate(180.808464 0)scale(0.996264)" xlink:href="#CMSS17-111"/>
      <use transform="translate(258.881201 0)scale(0.996264)" xlink:href="#CMSS17-111"/>
      <use transform="translate(305.724824 0)scale(0.996264)" xlink:href="#CMSS17-110"/>
     </g>
    </g>
    <g id="line2d_30">
     <path d="M 294.013721 33.637178 
L 314.013721 33.637178 
" style="fill:none;stroke:#ff0000;stroke-linecap:square;stroke-width:1.5;"/>
    </g>
    <g id="line2d_31"/>
    <g id="text_16">
     <!-- Audio off -->
     <defs>
      <path d="M 16.796875 37.1875 
L 27.09375 37.1875 
L 27.09375 43 
L 16.59375 43 
L 16.59375 55.671875 
C 16.59375 62.5 21.796875 63.890625 25.203125 63.890625 
C 28.703125 63.890625 31.59375 63 32.703125 62.609375 
L 32.703125 69.1875 
C 31.59375 69.390625 28.59375 70 25.296875 70 
C 16.09375 70 9.40625 62.5 9.40625 52.59375 
L 9.40625 43 
L 2.5 43 
L 2.5 37.1875 
L 9.40625 37.1875 
L 9.40625 0 
L 16.796875 0 
z
M 42.796875 37.1875 
L 53.09375 37.1875 
L 53.09375 43 
L 42.59375 43 
L 42.59375 55.671875 
C 42.59375 62.5 47.796875 63.890625 51.203125 63.890625 
C 54.703125 63.890625 57.59375 63 58.703125 62.609375 
L 58.703125 69.1875 
C 57.59375 69.390625 54.59375 70 51.296875 70 
C 42.09375 70 35.40625 62.5 35.40625 52.59375 
L 35.40625 0 
L 42.796875 0 
z
" id="CMSS17-11"/>
     </defs>
     <g transform="translate(322.013721 37.137178)scale(0.1 -0.1)">
      <use transform="scale(0.996264)" xlink:href="#CMSS17-65"/>
      <use transform="translate(62.217855 0)scale(0.996264)" xlink:href="#CMSS17-117"/>
      <use transform="translate(110.422798 0)scale(0.996264)" xlink:href="#CMSS17-100"/>
      <use transform="translate(158.627741 0)scale(0.996264)" xlink:href="#CMSS17-105"/>
      <use transform="translate(180.808464 0)scale(0.996264)" xlink:href="#CMSS17-111"/>
      <use transform="translate(258.881201 0)scale(0.996264)" xlink:href="#CMSS17-111"/>
      <use transform="translate(305.724824 0)scale(0.996264)" xlink:href="#CMSS17-11"/>
     </g>
    </g>
   </g>
  </g>
 </g>
 <defs>
  <clipPath id="pb6f59339f3">
   <rect height="217.44" width="334.8" x="34.625311" y="7.2"/>
  </clipPath>
 </defs>
</svg>
