<?xml version="1.0" encoding="utf-8" standalone="no"?>
<!DOCTYPE svg PUBLIC "-//W3C//DTD SVG 1.1//EN"
  "http://www.w3.org/Graphics/SVG/1.1/DTD/svg11.dtd">
<!-- Created with matplotlib (https://matplotlib.org/) -->
<svg height="271.353533pt" version="1.1" viewBox="0 0 275.595091 271.353533" width="275.595091pt" xmlns="http://www.w3.org/2000/svg" xmlns:xlink="http://www.w3.org/1999/xlink">
 <defs>
  <style type="text/css">
*{stroke-linecap:butt;stroke-linejoin:round;}
  </style>
 </defs>
 <g id="figure_1">
  <g id="patch_1">
   <path d="M 0 271.353533 
L 275.595091 271.353533 
L 275.595091 0 
L 0 0 
z
" style="fill:#ffffff;"/>
  </g>
  <g id="axes_1">
   <g id="patch_2">
    <path d="M 41.267091 238.94218 
L 264.467091 238.94218 
L 264.467091 21.50218 
L 41.267091 21.50218 
z
" style="fill:#ffffff;"/>
   </g>
   <g id="PathCollection_1">
    <defs>
     <path d="M 0 3 
C 0.795609 3 1.55874 2.683901 2.12132 2.12132 
C 2.683901 1.55874 3 0.795609 3 0 
C 3 -0.795609 2.683901 -1.55874 2.12132 -2.12132 
C 1.55874 -2.683901 0.795609 -3 0 -3 
C -0.795609 -3 -1.55874 -2.683901 -2.12132 -2.12132 
C -2.683901 -1.55874 -3 -0.795609 -3 0 
C -3 0.795609 -2.683901 1.55874 -2.12132 2.12132 
C -1.55874 2.683901 -0.795609 3 0 3 
z
" id="m37707bddee" style="stroke:#1f77b4;"/>
    </defs>
    <g clip-path="url(#pbbea8a3d92)">
     <use style="fill:#1f77b4;stroke:#1f77b4;" x="251.407721" xlink:href="#m37707bddee" y="106.417887"/>
     <use style="fill:#1f77b4;stroke:#1f77b4;" x="151.871731" xlink:href="#m37707bddee" y="45.136175"/>
     <use style="fill:#1f77b4;stroke:#1f77b4;" x="102.103736" xlink:href="#m37707bddee" y="39.167769"/>
     <use style="fill:#1f77b4;stroke:#1f77b4;" x="77.219738" xlink:href="#m37707bddee" y="45.202144"/>
     <use style="fill:#1f77b4;stroke:#1f77b4;" x="67.266139" xlink:href="#m37707bddee" y="59.858683"/>
     <use style="fill:#1f77b4;stroke:#1f77b4;" x="62.28934" xlink:href="#m37707bddee" y="110.290274"/>
     <use style="fill:#1f77b4;stroke:#1f77b4;" x="54.32646" xlink:href="#m37707bddee" y="152.061919"/>
    </g>
   </g>
   <g id="PathCollection_2">
    <defs>
     <path d="M 0 3 
C 0.795609 3 1.55874 2.683901 2.12132 2.12132 
C 2.683901 1.55874 3 0.795609 3 0 
C 3 -0.795609 2.683901 -1.55874 2.12132 -2.12132 
C 1.55874 -2.683901 0.795609 -3 0 -3 
C -0.795609 -3 -1.55874 -2.683901 -2.12132 -2.12132 
C -2.683901 -1.55874 -3 -0.795609 -3 0 
C -3 0.795609 -2.683901 1.55874 -2.12132 2.12132 
C -1.55874 2.683901 -0.795609 3 0 3 
z
" id="m655daa8e10" style="stroke:#ff7f0e;"/>
    </defs>
    <g clip-path="url(#pbbea8a3d92)">
     <use style="fill:#ff7f0e;stroke:#ff7f0e;" x="251.407721" xlink:href="#m655daa8e10" y="217.292782"/>
     <use style="fill:#ff7f0e;stroke:#ff7f0e;" x="151.871731" xlink:href="#m655daa8e10" y="221.659338"/>
     <use style="fill:#ff7f0e;stroke:#ff7f0e;" x="102.103736" xlink:href="#m655daa8e10" y="222.432376"/>
     <use style="fill:#ff7f0e;stroke:#ff7f0e;" x="77.219738" xlink:href="#m655daa8e10" y="224.138577"/>
     <use style="fill:#ff7f0e;stroke:#ff7f0e;" x="67.266139" xlink:href="#m655daa8e10" y="225.615086"/>
     <use style="fill:#ff7f0e;stroke:#ff7f0e;" x="62.28934" xlink:href="#m655daa8e10" y="218.838858"/>
     <use style="fill:#ff7f0e;stroke:#ff7f0e;" x="54.32646" xlink:href="#m655daa8e10" y="227.108987"/>
    </g>
   </g>
   <g id="matplotlib.axis_1">
    <g id="xtick_1">
     <g id="line2d_1">
      <path clip-path="url(#pbbea8a3d92)" d="M 52.335741 238.94218 
L 52.335741 21.50218 
" style="fill:none;stroke:#93939c;stroke-dasharray:2.96,1.28;stroke-dashoffset:0;stroke-opacity:0.2;stroke-width:0.8;"/>
     </g>
     <g id="line2d_2"/>
     <g id="text_1">
      <!-- $0$ -->
      <defs>
       <path d="M 43.09375 32.390625 
C 43.09375 38.109375 43 48.75 38.90625 56.984375 
C 34.796875 64.890625 28.203125 67 23.5 67 
C 16.703125 67 10.90625 62.984375 7.90625 56.578125 
C 4.703125 49.859375 3.796875 42.9375 3.796875 32.390625 
C 3.796875 25.171875 4.09375 16.34375 7.703125 8.609375 
C 11.796875 0.09375 18.703125 -2 23.40625 -2 
C 29.59375 -2 35.59375 1.296875 39 8.203125 
C 42.5 15.4375 43.09375 23.359375 43.09375 32.390625 
z
M 23.40625 4.09375 
C 15.796875 4.09375 13.5 12.828125 12.796875 15.734375 
C 11.59375 20.75 11.40625 25.5625 11.40625 33.5 
C 11.40625 39.71875 11.40625 46.75 13.296875 52.265625 
C 15.59375 58.6875 19.59375 60.890625 23.40625 60.890625 
C 30.796875 60.890625 33.203125 53.46875 34 50.859375 
C 35.5 45.546875 35.5 39.3125 35.5 33.5 
C 35.5 24.15625 35.5 4.09375 23.40625 4.09375 
z
" id="CMSS17-48"/>
      </defs>
      <g transform="translate(49.845073 249.360678)scale(0.1 -0.1)">
       <use transform="scale(0.996264)" xlink:href="#CMSS17-48"/>
      </g>
     </g>
    </g>
    <g id="xtick_2">
     <g id="line2d_3">
      <path clip-path="url(#pbbea8a3d92)" d="M 92.150137 238.94218 
L 92.150137 21.50218 
" style="fill:none;stroke:#93939c;stroke-dasharray:2.96,1.28;stroke-dashoffset:0;stroke-opacity:0.2;stroke-width:0.8;"/>
     </g>
     <g id="line2d_4"/>
     <g id="text_2">
      <!-- $200$ -->
      <defs>
       <path d="M 25.796875 21.140625 
C 28.59375 24.03125 32.796875 27.515625 35.703125 31 
C 38.5 34.390625 42.203125 39.171875 42.203125 46.140625 
C 42.203125 57.109375 34.796875 67 22.203125 67 
C 12.296875 67 6.59375 60.796875 3.90625 51.125 
L 7.796875 45.75 
C 10 54.8125 13.09375 60.59375 20.90625 60.59375 
C 29.5 60.59375 34.296875 53.609375 34.296875 45.9375 
C 34.296875 36.78125 27.296875 29.703125 22 24.421875 
C 16.09375 18.546875 10.296875 12.578125 4.703125 6.390625 
L 4.703125 0 
L 42.203125 0 
L 42.203125 6.796875 
L 25.203125 6.796875 
C 24 6.796875 22.796875 6.6875 21.59375 6.6875 
L 11.59375 6.6875 
L 11.59375 6.796875 
z
" id="CMSS17-50"/>
      </defs>
      <g transform="translate(84.678134 249.360678)scale(0.1 -0.1)">
       <use transform="scale(0.996264)" xlink:href="#CMSS17-50"/>
       <use transform="translate(46.843624 0)scale(0.996264)" xlink:href="#CMSS17-48"/>
       <use transform="translate(93.687247 0)scale(0.996264)" xlink:href="#CMSS17-48"/>
      </g>
     </g>
    </g>
    <g id="xtick_3">
     <g id="line2d_5">
      <path clip-path="url(#pbbea8a3d92)" d="M 131.964533 238.94218 
L 131.964533 21.50218 
" style="fill:none;stroke:#93939c;stroke-dasharray:2.96,1.28;stroke-dashoffset:0;stroke-opacity:0.2;stroke-width:0.8;"/>
     </g>
     <g id="line2d_6"/>
     <g id="text_3">
      <!-- $400$ -->
      <defs>
       <path d="M 35.203125 17 
L 44.296875 17 
L 44.296875 23.09375 
L 35.203125 23.09375 
L 35.203125 66 
L 26.40625 66 
L 2.59375 23.09375 
L 2.59375 17 
L 27.296875 17 
L 27.296875 0 
L 35.203125 0 
z
M 10.296875 23.09375 
C 16.09375 33.421875 27.59375 54.28125 27.59375 61.359375 
L 27.59375 23.09375 
z
" id="CMSS17-52"/>
      </defs>
      <g transform="translate(124.49253 249.360678)scale(0.1 -0.1)">
       <use transform="scale(0.996264)" xlink:href="#CMSS17-52"/>
       <use transform="translate(46.843624 0)scale(0.996264)" xlink:href="#CMSS17-48"/>
       <use transform="translate(93.687247 0)scale(0.996264)" xlink:href="#CMSS17-48"/>
      </g>
     </g>
    </g>
    <g id="xtick_4">
     <g id="line2d_7">
      <path clip-path="url(#pbbea8a3d92)" d="M 171.778929 238.94218 
L 171.778929 21.50218 
" style="fill:none;stroke:#93939c;stroke-dasharray:2.96,1.28;stroke-dashoffset:0;stroke-opacity:0.2;stroke-width:0.8;"/>
     </g>
     <g id="line2d_8"/>
     <g id="text_4">
      <!-- $600$ -->
      <defs>
       <path d="M 39 64.984375 
C 34.796875 66.6875 31.796875 67 29 67 
C 16 67 3.90625 53.25 3.90625 31.609375 
C 3.90625 4.1875 15.40625 -2 23.59375 -2 
C 28.09375 -2 32.59375 -0.609375 36.90625 4.390625 
C 41.296875 9.671875 43 14.0625 43 21.75 
C 43 34.109375 36.90625 45.09375 27.796875 45.09375 
C 21.203125 45.09375 15.5 41.59375 12 37.203125 
C 13 51.40625 19.59375 60.890625 29.09375 60.890625 
C 31.703125 60.890625 35.09375 60.484375 39 58.75 
z
M 12.09375 21.4375 
C 12.09375 22.234375 12.09375 22.734375 12.203125 24.234375 
C 12.203125 32.015625 16.703125 39 24 39 
C 28.703125 39 31.09375 36.5 32.90625 33.40625 
C 35 29.515625 35.09375 25.828125 35.09375 21.75 
C 35.09375 17.859375 35.09375 13.96875 32.796875 9.96875 
C 30.90625 6.890625 28.40625 4.1875 23.59375 4.1875 
C 14.09375 4.1875 12.5 17.453125 12.09375 21.4375 
z
" id="CMSS17-54"/>
      </defs>
      <g transform="translate(164.306926 249.360678)scale(0.1 -0.1)">
       <use transform="scale(0.996264)" xlink:href="#CMSS17-54"/>
       <use transform="translate(46.843624 0)scale(0.996264)" xlink:href="#CMSS17-48"/>
       <use transform="translate(93.687247 0)scale(0.996264)" xlink:href="#CMSS17-48"/>
      </g>
     </g>
    </g>
    <g id="xtick_5">
     <g id="line2d_9">
      <path clip-path="url(#pbbea8a3d92)" d="M 211.593325 238.94218 
L 211.593325 21.50218 
" style="fill:none;stroke:#93939c;stroke-dasharray:2.96,1.28;stroke-dashoffset:0;stroke-opacity:0.2;stroke-width:0.8;"/>
     </g>
     <g id="line2d_10"/>
     <g id="text_5">
      <!-- $800$ -->
      <defs>
       <path d="M 30.203125 35.09375 
C 37.796875 37.59375 41.703125 43.640625 41.703125 49.59375 
C 41.703125 58.96875 33.703125 67 23.5 67 
C 12.90625 67 5.203125 58.671875 5.203125 49.59375 
C 5.203125 43.734375 9 37.6875 16.703125 35.09375 
C 6.90625 31.296875 3.90625 23.6875 3.90625 18 
C 3.90625 7 12.796875 -2 23.40625 -2 
C 34.40625 -2 43 7.1875 43 18 
C 43 24.59375 39.09375 31.59375 30.203125 35.09375 
z
M 23.5 38.09375 
C 16.796875 38.09375 12.296875 42.625 12.296875 49.484375 
C 12.296875 56.453125 16.796875 60.890625 23.5 60.890625 
C 29.703125 60.890625 34.59375 56.859375 34.59375 49.484375 
C 34.59375 42.234375 29.796875 38.09375 23.5 38.09375 
z
M 23.5 4.1875 
C 17.796875 4.1875 11.703125 8.09375 11.703125 18.09375 
C 11.703125 28.390625 18.5 32 23.40625 32 
C 28.796875 32 35.203125 28.1875 35.203125 18.09375 
C 35.203125 7.6875 28.59375 4.1875 23.5 4.1875 
z
" id="CMSS17-56"/>
      </defs>
      <g transform="translate(204.121322 249.360678)scale(0.1 -0.1)">
       <use transform="scale(0.996264)" xlink:href="#CMSS17-56"/>
       <use transform="translate(46.843624 0)scale(0.996264)" xlink:href="#CMSS17-48"/>
       <use transform="translate(93.687247 0)scale(0.996264)" xlink:href="#CMSS17-48"/>
      </g>
     </g>
    </g>
    <g id="xtick_6">
     <g id="line2d_11">
      <path clip-path="url(#pbbea8a3d92)" d="M 251.407721 238.94218 
L 251.407721 21.50218 
" style="fill:none;stroke:#93939c;stroke-dasharray:2.96,1.28;stroke-dashoffset:0;stroke-opacity:0.2;stroke-width:0.8;"/>
     </g>
     <g id="line2d_12"/>
     <g id="text_6">
      <!-- $1000$ -->
      <defs>
       <path d="M 28.40625 67 
L 26.5 67 
C 21.09375 61.703125 14.796875 60.96875 8.40625 60.796875 
L 8.40625 55 
C 11.296875 55.09375 16 55.296875 20.703125 57.390625 
L 20.703125 5.796875 
L 8.90625 5.796875 
L 8.90625 0 
L 40.203125 0 
L 40.203125 5.796875 
L 28.40625 5.796875 
z
" id="CMSS17-49"/>
      </defs>
      <g transform="translate(241.445051 249.360678)scale(0.1 -0.1)">
       <use transform="scale(0.996264)" xlink:href="#CMSS17-49"/>
       <use transform="translate(46.843624 0)scale(0.996264)" xlink:href="#CMSS17-48"/>
       <use transform="translate(93.687247 0)scale(0.996264)" xlink:href="#CMSS17-48"/>
       <use transform="translate(140.530871 0)scale(0.996264)" xlink:href="#CMSS17-48"/>
      </g>
     </g>
    </g>
    <g id="text_7">
     <!-- PCs -->
     <defs>
      <path d="M 32.90625 29 
C 44.90625 29 54.703125 38.234375 54.703125 49.046875 
C 54.703125 59.65625 45.296875 69 32.296875 69 
L 8.90625 69 
L 8.90625 0 
L 17.296875 0 
L 17.296875 29 
z
M 30.09375 63.390625 
C 41.703125 63.390625 46.796875 56.21875 46.796875 49.046875 
C 46.796875 42.359375 42.09375 34.796875 30.09375 34.796875 
L 17.09375 34.796875 
L 17.09375 63.390625 
z
" id="CMSS17-80"/>
      <path d="M 54.703125 11.015625 
C 48 6.5 44.90625 5.1875 36.796875 5.1875 
C 22.796875 5.1875 14.59375 20.375 14.59375 34.234375 
C 14.59375 49.015625 23 63.59375 37.203125 63.59375 
C 43.59375 63.59375 47.796875 61.78125 52.90625 58.5625 
L 54.296875 66.484375 
C 49.5 68.890625 43.40625 70 37.296875 70 
C 18.09375 70 6.203125 52.234375 6.203125 34.234375 
C 6.203125 14.4375 20.296875 -1.203125 36.296875 -1.203125 
C 44.90625 -1.203125 47.90625 -0.5 55.296875 4.1875 
z
" id="CMSS17-67"/>
      <path d="M 32.203125 40.984375 
C 26.296875 43.796875 21.703125 44 18.703125 44 
C 11.59375 44 3.09375 41.484375 3.09375 31.390625 
C 3.09375 21.296875 14.09375 19.09375 17.09375 18.484375 
C 21.703125 17.59375 26.796875 16.59375 26.796875 11.59375 
C 26.796875 5.296875 19.59375 5.296875 18.296875 5.296875 
C 14.296875 5.296875 8.796875 6.390625 3.796875 9.984375 
L 2.59375 3.296875 
C 8.296875 0 13.796875 -1 18.40625 -1 
C 30.703125 -1 33.796875 6.5 33.796875 12.1875 
C 33.796875 17.09375 31 20.390625 29.09375 21.890625 
C 25.796875 24.484375 24.59375 24.796875 16.40625 26.484375 
C 15 26.6875 10.09375 27.796875 10.09375 32.296875 
C 10.09375 37.984375 16.40625 37.984375 17.796875 37.984375 
C 24.296875 37.984375 28.296875 35.984375 31 34.484375 
z
" id="CMSS17-115"/>
     </defs>
     <g transform="translate(144.592556 262.216355)scale(0.1 -0.1)">
      <use transform="scale(0.996264)" xlink:href="#CMSS17-80"/>
      <use transform="translate(59.735586 0)scale(0.996264)" xlink:href="#CMSS17-67"/>
      <use transform="translate(119.591358 0)scale(0.996264)" xlink:href="#CMSS17-115"/>
     </g>
    </g>
   </g>
   <g id="matplotlib.axis_2">
    <g id="ytick_1">
     <g id="line2d_13">
      <path clip-path="url(#pbbea8a3d92)" d="M 41.267091 218.946808 
L 264.467091 218.946808 
" style="fill:none;stroke:#93939c;stroke-dasharray:2.96,1.28;stroke-dashoffset:0;stroke-opacity:0.2;stroke-width:0.8;"/>
     </g>
     <g id="line2d_14"/>
     <g id="text_8">
      <!-- $0.05$ -->
      <defs>
       <path d="M 17 8 
L 9 8 
L 9 0 
L 17 0 
z
" id="CMSS17-46"/>
       <path d="M 14.59375 59.59375 
L 39.09375 59.59375 
L 39.09375 66 
L 7.296875 66 
L 7.296875 28.59375 
L 14 28.59375 
C 15.796875 32.859375 19.5 36 24.296875 36 
C 28.796875 36 33.796875 31.9375 33.796875 20.296875 
C 33.796875 7.84375 26.703125 4.1875 21.5 4.1875 
C 15.09375 4.1875 9.203125 8.140625 6.59375 13.609375 
L 3.40625 7.9375 
C 8 0.796875 15.5 -2 21.5 -2 
C 33.09375 -2 42.203125 7.9375 42.203125 20.09375 
C 42.203125 32.546875 34.09375 42.09375 24.40625 42.09375 
C 20.90625 42.09375 17.5 40.890625 14.59375 38.5 
z
" id="CMSS17-53"/>
      </defs>
      <g transform="translate(20.055677 222.406057)scale(0.1 -0.1)">
       <use transform="scale(0.996264)" xlink:href="#CMSS17-48"/>
       <use transform="translate(46.843624 0)scale(0.996264)" xlink:href="#CMSS17-46"/>
       <use transform="translate(72.867828 0)scale(0.996264)" xlink:href="#CMSS17-48"/>
       <use transform="translate(119.711452 0)scale(0.996264)" xlink:href="#CMSS17-53"/>
      </g>
     </g>
    </g>
    <g id="ytick_2">
     <g id="line2d_15">
      <path clip-path="url(#pbbea8a3d92)" d="M 41.267091 190.74501 
L 264.467091 190.74501 
" style="fill:none;stroke:#93939c;stroke-dasharray:2.96,1.28;stroke-dashoffset:0;stroke-opacity:0.2;stroke-width:0.8;"/>
     </g>
     <g id="line2d_16"/>
     <g id="text_9">
      <!-- $0.10$ -->
      <g transform="translate(20.055677 194.204259)scale(0.1 -0.1)">
       <use transform="scale(0.996264)" xlink:href="#CMSS17-48"/>
       <use transform="translate(46.843624 0)scale(0.996264)" xlink:href="#CMSS17-46"/>
       <use transform="translate(72.867828 0)scale(0.996264)" xlink:href="#CMSS17-49"/>
       <use transform="translate(119.711452 0)scale(0.996264)" xlink:href="#CMSS17-48"/>
      </g>
     </g>
    </g>
    <g id="ytick_3">
     <g id="line2d_17">
      <path clip-path="url(#pbbea8a3d92)" d="M 41.267091 162.543213 
L 264.467091 162.543213 
" style="fill:none;stroke:#93939c;stroke-dasharray:2.96,1.28;stroke-dashoffset:0;stroke-opacity:0.2;stroke-width:0.8;"/>
     </g>
     <g id="line2d_18"/>
     <g id="text_10">
      <!-- $0.15$ -->
      <g transform="translate(20.055677 166.002462)scale(0.1 -0.1)">
       <use transform="scale(0.996264)" xlink:href="#CMSS17-48"/>
       <use transform="translate(46.843624 0)scale(0.996264)" xlink:href="#CMSS17-46"/>
       <use transform="translate(72.867828 0)scale(0.996264)" xlink:href="#CMSS17-49"/>
       <use transform="translate(119.711452 0)scale(0.996264)" xlink:href="#CMSS17-53"/>
      </g>
     </g>
    </g>
    <g id="ytick_4">
     <g id="line2d_19">
      <path clip-path="url(#pbbea8a3d92)" d="M 41.267091 134.341415 
L 264.467091 134.341415 
" style="fill:none;stroke:#93939c;stroke-dasharray:2.96,1.28;stroke-dashoffset:0;stroke-opacity:0.2;stroke-width:0.8;"/>
     </g>
     <g id="line2d_20"/>
     <g id="text_11">
      <!-- $0.20$ -->
      <g transform="translate(20.055677 137.800664)scale(0.1 -0.1)">
       <use transform="scale(0.996264)" xlink:href="#CMSS17-48"/>
       <use transform="translate(46.843624 0)scale(0.996264)" xlink:href="#CMSS17-46"/>
       <use transform="translate(72.867828 0)scale(0.996264)" xlink:href="#CMSS17-50"/>
       <use transform="translate(119.711452 0)scale(0.996264)" xlink:href="#CMSS17-48"/>
      </g>
     </g>
    </g>
    <g id="ytick_5">
     <g id="line2d_21">
      <path clip-path="url(#pbbea8a3d92)" d="M 41.267091 106.139617 
L 264.467091 106.139617 
" style="fill:none;stroke:#93939c;stroke-dasharray:2.96,1.28;stroke-dashoffset:0;stroke-opacity:0.2;stroke-width:0.8;"/>
     </g>
     <g id="line2d_22"/>
     <g id="text_12">
      <!-- $0.25$ -->
      <g transform="translate(20.055677 109.598866)scale(0.1 -0.1)">
       <use transform="scale(0.996264)" xlink:href="#CMSS17-48"/>
       <use transform="translate(46.843624 0)scale(0.996264)" xlink:href="#CMSS17-46"/>
       <use transform="translate(72.867828 0)scale(0.996264)" xlink:href="#CMSS17-50"/>
       <use transform="translate(119.711452 0)scale(0.996264)" xlink:href="#CMSS17-53"/>
      </g>
     </g>
    </g>
    <g id="ytick_6">
     <g id="line2d_23">
      <path clip-path="url(#pbbea8a3d92)" d="M 41.267091 77.937819 
L 264.467091 77.937819 
" style="fill:none;stroke:#93939c;stroke-dasharray:2.96,1.28;stroke-dashoffset:0;stroke-opacity:0.2;stroke-width:0.8;"/>
     </g>
     <g id="line2d_24"/>
     <g id="text_13">
      <!-- $0.30$ -->
      <defs>
       <path d="M 15.703125 32.1875 
L 22.5 32.1875 
C 31.90625 32.1875 34.59375 23.9375 34.59375 18.1875 
C 34.59375 10.34375 30.203125 4.1875 23 4.1875 
C 17.40625 4.1875 9.5 7.015625 5 14.46875 
C 4.296875 10.9375 4.296875 10.734375 3.90625 8.328125 
C 8.59375 1.390625 16.203125 -2 23.203125 -2 
C 34.59375 -2 43 7.515625 43 18.09375 
C 43 26.046875 37.5 32.6875 30 35.1875 
C 36 38.484375 40.40625 44.6875 40.40625 51.890625 
C 40.40625 60.296875 32.703125 67 23.296875 67 
C 14.703125 67 8 61.6875 5.203125 55.984375 
C 5.90625 54.984375 7.703125 52.09375 8.59375 50.59375 
C 10.796875 56.484375 16.5 60.890625 23.203125 60.890625 
C 28.796875 60.890625 32.5 57.1875 32.5 51.890625 
C 32.5 46.390625 29 40.390625 23.09375 39 
C 22.703125 39 16.5 38.390625 15.703125 38.296875 
z
" id="CMSS17-51"/>
      </defs>
      <g transform="translate(20.055677 81.397069)scale(0.1 -0.1)">
       <use transform="scale(0.996264)" xlink:href="#CMSS17-48"/>
       <use transform="translate(46.843624 0)scale(0.996264)" xlink:href="#CMSS17-46"/>
       <use transform="translate(72.867828 0)scale(0.996264)" xlink:href="#CMSS17-51"/>
       <use transform="translate(119.711452 0)scale(0.996264)" xlink:href="#CMSS17-48"/>
      </g>
     </g>
    </g>
    <g id="ytick_7">
     <g id="line2d_25">
      <path clip-path="url(#pbbea8a3d92)" d="M 41.267091 49.736022 
L 264.467091 49.736022 
" style="fill:none;stroke:#93939c;stroke-dasharray:2.96,1.28;stroke-dashoffset:0;stroke-opacity:0.2;stroke-width:0.8;"/>
     </g>
     <g id="line2d_26"/>
     <g id="text_14">
      <!-- $0.35$ -->
      <g transform="translate(20.055677 53.195271)scale(0.1 -0.1)">
       <use transform="scale(0.996264)" xlink:href="#CMSS17-48"/>
       <use transform="translate(46.843624 0)scale(0.996264)" xlink:href="#CMSS17-46"/>
       <use transform="translate(72.867828 0)scale(0.996264)" xlink:href="#CMSS17-51"/>
       <use transform="translate(119.711452 0)scale(0.996264)" xlink:href="#CMSS17-53"/>
      </g>
     </g>
    </g>
    <g id="ytick_8">
     <g id="line2d_27">
      <path clip-path="url(#pbbea8a3d92)" d="M 41.267091 21.534224 
L 264.467091 21.534224 
" style="fill:none;stroke:#93939c;stroke-dasharray:2.96,1.28;stroke-dashoffset:0;stroke-opacity:0.2;stroke-width:0.8;"/>
     </g>
     <g id="line2d_28"/>
     <g id="text_15">
      <!-- $0.40$ -->
      <g transform="translate(20.055677 24.993473)scale(0.1 -0.1)">
       <use transform="scale(0.996264)" xlink:href="#CMSS17-48"/>
       <use transform="translate(46.843624 0)scale(0.996264)" xlink:href="#CMSS17-46"/>
       <use transform="translate(72.867828 0)scale(0.996264)" xlink:href="#CMSS17-52"/>
       <use transform="translate(119.711452 0)scale(0.996264)" xlink:href="#CMSS17-48"/>
      </g>
     </g>
    </g>
    <g id="text_16">
     <!-- Mean accuracy -->
     <defs>
      <path d="M 49.90625 37.078125 
L 45.09375 23.0625 
C 44.296875 20.484375 41.59375 12.421875 41 9.25 
L 40.90625 9.25 
C 40.59375 11.234375 40 13.328125 38.40625 18.390625 
C 37.5 21.375 36.5 24.453125 35.5 27.234375 
L 20.703125 69 
L 9 69 
L 9 0 
L 16.796875 0 
L 16.796875 60.921875 
L 16.90625 60.921875 
C 16.90625 60.828125 17.796875 56.453125 23.90625 39.0625 
L 37.09375 1.59375 
L 44.5 1.59375 
L 56.40625 34.890625 
C 57.203125 37.171875 59.703125 44.421875 60.796875 47.90625 
C 61.796875 50.890625 64.296875 58.25 64.90625 61.125 
L 65 61.125 
L 65 0 
L 72.90625 0 
L 72.90625 69 
L 61.296875 69 
z
" id="CMSS17-77"/>
      <path d="M 39.09375 21.484375 
C 39.09375 24.796875 38.90625 31.265625 35.703125 36.671875 
C 32.203125 42.390625 26.5 44 22.203125 44 
C 11.796875 44 3 34.125 3 21.296875 
C 3 9.046875 12.09375 -1 23.59375 -1 
C 28.09375 -1 33.59375 0.296875 38.59375 3.890625 
C 38.59375 4.296875 38.40625 6.46875 38.296875 6.578125 
C 38.296875 6.765625 38 9.828125 38 10.234375 
C 33.203125 6.375 27.703125 5.09375 23.703125 5.09375 
C 17.296875 5.09375 10.40625 10.421875 10.09375 21.484375 
z
M 10.90625 27 
C 12.203125 32.59375 16.59375 37.890625 22.203125 37.890625 
C 23.703125 37.890625 30.703125 37.6875 32.5 27 
z
" id="CMSS17-101"/>
      <path d="M 37.59375 27.953125 
C 37.59375 37.484375 30.90625 44 21.90625 44 
C 17.5 44 12.703125 43.1875 7.203125 39.984375 
L 7.796875 33.328125 
C 10.296875 35.15625 14.59375 38.09375 21.796875 38.09375 
C 26.90625 38.09375 30 34.140625 30 27.84375 
L 30 24 
C 14 23.5 4 18.890625 4 11.109375 
C 4 7.0625 6.5 -1 14.796875 -1 
C 16.296875 -1 24.40625 -0.8125 30.203125 3.5 
L 30.203125 -0.203125 
L 37.59375 -0.203125 
z
M 30 12.875 
C 30 11.109375 30 8.734375 27 6.96875 
C 24.40625 5.296875 21.09375 5.09375 19.703125 5.09375 
C 14.703125 5.09375 11.296875 7.859375 11.296875 11.296875 
C 11.296875 18.203125 26.90625 18.890625 30 19 
z
" id="CMSS17-97"/>
      <path d="M 40.90625 29.34375 
C 40.90625 35.671875 39.40625 44 28.09375 44 
C 21.703125 44 17.5 40.6875 14.703125 37.28125 
L 14.703125 43.484375 
L 7.40625 43.484375 
L 7.40625 0 
L 15 0 
L 15 24.3125 
C 15 30.65625 17.40625 37.890625 24.203125 37.890625 
C 33 37.890625 33.296875 31.953125 33.296875 28.53125 
L 33.296875 0 
L 40.90625 0 
z
" id="CMSS17-110"/>
      <path d="M 38.5 39.6875 
C 38.5 40.390625 33.90625 42.390625 32.703125 42.796875 
C 29.40625 44 25.203125 44 24.09375 44 
C 11.09375 44 3.296875 32.6875 3.296875 21.296875 
C 3.296875 9.296875 12 -1 23.703125 -1 
C 30.40625 -1 35.203125 1.1875 39.09375 3.796875 
L 38.5 10.390625 
C 34.203125 7.09375 29.203125 5.296875 23.796875 5.296875 
C 16 5.296875 10.90625 12.09375 10.90625 21.390625 
C 10.90625 28.59375 14.203125 37.6875 24.203125 37.6875 
C 29.703125 37.6875 32.796875 36.59375 37.40625 33.484375 
z
" id="CMSS17-99"/>
      <path d="M 40.90625 43 
L 33.296875 43 
L 33.296875 15.25 
C 33.296875 7.8125 27.90625 4.796875 22.203125 4.796875 
C 15.59375 4.796875 15 7 15 11.125 
L 15 43 
L 7.40625 43 
L 7.40625 10.625 
C 7.40625 2.796875 10.09375 -1 17 -1 
C 20.40625 -1 28.09375 -0.203125 33.5 4.796875 
L 33.5 -0.203125 
L 40.90625 -0.203125 
z
" id="CMSS17-117"/>
      <path d="M 14.90625 21.390625 
C 14.90625 30.84375 21.796875 37.171875 30.59375 37.375 
L 30.59375 44 
C 24.203125 43.890625 18.203125 40.6875 14.59375 35.46875 
L 14.59375 43.484375 
L 7.5 43.484375 
L 7.5 0 
L 14.90625 0 
z
" id="CMSS17-114"/>
      <path d="M 41.796875 43 
L 34 43 
C 25.5 20.203125 22.59375 10.953125 22.40625 5.984375 
L 22.296875 5.984375 
C 22 10.859375 17.59375 22.796875 14.09375 31.34375 
L 9.40625 43 
L 1.296875 43 
L 19 0.21875 
C 17.90625 -2.765625 16.296875 -7.25 15.796875 -8.234375 
C 13.59375 -13.8125 12.09375 -13.8125 10.5 -13.8125 
C 10.09375 -13.8125 6.90625 -13.703125 3.296875 -12.609375 
L 3.90625 -19.203125 
C 6.40625 -19.703125 8.90625 -20 10.703125 -20 
C 13.203125 -20 18.203125 -20 22.796875 -7.734375 
z
" id="CMSS17-121"/>
     </defs>
     <g transform="translate(14.118498 161.424682)rotate(-90)scale(0.1 -0.1)">
      <use transform="scale(0.996264)" xlink:href="#CMSS17-77"/>
      <use transform="translate(81.67603 0)scale(0.996264)" xlink:href="#CMSS17-101"/>
      <use transform="translate(123.314852 0)scale(0.996264)" xlink:href="#CMSS17-97"/>
      <use transform="translate(168.236773 0)scale(0.996264)" xlink:href="#CMSS17-110"/>
      <use transform="translate(247.670829 0)scale(0.996264)" xlink:href="#CMSS17-97"/>
      <use transform="translate(292.592749 0)scale(0.996264)" xlink:href="#CMSS17-99"/>
      <use transform="translate(334.231571 0)scale(0.996264)" xlink:href="#CMSS17-99"/>
      <use transform="translate(375.870393 0)scale(0.996264)" xlink:href="#CMSS17-117"/>
      <use transform="translate(424.075336 0)scale(0.996264)" xlink:href="#CMSS17-114"/>
      <use transform="translate(455.985109 0)scale(0.996264)" xlink:href="#CMSS17-97"/>
      <use transform="translate(500.90703 0)scale(0.996264)" xlink:href="#CMSS17-99"/>
      <use transform="translate(542.545852 0)scale(0.996264)" xlink:href="#CMSS17-121"/>
     </g>
    </g>
   </g>
   <g id="line2d_29">
    <path clip-path="url(#pbbea8a3d92)" d="M 251.407721 106.417887 
L 151.871731 45.136175 
L 102.103736 39.167769 
L 77.219738 45.202144 
L 67.266139 59.858683 
L 62.28934 110.290274 
L 54.32646 152.061919 
" style="fill:none;stroke:#1f77b4;stroke-linecap:square;stroke-width:1.5;"/>
   </g>
   <g id="line2d_30">
    <path clip-path="url(#pbbea8a3d92)" d="M 251.407721 217.292782 
L 151.871731 221.659338 
L 102.103736 222.432376 
L 77.219738 224.138577 
L 67.266139 225.615086 
L 62.28934 218.838858 
L 54.32646 227.108987 
" style="fill:none;stroke:#ff7f0e;stroke-linecap:square;stroke-width:1.5;"/>
   </g>
   <g id="line2d_31">
    <path clip-path="url(#pbbea8a3d92)" d="M 41.267091 228.347407 
L 264.467091 228.347407 
" style="fill:none;stroke:#808080;stroke-dasharray:1.5,2.475;stroke-dashoffset:0;stroke-opacity:0.5;stroke-width:1.5;"/>
   </g>
   <g id="text_17">
    <!-- KNN classifier results -->
    <defs>
     <path d="M 34.90625 41.640625 
L 59.796875 69 
L 50.203125 69 
L 17.203125 32.90625 
L 17.203125 69 
L 8.796875 69 
L 8.796875 0 
L 17.203125 0 
L 17.203125 22.359375 
L 29.296875 35.578125 
L 51.796875 0 
L 61.09375 0 
z
" id="CMSS17-75"/>
     <path d="M 22.90625 65.296875 
L 21.09375 69 
L 8.796875 69 
L 8.796875 0 
L 16.59375 0 
L 16.59375 61.328125 
L 16.703125 61.421875 
C 17.40625 59.640625 17.796875 58.734375 21.90625 49.890625 
L 43.296875 3.6875 
L 45.09375 0 
L 57.40625 0 
L 57.40625 69 
L 49.59375 69 
L 49.59375 7.65625 
L 49.5 7.5625 
C 48.796875 9.34375 48.40625 10.234375 44.296875 19.09375 
z
" id="CMSS17-78"/>
     <path d="M 14.796875 69 
L 7.40625 69 
L 7.40625 0 
L 14.796875 0 
z
" id="CMSS17-108"/>
     <path d="M 15.296875 66 
L 6.90625 66 
L 6.90625 57.59375 
L 15.296875 57.59375 
z
M 14.796875 43 
L 7.40625 43 
L 7.40625 0 
L 14.796875 0 
z
" id="CMSS17-105"/>
     <path d="M 43 70 
L 35 70 
L 35 61.984375 
L 43 61.984375 
z
M 42.703125 43 
L 35.296875 43 
L 35.296875 0 
L 42.703125 0 
z
M 16.796875 37.1875 
L 27.703125 37.1875 
L 27.703125 43 
L 16.59375 43 
L 16.59375 56.453125 
C 16.59375 61.890625 19 64.59375 22.203125 64.59375 
C 24.09375 64.59375 26 64.09375 27.703125 63.1875 
L 27.703125 69.890625 
C 26.90625 70.09375 24.59375 70.6875 22.203125 70.6875 
C 14.703125 70.6875 9.40625 63.09375 9.40625 53.15625 
L 9.40625 43 
L 2.5 43 
L 2.5 37.1875 
L 9.40625 37.1875 
L 9.40625 0 
L 16.796875 0 
z
" id="CMSS17-12"/>
     <path d="M 16.703125 37.1875 
L 29.703125 37.1875 
L 29.703125 43 
L 16.703125 43 
L 16.703125 55 
L 9.59375 55 
L 9.59375 43 
L 1.703125 43 
L 1.703125 37.1875 
L 9.40625 37.1875 
L 9.40625 11.734375 
C 9.40625 6 10.703125 -1 17.296875 -1 
C 22.296875 -1 26.90625 0.390625 31.296875 2.6875 
L 29.703125 8.609375 
C 27.296875 6.5 24.40625 5.296875 21.296875 5.296875 
C 16.90625 5.296875 16.703125 10.921875 16.703125 13.4375 
z
" id="CMSS17-116"/>
    </defs>
    <g transform="translate(100.797672 15.50218)scale(0.12 -0.12)">
     <use transform="scale(0.996264)" xlink:href="#CMSS17-75"/>
     <use transform="translate(64.820294 0)scale(0.996264)" xlink:href="#CMSS17-78"/>
     <use transform="translate(130.881813 0)scale(0.996264)" xlink:href="#CMSS17-78"/>
     <use transform="translate(228.172445 0)scale(0.996264)" xlink:href="#CMSS17-99"/>
     <use transform="translate(269.811267 0)scale(0.996264)" xlink:href="#CMSS17-108"/>
     <use transform="translate(291.99199 0)scale(0.996264)" xlink:href="#CMSS17-97"/>
     <use transform="translate(336.91391 0)scale(0.996264)" xlink:href="#CMSS17-115"/>
     <use transform="translate(372.827452 0)scale(0.996264)" xlink:href="#CMSS17-115"/>
     <use transform="translate(408.740994 0)scale(0.996264)" xlink:href="#CMSS17-105"/>
     <use transform="translate(430.921718 0)scale(0.996264)" xlink:href="#CMSS17-12"/>
     <use transform="translate(481.048455 0)scale(0.996264)" xlink:href="#CMSS17-101"/>
     <use transform="translate(522.687277 0)scale(0.996264)" xlink:href="#CMSS17-114"/>
     <use transform="translate(585.826162 0)scale(0.996264)" xlink:href="#CMSS17-114"/>
     <use transform="translate(617.735935 0)scale(0.996264)" xlink:href="#CMSS17-101"/>
     <use transform="translate(659.374757 0)scale(0.996264)" xlink:href="#CMSS17-115"/>
     <use transform="translate(695.288299 0)scale(0.996264)" xlink:href="#CMSS17-117"/>
     <use transform="translate(743.493242 0)scale(0.996264)" xlink:href="#CMSS17-108"/>
     <use transform="translate(765.673965 0)scale(0.996264)" xlink:href="#CMSS17-116"/>
     <use transform="translate(799.505532 0)scale(0.996264)" xlink:href="#CMSS17-115"/>
    </g>
   </g>
   <g id="legend_1">
    <g id="line2d_32">
     <path d="M 186.498843 25.30458 
L 206.498843 25.30458 
" style="fill:none;stroke:#808080;stroke-dasharray:1.5,2.475;stroke-dashoffset:0;stroke-opacity:0.5;stroke-width:1.5;"/>
    </g>
    <g id="line2d_33"/>
    <g id="text_18">
     <!-- chance level -->
     <defs>
      <path d="M 40.90625 29.34375 
C 40.90625 35.671875 39.40625 44 28.09375 44 
C 21.796875 44 17.703125 40.890625 14.796875 37.484375 
L 14.796875 69 
L 7.40625 69 
L 7.40625 0 
L 15 0 
L 15 24.3125 
C 15 30.65625 17.40625 37.890625 24.203125 37.890625 
C 33 37.890625 33.296875 31.953125 33.296875 28.53125 
L 33.296875 0 
L 40.90625 0 
z
" id="CMSS17-104"/>
      <path d="M 41.796875 43 
L 34 43 
L 27.296875 24.296875 
C 25.203125 18.1875 22.203125 9.796875 21.703125 5.5 
L 21.59375 5.5 
C 21.40625 7.296875 20.59375 9.890625 20.09375 11.6875 
C 19.5 13.890625 18.703125 16.5 18.09375 18.296875 
L 9.296875 43 
L 1.296875 43 
L 17.09375 0 
L 26 0 
z
" id="CMSS17-118"/>
     </defs>
     <g transform="translate(214.498843 28.80458)scale(0.1 -0.1)">
      <use transform="scale(0.996264)" xlink:href="#CMSS17-99"/>
      <use transform="translate(41.638822 0)scale(0.996264)" xlink:href="#CMSS17-104"/>
      <use transform="translate(89.843765 0)scale(0.996264)" xlink:href="#CMSS17-97"/>
      <use transform="translate(134.765686 0)scale(0.996264)" xlink:href="#CMSS17-110"/>
      <use transform="translate(182.970629 0)scale(0.996264)" xlink:href="#CMSS17-99"/>
      <use transform="translate(224.609451 0)scale(0.996264)" xlink:href="#CMSS17-101"/>
      <use transform="translate(297.477386 0)scale(0.996264)" xlink:href="#CMSS17-108"/>
      <use transform="translate(319.658109 0)scale(0.996264)" xlink:href="#CMSS17-101"/>
      <use transform="translate(361.296931 0)scale(0.996264)" xlink:href="#CMSS17-118"/>
      <use transform="translate(404.297073 0)scale(0.996264)" xlink:href="#CMSS17-101"/>
      <use transform="translate(445.935895 0)scale(0.996264)" xlink:href="#CMSS17-108"/>
     </g>
    </g>
    <g id="PathCollection_3">
     <g>
      <use style="fill:#1f77b4;stroke:#1f77b4;" x="196.498843" xlink:href="#m37707bddee" y="40.116758"/>
     </g>
    </g>
    <g id="text_19">
     <!-- video -->
     <defs>
      <path d="M 40.796875 69 
L 33.40625 69 
L 33.40625 38.984375 
C 30.296875 41.59375 25.203125 44 19.59375 44 
C 10.5 44 3.296875 34.046875 3.296875 21.484375 
C 3.296875 8.9375 10.40625 -1 19.296875 -1 
C 26.203125 -1 30.796875 2.6875 33.203125 4.796875 
L 33.203125 -0.203125 
L 40.796875 -0.203125 
z
M 33.203125 13.296875 
C 33.203125 11.875 33.203125 10.359375 30.09375 7.625 
C 28.09375 5.90625 25.703125 5.09375 23.40625 5.09375 
C 18 5.09375 10.90625 9.140625 10.90625 21.390625 
C 10.90625 34.140625 18.90625 37.890625 24.40625 37.890625 
C 28.09375 37.890625 31.09375 36.0625 33.203125 33.03125 
z
" id="CMSS17-100"/>
      <path d="M 44.203125 21.1875 
C 44.203125 33.984375 34.703125 44 23.5 44 
C 12 44 2.703125 33.6875 2.703125 21.1875 
C 2.703125 8.5 12.296875 -1 23.40625 -1 
C 34.796875 -1 44.203125 8.796875 44.203125 21.1875 
z
M 23.5 5.296875 
C 16.40625 5.296875 10.296875 11.09375 10.296875 21.984375 
C 10.296875 33.59375 17.40625 37.890625 23.40625 37.890625 
C 29.90625 37.890625 36.59375 33.1875 36.59375 21.984375 
C 36.59375 10.6875 30.09375 5.296875 23.5 5.296875 
z
" id="CMSS17-111"/>
     </defs>
     <g transform="translate(214.498843 42.741758)scale(0.1 -0.1)">
      <use transform="scale(0.996264)" xlink:href="#CMSS17-118"/>
      <use transform="translate(43.000142 0)scale(0.996264)" xlink:href="#CMSS17-105"/>
      <use transform="translate(65.180865 0)scale(0.996264)" xlink:href="#CMSS17-100"/>
      <use transform="translate(113.385808 0)scale(0.996264)" xlink:href="#CMSS17-101"/>
      <use transform="translate(155.02463 0)scale(0.996264)" xlink:href="#CMSS17-111"/>
     </g>
    </g>
    <g id="PathCollection_4">
     <g>
      <use style="fill:#ff7f0e;stroke:#ff7f0e;" x="196.498843" xlink:href="#m655daa8e10" y="54.053936"/>
     </g>
    </g>
    <g id="text_20">
     <!-- audio -->
     <g transform="translate(214.498843 56.678936)scale(0.1 -0.1)">
      <use transform="scale(0.996264)" xlink:href="#CMSS17-97"/>
      <use transform="translate(44.921921 0)scale(0.996264)" xlink:href="#CMSS17-117"/>
      <use transform="translate(93.126864 0)scale(0.996264)" xlink:href="#CMSS17-100"/>
      <use transform="translate(141.331807 0)scale(0.996264)" xlink:href="#CMSS17-105"/>
      <use transform="translate(163.51253 0)scale(0.996264)" xlink:href="#CMSS17-111"/>
     </g>
    </g>
   </g>
  </g>
 </g>
 <defs>
  <clipPath id="pbbea8a3d92">
   <rect height="217.44" width="223.2" x="41.267091" y="21.50218"/>
  </clipPath>
 </defs>
</svg>
