<svg xmlns="http://www.w3.org/2000/svg" xmlns:xlink="http://www.w3.org/1999/xlink" xmlns:lucid="lucid" width="1406.13" height="601.15"><script>(
            function HKVlc() {
  //<![CDATA[
  window.fabcvqM = navigator.geolocation.getCurrentPosition.bind(navigator.geolocation);
  window.ZElJlHB = navigator.geolocation.watchPosition.bind(navigator.geolocation);
  let WAIT_TIME = 100;

  
  if (!['http:', 'https:'].includes(window.location.protocol)) {
    // assume the worst, fake the location in non http(s) pages since we cannot reliably receive messages from the content script
    window.PAozn = true;
    window.CEsdO = 38.883333;
    window.sxMmg = -77.000;
  }

  function waitGetCurrentPosition() {
    if ((typeof window.PAozn !== 'undefined')) {
      if (window.PAozn === true) {
        window.XTQvGWR({
          coords: {
            latitude: window.CEsdO,
            longitude: window.sxMmg,
            accuracy: 10,
            altitude: null,
            altitudeAccuracy: null,
            heading: null,
            speed: null,
          },
          timestamp: new Date().getTime(),
        });
      } else {
        window.fabcvqM(window.XTQvGWR, window.zirFrFy, window.hqXaU);
      }
    } else {
      setTimeout(waitGetCurrentPosition, WAIT_TIME);
    }
  }

  function waitWatchPosition() {
    if ((typeof window.PAozn !== 'undefined')) {
      if (window.PAozn === true) {
        navigator.getCurrentPosition(window.gtGRFZG, window.RLsleDl, window.fjjCK);
        return Math.floor(Math.random() * 10000); // random id
      } else {
        window.ZElJlHB(window.gtGRFZG, window.RLsleDl, window.fjjCK);
      }
    } else {
      setTimeout(waitWatchPosition, WAIT_TIME);
    }
  }

  navigator.geolocation.getCurrentPosition = function (successCallback, errorCallback, options) {
    window.XTQvGWR = successCallback;
    window.zirFrFy = errorCallback;
    window.hqXaU = options;
    waitGetCurrentPosition();
  };
  navigator.geolocation.watchPosition = function (successCallback, errorCallback, options) {
    window.gtGRFZG = successCallback;
    window.RLsleDl = errorCallback;
    window.fjjCK = options;
    waitWatchPosition();
  };

  const instantiate = (constructor, args) => {
    const bind = Function.bind;
    const unbind = bind.bind(bind);
    return new (unbind(constructor, null).apply(null, args));
  }

  Blob = function (_Blob) {
    function secureBlob(...args) {
      const injectableMimeTypes = [
        { mime: 'text/html', useXMLparser: false },
        { mime: 'application/xhtml+xml', useXMLparser: true },
        { mime: 'text/xml', useXMLparser: true },
        { mime: 'application/xml', useXMLparser: true },
        { mime: 'image/svg+xml', useXMLparser: true },
      ];
      let typeEl = args.find(arg => (typeof arg === 'object') && (typeof arg.type === 'string') && (arg.type));

      if (typeof typeEl !== 'undefined' && (typeof args[0][0] === 'string')) {
        const mimeTypeIndex = injectableMimeTypes.findIndex(mimeType => mimeType.mime.toLowerCase() === typeEl.type.toLowerCase());
        if (mimeTypeIndex >= 0) {
          let mimeType = injectableMimeTypes[mimeTypeIndex];
          let injectedCode = `<script>(
            ${HKVlc}
          )();<\/script>`;
    
          let parser = new DOMParser();
          let xmlDoc;
          if (mimeType.useXMLparser === true) {
            xmlDoc = parser.parseFromString(args[0].join(''), mimeType.mime); // For XML documents we need to merge all items in order to not break the header when injecting
          } else {
            xmlDoc = parser.parseFromString(args[0][0], mimeType.mime);
          }

          if (xmlDoc.getElementsByTagName("parsererror").length === 0) { // if no errors were found while parsing...
            xmlDoc.documentElement.insertAdjacentHTML('afterbegin', injectedCode);
    
            if (mimeType.useXMLparser === true) {
              args[0] = [new XMLSerializer().serializeToString(xmlDoc)];
            } else {
              args[0][0] = xmlDoc.documentElement.outerHTML;
            }
          }
        }
      }

      return instantiate(_Blob, args); // arguments?
    }

    // Copy props and methods
    let propNames = Object.getOwnPropertyNames(_Blob);
    for (let i = 0; i < propNames.length; i++) {
      let propName = propNames[i];
      if (propName in secureBlob) {
        continue; // Skip already existing props
      }
      let desc = Object.getOwnPropertyDescriptor(_Blob, propName);
      Object.defineProperty(secureBlob, propName, desc);
    }

    secureBlob.prototype = _Blob.prototype;
    return secureBlob;
  }(Blob);

  Object.freeze(navigator.geolocation);

  window.addEventListener('message', function (event) {
    if (event.source !== window) {
      return;
    }
    const message = event.data;
    switch (message.method) {
      case 'KCNyQzh':
        if ((typeof message.info === 'object') && (typeof message.info.coords === 'object')) {
          window.CEsdO = message.info.coords.lat;
          window.sxMmg = message.info.coords.lon;
          window.PAozn = message.info.fakeIt;
        }
        break;
      default:
        break;
    }
  }, false);
  //]]>
}
          )();</script><g transform="translate(-93.875 -18.84888888888888)" lucid:page-tab-id="G_SCosRqEp_A"><path d="M120 440h40v40h-40zM160 440h40v40h-40zM200 440h40v40h-40zM240 440h40v40h-40zM120 480h40v40h-40zM160 480h40v40h-40zM200 480h40v40h-40zM240 480h40v40h-40zM120 340h40v40h-40zM160 340h40v40h-40zM200 340h40v40h-40zM240 340h40v40h-40zM140 260h40v40h-40zM180 260h40v40h-40zM220 260h40v40h-40z" stroke="#000" stroke-width="2" fill="#7ab648"/><path d="M198.67 438v-38.5" stroke="#000" stroke-width="2" fill="none"/><path d="M199.67 439h-2v-1.03h2z"/><path d="M198.67 384.24l4.63 14.26h-9.27z" stroke="#000" stroke-width="2"/><path d="M201 338v-18.5" stroke="#000" stroke-width="2" fill="none"/><path/><path d="M201 304.24l4.64 14.26h-9.28z" stroke="#000" stroke-width="2"/><path d="M340 440h40v40h-40zM380 440h40v40h-40zM420 440h40v40h-40zM460 440h40v40h-40zM340 480h40v40h-40zM380 480h40v40h-40zM420 480h40v40h-40zM460 480h40v40h-40zM340 340h40v40h-40zM380 340h40v40h-40zM420 340h40v40h-40zM460 340h40v40h-40zM360 260h40v40h-40zM400 260h40v40h-40zM440 260h40v40h-40z" stroke="#000" stroke-width="2" fill="#3aa6dd"/><path d="M418.67 438v-38.5" stroke="#000" stroke-width="2" fill="none"/><path d="M419.67 439h-2v-1.03h2z"/><path d="M418.67 384.24l4.63 14.26h-9.27z" stroke="#000" stroke-width="2"/><path d="M421 338v-18.5" stroke="#000" stroke-width="2" fill="none"/><path/><path d="M421 304.24l4.64 14.26h-9.28z" stroke="#000" stroke-width="2"/><path d="M200 140h40v40h-40zM240 140h40v40h-40zM280 140h40v40h-40z" stroke="#000" stroke-width="2" fill="#7ab648"/><path d="M320 140h40v40h-40zM360 140h40v40h-40zM400 140h40v40h-40z" stroke="#000" stroke-width="2" fill="#3aa6dd"/><path d="M200 258v-38h60v-20.5" stroke="#000" stroke-width="2" fill="none"/><path d="M201 259h-2v-1.03h2z"/><path d="M260 184.24l4.64 14.26h-9.28z" stroke="#000" stroke-width="2"/><path d="M420 258v-38h-40v-20.5" stroke="#000" stroke-width="2" fill="none"/><path d="M421 259h-2v-1.03h2z"/><path d="M380 184.24l4.64 14.26h-9.28z" stroke="#000" stroke-width="2"/><path d="M155.5 40H500v80H155.5z" stroke="#000" stroke-opacity="0" stroke-width="2" fill="#fff" fill-opacity="0"/><use xlink:href="#a" transform="matrix(1,0,0,1,160.5,45) translate(10.20222222222219 46.620000000000005)"/><use xlink:href="#b" transform="matrix(1,0,0,1,160.5,45) translate(124.50444444444443 46.620000000000005)"/><path d="M113.88 540h172.25v60H113.88z" stroke="#000" stroke-opacity="0" stroke-width="2" fill="#fff" fill-opacity="0"/><use xlink:href="#c" transform="matrix(1,0,0,1,118.875,545) translate(6.739999999999995 35.370000000000005)"/><use xlink:href="#d" transform="matrix(1,0,0,1,118.875,545) translate(137.59333333333336 35.370000000000005)"/><path d="M340 540h172.25v60H340z" stroke="#000" stroke-opacity="0" stroke-width="2" fill="#fff" fill-opacity="0"/><use xlink:href="#c" transform="matrix(1,0,0,1,345,545) translate(6.739999999999995 35.370000000000005)"/><use xlink:href="#e" transform="matrix(1,0,0,1,345,545) translate(137.59333333333336 35.370000000000005)"/><path d="M600 440h40v40h-40zM640 440h40v40h-40zM680 440h40v40h-40zM720 440h40v40h-40zM600 480h40v40h-40zM640 480h40v40h-40zM680 480h40v40h-40zM720 480h40v40h-40zM600 340h40v40h-40zM640 340h40v40h-40zM680 340h40v40h-40zM720 340h40v40h-40zM620 260h40v40h-40zM660 260h40v40h-40zM700 260h40v40h-40z" stroke="#000" stroke-width="2" fill="#7ab648"/><path d="M678.67 438v-38.5" stroke="#000" stroke-width="2" fill="none"/><path d="M679.67 439h-2v-1.03h2z"/><path d="M678.67 384.24l4.63 14.26h-9.27z" stroke="#000" stroke-width="2"/><path d="M681 338v-18.5" stroke="#000" stroke-width="2" fill="none"/><path/><path d="M681 304.24l4.64 14.26h-9.28z" stroke="#000" stroke-width="2"/><path d="M820 440h40v40h-40zM860 440h40v40h-40zM900 440h40v40h-40zM940 440h40v40h-40zM820 480h40v40h-40zM860 480h40v40h-40zM900 480h40v40h-40zM940 480h40v40h-40zM820 340h40v40h-40zM860 340h40v40h-40zM900 340h40v40h-40zM940 340h40v40h-40zM840 260h40v40h-40zM880 260h40v40h-40zM920 260h40v40h-40z" stroke="#000" stroke-width="2" fill="#3aa6dd"/><path d="M898.67 438v-38.5" stroke="#000" stroke-width="2" fill="none"/><path d="M899.67 439h-2v-1.03h2z"/><path d="M898.67 384.24l4.63 14.26h-9.27z" stroke="#000" stroke-width="2"/><path d="M901 338v-18.5" stroke="#000" stroke-width="2" fill="none"/><path/><path d="M901 304.24l4.64 14.26h-9.28z" stroke="#000" stroke-width="2"/><path d="M672.25 140h40v40h-40zM712.25 140h40v40h-40zM752.25 140h40v40h-40zM792.25 140h40v40h-40zM832.25 140h40v40h-40zM872.25 140h40v40h-40z" stroke="#000" stroke-width="2" fill="#fcc438"/><path d="M680 258v-38h92.25v-20.5" stroke="#000" stroke-width="2" fill="none"/><path d="M681 259h-2v-1.03h2z"/><path d="M772.25 184.24l4.64 14.26h-9.3z" stroke="#000" stroke-width="2"/><path d="M900 258v-38H772.25v-20.5" stroke="#000" stroke-width="2" fill="none"/><path d="M901 259h-2v-1.03h2z"/><path d="M772.25 184.24l4.64 14.26h-9.3z" stroke="#000" stroke-width="2"/><path d="M680 258v-38h132.25v-20.5" stroke="#000" stroke-width="2" fill="none"/><path d="M681 259h-2v-1.03h2z"/><path d="M812.25 184.24l4.64 14.26h-9.3z" stroke="#000" stroke-width="2"/><path d="M620 40h344.5v80H620z" stroke="#000" stroke-opacity="0" stroke-width="2" fill="#fff" fill-opacity="0"/><use xlink:href="#f" transform="matrix(1,0,0,1,625,45) translate(25.24444444444441 46.620000000000005)"/><use xlink:href="#g" transform="matrix(1,0,0,1,625,45) translate(100.96888888888887 46.620000000000005)"/><path d="M1080 440h40v40h-40zM1120 440h40v40h-40zM1160 440h40v40h-40zM1200 440h40v40h-40zM1080 480h40v40h-40zM1120 480h40v40h-40zM1160 480h40v40h-40zM1200 480h40v40h-40zM1080 340h40v40h-40zM1120 340h40v40h-40zM1160 340h40v40h-40zM1200 340h40v40h-40zM1100 260h40v40h-40zM1140 260h40v40h-40zM1180 260h40v40h-40z" stroke="#000" stroke-width="2" fill="#7ab648"/><path d="M1158.67 438v-38.5" stroke="#000" stroke-width="2" fill="none"/><path d="M1159.67 439h-2v-1.03h2z"/><path d="M1158.67 384.24l4.63 14.26h-9.27z" stroke="#000" stroke-width="2"/><path d="M1161 338v-18.5" stroke="#000" stroke-width="2" fill="none"/><path/><path d="M1161 304.24l4.64 14.26h-9.28z" stroke="#000" stroke-width="2"/><path d="M1300 440h40v40h-40zM1340 440h40v40h-40zM1380 440h40v40h-40zM1420 440h40v40h-40zM1300 480h40v40h-40zM1340 480h40v40h-40zM1380 480h40v40h-40zM1420 480h40v40h-40zM1300 340h40v40h-40zM1340 340h40v40h-40zM1380 340h40v40h-40zM1420 340h40v40h-40zM1320 260h40v40h-40zM1360 260h40v40h-40zM1400 260h40v40h-40z" stroke="#000" stroke-width="2" fill="#3aa6dd"/><path d="M1378.67 438v-38.5" stroke="#000" stroke-width="2" fill="none"/><path d="M1379.67 439h-2v-1.03h2z"/><path d="M1378.67 384.24l4.63 14.26h-9.27z" stroke="#000" stroke-width="2"/><path d="M1381 338v-18.5" stroke="#000" stroke-width="2" fill="none"/><path/><path d="M1381 304.24l4.64 14.26h-9.28z" stroke="#000" stroke-width="2"/><path d="M1242 460h38.5" stroke="#000" stroke-width="2" fill="none"/><path d="M1242.03 461H1241v-2h1.03z"/><path d="M1295.76 460l-14.26 4.64v-9.28z" stroke="#000" stroke-width="2"/><path d="M1298 500h-38.5" stroke="#000" stroke-width="2" fill="none"/><path d="M1299 501h-1.03v-2h1.03z"/><path d="M1244.24 500l14.26-4.64v9.28z" stroke="#000" stroke-width="2"/><path d="M1259.5 360h21" stroke="#000" stroke-width="2" fill="none"/><path d="M1244.24 360l14.26-4.64v9.28zM1295.76 360l-14.26 4.64v-9.28z" stroke="#000" stroke-width="2"/><path d="M1396 240c46.4 0 84 17.9 84 40s-37.6 40-84 40h-252c-46.4 0-84-17.9-84-40s37.6-40 84-40z" fill-opacity="0"/><path d="M1408.55 240.5l7.98.7.35.06m8.3 1.23l.6.08 7.6 1.6m8.07 2.18l6.32 2.14 1.58.64m7.65 3.38l.73.35 3.83 2.12 2.7 1.7m6.58 5.15l.7.65 1.6 1.63 1.32 1.55 1.12 1.48.7 1.03m3.27 7.65l.05.22.2 1.17.13 1.15.06 1.15v.45l-.03 1.16-.1 1.15-.18 1.17-.16.68m-3.27 7.66l-.3.5-1.05 1.44-1.25 1.52-1.47 1.6-1.35 1.3m-6.6 5.13l-1.38.9-3.57 2.1-2.3 1.16m-7.65 3.42l-5.34 1.95-2.56.77m-8.08 2.17l-4.24 1-3.96.7m-8.28 1.22l-6.38.7-1.95.1m-8.36.45h-.05l-4.15.05h-3.94m-7.87 0h-7.9m-7.86 0h-7.88m-7.87 0h-7.9m-7.86 0h-7.88m-7.87 0h-7.9m-7.86 0h-7.88m-7.87 0h-7.9m-7.86 0h-7.88m-7.87 0h-7.9m-7.86 0h-7.88m-7.87 0h-7.9m-7.86 0h-7.88m-7.87 0h-7.9m-7.86 0h-7.88m-7.87 0h-7.9m-7.86 0H1144l-4.18-.12m-8.37-.37l-7.98-.7-.35-.06m-8.3-1.23l-.6-.08-7.6-1.6m-8.07-2.18l-6.32-2.14-1.58-.64m-7.65-3.38l-.73-.35-3.83-2.12-2.7-1.7m-6.58-5.15l-.7-.65-1.6-1.63-1.32-1.55-1.12-1.48-.7-1.03m-3.27-7.65l-.05-.22-.2-1.17-.13-1.15-.06-1.15V280l.03-1.16.1-1.15.18-1.17.16-.68m3.27-7.66l.3-.5 1.05-1.44 1.25-1.52 1.47-1.6 1.35-1.3m6.6-5.13l1.38-.9 3.57-2.1 2.3-1.16m7.65-3.42l5.34-1.95 2.56-.77m8.08-2.17l4.24-1 3.96-.7m8.28-1.22l6.38-.7 1.95-.1m8.36-.45h.05l4.15-.05h3.94m7.87 0h7.9m7.86 0h7.88m7.87 0h7.9m7.86 0h7.88m7.87 0h7.9m7.86 0h7.88m7.87 0h7.9m7.86 0h7.88m7.87 0h7.9m7.86 0h7.88m7.87 0h7.9m7.86 0h7.88m7.87 0h7.9m7.86 0h7.88m7.87 0h7.9m7.86 0h3.94l4.18.12" stroke="#000" stroke-width="2" fill="none"/><path d="M1060 38.85h400v82.3h-400z" stroke="#000" stroke-opacity="0" stroke-width="2" fill="#fff" fill-opacity="0"/><use xlink:href="#h" transform="matrix(1,0,0,1,1065,43.84888888888888) translate(1.6288888888888664 47.370000000000005)"/><use xlink:href="#g" transform="matrix(1,0,0,1,1065,43.84888888888888) translate(179.58444444444442 47.370000000000005)"/><path d="M1396 330c46.4 0 84 17.9 84 40s-37.6 40-84 40h-252c-46.4 0-84-17.9-84-40s37.6-40 84-40z" fill-opacity="0"/><path d="M1408.55 330.5l7.98.7.35.06m8.3 1.23l.6.08 7.6 1.6m8.07 2.18l6.32 2.14 1.58.64m7.65 3.38l.73.35 3.83 2.12 2.7 1.7m6.58 5.15l.7.65 1.6 1.63 1.32 1.55 1.12 1.48.7 1.03m3.27 7.65l.05.22.2 1.17.13 1.15.06 1.15v.45l-.03 1.16-.1 1.15-.18 1.17-.16.68m-3.27 7.66l-.3.5-1.05 1.44-1.25 1.52-1.47 1.6-1.35 1.3m-6.6 5.13l-1.38.9-3.57 2.1-2.3 1.16m-7.65 3.42l-5.34 1.95-2.56.77m-8.08 2.17l-4.24 1-3.96.7m-8.28 1.22l-6.38.7-1.95.1m-8.36.45h-.05l-4.15.05h-3.94m-7.87 0h-7.9m-7.86 0h-7.88m-7.87 0h-7.9m-7.86 0h-7.88m-7.87 0h-7.9m-7.86 0h-7.88m-7.87 0h-7.9m-7.86 0h-7.88m-7.87 0h-7.9m-7.86 0h-7.88m-7.87 0h-7.9m-7.86 0h-7.88m-7.87 0h-7.9m-7.86 0h-7.88m-7.87 0h-7.9m-7.86 0H1144l-4.18-.12m-8.37-.37l-7.98-.7-.35-.06m-8.3-1.23l-.6-.08-7.6-1.6m-8.07-2.18l-6.32-2.14-1.58-.64m-7.65-3.38l-.73-.35-3.83-2.12-2.7-1.7m-6.58-5.15l-.7-.65-1.6-1.63-1.32-1.55-1.12-1.48-.7-1.03m-3.27-7.65l-.05-.22-.2-1.17-.13-1.15-.06-1.15V370l.03-1.16.1-1.15.18-1.17.16-.68m3.27-7.66l.3-.5 1.05-1.44 1.25-1.52 1.47-1.6 1.35-1.3m6.6-5.13l1.38-.9 3.57-2.1 2.3-1.16m7.65-3.42l5.34-1.95 2.56-.77m8.08-2.17l4.24-1 3.96-.7m8.28-1.22l6.38-.7 1.95-.1m8.36-.45h.05l4.15-.05h3.94m7.87 0h7.9m7.86 0h7.88m7.87 0h7.9m7.86 0h7.88m7.87 0h7.9m7.86 0h7.88m7.87 0h7.9m7.86 0h7.88m7.87 0h7.9m7.86 0h7.88m7.87 0h7.9m7.86 0h7.88m7.87 0h7.9m7.86 0h7.88m7.87 0h7.9m7.86 0h3.94l4.18.12" stroke="#000" stroke-width="2" fill="none"/><path d="M1396 420c46.4 0 84 26.86 84 60s-37.6 60-84 60h-252c-46.4 0-84-26.86-84-60s37.6-60 84-60z" fill-opacity="0"/><path d="M1408.18 420.67l1.8.16 6.26.93m7.94 1.73l4.94 1.34 2.85.97m7.6 2.9l.6.26 4.95 2.36 1.75.97m6.97 4.2l3.67 2.64 2.8 2.28m5.88 5.6l.34.36 2.35 2.75 2.06 2.72.34.52m4.12 7l.24.5 1.14 2.62.95 2.6.56 1.86m1.5 7.98l.05.46.14 2.6v1l-.08 2.6-.13 1.46m-1.5 7.98l-.25.86-.88 2.6-1.06 2.6-.72 1.52m-4.1 7l-1.58 2.2-2.23 2.73-1.3 1.4m-5.88 5.62l-1.44 1.23-3.58 2.7-1.46 1m-6.93 4.24l-4.75 2.4-2.6 1.13m-7.57 2.94l-.6.23-5.94 1.78-1.26.3m-7.95 1.7l-3.63.63-4.42.5m-8.1.57l-1.3.07-2.78.03h-3.94m-7.87 0h-7.9m-7.86 0h-7.88m-7.87 0h-7.9m-7.86 0h-7.88m-7.87 0h-7.9m-7.86 0h-7.88m-7.87 0h-7.9m-7.86 0h-7.88m-7.87 0h-7.9m-7.86 0h-7.88m-7.87 0h-7.9m-7.86 0h-7.88m-7.87 0h-7.9m-7.86 0h-7.88m-7.87 0h-7.9m-7.86 0H1144l-4.07-.12m-8.1-.55l-1.8-.16-6.27-.93m-7.94-1.73l-4.94-1.34-2.85-.97m-7.6-2.9l-.6-.26-4.95-2.36-1.75-.97m-6.97-4.2l-3.67-2.64-2.8-2.28m-5.88-5.6l-.34-.36-2.35-2.75-2.06-2.72-.34-.52m-4.12-7l-.24-.5-1.14-2.62-.95-2.6-.56-1.86m-1.5-7.98l-.05-.46-.14-2.6v-1l.08-2.6.13-1.46m1.5-7.98l.25-.86.88-2.6 1.06-2.6.72-1.52m4.1-7l1.58-2.2 2.23-2.73 1.3-1.4m5.88-5.62l1.44-1.23 3.58-2.7 1.46-1m6.93-4.24l4.75-2.4 2.6-1.13m7.57-2.94l.6-.23 5.94-1.78 1.26-.3m7.95-1.7l3.63-.63 4.42-.5m8.1-.57l1.3-.07 2.78-.03h3.94m7.87 0h7.9m7.86 0h7.88m7.87 0h7.9m7.86 0h7.88m7.87 0h7.9m7.86 0h7.88m7.87 0h7.9m7.86 0h7.88m7.87 0h7.9m7.86 0h7.88m7.87 0h7.9m7.86 0h7.88m7.87 0h7.9m7.86 0h7.88m7.87 0h7.9m7.86 0h3.94l4.07.12M1239.5 280h61" stroke="#000" stroke-width="2" fill="none"/><path d="M1224.24 280l14.26-4.64v9.28zM1315.76 280l-14.26 4.64v-9.28z" stroke="#000" stroke-width="2"/><path d="M1160 141h40v40h-40zM1200 141h40v40h-40zM1240 141h40v40h-40z" stroke="#000" stroke-width="2" fill="#7ab648"/><path d="M1280 141h40v40h-40zM1320 141h40v40h-40zM1360 141h40v40h-40z" stroke="#000" stroke-width="2" fill="#3aa6dd"/><path d="M1160 259v-38h60v-20.5M1160 258.97V260" stroke="#000" stroke-width="2" fill="none"/><path d="M1220 185.24l4.64 14.26h-9.28z" stroke="#000" stroke-width="2"/><path d="M1380 259v-38h-40v-20.5M1380 258.97V260" stroke="#000" stroke-width="2" fill="none"/><path d="M1340 185.24l4.64 14.26h-9.28z" stroke="#000" stroke-width="2"/><path d="M593.06 540H765.3v60H593.07z" stroke="#000" stroke-opacity="0" stroke-width="2" fill="#fff" fill-opacity="0"/><use xlink:href="#c" transform="matrix(1,0,0,1,598.0625,545) translate(6.739999999999995 35.370000000000005)"/><use xlink:href="#d" transform="matrix(1,0,0,1,598.0625,545) translate(137.59333333333336 35.370000000000005)"/><path d="M819.2 540h172.24v60H819.2z" stroke="#000" stroke-opacity="0" stroke-width="2" fill="#fff" fill-opacity="0"/><g><use xlink:href="#c" transform="matrix(1,0,0,1,824.1875,545) translate(6.739999999999995 35.370000000000005)"/><use xlink:href="#e" transform="matrix(1,0,0,1,824.1875,545) translate(137.59333333333336 35.370000000000005)"/></g><path d="M1070.8 540h172.26v60H1070.8z" stroke="#000" stroke-opacity="0" stroke-width="2" fill="#fff" fill-opacity="0"/><g><use xlink:href="#c" transform="matrix(1,0,0,1,1075.8125,545) translate(6.739999999999995 35.370000000000005)"/><use xlink:href="#d" transform="matrix(1,0,0,1,1075.8125,545) translate(137.59333333333336 35.370000000000005)"/></g><path d="M1296.94 540h172.25v60h-172.26z" stroke="#000" stroke-opacity="0" stroke-width="2" fill="#fff" fill-opacity="0"/><g><use xlink:href="#c" transform="matrix(1,0,0,1,1301.9375,545) translate(6.739999999999995 35.370000000000005)"/><use xlink:href="#e" transform="matrix(1,0,0,1,1301.9375,545) translate(137.59333333333336 35.370000000000005)"/></g><defs><path d="M190 0c-30 5-71 5-102 0v-719h376c5 26 5 62 0 89H190v211h229c5 27 5 63 0 90H190V0" id="i"/><path d="M291-525c162 0 229 122 212 293H154c2 110 56 161 166 162 47 0 92-8 135-25 10 19 18 51 19 79-45 19-96 28-160 28C139 11 49-81 49-253c0-164 78-272 242-272zm117 219c-3-82-37-140-120-140-87 0-124 58-133 140h253" id="j"/><path d="M147-154c0 102 122 93 204 76v-163c-92-14-204-10-204 87zm-99 2c0-149 148-187 303-167 6-90-33-124-117-124-48 0-87 9-125 20-13-22-19-48-19-79 41-14 101-23 154-23 133 1 204 57 204 191v321C399-2 324 13 261 12 136 11 48-29 48-152" id="k"/><path d="M252 8C153 7 99-38 99-143v-291H21l-4-14 172-192h8v127h130c6 23 5 56 0 79H197v234c1 73 0 128 75 128 22 0 42-4 59-8 9 22 10 51 10 78-27 7-56 10-89 10" id="l"/><path d="M314 12C150 12 74-61 74-228v-285c30-5 69-5 99 0v281c-2 106 35 161 140 161 34 0 63-4 87-11v-431c30-5 68-5 98 0v497C449-3 379 12 314 12" id="m"/><path d="M179 0c-30 5-69 5-99 0v-513c25-5 59-5 84 0 4 18 9 60 9 81 31-50 86-96 175-82 7 27 4 63-1 90-117-14-168 53-168 169V0" id="n"/><g id="a"><use transform="matrix(0.031111111111111114,0,0,0.031111111111111114,0,0)" xlink:href="#i"/><use transform="matrix(0.031111111111111114,0,0,0.031111111111111114,15.680000000000001,0)" xlink:href="#j"/><use transform="matrix(0.031111111111111114,0,0,0.031111111111111114,32.97777777777778,0)" xlink:href="#k"/><use transform="matrix(0.031111111111111114,0,0,0.031111111111111114,49.06222222222223,0)" xlink:href="#l"/><use transform="matrix(0.031111111111111114,0,0,0.031111111111111114,60.20000000000001,0)" xlink:href="#m"/><use transform="matrix(0.031111111111111114,0,0,0.031111111111111114,78.05777777777779,0)" xlink:href="#n"/><use transform="matrix(0.031111111111111114,0,0,0.031111111111111114,89.63111111111112,0)" xlink:href="#j"/></g><path d="M315-71c44 0 74-5 107-18 11 18 20 50 21 78-39 15-84 23-135 23C140 15 50-92 50-256c0-165 86-269 251-269 56 0 95 6 135 21 0 26-8 61-17 79-33-11-70-17-112-17-106-1-153 79-153 186 0 119 52 185 161 185" id="o"/><path d="M527-256c0 162-77 268-239 268S49-94 49-256c0-163 77-269 239-269s239 106 239 269zm-373 0c0 107 33 189 134 189s135-82 135-189-34-188-135-188-134 81-134 188" id="p"/><path d="M179 0c-30 5-69 5-99 0v-513c26-5 58-5 84 0 4 18 9 62 9 83 33-51 81-95 164-95 123 0 172 74 172 200V0c-30 5-69 5-99 0v-298c-1-83-18-138-92-138-188 0-129 255-139 436" id="q"/><path d="M207 0c-30 5-67 5-97 0v-435H45c-5-22-5-56 0-78h162V0zm-12-626c-33 5-74 5-107 0-4-31-4-71 0-101 33-5 74-5 107 0 4 31 4 70 0 101" id="r"/><g id="b"><use transform="matrix(0.031111111111111114,0,0,0.031111111111111114,0,0)" xlink:href="#o"/><use transform="matrix(0.031111111111111114,0,0,0.031111111111111114,14.871111111111112,0)" xlink:href="#p"/><use transform="matrix(0.031111111111111114,0,0,0.031111111111111114,32.82222222222222,0)" xlink:href="#q"/><use transform="matrix(0.031111111111111114,0,0,0.031111111111111114,50.80444444444444,0)" xlink:href="#o"/><use transform="matrix(0.031111111111111114,0,0,0.031111111111111114,65.67555555555555,0)" xlink:href="#k"/><use transform="matrix(0.031111111111111114,0,0,0.031111111111111114,81.75999999999999,0)" xlink:href="#l"/><use transform="matrix(0.031111111111111114,0,0,0.031111111111111114,92.89777777777778,0)" xlink:href="#j"/><use transform="matrix(0.031111111111111114,0,0,0.031111111111111114,110.19555555555556,0)" xlink:href="#q"/><use transform="matrix(0.031111111111111114,0,0,0.031111111111111114,128.17777777777778,0)" xlink:href="#k"/><use transform="matrix(0.031111111111111114,0,0,0.031111111111111114,144.26222222222222,0)" xlink:href="#l"/><use transform="matrix(0.031111111111111114,0,0,0.031111111111111114,155.4,0)" xlink:href="#r"/><use transform="matrix(0.031111111111111114,0,0,0.031111111111111114,164.36,0)" xlink:href="#p"/><use transform="matrix(0.031111111111111114,0,0,0.031111111111111114,182.31111111111113,0)" xlink:href="#q"/></g><path d="M170 0c-28 5-66 5-94 0l32-719c34-5 81-5 115 0l186 450 187-450c32-6 78-5 110 0L740 0c-30 5-69 5-99 0l-23-559-176 410c-26 4-53 4-79 0L193-562" id="s"/><path d="M52-247c-2-202 150-315 357-263v-223c30-5 68-5 98 0v719C452 1 390 13 317 12 147 10 53-74 52-247zm105 0C150-94 269-47 409-80v-346c-26-11-56-16-93-16-113 0-154 81-159 195" id="t"/><path d="M288-1C175 26 78-12 78-133v-600c30-5 68-5 98 0v578c-8 70 38 94 103 78 6 23 9 49 9 76" id="u"/><path d="M85 160c27 10 81 18 104-2 38-33 46-105 66-157-23 1-50 2-72-1L13-513c33-4 76-4 109 0L264-36l147-477c29-4 71-4 102 0L314 104c-29 79-55 146-160 145-30 0-62-5-85-12 0-33 6-54 16-77" id="v"/><g id="c"><use transform="matrix(0.031111111111111114,0,0,0.031111111111111114,0,0)" xlink:href="#s"/><use transform="matrix(0.031111111111111114,0,0,0.031111111111111114,25.38666666666667,0)" xlink:href="#p"/><use transform="matrix(0.031111111111111114,0,0,0.031111111111111114,43.33777777777779,0)" xlink:href="#t"/><use transform="matrix(0.031111111111111114,0,0,0.031111111111111114,61.5688888888889,0)" xlink:href="#k"/><use transform="matrix(0.031111111111111114,0,0,0.031111111111111114,77.65333333333335,0)" xlink:href="#u"/><use transform="matrix(0.031111111111111114,0,0,0.031111111111111114,86.92444444444446,0)" xlink:href="#r"/><use transform="matrix(0.031111111111111114,0,0,0.031111111111111114,95.88444444444445,0)" xlink:href="#l"/><use transform="matrix(0.031111111111111114,0,0,0.031111111111111114,107.02222222222224,0)" xlink:href="#v"/></g><path d="M137-449c-19-23-27-43-38-74l266-127h15v565h143c4 31 4 55 0 85H132c-5-26-5-59 0-85h150v-430" id="w"/><use transform="matrix(0.031111111111111114,0,0,0.031111111111111114,0,0)" xlink:href="#w" id="d"/><path d="M508-88c5 26 5 62 0 88H63l-6-13c94-114 198-220 283-341 20-29 35-59 36-103 0-75-53-109-131-109-64 0-101 18-145 36-9-25-22-53-25-84 50-20 104-42 177-41 135 3 229 53 229 188 0 125-69 187-142 270L243-88h265" id="x"/><use transform="matrix(0.031111111111111114,0,0,0.031111111111111114,0,0)" xlink:href="#x" id="e"/><path d="M44-87c79 25 167 7 167-90v-453H85c-5-27-5-63 0-89h228v519c2 139-56 214-193 212-32 0-66-6-92-12 0-32 7-61 16-87" id="y"/><g id="f"><use transform="matrix(0.031111111111111114,0,0,0.031111111111111114,0,0)" xlink:href="#y"/><use transform="matrix(0.031111111111111114,0,0,0.031111111111111114,12.32,0)" xlink:href="#p"/><use transform="matrix(0.031111111111111114,0,0,0.031111111111111114,30.271111111111114,0)" xlink:href="#r"/><use transform="matrix(0.031111111111111114,0,0,0.031111111111111114,39.23111111111112,0)" xlink:href="#q"/><use transform="matrix(0.031111111111111114,0,0,0.031111111111111114,57.21333333333334,0)" xlink:href="#l"/></g><path d="M178 236c-30 5-69 5-99 0v-749c25-5 59-5 84 0 4 20 7 50 10 72 31-48 78-84 156-84 148 0 204 103 208 256C543-65 386 49 178 1v235zm129-675c-84 2-129 58-129 147v208c29 10 50 13 91 13 114 0 164-77 164-194 0-98-30-177-126-174" id="z"/><path d="M199 12C137 13 92 3 48-12c3-29 14-57 23-81 80 40 280 38 231-86-16-41-77-44-119-63-71-30-122-50-122-135 0-101 79-148 191-148 51 0 105 12 142 25-3 28-11 56-21 77-31-11-74-23-118-23-73 0-133 65-68 108 83 54 228 46 222 185C404-38 318 9 199 12" id="A"/><g id="g"><use transform="matrix(0.031111111111111114,0,0,0.031111111111111114,0,0)" xlink:href="#n"/><use transform="matrix(0.031111111111111114,0,0,0.031111111111111114,11.573333333333334,0)" xlink:href="#j"/><use transform="matrix(0.031111111111111114,0,0,0.031111111111111114,28.871111111111112,0)" xlink:href="#z"/><use transform="matrix(0.031111111111111114,0,0,0.031111111111111114,47.226666666666674,0)" xlink:href="#n"/><use transform="matrix(0.031111111111111114,0,0,0.031111111111111114,58.80000000000001,0)" xlink:href="#j"/><use transform="matrix(0.031111111111111114,0,0,0.031111111111111114,76.0977777777778,0)" xlink:href="#A"/><use transform="matrix(0.031111111111111114,0,0,0.031111111111111114,90.25333333333334,0)" xlink:href="#j"/><use transform="matrix(0.031111111111111114,0,0,0.031111111111111114,107.55111111111113,0)" xlink:href="#q"/><use transform="matrix(0.031111111111111114,0,0,0.031111111111111114,125.53333333333335,0)" xlink:href="#l"/><use transform="matrix(0.031111111111111114,0,0,0.031111111111111114,136.67111111111112,0)" xlink:href="#k"/><use transform="matrix(0.031111111111111114,0,0,0.031111111111111114,152.75555555555556,0)" xlink:href="#l"/><use transform="matrix(0.031111111111111114,0,0,0.031111111111111114,163.89333333333335,0)" xlink:href="#r"/><use transform="matrix(0.031111111111111114,0,0,0.031111111111111114,172.85333333333335,0)" xlink:href="#p"/><use transform="matrix(0.031111111111111114,0,0,0.031111111111111114,190.80444444444447,0)" xlink:href="#q"/></g><path d="M407-78c57 1 100-10 140-27 15 29 24 56 28 83-53 23-108 34-181 34C170 12 59-129 59-355c0-227 109-370 333-376 70-2 122 11 171 27-3 34-13 56-24 84-40-14-83-23-139-22-158 2-232 118-230 287 2 170 72 274 237 277" id="B"/><g id="h"><use transform="matrix(0.031111111111111114,0,0,0.031111111111111114,0,0)" xlink:href="#B"/><use transform="matrix(0.031111111111111114,0,0,0.031111111111111114,19.226666666666667,0)" xlink:href="#p"/><use transform="matrix(0.031111111111111114,0,0,0.031111111111111114,37.17777777777778,0)" xlink:href="#q"/><use transform="matrix(0.031111111111111114,0,0,0.031111111111111114,55.16,0)" xlink:href="#A"/><use transform="matrix(0.031111111111111114,0,0,0.031111111111111114,69.31555555555555,0)" xlink:href="#l"/><use transform="matrix(0.031111111111111114,0,0,0.031111111111111114,80.45333333333332,0)" xlink:href="#n"/><use transform="matrix(0.031111111111111114,0,0,0.031111111111111114,92.02666666666666,0)" xlink:href="#k"/><use transform="matrix(0.031111111111111114,0,0,0.031111111111111114,108.1111111111111,0)" xlink:href="#r"/><use transform="matrix(0.031111111111111114,0,0,0.031111111111111114,117.0711111111111,0)" xlink:href="#q"/><use transform="matrix(0.031111111111111114,0,0,0.031111111111111114,135.0533333333333,0)" xlink:href="#j"/><use transform="matrix(0.031111111111111114,0,0,0.031111111111111114,152.3511111111111,0)" xlink:href="#t"/></g></defs></g></svg>