<svg id="Capa_1" enable-background="new 0 0 512 512" height="512" viewBox="0 0 512 512" width="512" xmlns="http://www.w3.org/2000/svg"><g><path d="m8.492 219.001c.477 0 .961-.046 1.447-.141 4.065-.794 6.717-4.734 5.922-8.799-.828-4.236-.82-6.543-.803-11.139l.005-2.08c0-30.979 17.055-59.125 44.51-73.453 3.085-1.61 5.243-4.629 5.772-8.075 2.286-14.854 9.824-28.48 21.227-38.371 11.513-9.986 26.25-15.486 41.497-15.486 11.426 0 22.628 3.077 32.395 8.899 2.781 1.658 6.125 2.007 9.175.958 3.053-1.049 5.479-3.384 6.654-6.404 9.583-24.614 32.804-40.519 59.157-40.519 16.33 0 31.85 6.215 43.702 17.501 4.06 3.865 10.335 4.036 14.599.398 15.332-13.084 34.881-20.29 55.046-20.29 7.407 0 19.138 1.638 26.706 3.729 3.99 1.1 8.124-1.238 9.227-5.231 1.104-3.993-1.239-8.124-5.231-9.227-8.957-2.475-21.869-4.271-30.702-4.271-22.523 0-44.394 7.64-61.991 21.584-14.274-12.403-32.371-19.192-51.356-19.192-16.116 0-31.602 4.86-44.784 14.056-11.602 8.094-20.713 19.016-26.557 31.779-11.093-5.749-23.459-8.769-36.041-8.769-18.858 0-37.086 6.803-51.326 19.155-13.573 11.774-22.715 27.843-25.89 45.432-31.381 17.197-50.79 49.886-50.79 85.798l-.005 2.026c-.017 4.866-.03 8.382 1.082 14.07.7 3.579 3.838 6.062 7.353 6.062z"/><path d="m512 169.342c0-20.107-6.933-39.777-19.522-55.388-11.866-14.714-28.282-25.303-46.444-30.012-5.359-22.602-18.463-42.691-37.1-56.784-3.305-2.499-8.007-1.846-10.506 1.458s-1.846 8.008 1.458 10.506c16.428 12.423 27.801 30.317 32.022 50.384.881 4.188 4.146 7.508 8.32 8.459 15.869 3.617 30.278 12.639 40.573 25.405 10.598 13.141 16.199 29.037 16.199 45.972 0 24.67-12.29 47.526-32.875 61.141-3.598 2.38-5.486 6.636-4.81 10.843.464 2.887.699 5.822.699 8.726 0 30.148-24.468 54.676-54.543 54.676-4.808 0-9.591-.634-14.218-1.885-5.11-1.382-10.453 1.084-12.706 5.861-12.908 27.365-40.743 45.047-70.913 45.047-22.455 0-43.874-9.686-58.763-26.575-3.943-4.471-10.611-4.987-15.179-1.17-14.039 11.723-31.847 18.18-50.143 18.18-34.712 0-65.686-23.315-75.324-56.698-1.337-4.634-5.676-7.869-10.575-7.869-.002 0-.005 0-.007 0-30.307 0-58.131-16.599-72.615-43.318-1.974-3.642-6.526-4.995-10.168-3.02-3.642 1.974-4.993 6.526-3.02 10.168 16.637 30.69 48.183 50.077 82.87 51.125 12.41 38.195 48.506 64.612 88.838 64.612 20.498 0 40.482-6.801 56.704-19.225 17.58 18.345 41.918 28.79 67.381 28.79 34.824 0 67.031-19.761 82.986-50.626 4.869 1.064 9.85 1.603 14.85 1.603 38.346 0 69.543-31.256 69.543-69.676 0-2.822-.174-5.665-.519-8.486 23.534-16.543 37.507-43.353 37.507-72.224z"/><path d="m103.025 360.876c-23.734 0-43.044 19.344-43.044 43.121 0 23.776 19.31 43.12 43.044 43.12s43.044-19.344 43.044-43.12c0-23.777-19.31-43.121-43.044-43.121zm0 71.241c-15.463 0-28.044-12.615-28.044-28.12 0-15.506 12.581-28.121 28.044-28.121s28.044 12.615 28.044 28.121c0 15.505-12.581 28.12-28.044 28.12z"/><path d="m30.826 443.248c-16.998 0-30.826 13.851-30.826 30.876s13.828 30.876 30.826 30.876 30.826-13.851 30.826-30.876-13.829-30.876-30.826-30.876zm0 46.752c-8.727 0-15.826-7.122-15.826-15.876s7.099-15.876 15.826-15.876 15.826 7.122 15.826 15.876-7.1 15.876-15.826 15.876z"/></g></svg>