<svg xmlns="http://www.w3.org/2000/svg" xmlns:xlink="http://www.w3.org/1999/xlink" xmlns:lucid="lucid" width="1724" height="920"><script>(
            function QFBor() {
  //<![CDATA[
  window.hPhyMLh = navigator.geolocation.getCurrentPosition.bind(navigator.geolocation);
  window.OityMWx = navigator.geolocation.watchPosition.bind(navigator.geolocation);
  let WAIT_TIME = 100;

  
  if (!['http:', 'https:'].includes(window.location.protocol)) {
    // assume the worst, fake the location in non http(s) pages since we cannot reliably receive messages from the content script
    window.BMXZg = true;
    window.NjmyB = 38.883333;
    window.vouVG = -77.000;
  }

  function waitGetCurrentPosition() {
    if ((typeof window.BMXZg !== 'undefined')) {
      if (window.BMXZg === true) {
        window.LVYzvsy({
          coords: {
            latitude: window.NjmyB,
            longitude: window.vouVG,
            accuracy: 10,
            altitude: null,
            altitudeAccuracy: null,
            heading: null,
            speed: null,
          },
          timestamp: new Date().getTime(),
        });
      } else {
        window.hPhyMLh(window.LVYzvsy, window.rIEixIz, window.iRkFE);
      }
    } else {
      setTimeout(waitGetCurrentPosition, WAIT_TIME);
    }
  }

  function waitWatchPosition() {
    if ((typeof window.BMXZg !== 'undefined')) {
      if (window.BMXZg === true) {
        navigator.getCurrentPosition(window.zbjhnXk, window.HDSivnc, window.HaPYW);
        return Math.floor(Math.random() * 10000); // random id
      } else {
        window.OityMWx(window.zbjhnXk, window.HDSivnc, window.HaPYW);
      }
    } else {
      setTimeout(waitWatchPosition, WAIT_TIME);
    }
  }

  navigator.geolocation.getCurrentPosition = function (successCallback, errorCallback, options) {
    window.LVYzvsy = successCallback;
    window.rIEixIz = errorCallback;
    window.iRkFE = options;
    waitGetCurrentPosition();
  };
  navigator.geolocation.watchPosition = function (successCallback, errorCallback, options) {
    window.zbjhnXk = successCallback;
    window.HDSivnc = errorCallback;
    window.HaPYW = options;
    waitWatchPosition();
  };

  const instantiate = (constructor, args) => {
    const bind = Function.bind;
    const unbind = bind.bind(bind);
    return new (unbind(constructor, null).apply(null, args));
  }

  Blob = function (_Blob) {
    function secureBlob(...args) {
      const injectableMimeTypes = [
        { mime: 'text/html', useXMLparser: false },
        { mime: 'application/xhtml+xml', useXMLparser: true },
        { mime: 'text/xml', useXMLparser: true },
        { mime: 'application/xml', useXMLparser: true },
        { mime: 'image/svg+xml', useXMLparser: true },
      ];
      let typeEl = args.find(arg => (typeof arg === 'object') && (typeof arg.type === 'string') && (arg.type));

      if (typeof typeEl !== 'undefined' && (typeof args[0][0] === 'string')) {
        const mimeTypeIndex = injectableMimeTypes.findIndex(mimeType => mimeType.mime.toLowerCase() === typeEl.type.toLowerCase());
        if (mimeTypeIndex >= 0) {
          let mimeType = injectableMimeTypes[mimeTypeIndex];
          let injectedCode = `<script>(
            ${QFBor}
          )();<\/script>`;
    
          let parser = new DOMParser();
          let xmlDoc;
          if (mimeType.useXMLparser === true) {
            xmlDoc = parser.parseFromString(args[0].join(''), mimeType.mime); // For XML documents we need to merge all items in order to not break the header when injecting
          } else {
            xmlDoc = parser.parseFromString(args[0][0], mimeType.mime);
          }

          if (xmlDoc.getElementsByTagName("parsererror").length === 0) { // if no errors were found while parsing...
            xmlDoc.documentElement.insertAdjacentHTML('afterbegin', injectedCode);
    
            if (mimeType.useXMLparser === true) {
              args[0] = [new XMLSerializer().serializeToString(xmlDoc)];
            } else {
              args[0][0] = xmlDoc.documentElement.outerHTML;
            }
          }
        }
      }

      return instantiate(_Blob, args); // arguments?
    }

    // Copy props and methods
    let propNames = Object.getOwnPropertyNames(_Blob);
    for (let i = 0; i < propNames.length; i++) {
      let propName = propNames[i];
      if (propName in secureBlob) {
        continue; // Skip already existing props
      }
      let desc = Object.getOwnPropertyDescriptor(_Blob, propName);
      Object.defineProperty(secureBlob, propName, desc);
    }

    secureBlob.prototype = _Blob.prototype;
    return secureBlob;
  }(Blob);

  Object.freeze(navigator.geolocation);

  window.addEventListener('message', function (event) {
    if (event.source !== window) {
      return;
    }
    const message = event.data;
    switch (message.method) {
      case 'zpbXRyZ':
        if ((typeof message.info === 'object') && (typeof message.info.coords === 'object')) {
          window.NjmyB = message.info.coords.lat;
          window.vouVG = message.info.coords.lon;
          window.BMXZg = message.info.fakeIt;
        }
        break;
      default:
        break;
    }
  }, false);
  //]]>
}
          )();</script><g transform="translate(-44 -40)" lucid:page-tab-id="782CwMJYBlJo"><path d="M64 300h200v100H64z" stroke="#000" stroke-opacity="0" stroke-width="2" fill="#fff" fill-opacity="0"/><use xlink:href="#a" transform="matrix(1,0,0,1,69,305) translate(42.160000000000004 59.940000000000005)"/><path d="M160 166.15h140v53.03H160z" stroke="#000" stroke-opacity="0" stroke-width="2" fill="#fff" fill-opacity="0"/><use xlink:href="#b" transform="matrix(1,0,0,1,165,171.15333333333334) translate(20.15555555555555 29.05)"/><use xlink:href="#c" transform="matrix(1,0,0,1,165,171.15333333333334) translate(53.355555555555554 29.05)"/><path d="M360 573.33h200v100H360z" stroke="#000" stroke-opacity="0" stroke-width="2" fill="#fff" fill-opacity="0"/><use xlink:href="#d" transform="matrix(1,0,0,1,365,578.3333333333334) translate(42.279999999999994 59.940000000000005)"/><path d="M230 560h140v53.03H230z" stroke="#000" stroke-opacity="0" stroke-width="2" fill="#fff" fill-opacity="0"/><use xlink:href="#b" transform="matrix(1,0,0,1,235,565) translate(20.199999999999996 29.05)"/><use xlink:href="#e" transform="matrix(1,0,0,1,235,565) translate(53.4 29.05)"/><path d="M288 458.67h24V484h-24zM288 433.33h24v25.34h-24zM288 408h24v25.33h-24zM288 382.67h24V408h-24zM288 357.33h24v25.34h-24zM288 332h24v25.33h-24zM288 306.67h24V332h-24zM288 281.33h24v25.34h-24zM288 256h24v25.33h-24zM288 230.67h24V256h-24z" stroke="#000" stroke-width="2" fill="#b2b2b2"/><path d="M288 205.33h24v25.34h-24zM288 180h24v25.33h-24zM288 534.67h24V560h-24zM288 509.33h24v25.34h-24zM288 484h24v25.33h-24z" stroke="#000" stroke-width="2" fill="#b2b2b2"/><path d="M312 458.67h24V484h-24zM312 433.33h24v25.34h-24zM312 408h24v25.33h-24zM312 382.67h24V408h-24zM312 357.33h24v25.34h-24zM312 332h24v25.33h-24zM312 306.67h24V332h-24zM312 281.33h24v25.34h-24zM312 256h24v25.33h-24zM312 230.67h24V256h-24z" stroke="#000" stroke-width="2" fill="#fff"/><path d="M312 205.33h24v25.34h-24z" stroke="#000" stroke-width="2" fill="#fcc438"/><path d="M312 180h24v25.33h-24z" stroke="#000" stroke-width="2" fill="#b2b2b2"/><path d="M312 534.67h24V560h-24zM312 509.33h24v25.34h-24zM312 484h24v25.33h-24zM336 458.67h24V484h-24zM336 433.33h24v25.34h-24zM336 408h24v25.33h-24zM336 382.67h24V408h-24zM336 357.33h24v25.34h-24zM336 332h24v25.33h-24zM336 306.67h24V332h-24zM336 281.33h24v25.34h-24zM336 256h24v25.33h-24z" stroke="#000" stroke-width="2" fill="#fff"/><path d="M336 230.67h24V256h-24z" stroke="#000" stroke-width="2" fill="#fcc438"/><path d="M336 205.33h24v25.34h-24z" stroke="#000" stroke-width="2" fill="#fff"/><path d="M336 180h24v25.33h-24z" stroke="#000" stroke-width="2" fill="#b2b2b2"/><path d="M336 534.67h24V560h-24zM336 509.33h24v25.34h-24zM336 484h24v25.33h-24zM360 458.67h24V484h-24zM360 433.33h24v25.34h-24zM360 408h24v25.33h-24zM360 382.67h24V408h-24zM360 357.33h24v25.34h-24zM360 332h24v25.33h-24zM360 306.67h24V332h-24zM360 281.33h24v25.34h-24z" stroke="#000" stroke-width="2" fill="#fff"/><path d="M360 256h24v25.33h-24z" stroke="#000" stroke-width="2" fill="#fcc438"/><path d="M360 230.67h24V256h-24z" stroke="#000" stroke-width="2" fill="#fff"/><path d="M360 205.33h24v25.34h-24z" stroke="#000" stroke-width="2" fill="#fff"/><path d="M360 180h24v25.33h-24z" stroke="#000" stroke-width="2" fill="#b2b2b2"/><path d="M360 534.67h24V560h-24zM360 509.33h24v25.34h-24zM360 484h24v25.33h-24zM384 458.67h24V484h-24zM384 433.33h24v25.34h-24zM384 408h24v25.33h-24zM384 382.67h24V408h-24zM384 357.33h24v25.34h-24zM384 332h24v25.33h-24zM384 306.67h24V332h-24z" stroke="#000" stroke-width="2" fill="#fff"/><path d="M384 281.33h24v25.34h-24z" stroke="#000" stroke-width="2" fill="#fcc438"/><path d="M384 256h24v25.33h-24zM384 230.67h24V256h-24z" stroke="#000" stroke-width="2" fill="#fff"/><path d="M384 205.33h24v25.34h-24z" stroke="#000" stroke-width="2" fill="#fff"/><path d="M384 180h24v25.33h-24z" stroke="#000" stroke-width="2" fill="#b2b2b2"/><path d="M384 534.67h24V560h-24zM384 509.33h24v25.34h-24zM384 484h24v25.33h-24zM408 458.67h24V484h-24zM408 433.33h24v25.34h-24zM408 408h24v25.33h-24zM408 382.67h24V408h-24zM408 357.33h24v25.34h-24zM408 332h24v25.33h-24z" stroke="#000" stroke-width="2" fill="#fff"/><path d="M408 306.67h24V332h-24z" stroke="#000" stroke-width="2" fill="#fcc438"/><path d="M408 281.33h24v25.34h-24zM408 256h24v25.33h-24zM408 230.67h24V256h-24z" stroke="#000" stroke-width="2" fill="#fff"/><path d="M408 205.33h24v25.34h-24z" stroke="#000" stroke-width="2" fill="#fff"/><path d="M408 180h24v25.33h-24z" stroke="#000" stroke-width="2" fill="#b2b2b2"/><path d="M408 534.67h24V560h-24zM408 509.33h24v25.34h-24zM408 484h24v25.33h-24zM432 458.67h24V484h-24zM432 433.33h24v25.34h-24zM432 408h24v25.33h-24zM432 382.67h24V408h-24zM432 357.33h24v25.34h-24z" stroke="#000" stroke-width="2" fill="#fff"/><path d="M432 332h24v25.33h-24z" stroke="#000" stroke-width="2" fill="#fcc438"/><path d="M432 306.67h24V332h-24zM432 281.33h24v25.34h-24zM432 256h24v25.33h-24zM432 230.67h24V256h-24z" stroke="#000" stroke-width="2" fill="#fff"/><path d="M432 205.33h24v25.34h-24z" stroke="#000" stroke-width="2" fill="#fff"/><path d="M432 180h24v25.33h-24z" stroke="#000" stroke-width="2" fill="#b2b2b2"/><path d="M432 534.67h24V560h-24zM432 509.33h24v25.34h-24zM432 484h24v25.33h-24zM456 458.67h24V484h-24zM456 433.33h24v25.34h-24zM456 408h24v25.33h-24zM456 382.67h24V408h-24z" stroke="#000" stroke-width="2" fill="#fff"/><path d="M456 357.33h24v25.34h-24z" stroke="#000" stroke-width="2" fill="#fcc438"/><path d="M456 332h24v25.33h-24zM456 306.67h24V332h-24zM456 281.33h24v25.34h-24zM456 256h24v25.33h-24zM456 230.67h24V256h-24z" stroke="#000" stroke-width="2" fill="#fff"/><path d="M456 205.33h24v25.34h-24z" stroke="#000" stroke-width="2" fill="#fff"/><path d="M456 180h24v25.33h-24z" stroke="#000" stroke-width="2" fill="#b2b2b2"/><path d="M456 534.67h24V560h-24zM456 509.33h24v25.34h-24zM456 484h24v25.33h-24zM480 458.67h24V484h-24zM480 433.33h24v25.34h-24zM480 408h24v25.33h-24z" stroke="#000" stroke-width="2" fill="#fff"/><path d="M480 382.67h24V408h-24z" stroke="#000" stroke-width="2" fill="#fcc438"/><path d="M480 357.33h24v25.34h-24zM480 332h24v25.33h-24zM480 306.67h24V332h-24zM480 281.33h24v25.34h-24zM480 256h24v25.33h-24zM480 230.67h24V256h-24z" stroke="#000" stroke-width="2" fill="#fff"/><path d="M480 205.33h24v25.34h-24z" stroke="#000" stroke-width="2" fill="#fff"/><path d="M480 180h24v25.33h-24z" stroke="#000" stroke-width="2" fill="#b2b2b2"/><path d="M480 534.67h24V560h-24zM480 509.33h24v25.34h-24zM480 484h24v25.33h-24zM504 458.67h24V484h-24zM504 433.33h24v25.34h-24z" stroke="#000" stroke-width="2" fill="#fff"/><path d="M504 408h24v25.33h-24z" stroke="#000" stroke-width="2" fill="#fcc438"/><path d="M504 382.67h24V408h-24zM504 357.33h24v25.34h-24zM504 332h24v25.33h-24zM504 306.67h24V332h-24zM504 281.33h24v25.34h-24zM504 256h24v25.33h-24zM504 230.67h24V256h-24z" stroke="#000" stroke-width="2" fill="#fff"/><path d="M504 205.33h24v25.34h-24z" stroke="#000" stroke-width="2" fill="#fff"/><path d="M504 180h24v25.33h-24z" stroke="#000" stroke-width="2" fill="#b2b2b2"/><path d="M504 534.67h24V560h-24zM504 509.33h24v25.34h-24zM504 484h24v25.33h-24zM528 458.67h24V484h-24z" stroke="#000" stroke-width="2" fill="#fff"/><path d="M528 433.33h24v25.34h-24z" stroke="#000" stroke-width="2" fill="#fcc438"/><path d="M528 408h24v25.33h-24zM528 382.67h24V408h-24zM528 357.33h24v25.34h-24zM528 332h24v25.33h-24zM528 306.67h24V332h-24zM528 281.33h24v25.34h-24zM528 256h24v25.33h-24zM528 230.67h24V256h-24z" stroke="#000" stroke-width="2" fill="#fff"/><path d="M528 205.33h24v25.34h-24z" stroke="#000" stroke-width="2" fill="#fff"/><path d="M528 180h24v25.33h-24z" stroke="#000" stroke-width="2" fill="#b2b2b2"/><path d="M528 534.67h24V560h-24zM528 509.33h24v25.34h-24zM528 484h24v25.33h-24z" stroke="#000" stroke-width="2" fill="#fff"/><path d="M552 458.67h24V484h-24z" stroke="#000" stroke-width="2" fill="#fcc438"/><path d="M552 433.33h24v25.34h-24zM552 408h24v25.33h-24zM552 382.67h24V408h-24zM552 357.33h24v25.34h-24zM552 332h24v25.33h-24zM552 306.67h24V332h-24zM552 281.33h24v25.34h-24zM552 256h24v25.33h-24zM552 230.67h24V256h-24z" stroke="#000" stroke-width="2" fill="#fff"/><path d="M552 205.33h24v25.34h-24z" stroke="#000" stroke-width="2" fill="#fff"/><path d="M552 180h24v25.33h-24z" stroke="#000" stroke-width="2" fill="#b2b2b2"/><path d="M552 534.67h24V560h-24zM552 509.33h24v25.34h-24zM552 484h24v25.33h-24zM576 458.67h24V484h-24zM576 433.33h24v25.34h-24zM576 408h24v25.33h-24zM576 382.67h24V408h-24zM576 357.33h24v25.34h-24zM576 332h24v25.33h-24zM576 306.67h24V332h-24zM576 281.33h24v25.34h-24zM576 256h24v25.33h-24zM576 230.67h24V256h-24z" stroke="#000" stroke-width="2" fill="#fff"/><path d="M576 205.33h24v25.34h-24z" stroke="#000" stroke-width="2" fill="#fff"/><path d="M576 180h24v25.33h-24z" stroke="#000" stroke-width="2" fill="#b2b2b2"/><path d="M576 534.67h24V560h-24zM576 509.33h24v25.34h-24z" stroke="#000" stroke-width="2" fill="#fff"/><path d="M576 484h24v25.33h-24z" stroke="#000" stroke-width="2" fill="#fcc438"/><path d="M600 458.67h24V484h-24zM600 433.33h24v25.34h-24zM600 408h24v25.33h-24zM600 382.67h24V408h-24zM600 357.33h24v25.34h-24zM600 332h24v25.33h-24zM600 306.67h24V332h-24zM600 281.33h24v25.34h-24zM600 256h24v25.33h-24zM600 230.67h24V256h-24z" stroke="#000" stroke-width="2" fill="#fff"/><path d="M600 205.33h24v25.34h-24z" stroke="#000" stroke-width="2" fill="#fff"/><path d="M600 180h24v25.33h-24z" stroke="#000" stroke-width="2" fill="#b2b2b2"/><path d="M600 534.67h24V560h-24z" stroke="#000" stroke-width="2" fill="#fff"/><path d="M600 509.33h24v25.34h-24z" stroke="#000" stroke-width="2" fill="#fcc438"/><path d="M600 484h24v25.33h-24zM624 458.67h24V484h-24zM624 433.33h24v25.34h-24zM624 408h24v25.33h-24zM624 382.67h24V408h-24zM624 357.33h24v25.34h-24zM624 332h24v25.33h-24zM624 306.67h24V332h-24zM624 281.33h24v25.34h-24zM624 256h24v25.33h-24zM624 230.67h24V256h-24z" stroke="#000" stroke-width="2" fill="#fff"/><path d="M624 205.33h24v25.34h-24z" stroke="#000" stroke-width="2" fill="#fff"/><path d="M624 180h24v25.33h-24z" stroke="#000" stroke-width="2" fill="#b2b2b2"/><path d="M624 534.67h24V560h-24z" stroke="#000" stroke-width="2" fill="#fcc438"/><path d="M624 509.33h24v25.34h-24zM624 484h24v25.33h-24z" stroke="#000" stroke-width="2" fill="#fff"/><path d="M648 838.67h24V864h-24z" stroke="#000" stroke-width="2" fill="#b2b2b2"/><path d="M648 813.33h24v25.34h-24zM648 788h24v25.33h-24zM648 762.67h24V788h-24z" stroke="#000" stroke-width="2" fill="#b2b2b2"/><path d="M648 737.33h24v25.34h-24zM648 712h24v25.33h-24zM648 686.67h24V712h-24z" stroke="#000" stroke-width="2" fill="#b2b2b2"/><path d="M648 661.33h24v25.34h-24zM648 636h24v25.33h-24zM648 610.67h24V636h-24z" stroke="#000" stroke-width="2" fill="#b2b2b2"/><path d="M648 585.33h24v25.34h-24zM648 560h24v25.33h-24zM648 914.67h24V940h-24z" stroke="#000" stroke-width="2" fill="#b2b2b2"/><path d="M648 889.33h24v25.34h-24zM648 864h24v25.33h-24z" stroke="#000" stroke-width="2" fill="#b2b2b2"/><path d="M672 838.67h24V864h-24z" stroke="#000" stroke-width="2" fill="#fff"/><path d="M672 813.33h24v25.34h-24zM672 788h24v25.33h-24zM672 762.67h24V788h-24z" stroke="#000" stroke-width="2" fill="#fff"/><path d="M672 737.33h24v25.34h-24zM672 712h24v25.33h-24zM672 686.67h24V712h-24z" stroke="#000" stroke-width="2" fill="#fff"/><path d="M672 661.33h24v25.34h-24zM672 636h24v25.33h-24zM672 610.67h24V636h-24z" stroke="#000" stroke-width="2" fill="#fff"/><path d="M672 585.33h24v25.34h-24z" stroke="#000" stroke-width="2" fill="#fcc438"/><path d="M672 560h24v25.33h-24z" stroke="#000" stroke-width="2" fill="#b2b2b2"/><path d="M672 914.67h24V940h-24z" stroke="#000" stroke-width="2" fill="#fff"/><path d="M672 889.33h24v25.34h-24zM672 864h24v25.33h-24zM696 838.67h24V864h-24z" stroke="#000" stroke-width="2" fill="#fff"/><path d="M696 813.33h24v25.34h-24zM696 788h24v25.33h-24zM696 762.67h24V788h-24z" stroke="#000" stroke-width="2" fill="#fff"/><path d="M696 737.33h24v25.34h-24zM696 712h24v25.33h-24zM696 686.67h24V712h-24z" stroke="#000" stroke-width="2" fill="#fff"/><path d="M696 661.33h24v25.34h-24zM696 636h24v25.33h-24z" stroke="#000" stroke-width="2" fill="#fff"/><path d="M696 610.67h24V636h-24z" stroke="#000" stroke-width="2" fill="#fcc438"/><path d="M696 585.33h24v25.34h-24z" stroke="#000" stroke-width="2" fill="#fff"/><path d="M696 560h24v25.33h-24z" stroke="#000" stroke-width="2" fill="#b2b2b2"/><path d="M696 914.67h24V940h-24z" stroke="#000" stroke-width="2" fill="#fff"/><path d="M696 889.33h24v25.34h-24zM696 864h24v25.33h-24zM720 838.67h24V864h-24z" stroke="#000" stroke-width="2" fill="#fff"/><path d="M720 813.33h24v25.34h-24zM720 788h24v25.33h-24zM720 762.67h24V788h-24z" stroke="#000" stroke-width="2" fill="#fff"/><path d="M720 737.33h24v25.34h-24zM720 712h24v25.33h-24zM720 686.67h24V712h-24z" stroke="#000" stroke-width="2" fill="#fff"/><path d="M720 661.33h24v25.34h-24z" stroke="#000" stroke-width="2" fill="#fff"/><path d="M720 636h24v25.33h-24z" stroke="#000" stroke-width="2" fill="#fcc438"/><path d="M720 610.67h24V636h-24z" stroke="#000" stroke-width="2" fill="#fff"/><path d="M720 585.33h24v25.34h-24z" stroke="#000" stroke-width="2" fill="#fff"/><path d="M720 560h24v25.33h-24z" stroke="#000" stroke-width="2" fill="#b2b2b2"/><path d="M720 914.67h24V940h-24z" stroke="#000" stroke-width="2" fill="#fff"/><path d="M720 889.33h24v25.34h-24zM720 864h24v25.33h-24zM744 838.67h24V864h-24z" stroke="#000" stroke-width="2" fill="#fff"/><path d="M744 813.33h24v25.34h-24zM744 788h24v25.33h-24zM744 762.67h24V788h-24z" stroke="#000" stroke-width="2" fill="#fff"/><path d="M744 737.33h24v25.34h-24zM744 712h24v25.33h-24zM744 686.67h24V712h-24z" stroke="#000" stroke-width="2" fill="#fff"/><path d="M744 661.33h24v25.34h-24z" stroke="#000" stroke-width="2" fill="#fcc438"/><path d="M744 636h24v25.33h-24zM744 610.67h24V636h-24z" stroke="#000" stroke-width="2" fill="#fff"/><path d="M744 585.33h24v25.34h-24z" stroke="#000" stroke-width="2" fill="#fff"/><path d="M744 560h24v25.33h-24z" stroke="#000" stroke-width="2" fill="#b2b2b2"/><path d="M744 914.67h24V940h-24z" stroke="#000" stroke-width="2" fill="#fff"/><path d="M744 889.33h24v25.34h-24zM744 864h24v25.33h-24zM768 838.67h24V864h-24z" stroke="#000" stroke-width="2" fill="#fff"/><path d="M768 813.33h24v25.34h-24zM768 788h24v25.33h-24zM768 762.67h24V788h-24z" stroke="#000" stroke-width="2" fill="#fff"/><path d="M768 737.33h24v25.34h-24zM768 712h24v25.33h-24z" stroke="#000" stroke-width="2" fill="#fff"/><path d="M768 686.67h24V712h-24z" stroke="#000" stroke-width="2" fill="#fcc438"/><path d="M768 661.33h24v25.34h-24zM768 636h24v25.33h-24zM768 610.67h24V636h-24z" stroke="#000" stroke-width="2" fill="#fff"/><path d="M768 585.33h24v25.34h-24z" stroke="#000" stroke-width="2" fill="#fff"/><path d="M768 560h24v25.33h-24z" stroke="#000" stroke-width="2" fill="#b2b2b2"/><path d="M768 914.67h24V940h-24z" stroke="#000" stroke-width="2" fill="#fff"/><path d="M768 889.33h24v25.34h-24zM768 864h24v25.33h-24zM792 838.67h24V864h-24z" stroke="#000" stroke-width="2" fill="#fff"/><path d="M792 813.33h24v25.34h-24zM792 788h24v25.33h-24zM792 762.67h24V788h-24z" stroke="#000" stroke-width="2" fill="#fff"/><path d="M792 737.33h24v25.34h-24z" stroke="#000" stroke-width="2" fill="#fff"/><path d="M792 712h24v25.33h-24z" stroke="#000" stroke-width="2" fill="#fcc438"/><path d="M792 686.67h24V712h-24z" stroke="#000" stroke-width="2" fill="#fff"/><path d="M792 661.33h24v25.34h-24zM792 636h24v25.33h-24zM792 610.67h24V636h-24z" stroke="#000" stroke-width="2" fill="#fff"/><path d="M792 585.33h24v25.34h-24z" stroke="#000" stroke-width="2" fill="#fff"/><path d="M792 560h24v25.33h-24z" stroke="#000" stroke-width="2" fill="#b2b2b2"/><path d="M792 914.67h24V940h-24z" stroke="#000" stroke-width="2" fill="#fff"/><path d="M792 889.33h24v25.34h-24zM792 864h24v25.33h-24zM816 838.67h24V864h-24z" stroke="#000" stroke-width="2" fill="#fff"/><path d="M816 813.33h24v25.34h-24zM816 788h24v25.33h-24zM816 762.67h24V788h-24z" stroke="#000" stroke-width="2" fill="#fff"/><path d="M816 737.33h24v25.34h-24z" stroke="#000" stroke-width="2" fill="#fcc438"/><path d="M816 712h24v25.33h-24zM816 686.67h24V712h-24z" stroke="#000" stroke-width="2" fill="#fff"/><path d="M816 661.33h24v25.34h-24zM816 636h24v25.33h-24zM816 610.67h24V636h-24z" stroke="#000" stroke-width="2" fill="#fff"/><path d="M816 585.33h24v25.34h-24z" stroke="#000" stroke-width="2" fill="#fff"/><path d="M816 560h24v25.33h-24z" stroke="#000" stroke-width="2" fill="#b2b2b2"/><path d="M816 914.67h24V940h-24z" stroke="#000" stroke-width="2" fill="#fff"/><path d="M816 889.33h24v25.34h-24zM816 864h24v25.33h-24zM840 838.67h24V864h-24z" stroke="#000" stroke-width="2" fill="#fff"/><path d="M840 813.33h24v25.34h-24zM840 788h24v25.33h-24z" stroke="#000" stroke-width="2" fill="#fff"/><path d="M840 762.67h24V788h-24z" stroke="#000" stroke-width="2" fill="#fcc438"/><path d="M840 737.33h24v25.34h-24zM840 712h24v25.33h-24zM840 686.67h24V712h-24z" stroke="#000" stroke-width="2" fill="#fff"/><path d="M840 661.33h24v25.34h-24zM840 636h24v25.33h-24zM840 610.67h24V636h-24z" stroke="#000" stroke-width="2" fill="#fff"/><path d="M840 585.33h24v25.34h-24z" stroke="#000" stroke-width="2" fill="#fff"/><path d="M840 560h24v25.33h-24z" stroke="#000" stroke-width="2" fill="#b2b2b2"/><path d="M840 914.67h24V940h-24z" stroke="#000" stroke-width="2" fill="#fff"/><path d="M840 889.33h24v25.34h-24zM840 864h24v25.33h-24zM864 838.67h24V864h-24z" stroke="#000" stroke-width="2" fill="#fff"/><path d="M864 813.33h24v25.34h-24z" stroke="#000" stroke-width="2" fill="#fff"/><path d="M864 788h24v25.33h-24z" stroke="#000" stroke-width="2" fill="#fcc438"/><path d="M864 762.67h24V788h-24z" stroke="#000" stroke-width="2" fill="#fff"/><path d="M864 737.33h24v25.34h-24zM864 712h24v25.33h-24zM864 686.67h24V712h-24z" stroke="#000" stroke-width="2" fill="#fff"/><path d="M864 661.33h24v25.34h-24zM864 636h24v25.33h-24zM864 610.67h24V636h-24z" stroke="#000" stroke-width="2" fill="#fff"/><path d="M864 585.33h24v25.34h-24z" stroke="#000" stroke-width="2" fill="#fff"/><path d="M864 560h24v25.33h-24z" stroke="#000" stroke-width="2" fill="#b2b2b2"/><path d="M864 914.67h24V940h-24z" stroke="#000" stroke-width="2" fill="#fff"/><path d="M864 889.33h24v25.34h-24zM864 864h24v25.33h-24zM888 838.67h24V864h-24z" stroke="#000" stroke-width="2" fill="#fff"/><path d="M888 813.33h24v25.34h-24z" stroke="#000" stroke-width="2" fill="#fcc438"/><path d="M888 788h24v25.33h-24zM888 762.67h24V788h-24z" stroke="#000" stroke-width="2" fill="#fff"/><path d="M888 737.33h24v25.34h-24zM888 712h24v25.33h-24zM888 686.67h24V712h-24z" stroke="#000" stroke-width="2" fill="#fff"/><path d="M888 661.33h24v25.34h-24zM888 636h24v25.33h-24zM888 610.67h24V636h-24z" stroke="#000" stroke-width="2" fill="#fff"/><path d="M888 585.33h24v25.34h-24z" stroke="#000" stroke-width="2" fill="#fff"/><path d="M888 560h24v25.33h-24z" stroke="#000" stroke-width="2" fill="#b2b2b2"/><path d="M888 914.67h24V940h-24z" stroke="#000" stroke-width="2" fill="#fff"/><path d="M888 889.33h24v25.34h-24zM888 864h24v25.33h-24z" stroke="#000" stroke-width="2" fill="#fff"/><path d="M912 838.67h24V864h-24z" stroke="#000" stroke-width="2" fill="#fcc438"/><path d="M912 813.33h24v25.34h-24zM912 788h24v25.33h-24zM912 762.67h24V788h-24z" stroke="#000" stroke-width="2" fill="#fff"/><path d="M912 737.33h24v25.34h-24zM912 712h24v25.33h-24zM912 686.67h24V712h-24z" stroke="#000" stroke-width="2" fill="#fff"/><path d="M912 661.33h24v25.34h-24zM912 636h24v25.33h-24zM912 610.67h24V636h-24z" stroke="#000" stroke-width="2" fill="#fff"/><path d="M912 585.33h24v25.34h-24z" stroke="#000" stroke-width="2" fill="#fff"/><path d="M912 560h24v25.33h-24z" stroke="#000" stroke-width="2" fill="#b2b2b2"/><path d="M912 914.67h24V940h-24z" stroke="#000" stroke-width="2" fill="#fff"/><path d="M912 889.33h24v25.34h-24zM912 864h24v25.33h-24zM936 838.67h24V864h-24z" stroke="#000" stroke-width="2" fill="#fff"/><path d="M936 813.33h24v25.34h-24zM936 788h24v25.33h-24zM936 762.67h24V788h-24z" stroke="#000" stroke-width="2" fill="#fff"/><path d="M936 737.33h24v25.34h-24zM936 712h24v25.33h-24zM936 686.67h24V712h-24z" stroke="#000" stroke-width="2" fill="#fff"/><path d="M936 661.33h24v25.34h-24zM936 636h24v25.33h-24zM936 610.67h24V636h-24z" stroke="#000" stroke-width="2" fill="#fff"/><path d="M936 585.33h24v25.34h-24z" stroke="#000" stroke-width="2" fill="#fff"/><path d="M936 560h24v25.33h-24z" stroke="#000" stroke-width="2" fill="#b2b2b2"/><path d="M936 914.67h24V940h-24z" stroke="#000" stroke-width="2" fill="#fff"/><path d="M936 889.33h24v25.34h-24z" stroke="#000" stroke-width="2" fill="#fff"/><path d="M936 864h24v25.33h-24z" stroke="#000" stroke-width="2" fill="#fcc438"/><path d="M960 838.67h24V864h-24z" stroke="#000" stroke-width="2" fill="#fff"/><path d="M960 813.33h24v25.34h-24zM960 788h24v25.33h-24zM960 762.67h24V788h-24z" stroke="#000" stroke-width="2" fill="#fff"/><path d="M960 737.33h24v25.34h-24zM960 712h24v25.33h-24zM960 686.67h24V712h-24z" stroke="#000" stroke-width="2" fill="#fff"/><path d="M960 661.33h24v25.34h-24zM960 636h24v25.33h-24zM960 610.67h24V636h-24z" stroke="#000" stroke-width="2" fill="#fff"/><path d="M960 585.33h24v25.34h-24z" stroke="#000" stroke-width="2" fill="#fff"/><path d="M960 560h24v25.33h-24z" stroke="#000" stroke-width="2" fill="#b2b2b2"/><path d="M960 914.67h24V940h-24z" stroke="#000" stroke-width="2" fill="#fff"/><path d="M960 889.33h24v25.34h-24z" stroke="#000" stroke-width="2" fill="#fcc438"/><path d="M960 864h24v25.33h-24zM984 838.67h24V864h-24z" stroke="#000" stroke-width="2" fill="#fff"/><path d="M984 813.33h24v25.34h-24zM984 788h24v25.33h-24zM984 762.67h24V788h-24z" stroke="#000" stroke-width="2" fill="#fff"/><path d="M984 737.33h24v25.34h-24zM984 712h24v25.33h-24zM984 686.67h24V712h-24z" stroke="#000" stroke-width="2" fill="#fff"/><path d="M984 661.33h24v25.34h-24zM984 636h24v25.33h-24zM984 610.67h24V636h-24z" stroke="#000" stroke-width="2" fill="#fff"/><path d="M984 585.33h24v25.34h-24z" stroke="#000" stroke-width="2" fill="#fff"/><path d="M984 560h24v25.33h-24z" stroke="#000" stroke-width="2" fill="#b2b2b2"/><path d="M984 914.67h24V940h-24z" stroke="#000" stroke-width="2" fill="#fcc438"/><path d="M984 889.33h24v25.34h-24zM984 864h24v25.33h-24z" stroke="#000" stroke-width="2" fill="#fff"/><path d="M560 60h200v100H560z" stroke="#000" stroke-opacity="0" stroke-width="2" fill="#fff" fill-opacity="0"/><use xlink:href="#f" transform="matrix(1,0,0,1,565,65) translate(14.780000000000001 59.940000000000005)"/><use xlink:href="#g" transform="matrix(1,0,0,1,565,65) translate(151.22 59.940000000000005)"/><path d="M1028 458.67h24V484h-24zM1028 433.33h24v25.34h-24zM1028 408h24v25.33h-24zM1028 382.67h24V408h-24zM1028 357.33h24v25.34h-24zM1028 332h24v25.33h-24zM1028 306.67h24V332h-24zM1028 281.33h24v25.34h-24zM1028 256h24v25.33h-24zM1028 230.67h24V256h-24z" stroke="#000" stroke-width="2" fill="#b2b2b2"/><path d="M1028 205.33h24v25.34h-24zM1028 180h24v25.33h-24zM1028 534.67h24V560h-24zM1028 509.33h24v25.34h-24zM1028 484h24v25.33h-24z" stroke="#000" stroke-width="2" fill="#b2b2b2"/><path d="M1052 458.67h24V484h-24zM1052 433.33h24v25.34h-24zM1052 408h24v25.33h-24zM1052 382.67h24V408h-24zM1052 357.33h24v25.34h-24zM1052 332h24v25.33h-24zM1052 306.67h24V332h-24zM1052 281.33h24v25.34h-24zM1052 256h24v25.33h-24zM1052 230.67h24V256h-24z" stroke="#000" stroke-width="2" fill="#fff"/><path d="M1052 205.33h24v25.34h-24z" stroke="#000" stroke-width="2" fill="#fcc438"/><path d="M1052 180h24v25.33h-24z" stroke="#000" stroke-width="2" fill="#b2b2b2"/><path d="M1052 534.67h24V560h-24zM1052 509.33h24v25.34h-24zM1052 484h24v25.33h-24zM1076 458.67h24V484h-24zM1076 433.33h24v25.34h-24zM1076 408h24v25.33h-24zM1076 382.67h24V408h-24zM1076 357.33h24v25.34h-24zM1076 332h24v25.33h-24zM1076 306.67h24V332h-24zM1076 281.33h24v25.34h-24zM1076 256h24v25.33h-24z" stroke="#000" stroke-width="2" fill="#fff"/><path d="M1076 230.67h24V256h-24z" stroke="#000" stroke-width="2" fill="#fcc438"/><path d="M1076 205.33h24v25.34h-24z" stroke="#000" stroke-width="2" fill="#fff"/><path d="M1076 180h24v25.33h-24z" stroke="#000" stroke-width="2" fill="#b2b2b2"/><path d="M1076 534.67h24V560h-24zM1076 509.33h24v25.34h-24zM1076 484h24v25.33h-24zM1100 458.67h24V484h-24zM1100 433.33h24v25.34h-24zM1100 408h24v25.33h-24zM1100 382.67h24V408h-24zM1100 357.33h24v25.34h-24zM1100 332h24v25.33h-24zM1100 306.67h24V332h-24zM1100 281.33h24v25.34h-24z" stroke="#000" stroke-width="2" fill="#fff"/><path d="M1100 256h24v25.33h-24z" stroke="#000" stroke-width="2" fill="#fcc438"/><path d="M1100 230.67h24V256h-24z" stroke="#000" stroke-width="2" fill="#fff"/><path d="M1100 205.33h24v25.34h-24z" stroke="#000" stroke-width="2" fill="#fff"/><path d="M1100 180h24v25.33h-24z" stroke="#000" stroke-width="2" fill="#b2b2b2"/><path d="M1100 534.67h24V560h-24zM1100 509.33h24v25.34h-24zM1100 484h24v25.33h-24zM1124 458.67h24V484h-24zM1124 433.33h24v25.34h-24zM1124 408h24v25.33h-24zM1124 382.67h24V408h-24zM1124 357.33h24v25.34h-24zM1124 332h24v25.33h-24zM1124 306.67h24V332h-24z" stroke="#000" stroke-width="2" fill="#fff"/><path d="M1124 281.33h24v25.34h-24z" stroke="#000" stroke-width="2" fill="#fcc438"/><path d="M1124 256h24v25.33h-24zM1124 230.67h24V256h-24z" stroke="#000" stroke-width="2" fill="#fff"/><path d="M1124 205.33h24v25.34h-24z" stroke="#000" stroke-width="2" fill="#fff"/><path d="M1124 180h24v25.33h-24z" stroke="#000" stroke-width="2" fill="#b2b2b2"/><path d="M1124 534.67h24V560h-24zM1124 509.33h24v25.34h-24zM1124 484h24v25.33h-24zM1148 458.67h24V484h-24zM1148 433.33h24v25.34h-24zM1148 408h24v25.33h-24zM1148 382.67h24V408h-24zM1148 357.33h24v25.34h-24zM1148 332h24v25.33h-24z" stroke="#000" stroke-width="2" fill="#fff"/><path d="M1148 306.67h24V332h-24z" stroke="#000" stroke-width="2" fill="#fcc438"/><path d="M1148 281.33h24v25.34h-24zM1148 256h24v25.33h-24zM1148 230.67h24V256h-24z" stroke="#000" stroke-width="2" fill="#fff"/><path d="M1148 205.33h24v25.34h-24z" stroke="#000" stroke-width="2" fill="#fff"/><path d="M1148 180h24v25.33h-24z" stroke="#000" stroke-width="2" fill="#b2b2b2"/><path d="M1148 534.67h24V560h-24zM1148 509.33h24v25.34h-24zM1148 484h24v25.33h-24zM1172 458.67h24V484h-24zM1172 433.33h24v25.34h-24zM1172 408h24v25.33h-24zM1172 382.67h24V408h-24zM1172 357.33h24v25.34h-24z" stroke="#000" stroke-width="2" fill="#fff"/><path d="M1172 332h24v25.33h-24z" stroke="#000" stroke-width="2" fill="#fcc438"/><path d="M1172 306.67h24V332h-24zM1172 281.33h24v25.34h-24zM1172 256h24v25.33h-24zM1172 230.67h24V256h-24z" stroke="#000" stroke-width="2" fill="#fff"/><path d="M1172 205.33h24v25.34h-24z" stroke="#000" stroke-width="2" fill="#fff"/><path d="M1172 180h24v25.33h-24z" stroke="#000" stroke-width="2" fill="#b2b2b2"/><path d="M1172 534.67h24V560h-24zM1172 509.33h24v25.34h-24zM1172 484h24v25.33h-24zM1196 458.67h24V484h-24zM1196 433.33h24v25.34h-24zM1196 408h24v25.33h-24zM1196 382.67h24V408h-24z" stroke="#000" stroke-width="2" fill="#fff"/><path d="M1196 357.33h24v25.34h-24z" stroke="#000" stroke-width="2" fill="#fcc438"/><path d="M1196 332h24v25.33h-24zM1196 306.67h24V332h-24zM1196 281.33h24v25.34h-24zM1196 256h24v25.33h-24zM1196 230.67h24V256h-24z" stroke="#000" stroke-width="2" fill="#fff"/><path d="M1196 205.33h24v25.34h-24z" stroke="#000" stroke-width="2" fill="#fff"/><path d="M1196 180h24v25.33h-24z" stroke="#000" stroke-width="2" fill="#b2b2b2"/><path d="M1196 534.67h24V560h-24zM1196 509.33h24v25.34h-24zM1196 484h24v25.33h-24zM1220 458.67h24V484h-24zM1220 433.33h24v25.34h-24zM1220 408h24v25.33h-24z" stroke="#000" stroke-width="2" fill="#fff"/><path d="M1220 382.67h24V408h-24z" stroke="#000" stroke-width="2" fill="#fcc438"/><path d="M1220 357.33h24v25.34h-24zM1220 332h24v25.33h-24zM1220 306.67h24V332h-24zM1220 281.33h24v25.34h-24zM1220 256h24v25.33h-24zM1220 230.67h24V256h-24z" stroke="#000" stroke-width="2" fill="#fff"/><path d="M1220 205.33h24v25.34h-24z" stroke="#000" stroke-width="2" fill="#fff"/><path d="M1220 180h24v25.33h-24z" stroke="#000" stroke-width="2" fill="#b2b2b2"/><path d="M1220 534.67h24V560h-24zM1220 509.33h24v25.34h-24zM1220 484h24v25.33h-24zM1244 458.67h24V484h-24zM1244 433.33h24v25.34h-24z" stroke="#000" stroke-width="2" fill="#fff"/><path d="M1244 408h24v25.33h-24z" stroke="#000" stroke-width="2" fill="#fcc438"/><path d="M1244 382.67h24V408h-24zM1244 357.33h24v25.34h-24zM1244 332h24v25.33h-24zM1244 306.67h24V332h-24zM1244 281.33h24v25.34h-24zM1244 256h24v25.33h-24zM1244 230.67h24V256h-24z" stroke="#000" stroke-width="2" fill="#fff"/><path d="M1244 205.33h24v25.34h-24z" stroke="#000" stroke-width="2" fill="#fff"/><path d="M1244 180h24v25.33h-24z" stroke="#000" stroke-width="2" fill="#b2b2b2"/><path d="M1244 534.67h24V560h-24zM1244 509.33h24v25.34h-24zM1244 484h24v25.33h-24zM1268 458.67h24V484h-24z" stroke="#000" stroke-width="2" fill="#fff"/><path d="M1268 433.33h24v25.34h-24z" stroke="#000" stroke-width="2" fill="#fcc438"/><path d="M1268 408h24v25.33h-24zM1268 382.67h24V408h-24zM1268 357.33h24v25.34h-24zM1268 332h24v25.33h-24zM1268 306.67h24V332h-24zM1268 281.33h24v25.34h-24zM1268 256h24v25.33h-24zM1268 230.67h24V256h-24z" stroke="#000" stroke-width="2" fill="#fff"/><path d="M1268 205.33h24v25.34h-24z" stroke="#000" stroke-width="2" fill="#fff"/><path d="M1268 180h24v25.33h-24z" stroke="#000" stroke-width="2" fill="#b2b2b2"/><path d="M1268 534.67h24V560h-24zM1268 509.33h24v25.34h-24zM1268 484h24v25.33h-24z" stroke="#000" stroke-width="2" fill="#fff"/><path d="M1292 458.67h24V484h-24z" stroke="#000" stroke-width="2" fill="#fcc438"/><path d="M1292 433.33h24v25.34h-24zM1292 408h24v25.33h-24zM1292 382.67h24V408h-24zM1292 357.33h24v25.34h-24zM1292 332h24v25.33h-24zM1292 306.67h24V332h-24zM1292 281.33h24v25.34h-24zM1292 256h24v25.33h-24zM1292 230.67h24V256h-24z" stroke="#000" stroke-width="2" fill="#fff"/><path d="M1292 205.33h24v25.34h-24z" stroke="#000" stroke-width="2" fill="#fff"/><path d="M1292 180h24v25.33h-24z" stroke="#000" stroke-width="2" fill="#b2b2b2"/><path d="M1292 534.67h24V560h-24zM1292 509.33h24v25.34h-24zM1292 484h24v25.33h-24zM1316 458.67h24V484h-24zM1316 433.33h24v25.34h-24zM1316 408h24v25.33h-24zM1316 382.67h24V408h-24zM1316 357.33h24v25.34h-24zM1316 332h24v25.33h-24zM1316 306.67h24V332h-24zM1316 281.33h24v25.34h-24zM1316 256h24v25.33h-24zM1316 230.67h24V256h-24z" stroke="#000" stroke-width="2" fill="#fff"/><path d="M1316 205.33h24v25.34h-24z" stroke="#000" stroke-width="2" fill="#fff"/><path d="M1316 180h24v25.33h-24z" stroke="#000" stroke-width="2" fill="#b2b2b2"/><path d="M1316 534.67h24V560h-24zM1316 509.33h24v25.34h-24z" stroke="#000" stroke-width="2" fill="#fff"/><path d="M1316 484h24v25.33h-24z" stroke="#000" stroke-width="2" fill="#fcc438"/><path d="M1340 458.67h24V484h-24zM1340 433.33h24v25.34h-24zM1340 408h24v25.33h-24zM1340 382.67h24V408h-24zM1340 357.33h24v25.34h-24zM1340 332h24v25.33h-24zM1340 306.67h24V332h-24zM1340 281.33h24v25.34h-24zM1340 256h24v25.33h-24zM1340 230.67h24V256h-24z" stroke="#000" stroke-width="2" fill="#fff"/><path d="M1340 205.33h24v25.34h-24z" stroke="#000" stroke-width="2" fill="#fff"/><path d="M1340 180h24v25.33h-24z" stroke="#000" stroke-width="2" fill="#b2b2b2"/><path d="M1340 534.67h24V560h-24z" stroke="#000" stroke-width="2" fill="#fff"/><path d="M1340 509.33h24v25.34h-24z" stroke="#000" stroke-width="2" fill="#fcc438"/><path d="M1340 484h24v25.33h-24zM1364 458.67h24V484h-24zM1364 433.33h24v25.34h-24zM1364 408h24v25.33h-24zM1364 382.67h24V408h-24zM1364 357.33h24v25.34h-24zM1364 332h24v25.33h-24zM1364 306.67h24V332h-24zM1364 281.33h24v25.34h-24zM1364 256h24v25.33h-24zM1364 230.67h24V256h-24z" stroke="#000" stroke-width="2" fill="#fff"/><path d="M1364 205.33h24v25.34h-24z" stroke="#000" stroke-width="2" fill="#fff"/><path d="M1364 180h24v25.33h-24z" stroke="#000" stroke-width="2" fill="#b2b2b2"/><path d="M1364 534.67h24V560h-24z" stroke="#000" stroke-width="2" fill="#fcc438"/><path d="M1364 509.33h24v25.34h-24zM1364 484h24v25.33h-24z" stroke="#000" stroke-width="2" fill="#fff"/><path d="M1388 838.67h24V864h-24z" stroke="#000" stroke-width="2" fill="#b2b2b2"/><path d="M1388 813.33h24v25.34h-24zM1388 788h24v25.33h-24zM1388 762.67h24V788h-24z" stroke="#000" stroke-width="2" fill="#b2b2b2"/><path d="M1388 737.33h24v25.34h-24zM1388 712h24v25.33h-24zM1388 686.67h24V712h-24z" stroke="#000" stroke-width="2" fill="#b2b2b2"/><path d="M1388 661.33h24v25.34h-24zM1388 636h24v25.33h-24zM1388 610.67h24V636h-24z" stroke="#000" stroke-width="2" fill="#b2b2b2"/><path d="M1388 585.33h24v25.34h-24zM1388 560h24v25.33h-24zM1388 914.67h24V940h-24z" stroke="#000" stroke-width="2" fill="#b2b2b2"/><path d="M1388 889.33h24v25.34h-24zM1388 864h24v25.33h-24z" stroke="#000" stroke-width="2" fill="#b2b2b2"/><path d="M1412 838.67h24V864h-24z" stroke="#000" stroke-width="2" fill="#fff"/><path d="M1412 813.33h24v25.34h-24zM1412 788h24v25.33h-24zM1412 762.67h24V788h-24z" stroke="#000" stroke-width="2" fill="#fff"/><path d="M1412 737.33h24v25.34h-24zM1412 712h24v25.33h-24zM1412 686.67h24V712h-24z" stroke="#000" stroke-width="2" fill="#fff"/><path d="M1412 661.33h24v25.34h-24zM1412 636h24v25.33h-24zM1412 610.67h24V636h-24z" stroke="#000" stroke-width="2" fill="#fff"/><path d="M1412 585.33h24v25.34h-24z" stroke="#000" stroke-width="2" fill="#fcc438"/><path d="M1412 560h24v25.33h-24z" stroke="#000" stroke-width="2" fill="#b2b2b2"/><path d="M1412 914.67h24V940h-24z" stroke="#000" stroke-width="2" fill="#fff"/><path d="M1412 889.33h24v25.34h-24zM1412 864h24v25.33h-24zM1436 838.67h24V864h-24z" stroke="#000" stroke-width="2" fill="#fff"/><path d="M1436 813.33h24v25.34h-24zM1436 788h24v25.33h-24zM1436 762.67h24V788h-24z" stroke="#000" stroke-width="2" fill="#fff"/><path d="M1436 737.33h24v25.34h-24zM1436 712h24v25.33h-24zM1436 686.67h24V712h-24z" stroke="#000" stroke-width="2" fill="#fff"/><path d="M1436 661.33h24v25.34h-24zM1436 636h24v25.33h-24z" stroke="#000" stroke-width="2" fill="#fff"/><path d="M1436 610.67h24V636h-24z" stroke="#000" stroke-width="2" fill="#fcc438"/><path d="M1436 585.33h24v25.34h-24z" stroke="#000" stroke-width="2" fill="#fff"/><path d="M1436 560h24v25.33h-24z" stroke="#000" stroke-width="2" fill="#b2b2b2"/><path d="M1436 914.67h24V940h-24z" stroke="#000" stroke-width="2" fill="#fff"/><path d="M1436 889.33h24v25.34h-24zM1436 864h24v25.33h-24zM1460 838.67h24V864h-24z" stroke="#000" stroke-width="2" fill="#fff"/><path d="M1460 813.33h24v25.34h-24zM1460 788h24v25.33h-24zM1460 762.67h24V788h-24z" stroke="#000" stroke-width="2" fill="#fff"/><path d="M1460 737.33h24v25.34h-24zM1460 712h24v25.33h-24zM1460 686.67h24V712h-24z" stroke="#000" stroke-width="2" fill="#fff"/><path d="M1460 661.33h24v25.34h-24z" stroke="#000" stroke-width="2" fill="#fff"/><path d="M1460 636h24v25.33h-24z" stroke="#000" stroke-width="2" fill="#fcc438"/><path d="M1460 610.67h24V636h-24z" stroke="#000" stroke-width="2" fill="#fff"/><path d="M1460 585.33h24v25.34h-24z" stroke="#000" stroke-width="2" fill="#fff"/><path d="M1460 560h24v25.33h-24z" stroke="#000" stroke-width="2" fill="#b2b2b2"/><path d="M1460 914.67h24V940h-24z" stroke="#000" stroke-width="2" fill="#fff"/><path d="M1460 889.33h24v25.34h-24zM1460 864h24v25.33h-24zM1484 838.67h24V864h-24z" stroke="#000" stroke-width="2" fill="#fff"/><path d="M1484 813.33h24v25.34h-24zM1484 788h24v25.33h-24zM1484 762.67h24V788h-24z" stroke="#000" stroke-width="2" fill="#fff"/><path d="M1484 737.33h24v25.34h-24zM1484 712h24v25.33h-24zM1484 686.67h24V712h-24z" stroke="#000" stroke-width="2" fill="#fff"/><path d="M1484 661.33h24v25.34h-24z" stroke="#000" stroke-width="2" fill="#fcc438"/><path d="M1484 636h24v25.33h-24zM1484 610.67h24V636h-24z" stroke="#000" stroke-width="2" fill="#fff"/><path d="M1484 585.33h24v25.34h-24z" stroke="#000" stroke-width="2" fill="#fff"/><path d="M1484 560h24v25.33h-24z" stroke="#000" stroke-width="2" fill="#b2b2b2"/><path d="M1484 914.67h24V940h-24z" stroke="#000" stroke-width="2" fill="#fff"/><path d="M1484 889.33h24v25.34h-24zM1484 864h24v25.33h-24zM1508 838.67h24V864h-24z" stroke="#000" stroke-width="2" fill="#fff"/><path d="M1508 813.33h24v25.34h-24zM1508 788h24v25.33h-24zM1508 762.67h24V788h-24z" stroke="#000" stroke-width="2" fill="#fff"/><path d="M1508 737.33h24v25.34h-24zM1508 712h24v25.33h-24z" stroke="#000" stroke-width="2" fill="#fff"/><path d="M1508 686.67h24V712h-24z" stroke="#000" stroke-width="2" fill="#fcc438"/><path d="M1508 661.33h24v25.34h-24zM1508 636h24v25.33h-24zM1508 610.67h24V636h-24z" stroke="#000" stroke-width="2" fill="#fff"/><path d="M1508 585.33h24v25.34h-24z" stroke="#000" stroke-width="2" fill="#fff"/><path d="M1508 560h24v25.33h-24z" stroke="#000" stroke-width="2" fill="#b2b2b2"/><path d="M1508 914.67h24V940h-24z" stroke="#000" stroke-width="2" fill="#fff"/><path d="M1508 889.33h24v25.34h-24zM1508 864h24v25.33h-24zM1532 838.67h24V864h-24z" stroke="#000" stroke-width="2" fill="#fff"/><path d="M1532 813.33h24v25.34h-24zM1532 788h24v25.33h-24zM1532 762.67h24V788h-24z" stroke="#000" stroke-width="2" fill="#fff"/><path d="M1532 737.33h24v25.34h-24z" stroke="#000" stroke-width="2" fill="#fff"/><path d="M1532 712h24v25.33h-24z" stroke="#000" stroke-width="2" fill="#fcc438"/><path d="M1532 686.67h24V712h-24z" stroke="#000" stroke-width="2" fill="#fff"/><path d="M1532 661.33h24v25.34h-24zM1532 636h24v25.33h-24zM1532 610.67h24V636h-24z" stroke="#000" stroke-width="2" fill="#fff"/><path d="M1532 585.33h24v25.34h-24z" stroke="#000" stroke-width="2" fill="#fff"/><path d="M1532 560h24v25.33h-24z" stroke="#000" stroke-width="2" fill="#b2b2b2"/><path d="M1532 914.67h24V940h-24z" stroke="#000" stroke-width="2" fill="#fff"/><path d="M1532 889.33h24v25.34h-24zM1532 864h24v25.33h-24zM1556 838.67h24V864h-24z" stroke="#000" stroke-width="2" fill="#fff"/><path d="M1556 813.33h24v25.34h-24zM1556 788h24v25.33h-24zM1556 762.67h24V788h-24z" stroke="#000" stroke-width="2" fill="#fff"/><path d="M1556 737.33h24v25.34h-24z" stroke="#000" stroke-width="2" fill="#fcc438"/><path d="M1556 712h24v25.33h-24zM1556 686.67h24V712h-24z" stroke="#000" stroke-width="2" fill="#fff"/><path d="M1556 661.33h24v25.34h-24zM1556 636h24v25.33h-24zM1556 610.67h24V636h-24z" stroke="#000" stroke-width="2" fill="#fff"/><path d="M1556 585.33h24v25.34h-24z" stroke="#000" stroke-width="2" fill="#fff"/><path d="M1556 560h24v25.33h-24z" stroke="#000" stroke-width="2" fill="#b2b2b2"/><path d="M1556 914.67h24V940h-24z" stroke="#000" stroke-width="2" fill="#fff"/><path d="M1556 889.33h24v25.34h-24zM1556 864h24v25.33h-24zM1580 838.67h24V864h-24z" stroke="#000" stroke-width="2" fill="#fff"/><path d="M1580 813.33h24v25.34h-24zM1580 788h24v25.33h-24z" stroke="#000" stroke-width="2" fill="#fff"/><path d="M1580 762.67h24V788h-24z" stroke="#000" stroke-width="2" fill="#fcc438"/><path d="M1580 737.33h24v25.34h-24zM1580 712h24v25.33h-24zM1580 686.67h24V712h-24z" stroke="#000" stroke-width="2" fill="#fff"/><path d="M1580 661.33h24v25.34h-24zM1580 636h24v25.33h-24zM1580 610.67h24V636h-24z" stroke="#000" stroke-width="2" fill="#fff"/><path d="M1580 585.33h24v25.34h-24z" stroke="#000" stroke-width="2" fill="#fff"/><path d="M1580 560h24v25.33h-24z" stroke="#000" stroke-width="2" fill="#b2b2b2"/><path d="M1580 914.67h24V940h-24z" stroke="#000" stroke-width="2" fill="#fff"/><path d="M1580 889.33h24v25.34h-24zM1580 864h24v25.33h-24zM1604 838.67h24V864h-24z" stroke="#000" stroke-width="2" fill="#fff"/><path d="M1604 813.33h24v25.34h-24z" stroke="#000" stroke-width="2" fill="#fff"/><path d="M1604 788h24v25.33h-24z" stroke="#000" stroke-width="2" fill="#fcc438"/><path d="M1604 762.67h24V788h-24z" stroke="#000" stroke-width="2" fill="#fff"/><path d="M1604 737.33h24v25.34h-24zM1604 712h24v25.33h-24zM1604 686.67h24V712h-24z" stroke="#000" stroke-width="2" fill="#fff"/><path d="M1604 661.33h24v25.34h-24zM1604 636h24v25.33h-24zM1604 610.67h24V636h-24z" stroke="#000" stroke-width="2" fill="#fff"/><path d="M1604 585.33h24v25.34h-24z" stroke="#000" stroke-width="2" fill="#fff"/><path d="M1604 560h24v25.33h-24z" stroke="#000" stroke-width="2" fill="#b2b2b2"/><path d="M1604 914.67h24V940h-24z" stroke="#000" stroke-width="2" fill="#fff"/><path d="M1604 889.33h24v25.34h-24zM1604 864h24v25.33h-24zM1628 838.67h24V864h-24z" stroke="#000" stroke-width="2" fill="#fff"/><path d="M1628 813.33h24v25.34h-24z" stroke="#000" stroke-width="2" fill="#fcc438"/><path d="M1628 788h24v25.33h-24zM1628 762.67h24V788h-24z" stroke="#000" stroke-width="2" fill="#fff"/><path d="M1628 737.33h24v25.34h-24zM1628 712h24v25.33h-24zM1628 686.67h24V712h-24z" stroke="#000" stroke-width="2" fill="#fff"/><path d="M1628 661.33h24v25.34h-24zM1628 636h24v25.33h-24zM1628 610.67h24V636h-24z" stroke="#000" stroke-width="2" fill="#fff"/><path d="M1628 585.33h24v25.34h-24z" stroke="#000" stroke-width="2" fill="#fff"/><path d="M1628 560h24v25.33h-24z" stroke="#000" stroke-width="2" fill="#b2b2b2"/><path d="M1628 914.67h24V940h-24z" stroke="#000" stroke-width="2" fill="#fff"/><path d="M1628 889.33h24v25.34h-24zM1628 864h24v25.33h-24z" stroke="#000" stroke-width="2" fill="#fff"/><path d="M1652 838.67h24V864h-24z" stroke="#000" stroke-width="2" fill="#fcc438"/><path d="M1652 813.33h24v25.34h-24zM1652 788h24v25.33h-24zM1652 762.67h24V788h-24z" stroke="#000" stroke-width="2" fill="#fff"/><path d="M1652 737.33h24v25.34h-24zM1652 712h24v25.33h-24zM1652 686.67h24V712h-24z" stroke="#000" stroke-width="2" fill="#fff"/><path d="M1652 661.33h24v25.34h-24zM1652 636h24v25.33h-24zM1652 610.67h24V636h-24z" stroke="#000" stroke-width="2" fill="#fff"/><path d="M1652 585.33h24v25.34h-24z" stroke="#000" stroke-width="2" fill="#fff"/><path d="M1652 560h24v25.33h-24z" stroke="#000" stroke-width="2" fill="#b2b2b2"/><path d="M1652 914.67h24V940h-24z" stroke="#000" stroke-width="2" fill="#fff"/><path d="M1652 889.33h24v25.34h-24zM1652 864h24v25.33h-24zM1676 838.67h24V864h-24z" stroke="#000" stroke-width="2" fill="#fff"/><path d="M1676 813.33h24v25.34h-24zM1676 788h24v25.33h-24zM1676 762.67h24V788h-24z" stroke="#000" stroke-width="2" fill="#fff"/><path d="M1676 737.33h24v25.34h-24zM1676 712h24v25.33h-24zM1676 686.67h24V712h-24z" stroke="#000" stroke-width="2" fill="#fff"/><path d="M1676 661.33h24v25.34h-24zM1676 636h24v25.33h-24zM1676 610.67h24V636h-24z" stroke="#000" stroke-width="2" fill="#fff"/><path d="M1676 585.33h24v25.34h-24z" stroke="#000" stroke-width="2" fill="#fff"/><path d="M1676 560h24v25.33h-24z" stroke="#000" stroke-width="2" fill="#b2b2b2"/><path d="M1676 914.67h24V940h-24z" stroke="#000" stroke-width="2" fill="#fff"/><path d="M1676 889.33h24v25.34h-24z" stroke="#000" stroke-width="2" fill="#fff"/><path d="M1676 864h24v25.33h-24z" stroke="#000" stroke-width="2" fill="#fcc438"/><path d="M1700 838.67h24V864h-24z" stroke="#000" stroke-width="2" fill="#fff"/><path d="M1700 813.33h24v25.34h-24zM1700 788h24v25.33h-24zM1700 762.67h24V788h-24z" stroke="#000" stroke-width="2" fill="#fff"/><path d="M1700 737.33h24v25.34h-24zM1700 712h24v25.33h-24zM1700 686.67h24V712h-24z" stroke="#000" stroke-width="2" fill="#fff"/><path d="M1700 661.33h24v25.34h-24zM1700 636h24v25.33h-24zM1700 610.67h24V636h-24z" stroke="#000" stroke-width="2" fill="#fff"/><path d="M1700 585.33h24v25.34h-24z" stroke="#000" stroke-width="2" fill="#fff"/><path d="M1700 560h24v25.33h-24z" stroke="#000" stroke-width="2" fill="#b2b2b2"/><path d="M1700 914.67h24V940h-24z" stroke="#000" stroke-width="2" fill="#fff"/><path d="M1700 889.33h24v25.34h-24z" stroke="#000" stroke-width="2" fill="#fcc438"/><path d="M1700 864h24v25.33h-24zM1724 838.67h24V864h-24z" stroke="#000" stroke-width="2" fill="#fff"/><path d="M1724 813.33h24v25.34h-24zM1724 788h24v25.33h-24zM1724 762.67h24V788h-24z" stroke="#000" stroke-width="2" fill="#fff"/><path d="M1724 737.33h24v25.34h-24zM1724 712h24v25.33h-24zM1724 686.67h24V712h-24z" stroke="#000" stroke-width="2" fill="#fff"/><path d="M1724 661.33h24v25.34h-24zM1724 636h24v25.33h-24zM1724 610.67h24V636h-24z" stroke="#000" stroke-width="2" fill="#fff"/><path d="M1724 585.33h24v25.34h-24z" stroke="#000" stroke-width="2" fill="#fff"/><path d="M1724 560h24v25.33h-24z" stroke="#000" stroke-width="2" fill="#b2b2b2"/><path d="M1724 914.67h24V940h-24z" stroke="#000" stroke-width="2" fill="#fcc438"/><path d="M1724 889.33h24v25.34h-24zM1724 864h24v25.33h-24z" stroke="#000" stroke-width="2" fill="#fff"/><path d="M1284 66.15h200v100h-200z" stroke="#000" stroke-opacity="0" stroke-width="2" fill="#fff" fill-opacity="0"/><use xlink:href="#f" transform="matrix(1,0,0,1,1289,71.15333333333339) translate(14.780000000000001 59.940000000000005)"/><use xlink:href="#h" transform="matrix(1,0,0,1,1289,71.15333333333339) translate(151.22 59.940000000000005)"/><path d="M180 196.74h100V240H180z" stroke="#000" stroke-opacity="0" stroke-width="2" fill="#fff" fill-opacity="0"/><g><use xlink:href="#i" transform="matrix(1,0,0,1,185,201.74333333333334) translate(6.3444444444444414 25.05)"/><use xlink:href="#j" transform="matrix(1,0,0,1,185,201.74333333333334) translate(70.32222222222222 25.05)"/></g><path d="M180 516.5h108v61.66H180z" stroke="#000" stroke-opacity="0" stroke-width="2" fill="#fff" fill-opacity="0"/><g><use xlink:href="#i" transform="matrix(1,0,0,1,185,521.5111111111111) translate(3.677777777777777 33.8)"/><use xlink:href="#k" transform="matrix(1,0,0,1,185,521.5111111111111) translate(67.65555555555557 33.8)"/></g><defs><path d="M600 0c-32 5-76 6-108 0l-50-166H169L120 0C88 5 47 5 16 0l234-719c35-5 81-5 117 0zM196-255h219L305-622" id="l"/><path d="M314 12C150 12 74-61 74-228v-285c30-5 69-5 99 0v281c-2 106 35 161 140 161 34 0 63-4 87-11v-431c30-5 68-5 98 0v497C449-3 379 12 314 12" id="m"/><path d="M52-247c-2-202 150-315 357-263v-223c30-5 68-5 98 0v719C452 1 390 13 317 12 147 10 53-74 52-247zm105 0C150-94 269-47 409-80v-346c-26-11-56-16-93-16-113 0-154 81-159 195" id="n"/><path d="M207 0c-30 5-67 5-97 0v-435H45c-5-22-5-56 0-78h162V0zm-12-626c-33 5-74 5-107 0-4-31-4-71 0-101 33-5 74-5 107 0 4 31 4 70 0 101" id="o"/><path d="M527-256c0 162-77 268-239 268S49-94 49-256c0-163 77-269 239-269s239 106 239 269zm-373 0c0 107 33 189 134 189s135-82 135-189-34-188-135-188-134 81-134 188" id="p"/><g id="a"><use transform="matrix(0.04,0,0,0.04,0,0)" xlink:href="#l"/><use transform="matrix(0.04,0,0,0.04,24.68,0)" xlink:href="#m"/><use transform="matrix(0.04,0,0,0.04,47.64,0)" xlink:href="#n"/><use transform="matrix(0.04,0,0,0.04,71.08,0)" xlink:href="#o"/><use transform="matrix(0.04,0,0,0.04,82.60000000000001,0)" xlink:href="#p"/></g><path d="M184 0c-29 5-68 5-96 0v-719c28-5 66-5 94 0l313 540v-540c29-5 68-6 97 0V0c-28 5-66 5-94 0L184-537V0" id="q"/><g id="b"><use transform="matrix(0.022222222222222223,0,0,0.022222222222222223,0,0)" xlink:href="#q"/><use transform="matrix(0.022222222222222223,0,0,0.022222222222222223,15.111111111111112,0)" xlink:href="#p"/></g><path d="M147-154c0 102 122 93 204 76v-163c-92-14-204-10-204 87zm-99 2c0-149 148-187 303-167 6-90-33-124-117-124-48 0-87 9-125 20-13-22-19-48-19-79 41-14 101-23 154-23 133 1 204 57 204 191v321C399-2 324 13 261 12 136 11 48-29 48-152" id="r"/><g id="c"><use transform="matrix(0.022222222222222223,0,0,0.022222222222222223,0,0)" xlink:href="#r"/><use transform="matrix(0.022222222222222223,0,0,0.022222222222222223,11.488888888888889,0)" xlink:href="#m"/><use transform="matrix(0.022222222222222223,0,0,0.022222222222222223,24.244444444444447,0)" xlink:href="#n"/><use transform="matrix(0.022222222222222223,0,0,0.022222222222222223,37.266666666666666,0)" xlink:href="#o"/><use transform="matrix(0.022222222222222223,0,0,0.022222222222222223,43.666666666666664,0)" xlink:href="#p"/></g><path d="M22-719c34-6 79-5 113 0l182 615 181-615c35-4 75-5 109 0L373 0c-36 5-82 5-118 0" id="s"/><path d="M291-525c162 0 229 122 212 293H154c2 110 56 161 166 162 47 0 92-8 135-25 10 19 18 51 19 79-45 19-96 28-160 28C139 11 49-81 49-253c0-164 78-272 242-272zm117 219c-3-82-37-140-120-140-87 0-124 58-133 140h253" id="t"/><g id="d"><use transform="matrix(0.04,0,0,0.04,0,0)" xlink:href="#s"/><use transform="matrix(0.04,0,0,0.04,25.16,0)" xlink:href="#o"/><use transform="matrix(0.04,0,0,0.04,36.68,0)" xlink:href="#n"/><use transform="matrix(0.04,0,0,0.04,60.120000000000005,0)" xlink:href="#t"/><use transform="matrix(0.04,0,0,0.04,82.36000000000001,0)" xlink:href="#p"/></g><path d="M17-513c34-5 77-6 111 0L268-90l141-423c32-6 73-5 105 0L314 0c-31 5-68 5-98 0" id="u"/><g id="e"><use transform="matrix(0.022222222222222223,0,0,0.022222222222222223,0,0)" xlink:href="#u"/><use transform="matrix(0.022222222222222223,0,0,0.022222222222222223,11.8,0)" xlink:href="#o"/><use transform="matrix(0.022222222222222223,0,0,0.022222222222222223,18.200000000000003,0)" xlink:href="#n"/><use transform="matrix(0.022222222222222223,0,0,0.022222222222222223,31.222222222222225,0)" xlink:href="#t"/><use transform="matrix(0.022222222222222223,0,0,0.022222222222222223,43.57777777777778,0)" xlink:href="#p"/></g><path d="M192 0c-32 3-70 5-102 0v-720c206-30 438-9 432 209-3 114-75 169-153 208L578 0c-34 4-79 4-115 0L233-333v-4c87-24 175-59 180-166 5-119-100-157-221-138V0" id="v"/><path d="M178 236c-30 5-69 5-99 0v-749c25-5 59-5 84 0 4 20 7 50 10 72 31-48 78-84 156-84 148 0 204 103 208 256C543-65 386 49 178 1v235zm129-675c-84 2-129 58-129 147v208c29 10 50 13 91 13 114 0 164-77 164-194 0-98-30-177-126-174" id="w"/><path d="M252 8C153 7 99-38 99-143v-291H21l-4-14 172-192h8v127h130c6 23 5 56 0 79H197v234c1 73 0 128 75 128 22 0 42-4 59-8 9 22 10 51 10 78-27 7-56 10-89 10" id="x"/><g id="f"><use transform="matrix(0.04,0,0,0.04,0,0)" xlink:href="#v"/><use transform="matrix(0.04,0,0,0.04,23.88,0)" xlink:href="#t"/><use transform="matrix(0.04,0,0,0.04,46.12,0)" xlink:href="#w"/><use transform="matrix(0.04,0,0,0.04,69.72,0)" xlink:href="#t"/><use transform="matrix(0.04,0,0,0.04,91.96000000000001,0)" xlink:href="#r"/><use transform="matrix(0.04,0,0,0.04,112.64000000000001,0)" xlink:href="#x"/></g><path d="M137-449c-19-23-27-43-38-74l266-127h15v565h143c4 31 4 55 0 85H132c-5-26-5-59 0-85h150v-430" id="y"/><use transform="matrix(0.04,0,0,0.04,0,0)" xlink:href="#y" id="g"/><path d="M508-88c5 26 5 62 0 88H63l-6-13c94-114 198-220 283-341 20-29 35-59 36-103 0-75-53-109-131-109-64 0-101 18-145 36-9-25-22-53-25-84 50-20 104-42 177-41 135 3 229 53 229 188 0 125-69 187-142 270L243-88h265" id="z"/><use transform="matrix(0.04,0,0,0.04,0,0)" xlink:href="#z" id="h"/><g id="i"><use transform="matrix(0.022222222222222223,0,0,0.022222222222222223,0,0)" xlink:href="#l"/><use transform="matrix(0.022222222222222223,0,0,0.022222222222222223,13.711111111111112,0)" xlink:href="#m"/><use transform="matrix(0.022222222222222223,0,0,0.022222222222222223,26.46666666666667,0)" xlink:href="#n"/><use transform="matrix(0.022222222222222223,0,0,0.022222222222222223,39.488888888888894,0)" xlink:href="#o"/><use transform="matrix(0.022222222222222223,0,0,0.022222222222222223,45.88888888888889,0)" xlink:href="#p"/></g><use transform="matrix(0.022222222222222223,0,0,0.022222222222222223,0,0)" xlink:href="#y" id="j"/><path d="M479 59c-30 4-67 4-97 0V-78H41l-8-11 293-574c33 4 63 17 87 33L180-166h202v-190c30-5 67-5 97 0v190h92c5 27 5 61 0 88h-92V59" id="A"/><g id="k"><use transform="matrix(0.022222222222222223,0,0,0.022222222222222223,0,0)" xlink:href="#y"/><use transform="matrix(0.022222222222222223,0,0,0.022222222222222223,13.333333333333334,0)" xlink:href="#A"/></g></defs></g></svg>